<svg width="693" height="364" viewBox="0 0 693 364" fill="none" xmlns="http://www.w3.org/2000/svg">
<rect width="693" height="364" fill="#E5E5E5"/>
<g clip-path="url(#clip0)">
<rect x="-563" y="-14939" width="1920" height="20379" fill="white"/>
<line x1="62.2548" y1="93" x2="62.2548" y2="280.488" stroke="#8F95AB" stroke-width="0.779167"/>
<line x1="124.893" y1="93" x2="124.893" y2="280.488" stroke="#8F95AB" stroke-width="0.779167"/>
<path d="M93.7031 93L93.7031 280.488" stroke="#8F95AB" stroke-width="0.779167"/>
<line x1="-1.69849e-08" y1="217.115" x2="187" y2="217.115" stroke="#8F95AB" stroke-width="0.779167"/>
<line x1="-1.69849e-08" y1="155.595" x2="187" y2="155.595" stroke="#8F95AB" stroke-width="0.779167"/>
<line x1="-1.69849e-08" y1="186.356" x2="187" y2="186.356" stroke="#8F95AB" stroke-width="0.779167"/>
<path d="M0.623697 93.6246L186.501 279.436" stroke="#8F95AB" stroke-width="0.779167"/>
<path d="M0.730667 279.879L186.336 93.6651" stroke="#8F95AB" stroke-width="0.779167"/>
<mask id="path-11-inside-1" fill="white">
<path d="M109.083 186.501C109.083 195.108 102.106 202.085 93.4993 202.085C84.8929 202.085 77.916 195.108 77.916 186.501C77.916 177.895 84.8929 170.918 93.4993 170.918C102.106 170.918 109.083 177.895 109.083 186.501Z"/>
</mask>
<path d="M109.083 186.501C109.083 195.108 102.106 202.085 93.4993 202.085C84.8929 202.085 77.916 195.108 77.916 186.501C77.916 177.895 84.8929 170.918 93.4993 170.918C102.106 170.918 109.083 177.895 109.083 186.501Z" stroke="#8F95AB" stroke-width="1.55833" mask="url(#path-11-inside-1)"/>
<mask id="path-12-inside-2" fill="white">
<path d="M132.6 186.643C132.6 208.159 115.158 225.601 93.6419 225.601C72.1258 225.601 54.6836 208.159 54.6836 186.643C54.6836 165.127 72.1258 147.685 93.6419 147.685C115.158 147.685 132.6 165.127 132.6 186.643Z"/>
</mask>
<path d="M132.6 186.643C132.6 208.159 115.158 225.601 93.6419 225.601C72.1258 225.601 54.6836 208.159 54.6836 186.643C54.6836 165.127 72.1258 147.685 93.6419 147.685C115.158 147.685 132.6 165.127 132.6 186.643Z" stroke="#8F95AB" stroke-width="1.55833" mask="url(#path-12-inside-2)"/>
<mask id="path-13-inside-3" fill="white">
<path d="M171.375 186.988C171.375 229.998 136.509 264.864 93.499 264.864C50.4893 264.864 15.623 229.998 15.623 186.988C15.623 143.979 50.4893 109.112 93.499 109.112C136.509 109.112 171.375 143.979 171.375 186.988Z"/>
</mask>
<path d="M171.375 186.988C171.375 229.998 136.509 264.864 93.499 264.864C50.4893 264.864 15.623 229.998 15.623 186.988C15.623 143.979 50.4893 109.112 93.499 109.112C136.509 109.112 171.375 143.979 171.375 186.988Z" stroke="#8F95AB" stroke-width="1.55833" mask="url(#path-13-inside-3)"/>
<mask id="path-14-inside-4" fill="white">
<path d="M31.248 123.272C31.248 115.182 37.806 108.624 45.8956 108.624H141.267C149.357 108.624 155.915 115.182 155.915 123.272V249.81C155.915 257.899 149.357 264.457 141.267 264.457H45.8955C37.8059 264.457 31.248 257.899 31.248 249.81V123.272Z"/>
</mask>
<path d="M31.248 123.272C31.248 115.182 37.806 108.624 45.8956 108.624H141.267C149.357 108.624 155.915 115.182 155.915 123.272V249.81C155.915 257.899 149.357 264.457 141.267 264.457H45.8955C37.8059 264.457 31.248 257.899 31.248 249.81V123.272Z" stroke="#8F95AB" stroke-width="1.55833" mask="url(#path-14-inside-4)"/>
<mask id="path-15-inside-5" fill="white">
<path d="M15.623 138.897C15.623 130.807 22.181 124.249 30.2706 124.249H156.809C164.898 124.249 171.456 130.807 171.456 138.897V234.268C171.456 242.358 164.898 248.916 156.809 248.916H30.2705C22.1809 248.916 15.623 242.358 15.623 234.268V138.897Z"/>
</mask>
<path d="M15.623 138.897C15.623 130.807 22.181 124.249 30.2706 124.249H156.809C164.898 124.249 171.456 130.807 171.456 138.897V234.268C171.456 242.358 164.898 248.916 156.809 248.916H30.2705C22.1809 248.916 15.623 242.358 15.623 234.268V138.897Z" stroke="#8F95AB" stroke-width="1.55833" mask="url(#path-15-inside-5)"/>
<mask id="path-16-inside-6" fill="white">
<path d="M23.374 131.084C23.374 122.994 29.9319 116.437 38.0215 116.437H148.976C157.066 116.437 163.624 122.994 163.624 131.084V242.039C163.624 250.129 157.066 256.687 148.977 256.687H38.0215C29.9319 256.687 23.374 250.129 23.374 242.039V131.084Z"/>
</mask>
<path d="M23.374 131.084C23.374 122.994 29.9319 116.437 38.0215 116.437H148.976C157.066 116.437 163.624 122.994 163.624 131.084V242.039C163.624 250.129 157.066 256.687 148.977 256.687H38.0215C29.9319 256.687 23.374 250.129 23.374 242.039V131.084Z" stroke="#8F95AB" stroke-width="1.55833" mask="url(#path-16-inside-6)"/>
<rect x="0.389583" y="93.3896" width="186.221" height="186.709" stroke="#8F95AB" stroke-width="0.779167"/>
<circle cx="93.4997" cy="186.501" r="70.125" fill="white" fill-opacity="0.15" stroke="#415268" stroke-width="15.5833"/>
<rect width="15.5833" height="62.3333" transform="matrix(-0.707107 -0.707107 -0.707107 0.707107 134.275 166.979)" fill="#415268"/>
<rect width="15.5833" height="46.75" transform="matrix(0.707107 -0.707107 -0.707107 -0.707107 79.8057 221.448)" fill="#415268"/>
<path d="M672.132 264.454L679.107 271.424" stroke="#415268" stroke-width="2.13736"/>
<path d="M665.006 252.157L664.25 251.402L663.494 252.157L664.25 252.913L665.006 252.157ZM671.483 258.63L670.728 259.385L671.483 260.14L672.239 259.385L671.483 258.63ZM672.671 257.443L673.427 258.199L672.671 257.443ZM674.183 257.443L674.939 256.688L674.183 257.443ZM675.262 258.521L674.506 259.277L675.262 258.521ZM675.262 260.032L674.506 259.277L675.262 260.032ZM667.705 267.582L668.461 268.337L667.705 267.582ZM665.115 264.993L664.359 264.238L665.115 264.993ZM666.302 263.807L667.058 264.562L667.814 263.807L667.058 263.052L666.302 263.807ZM659.824 257.335L660.58 256.579L659.824 255.824L659.068 256.579L659.824 257.335ZM658.637 258.521L659.393 259.276L658.637 258.521ZM657.125 258.521L656.369 259.276L657.125 258.521ZM656.046 257.443L656.802 256.687L656.046 257.443ZM665.87 247.627C665.035 246.793 663.681 246.793 662.846 247.627L664.358 249.138L665.87 247.627ZM666.949 248.705L665.87 247.627L664.358 249.138L665.437 250.216L666.949 248.705ZM666.949 251.726C667.784 250.892 667.784 249.539 666.949 248.705L665.437 250.216L665.437 250.216L666.949 251.726ZM665.762 252.913L666.949 251.726L665.437 250.216L664.25 251.402L665.762 252.913ZM664.25 252.913L670.728 259.385L672.239 257.874L665.762 251.402L664.25 252.913ZM671.915 256.688L670.728 257.874L672.239 259.385L673.427 258.199L671.915 256.688ZM674.939 256.688C674.104 255.854 672.75 255.854 671.915 256.688L673.427 258.199L673.427 258.199L674.939 256.688ZM676.018 257.766L674.939 256.688L673.427 258.199L674.506 259.277L676.018 257.766ZM676.018 260.787C676.853 259.953 676.853 258.6 676.018 257.766L674.506 259.277L674.506 259.277L676.018 260.787ZM668.461 268.337L676.018 260.787L674.506 259.277L666.949 266.826L668.461 268.337ZM665.437 268.337C666.273 269.171 667.626 269.171 668.461 268.337L666.949 266.826L665.437 268.337ZM664.359 267.259L665.437 268.337L666.949 266.826L665.871 265.748L664.359 267.259ZM664.359 264.238C663.524 265.072 663.524 266.425 664.359 267.259L665.871 265.748L665.871 265.748L664.359 264.238ZM665.546 263.052L664.359 264.238L665.871 265.748L667.058 264.562L665.546 263.052ZM667.058 263.052L660.58 256.579L659.068 258.09L665.546 264.562L667.058 263.052ZM659.393 259.276L660.58 258.09L659.068 256.579L657.881 257.765L659.393 259.276ZM656.369 259.276C657.204 260.11 658.558 260.11 659.393 259.276L657.881 257.765L656.369 259.276ZM655.29 258.198L656.369 259.276L657.881 257.765L656.802 256.687L655.29 258.198ZM655.29 255.177C654.455 256.011 654.455 257.364 655.29 258.198L656.802 256.687L656.802 256.687L655.29 255.177ZM662.846 247.627L655.29 255.177L656.802 256.687L664.358 249.138L662.846 247.627Z" fill="#415268"/>
<line x1="489.95" y1="331.292" x2="493.156" y2="331.292" stroke="#415268" stroke-width="2.13736"/>
<line x1="489.95" y1="335.566" x2="493.156" y2="335.566" stroke="#415268" stroke-width="2.13736"/>
<line x1="489.95" y1="339.84" x2="493.156" y2="339.84" stroke="#415268" stroke-width="2.13736"/>
<mask id="path-30-inside-7" fill="white">
<rect x="492.088" y="331.291" width="19.2363" height="21.3736" rx="1.06868"/>
</mask>
<rect x="492.088" y="331.291" width="19.2363" height="21.3736" rx="1.06868" stroke="#415268" stroke-width="4.27472" mask="url(#path-30-inside-7)"/>
<line x1="496.362" y1="335.081" x2="504.912" y2="335.081" stroke="#415268" stroke-width="2.13736"/>
<line x1="496.362" y1="338.966" x2="504.912" y2="338.966" stroke="#415268" stroke-width="2.13736"/>
<line x1="496.362" y1="342.852" x2="502.774" y2="342.852" stroke="#415268" stroke-width="2.13736"/>
<mask id="path-34-inside-8" fill="white">
<path d="M507.309 330.619L503.607 325.009L511.011 325.009L507.309 330.619Z"/>
</mask>
<path d="M507.309 330.619L503.607 325.009L511.011 325.009L507.309 330.619Z" fill="#415268" stroke="#415268" stroke-width="2.13736" mask="url(#path-34-inside-8)"/>
<mask id="path-35-inside-9" fill="white">
<path fill-rule="evenodd" clip-rule="evenodd" d="M505.981 325.948C505.981 324.177 504.546 322.742 502.775 322.742C501.004 322.742 499.569 324.177 499.569 325.948L497.432 325.948C497.432 322.997 499.824 320.604 502.775 320.604C505.726 320.604 508.118 322.997 508.118 325.948L505.981 325.948Z"/>
</mask>
<path fill-rule="evenodd" clip-rule="evenodd" d="M505.981 325.948C505.981 324.177 504.546 322.742 502.775 322.742C501.004 322.742 499.569 324.177 499.569 325.948L497.432 325.948C497.432 322.997 499.824 320.604 502.775 320.604C505.726 320.604 508.118 322.997 508.118 325.948L505.981 325.948Z" fill="#5A5A5A"/>
<path d="M505.981 325.948L503.844 325.948L503.844 328.085L505.981 328.085L505.981 325.948ZM499.569 325.948L499.569 328.085L501.706 328.085L501.706 325.948L499.569 325.948ZM497.432 325.948L495.294 325.948L495.294 328.085L497.432 328.085L497.432 325.948ZM508.118 325.948L508.118 328.085L510.256 328.085L510.256 325.948L508.118 325.948ZM508.118 325.948C508.118 322.997 505.726 320.604 502.775 320.604L502.775 324.879C503.365 324.879 503.844 325.358 503.844 325.948L508.118 325.948ZM502.775 320.604C499.824 320.604 497.432 322.997 497.432 325.948L501.706 325.948C501.706 325.358 502.185 324.879 502.775 324.879L502.775 320.604ZM497.432 328.085L499.569 328.085L499.569 323.81L497.432 323.81L497.432 328.085ZM502.775 318.467C498.644 318.467 495.294 321.816 495.294 325.948L499.569 325.948C499.569 324.177 501.004 322.742 502.775 322.742L502.775 318.467ZM510.256 325.948C510.256 321.816 506.907 318.467 502.775 318.467L502.775 322.742C504.546 322.742 505.981 324.177 505.981 325.948L510.256 325.948ZM505.981 328.085L508.118 328.085L508.118 323.81L505.981 323.81L505.981 328.085Z" fill="#415268" mask="url(#path-35-inside-9)"/>
<path fill-rule="evenodd" clip-rule="evenodd" d="M487.813 346.253V329.154H500.637V331.291H502.775V328.085C502.775 327.495 502.296 327.017 501.706 327.017H486.744C486.154 327.017 485.676 327.495 485.676 328.085V347.322C485.676 347.912 486.154 348.39 486.744 348.39H501.706C501.711 348.39 501.717 348.39 501.722 348.39H492.088V346.253H487.813Z" fill="#415268"/>
<mask id="path-39-inside-10" fill="white">
<path d="M318.962 17.0986C317.781 17.0986 316.824 18.0556 316.824 19.236V33.1289C316.824 33.7192 317.303 34.1976 317.893 34.1976H341.404C341.994 34.1976 342.473 33.7192 342.473 33.1289V21.0172C342.473 20.427 341.994 19.9485 341.404 19.9485H328.58L326.442 17.0986H318.962Z"/>
</mask>
<path d="M318.962 17.0986C317.781 17.0986 316.824 18.0556 316.824 19.236V33.1289C316.824 33.7192 317.303 34.1976 317.893 34.1976H341.404C341.994 34.1976 342.473 33.7192 342.473 33.1289V21.0172C342.473 20.427 341.994 19.9485 341.404 19.9485H328.58L326.442 17.0986H318.962Z" stroke="#415268" stroke-width="4.27472" mask="url(#path-39-inside-10)"/>
<circle cx="669.489" cy="22.442" r="7.48077" stroke="#415268" stroke-width="2.13736"/>
<line x1="655.935" y1="35.5544" x2="663.935" y2="28.0736" stroke="#415268" stroke-width="2.13736"/>
<path d="M329.649 254.346V265.033M334.992 259.69H324.305M340.336 259.69C340.336 265.592 335.551 270.377 329.649 270.377C323.747 270.377 318.962 265.592 318.962 259.69C318.962 253.788 323.747 249.003 329.649 249.003C335.551 249.003 340.336 253.788 340.336 259.69Z" stroke="#415268" stroke-width="2.13736"/>
<mask id="path-46-inside-11" fill="white">
<rect x="570.102" y="251.14" width="25.6484" height="17.0989" rx="1.06868"/>
</mask>
<rect x="570.102" y="251.14" width="25.6484" height="17.0989" rx="1.06868" stroke="#415268" stroke-width="4.27472" mask="url(#path-46-inside-11)"/>
<rect x="575.98" y="255.949" width="1.06868" height="1.06868" stroke="#415268" stroke-width="1.06868"/>
<rect x="575.98" y="259.155" width="1.06868" height="1.06868" stroke="#415268" stroke-width="1.06868"/>
<rect x="575.98" y="262.361" width="1.06868" height="1.06868" stroke="#415268" stroke-width="1.06868"/>
<path d="M579.72 256.483H591.475" stroke="#415268" stroke-width="2.13736"/>
<path d="M579.72 259.689H591.475" stroke="#415268" stroke-width="2.13736"/>
<path d="M579.72 262.896H591.475" stroke="#415268" stroke-width="2.13736"/>
<rect x="573.307" y="175.798" width="19.2363" height="10.6868" rx="1.06868" stroke="#415268" stroke-width="2.13736"/>
<line x1="587.2" y1="190.759" x2="587.216" y2="171.523" stroke="#415268" stroke-width="2.13736"/>
<mask id="path-56-inside-12" fill="white">
<path fill-rule="evenodd" clip-rule="evenodd" d="M589.337 168.905C589.164 168.87 588.986 168.852 588.803 168.852C588.201 168.852 587.646 169.05 587.199 169.386C586.753 169.051 586.198 168.852 585.597 168.852C585.414 168.852 585.235 168.87 585.062 168.905V171.523C585.063 171.228 585.302 170.989 585.597 170.989C585.892 170.989 586.131 171.228 586.131 171.523H588.268C588.268 171.228 588.507 170.989 588.803 170.989C589.098 170.989 589.337 171.228 589.337 171.523H589.337V168.905ZM582.925 171.523H582.925V171.542C582.925 171.536 582.925 171.53 582.925 171.524C582.925 171.523 582.925 171.523 582.925 171.523Z"/>
</mask>
<path d="M589.337 168.905H590.406V168.031L589.55 167.858L589.337 168.905ZM587.199 169.386L586.558 170.24L587.199 170.722L587.841 170.24L587.199 169.386ZM585.062 168.905L584.85 167.858L583.993 168.032V168.905H585.062ZM585.062 171.523H583.993L586.131 171.525L585.062 171.523ZM586.131 171.523L585.062 171.524L585.063 172.592H586.131V171.523ZM588.268 171.523V172.592H589.337V171.523H588.268ZM589.337 171.523H588.268V172.592H589.337V171.523ZM589.337 171.523V172.592H590.406V171.523H589.337ZM582.925 171.523V170.455H581.856V171.523H582.925ZM582.925 171.523H583.994V170.455H582.925V171.523ZM582.925 171.542L581.856 171.55L583.994 171.542H582.925ZM588.803 169.92C588.914 169.92 589.021 169.931 589.124 169.952L589.55 167.858C589.307 167.809 589.057 167.783 588.803 167.783V169.92ZM587.841 170.24C588.109 170.039 588.44 169.92 588.803 169.92V167.783C587.962 167.783 587.183 168.062 586.557 168.531L587.841 170.24ZM585.597 169.921C585.959 169.921 586.29 170.039 586.558 170.24L587.841 168.531C587.216 168.062 586.437 167.783 585.597 167.783V169.921ZM585.275 169.953C585.378 169.932 585.485 169.921 585.597 169.921V167.783C585.342 167.783 585.092 167.809 584.85 167.858L585.275 169.953ZM586.131 171.523V168.905H583.993V171.523H586.131ZM586.131 171.525C586.13 171.819 585.891 172.058 585.597 172.058V169.921C584.712 169.921 583.995 170.637 583.993 171.521L586.131 171.525ZM585.597 172.058C585.301 172.058 585.062 171.819 585.062 171.524L587.2 171.523C587.199 170.638 586.482 169.921 585.597 169.921V172.058ZM588.268 170.455H586.131V172.592H588.268V170.455ZM589.337 171.523C589.337 171.818 589.098 172.058 588.803 172.058V169.92C587.917 169.92 587.2 170.638 587.2 171.523H589.337ZM588.803 172.058C588.507 172.058 588.268 171.818 588.268 171.523H590.406C590.406 170.638 589.688 169.92 588.803 169.92V172.058ZM589.337 170.455H589.337V172.592H589.337V170.455ZM588.268 168.905V171.523H590.406V168.905H588.268ZM582.925 172.592H582.925V170.455H582.925V172.592ZM581.856 171.523V171.542H583.994V171.523H581.856ZM583.994 171.535C583.993 171.531 583.993 171.527 583.993 171.524H581.856C581.856 171.532 581.856 171.541 581.856 171.55L583.994 171.535ZM583.993 171.524V171.523H581.856V171.524H583.993Z" fill="#415268" mask="url(#path-56-inside-12)"/>
<mask id="path-58-inside-13" fill="white">
<path fill-rule="evenodd" clip-rule="evenodd" d="M589.337 193.377C589.164 193.412 588.986 193.431 588.803 193.431C588.201 193.431 587.646 193.232 587.199 192.896C586.753 193.232 586.198 193.43 585.597 193.43C585.414 193.43 585.235 193.412 585.062 193.377V190.76C585.063 191.054 585.302 191.293 585.597 191.293C585.891 191.293 586.131 191.054 586.131 190.759H588.268C588.268 191.054 588.508 191.293 588.803 191.293C589.098 191.293 589.337 191.054 589.337 190.759H589.337V193.377ZM582.925 190.759H582.925V190.74C582.925 190.746 582.925 190.752 582.925 190.759C582.925 190.759 582.925 190.759 582.925 190.759Z"/>
</mask>
<path d="M589.337 193.377H590.406V194.251L589.55 194.425L589.337 193.377ZM587.199 192.896L586.558 192.042L587.199 191.56L587.841 192.042L587.199 192.896ZM585.062 193.377L584.85 194.424L583.993 194.25V193.377H585.062ZM585.062 190.76H583.993L586.131 190.758L585.062 190.76ZM586.131 190.759L585.062 190.758L585.063 189.69H586.131V190.759ZM588.268 190.759V189.69H589.337L589.337 190.759L588.268 190.759ZM589.337 190.759L588.268 190.759L588.269 189.69H589.337V190.759ZM589.337 190.759V189.69H590.406V190.759H589.337ZM582.925 190.759V191.828H581.856V190.759H582.925ZM582.925 190.759H583.994V191.828H582.925V190.759ZM582.925 190.74L581.856 190.732L583.994 190.74H582.925ZM588.803 192.362C588.914 192.362 589.021 192.351 589.124 192.33L589.55 194.425C589.307 194.474 589.057 194.499 588.803 194.499V192.362ZM587.841 192.042C588.109 192.243 588.44 192.362 588.803 192.362V194.499C587.962 194.499 587.183 194.221 586.557 193.751L587.841 192.042ZM585.597 192.362C585.959 192.362 586.29 192.243 586.558 192.042L587.841 193.751C587.216 194.22 586.437 194.499 585.597 194.499V192.362ZM585.275 192.33C585.378 192.35 585.485 192.362 585.597 192.362V194.499C585.342 194.499 585.092 194.473 584.85 194.424L585.275 192.33ZM586.131 190.76V193.377H583.993V190.76H586.131ZM586.131 190.758C586.13 190.463 585.891 190.224 585.597 190.224V192.362C584.712 192.362 583.995 191.646 583.993 190.762L586.131 190.758ZM585.597 190.224C585.302 190.224 585.062 190.463 585.062 190.758L587.2 190.76C587.199 191.645 586.481 192.362 585.597 192.362V190.224ZM588.268 191.828H586.131V189.69H588.268V191.828ZM589.337 190.759C589.337 190.464 589.098 190.225 588.803 190.225V192.362C587.917 192.362 587.2 191.645 587.2 190.759L589.337 190.759ZM588.803 190.225C588.508 190.225 588.268 190.464 588.268 190.759L590.406 190.759C590.405 191.645 589.688 192.362 588.803 192.362V190.225ZM589.337 191.828H589.337V189.69H589.337V191.828ZM588.268 193.377V190.759H590.406V193.377H588.268ZM582.925 189.69H582.925V191.828H582.925V189.69ZM581.856 190.759V190.74H583.994V190.759H581.856ZM583.994 190.747C583.993 190.751 583.993 190.755 583.993 190.759H581.856C581.856 190.75 581.856 190.741 581.856 190.732L583.994 190.747ZM583.993 190.759V190.759H581.856V190.759H583.993Z" fill="#415268" mask="url(#path-58-inside-13)"/>
<path d="M573.308 94.0436C573.308 93.4534 573.786 92.9749 574.377 92.9749H591.476C592.066 92.9749 592.544 93.4534 592.544 94.0436V97.2497H573.308V94.0436Z" stroke="#415268" stroke-width="2.13736"/>
<rect x="575.445" y="97.2503" width="14.9615" height="18.1676" rx="1.06868" fill="white" fill-opacity="0.15" stroke="#415268" stroke-width="2.13736"/>
<line x1="578.651" y1="101.524" x2="578.651" y2="111.143" stroke="#415268" stroke-width="2.13736"/>
<line x1="582.926" y1="101.524" x2="582.926" y2="111.143" stroke="#415268" stroke-width="2.13736"/>
<line x1="587.201" y1="101.524" x2="587.201" y2="111.143" stroke="#415268" stroke-width="2.13736"/>
<line x1="578.651" y1="91.3719" x2="587.201" y2="91.3719" stroke="#415268" stroke-width="1.06868"/>
<circle cx="498.5" cy="103.662" r="9.61813" stroke="#415268" stroke-width="2.13736"/>
<rect width="2.13736" height="8.54945" transform="matrix(-0.707107 -0.707107 -0.707107 0.707107 504.179 100.898)" fill="#415268"/>
<rect width="2.13736" height="6.41209" transform="matrix(0.707107 -0.707107 -0.707107 -0.707107 496.622 108.455)" fill="#415268"/>
<rect x="410.868" y="96.182" width="6.41209" height="14.9615" rx="1.06868" stroke="#415268" stroke-width="2.13736"/>
<path d="M404.99 103.663L401.25 103.663" stroke="#415268" stroke-width="2.13736"/>
<path d="M422.623 105.514L419.417 103.663L422.623 101.812L422.623 105.514Z" fill="#415268" stroke="#415268" stroke-width="1.06868"/>
<path d="M405.525 101.812L408.731 103.663L405.525 105.514L405.525 101.812Z" fill="#415268" stroke="#415268" stroke-width="1.06868"/>
<path d="M426.898 103.663H422.624" stroke="#415268" stroke-width="2.13736"/>
<mask id="path-79-inside-14" fill="white">
<path fill-rule="evenodd" clip-rule="evenodd" d="M406.861 182.847L406.861 170.989H409.265L409.265 182.702C410.587 183.053 411.628 184.094 411.979 185.416L423.692 185.416V187.821H411.834C411.27 189.23 409.892 190.225 408.281 190.225C406.169 190.225 404.456 188.513 404.456 186.4C404.456 184.789 405.451 183.411 406.861 182.847ZM409.702 186.4C409.702 187.185 409.066 187.821 408.281 187.821C407.497 187.821 406.861 187.185 406.861 186.4C406.861 185.615 407.497 184.979 408.281 184.979C409.066 184.979 409.702 185.615 409.702 186.4Z"/>
</mask>
<path fill-rule="evenodd" clip-rule="evenodd" d="M406.861 182.847L406.861 170.989H409.265L409.265 182.702C410.587 183.053 411.628 184.094 411.979 185.416L423.692 185.416V187.821H411.834C411.27 189.23 409.892 190.225 408.281 190.225C406.169 190.225 404.456 188.513 404.456 186.4C404.456 184.789 405.451 183.411 406.861 182.847ZM409.702 186.4C409.702 187.185 409.066 187.821 408.281 187.821C407.497 187.821 406.861 187.185 406.861 186.4C406.861 185.615 407.497 184.979 408.281 184.979C409.066 184.979 409.702 185.615 409.702 186.4Z" stroke="#415268" stroke-width="4.80906" mask="url(#path-79-inside-14)"/>
<mask id="path-81-inside-15" fill="white">
<path fill-rule="evenodd" clip-rule="evenodd" d="M498.501 181.676L498.501 187.019H496.363L496.363 181.676L498.501 181.676Z"/>
</mask>
<path fill-rule="evenodd" clip-rule="evenodd" d="M498.501 181.676L498.501 187.019H496.363L496.363 181.676L498.501 181.676Z" fill="#5A5A5A"/>
<path d="M498.501 187.019L498.501 189.157H500.638V187.019H498.501ZM498.501 181.676L500.638 181.676V179.538H498.501V181.676ZM496.363 187.019H494.226L494.226 189.157H496.363L496.363 187.019ZM496.363 181.676L496.363 179.538L494.226 179.538L494.226 181.676L496.363 181.676ZM500.638 187.019L500.638 181.676L496.363 181.676L496.363 187.019H500.638ZM496.363 189.157H498.501L498.501 184.882H496.363L496.363 189.157ZM494.226 181.676L494.226 187.019H498.501L498.501 181.676L494.226 181.676ZM498.501 179.538H496.363L496.363 183.813H498.501V179.538Z" fill="#415268" mask="url(#path-81-inside-15)"/>
<rect x="489.951" y="172.058" width="14.9615" height="19.2363" rx="1.06868" stroke="#415268" stroke-width="2.13736"/>
<path d="M494.654 181.141L497.431 176.332L500.207 181.141H494.654Z" fill="#415268" stroke="#415268" stroke-width="1.06868"/>
<mask id="path-86-inside-16" fill="white">
<path fill-rule="evenodd" clip-rule="evenodd" d="M336.795 175.295C337.256 175.295 337.688 175.174 338.061 174.963C338.906 175.996 339.561 177.189 339.971 178.487C339.01 178.85 338.327 179.769 338.327 180.846C338.327 182.054 339.187 183.064 340.335 183.311C340.067 185.031 339.386 186.615 338.393 187.962C337.956 187.614 337.4 187.406 336.795 187.406C335.385 187.406 334.242 188.536 334.242 189.93C334.242 190.388 334.366 190.817 334.582 191.188C333.103 191.939 331.425 192.363 329.648 192.363C327.87 192.363 326.192 191.939 324.713 191.187C324.928 190.817 325.052 190.388 325.052 189.93C325.052 188.536 323.909 187.406 322.499 187.406C321.894 187.406 321.339 187.614 320.902 187.961C319.91 186.615 319.228 185.03 318.961 183.311C320.108 183.064 320.967 182.054 320.967 180.846C320.967 179.769 320.285 178.85 319.325 178.488C319.735 177.189 320.389 175.997 321.234 174.964C321.607 175.174 322.038 175.295 322.499 175.295C323.909 175.295 325.052 174.165 325.052 172.771C325.052 172.521 325.015 172.278 324.946 172.05C326.368 171.37 327.963 170.989 329.648 170.989C331.332 170.989 332.927 171.37 334.349 172.049C334.28 172.278 334.242 172.52 334.242 172.771C334.242 174.165 335.385 175.295 336.795 175.295ZM329.648 183.813C330.828 183.813 331.785 182.856 331.785 181.676C331.785 180.495 330.828 179.538 329.648 179.538C328.467 179.538 327.51 180.495 327.51 181.676C327.51 182.856 328.467 183.813 329.648 183.813Z"/>
</mask>
<path d="M338.061 174.963L339.716 173.61L338.576 172.217L337.009 173.103L338.061 174.963ZM339.971 178.487L340.725 180.487L342.619 179.774L342.009 177.844L339.971 178.487ZM340.335 183.311L342.447 183.64L342.756 181.646L340.784 181.222L340.335 183.311ZM338.393 187.962L337.064 189.635L338.799 191.013L340.114 189.23L338.393 187.962ZM334.582 191.188L335.55 193.094L337.569 192.068L336.428 190.111L334.582 191.188ZM324.713 191.187L322.866 190.111L321.726 192.068L323.745 193.093L324.713 191.187ZM320.902 187.961L319.181 189.229L320.495 191.012L322.23 189.635L320.902 187.961ZM318.961 183.311L318.51 181.222L316.539 181.647L316.849 183.639L318.961 183.311ZM319.325 178.488L317.286 177.844L316.677 179.773L318.57 180.488L319.325 178.488ZM321.234 174.964L322.285 173.103L320.718 172.218L319.579 173.611L321.234 174.964ZM324.946 172.05L324.024 170.122L322.371 170.912L322.899 172.667L324.946 172.05ZM334.349 172.049L336.395 172.666L336.924 170.911L335.27 170.121L334.349 172.049ZM337.009 173.103C336.95 173.136 336.879 173.157 336.795 173.157V177.432C337.633 177.432 338.427 177.212 339.113 176.824L337.009 173.103ZM342.009 177.844C341.515 176.28 340.729 174.849 339.716 173.61L336.407 176.316C337.084 177.144 337.606 178.097 337.933 179.131L342.009 177.844ZM340.465 180.846C340.465 180.7 340.557 180.551 340.725 180.487L339.217 176.487C337.463 177.149 336.19 178.838 336.19 180.846H340.465ZM340.784 181.222C340.584 181.179 340.465 181.01 340.465 180.846H336.19C336.19 183.099 337.79 184.95 339.885 185.401L340.784 181.222ZM340.114 189.23C341.304 187.615 342.125 185.71 342.447 183.64L338.222 182.983C338.01 184.352 337.467 185.616 336.673 186.694L340.114 189.23ZM336.795 189.544C336.903 189.544 336.993 189.579 337.064 189.635L339.723 186.288C338.919 185.65 337.898 185.269 336.795 185.269V189.544ZM336.38 189.93C336.38 189.74 336.542 189.544 336.795 189.544V185.269C334.229 185.269 332.105 187.332 332.105 189.93H336.38ZM336.428 190.111C336.397 190.058 336.38 189.998 336.38 189.93H332.105C332.105 190.777 332.335 191.577 332.736 192.264L336.428 190.111ZM329.648 194.5C331.768 194.5 333.777 193.994 335.55 193.094L333.614 189.282C332.429 189.884 331.082 190.226 329.648 190.226V194.5ZM323.745 193.093C325.518 193.994 327.527 194.5 329.648 194.5V190.226C328.213 190.226 326.866 189.884 325.68 189.282L323.745 193.093ZM322.914 189.93C322.914 189.998 322.897 190.058 322.866 190.111L326.559 192.263C326.96 191.576 327.189 190.777 327.189 189.93H322.914ZM322.499 189.544C322.752 189.544 322.914 189.74 322.914 189.93H327.189C327.189 187.332 325.065 185.269 322.499 185.269V189.544ZM322.23 189.635C322.301 189.579 322.392 189.544 322.499 189.544V185.269C321.397 185.269 320.377 185.649 319.573 186.287L322.23 189.635ZM316.849 183.639C317.17 185.709 317.991 187.614 319.181 189.229L322.622 186.693C321.828 185.615 321.286 184.352 321.073 182.983L316.849 183.639ZM318.83 180.846C318.83 181.01 318.71 181.179 318.51 181.222L319.412 185.4C321.506 184.949 323.104 183.098 323.104 180.846H318.83ZM318.57 180.488C318.737 180.551 318.83 180.7 318.83 180.846H323.104C323.104 178.839 321.832 177.15 320.079 176.488L318.57 180.488ZM319.579 173.611C318.566 174.849 317.78 176.281 317.286 177.844L321.363 179.132C321.689 178.097 322.211 177.145 322.888 176.317L319.579 173.611ZM322.499 173.157C322.415 173.157 322.345 173.136 322.285 173.103L320.183 176.825C320.869 177.212 321.662 177.432 322.499 177.432V173.157ZM322.914 172.771C322.914 172.961 322.752 173.157 322.499 173.157V177.432C325.065 177.432 327.189 175.369 327.189 172.771H322.914ZM322.899 172.667C322.909 172.697 322.914 172.732 322.914 172.771H327.189C327.189 172.309 327.121 171.859 326.992 171.433L322.899 172.667ZM329.648 168.852C327.637 168.852 325.728 169.307 324.024 170.122L325.868 173.978C327.007 173.434 328.288 173.127 329.648 173.127V168.852ZM335.27 170.121C333.566 169.307 331.657 168.852 329.648 168.852V173.127C331.007 173.127 332.288 173.433 333.427 173.978L335.27 170.121ZM336.38 172.771C336.38 172.732 336.385 172.697 336.395 172.666L332.302 171.432C332.174 171.859 332.105 172.309 332.105 172.771H336.38ZM336.795 173.157C336.542 173.157 336.38 172.961 336.38 172.771H332.105C332.105 175.369 334.229 177.432 336.795 177.432V173.157ZM329.648 181.676V185.951C332.009 185.951 333.922 184.037 333.922 181.676H329.648ZM329.648 181.676H333.922C333.922 179.315 332.009 177.401 329.648 177.401V181.676ZM329.648 181.676V177.401C327.287 177.401 325.373 179.315 325.373 181.676H329.648ZM329.648 181.676H325.373C325.373 184.037 327.287 185.951 329.648 185.951V181.676Z" fill="#415268" mask="url(#path-86-inside-16)"/>
<path fill-rule="evenodd" clip-rule="evenodd" d="M417.745 329.1C417.327 329.518 416.651 329.518 416.233 329.1C415.816 328.683 415.816 328.006 416.233 327.589C416.651 327.172 417.327 327.172 417.745 327.589C418.162 328.006 418.162 328.683 417.745 329.1ZM415.606 331.238C416.798 331.808 418.269 331.599 419.256 330.612C420.508 329.36 420.508 327.33 419.256 326.078C418.004 324.826 415.974 324.826 414.722 326.078C413.735 327.065 413.526 328.535 414.095 329.727L408.909 334.912C407.8 334.554 406.535 334.815 405.654 335.696C404.402 336.948 404.402 338.978 405.654 340.23C406.741 341.317 408.415 341.46 409.657 340.659L414.095 345.098C413.525 346.29 413.734 347.76 414.721 348.748C415.973 350 418.003 350 419.255 348.748C420.508 347.496 420.508 345.466 419.255 344.214C418.269 343.227 416.798 343.018 415.607 343.587L410.971 338.951C411.263 338.05 411.145 337.045 410.617 336.227L415.606 331.238ZM408.677 338.719C408.259 339.136 407.583 339.136 407.165 338.719C406.748 338.301 406.748 337.625 407.165 337.207C407.583 336.79 408.259 336.79 408.677 337.207C409.094 337.625 409.094 338.301 408.677 338.719ZM417.744 347.236C418.161 346.819 418.161 346.142 417.744 345.725C417.327 345.308 416.65 345.308 416.233 345.725C415.815 346.142 415.815 346.819 416.233 347.236C416.65 347.654 417.327 347.654 417.744 347.236Z" fill="#415268"/>
<mask id="path-91-inside-17" fill="white">
<path fill-rule="evenodd" clip-rule="evenodd" d="M658.802 331.291C657.622 331.291 656.665 332.248 656.665 333.428V341.861C656.665 343.042 657.622 343.999 658.802 343.999H668.475L669.618 347.141C670.3 349.017 672.953 349.017 673.635 347.141L674.778 343.999H675.901C677.082 343.999 678.039 343.042 678.039 341.861V333.428C678.039 332.248 677.082 331.291 675.901 331.291H658.802Z"/>
</mask>
<path d="M668.475 343.999L670.484 343.268L669.972 341.861H668.475V343.999ZM669.618 347.141L667.609 347.871L669.618 347.141ZM673.635 347.141L675.644 347.871L673.635 347.141ZM674.778 343.999V341.861H673.281L672.769 343.268L674.778 343.999ZM658.802 333.428V333.428V329.154C656.442 329.154 654.528 331.068 654.528 333.428H658.802ZM658.802 341.861V333.428H654.528V341.861H658.802ZM658.802 341.861H658.802H654.528C654.528 344.222 656.442 346.136 658.802 346.136V341.861ZM668.475 341.861H658.802V346.136H668.475V341.861ZM671.626 346.411L670.484 343.268L666.466 344.729L667.609 347.871L671.626 346.411ZM671.626 346.411C671.622 346.423 671.618 346.43 671.617 346.432C671.616 346.434 671.616 346.433 671.618 346.43C671.621 346.428 671.624 346.424 671.627 346.421C671.631 346.417 671.635 346.414 671.638 346.412C671.645 346.408 671.648 346.407 671.645 346.408C671.642 346.409 671.635 346.411 671.626 346.411C671.618 346.411 671.611 346.409 671.608 346.408C671.605 346.407 671.608 346.408 671.615 346.412C671.618 346.414 671.622 346.417 671.625 346.421C671.629 346.424 671.632 346.428 671.634 346.43C671.636 346.433 671.637 346.434 671.636 346.432C671.634 346.43 671.631 346.423 671.626 346.411L667.609 347.871C668.973 351.623 674.279 351.623 675.644 347.871L671.626 346.411ZM672.769 343.268L671.626 346.411L675.644 347.871L676.786 344.729L672.769 343.268ZM675.901 341.861H674.778V346.136H675.901V341.861ZM675.901 341.861V341.861V346.136C678.262 346.136 680.176 344.222 680.176 341.861H675.901ZM675.901 333.428V341.861H680.176V333.428H675.901ZM675.901 333.428H675.901H680.176C680.176 331.068 678.262 329.154 675.901 329.154V333.428ZM658.802 333.428H675.901V329.154H658.802V333.428Z" fill="#415268" mask="url(#path-91-inside-17)"/>
<path fill-rule="evenodd" clip-rule="evenodd" d="M338.29 103.737C338.289 108.458 334.462 112.285 329.741 112.285C328.978 112.285 328.238 112.185 327.534 111.998L325.842 113.689C327.05 114.163 328.365 114.422 329.741 114.422C335.642 114.422 340.427 109.638 340.427 103.737H338.29ZM319.054 103.737H321.191C321.191 103.736 321.191 103.736 321.191 103.736C321.191 99.0139 325.019 95.1862 329.741 95.1862C330.473 95.1862 331.185 95.2784 331.864 95.4519L333.563 93.7527C332.376 93.298 331.087 93.0488 329.741 93.0488C323.838 93.0488 319.054 97.8335 319.054 103.736C319.054 103.736 319.054 103.736 319.054 103.737Z" fill="#415268"/>
<path d="M320.122 108.011L317.346 103.202L322.899 103.202L320.122 108.011Z" fill="#415268"/>
<path d="M339.358 99.4609L342.135 104.27H336.582L339.358 99.4609Z" fill="#415268"/>
<mask id="path-98-inside-18" fill="white">
<rect x="654.527" y="173.126" width="25.6484" height="17.0989" rx="1.06868"/>
</mask>
<rect x="654.527" y="173.126" width="25.6484" height="17.0989" rx="1.06868" fill="white" stroke="#415268" stroke-width="4.27472" mask="url(#path-98-inside-18)"/>
<rect x="658.268" y="177.936" width="1.06868" height="1.06868" stroke="#415268" stroke-width="1.06868"/>
<rect x="662.542" y="177.936" width="1.06868" height="1.06868" stroke="#415268" stroke-width="1.06868"/>
<rect x="666.818" y="177.936" width="1.06868" height="1.06868" stroke="#415268" stroke-width="1.06868"/>
<rect x="671.092" y="177.936" width="1.06868" height="1.06868" stroke="#415268" stroke-width="1.06868"/>
<rect x="675.366" y="177.936" width="1.06868" height="1.06868" stroke="#415268" stroke-width="1.06868"/>
<rect x="658.268" y="181.142" width="1.06868" height="1.06868" stroke="#415268" stroke-width="1.06868"/>
<rect x="662.542" y="181.142" width="1.06868" height="1.06868" stroke="#415268" stroke-width="1.06868"/>
<rect x="666.818" y="181.142" width="1.06868" height="1.06868" stroke="#415268" stroke-width="1.06868"/>
<rect x="671.092" y="181.142" width="1.06868" height="1.06868" stroke="#415268" stroke-width="1.06868"/>
<rect x="675.366" y="181.142" width="1.06868" height="1.06868" stroke="#415268" stroke-width="1.06868"/>
<rect x="658.268" y="184.348" width="1.06868" height="1.06868" stroke="#415268" stroke-width="1.06868"/>
<rect x="662.542" y="184.348" width="1.06868" height="1.06868" stroke="#415268" stroke-width="1.06868"/>
<rect x="666.818" y="184.348" width="1.06868" height="1.06868" stroke="#415268" stroke-width="1.06868"/>
<rect x="671.092" y="184.348" width="1.06868" height="1.06868" stroke="#415268" stroke-width="1.06868"/>
<rect x="675.366" y="184.348" width="1.06868" height="1.06868" stroke="#415268" stroke-width="1.06868"/>
<path fill-rule="evenodd" clip-rule="evenodd" d="M591.476 337.703C591.476 342.425 587.648 346.253 582.926 346.253C582.926 346.253 582.926 346.253 582.926 346.253V348.39H582.875C582.892 348.39 582.909 348.39 582.926 348.39C588.828 348.39 593.613 343.606 593.613 337.703C593.613 331.801 588.828 327.017 582.926 327.017C577.024 327.017 572.239 331.801 572.239 337.703H574.377C574.377 332.982 578.204 329.154 582.926 329.154C587.648 329.154 591.476 332.982 591.476 337.703Z" fill="#415268"/>
<path d="M575.159 337.704L573.308 340.91L571.457 337.704L575.159 337.704Z" fill="#415268" stroke="#415268" stroke-width="1.06868"/>
<line x1="582.925" y1="337.703" x2="582.925" y2="331.291" stroke="#415268" stroke-width="2.13736"/>
<line x1="582.926" y1="337.704" x2="589.338" y2="337.704" stroke="#415268" stroke-width="2.13736"/>
<rect x="582.125" y="337.97" width="0.534341" height="0.534341" fill="#21262F" stroke="#415268" stroke-width="0.534341"/>
<rect x="422.333" y="269.474" width="15.9891" height="20.5574" rx="1.14208" transform="rotate(180 422.333 269.474)" stroke="#415268" stroke-width="2.28416"/>
<mask id="path-124-inside-19" fill="white">
<path d="M413.375 260L413.375 254L415.625 254L415.625 260L413.375 260Z"/>
</mask>
<path d="M413.375 260L413.375 254L415.625 254L415.625 260L413.375 260Z" fill="#5A5A5A" stroke="#415268" stroke-width="4.56832" mask="url(#path-124-inside-19)"/>
<path d="M417.345 260.571L414.5 264.952L411.655 260.571L417.345 260.571Z" fill="#415268" stroke="#415268" stroke-width="1.14208"/>
<line x1="409.799" y1="32.0605" x2="409.799" y2="38.4726" stroke="#415268" stroke-width="2.13736"/>
<circle cx="409.8" cy="29.9228" r="2.13736" stroke="#415268" stroke-width="2.13736"/>
<circle cx="409.8" cy="16.0303" r="2.13736" stroke="#415268" stroke-width="2.13736"/>
<line x1="409.799" y1="17.0986" x2="409.799" y2="28.8541" stroke="#415268" stroke-width="2.13736"/>
<circle cx="418.349" cy="20.3047" r="2.13736" stroke="#415268" stroke-width="2.13736"/>
<path fill-rule="evenodd" clip-rule="evenodd" d="M419.024 19.2364H420.094C420.094 19.2243 420.093 19.2138 420.093 19.2049L420.092 19.1851L420.092 19.178L420.091 19.1752L420.091 19.1739C420.091 19.1734 420.091 19.1728 419.024 19.2364ZM419.407 22.4424H416.789C416.696 22.5267 416.596 22.6063 416.488 22.6803C415.989 23.022 415.253 23.2942 414.138 23.2942C412.52 23.2942 411.309 23.9402 410.467 24.9281C409.753 25.7645 409.339 26.8012 409.095 27.7858H411.317C411.507 27.2084 411.762 26.7033 412.093 26.3152C412.539 25.7925 413.16 25.4316 414.138 25.4316C415.619 25.4316 416.792 25.063 417.696 24.4435C418.515 23.882 419.054 23.1559 419.407 22.4424ZM408.732 30.9919H410.869C410.869 31.0468 410.869 31.1007 410.869 31.1533C410.871 31.5058 410.886 31.7985 410.899 32.0005C410.906 32.1014 410.913 32.1792 410.918 32.2302C410.92 32.2557 410.922 32.2744 410.923 32.2859L410.924 32.2976L410.924 32.2986C410.924 32.2984 410.924 32.2981 409.862 32.4188C408.801 32.5396 408.801 32.5392 408.801 32.5388L408.8 32.5379L408.8 32.5355L408.799 32.5284L408.797 32.5056C408.795 32.4866 408.792 32.46 408.789 32.4265C408.783 32.3595 408.775 32.2643 408.767 32.1448C408.751 31.9063 408.734 31.5696 408.732 31.1668C408.731 31.1099 408.731 31.0516 408.732 30.9919Z" fill="#415268"/>
<path d="M582.926 14.9609L585.702 19.77H580.149L582.926 14.9609Z" fill="#415268"/>
<path d="M582.925 36.335L580.148 31.5259L585.701 31.5259L582.925 36.335Z" fill="#415268"/>
<line x1="582.925" y1="19.2354" x2="582.925" y2="32.0595" stroke="#415268" stroke-width="2.13736"/>
<path d="M572.238 25.6475L577.047 22.871L577.047 28.424L572.238 25.6475Z" fill="#415268"/>
<path d="M593.612 25.6475L588.803 28.424L588.803 22.8709L593.612 25.6475Z" fill="#415268"/>
<line x1="576.513" y1="25.6481" x2="589.337" y2="25.6481" stroke="#415268" stroke-width="2.13736"/>
<line x1="492.401" y1="32.3732" x2="505.225" y2="19.5491" stroke="#415268" stroke-width="2.13736"/>
<line x1="491.775" y1="18.4807" x2="505.668" y2="32.3735" stroke="#415268" stroke-width="2.13736"/>
<circle cx="498.5" cy="25.6487" r="9.61813" stroke="#415268" stroke-width="2.13736"/>
<mask id="path-145-inside-20" fill="white">
<path fill-rule="evenodd" clip-rule="evenodd" d="M487.813 251.14C486.633 251.14 485.676 252.097 485.676 253.277V255.414H485.676V267.171C485.676 267.761 486.154 268.239 486.745 268.239H510.255C510.846 268.239 511.324 267.761 511.324 267.171V255.059C511.324 254.469 510.846 253.99 510.255 253.99H497.432L495.294 251.14H487.813Z"/>
</mask>
<path d="M485.676 255.414H483.538V257.552H485.676V255.414ZM485.676 255.414H487.813V253.277H485.676V255.414ZM497.432 253.99L495.722 255.273L496.363 256.128H497.432V253.99ZM495.294 251.14L497.004 249.857L496.363 249.002H495.294V251.14ZM487.813 253.277V253.277V249.002C485.452 249.002 483.538 250.916 483.538 253.277H487.813ZM487.813 255.414V253.277H483.538V255.414H487.813ZM485.676 253.277H485.676V257.552H485.676V253.277ZM487.813 267.171V255.414H483.538V267.171H487.813ZM486.745 266.102C487.335 266.102 487.813 266.58 487.813 267.171H483.538C483.538 268.941 484.974 270.377 486.745 270.377V266.102ZM510.255 266.102H486.745V270.377H510.255V266.102ZM509.187 267.171C509.187 266.58 509.665 266.102 510.255 266.102V270.377C512.026 270.377 513.462 268.941 513.462 267.171H509.187ZM509.187 255.059V267.171H513.462V255.059H509.187ZM510.255 256.128C509.665 256.128 509.187 255.649 509.187 255.059H513.462C513.462 253.288 512.026 251.853 510.255 251.853V256.128ZM497.432 256.128H510.255V251.853H497.432V256.128ZM493.584 252.422L495.722 255.273L499.142 252.708L497.004 249.857L493.584 252.422ZM487.813 253.277H495.294V249.002H487.813V253.277Z" fill="#415268" mask="url(#path-145-inside-20)"/>
<line x1="504.912" y1="265.033" x2="504.912" y2="261.827" stroke="#415268" stroke-width="2.13736"/>
<path d="M503.061 261.826L504.912 258.62L506.763 261.826H503.061Z" fill="#415268" stroke="#415268" stroke-width="1.06868"/>
<path d="M324.305 331.292H332.854V329.154H324.305V331.292Z" fill="#415268"/>
<path d="M332.854 335.566H324.305V333.429H332.854V335.566Z" fill="#415268"/>
<path d="M324.305 339.841H330.717V337.704H324.305V339.841Z" fill="#415268"/>
<path d="M334.992 343.581V346.253H332.854V343.581H331.147L333.923 338.772L336.7 343.581H334.992Z" fill="#415268"/>
<path fill-rule="evenodd" clip-rule="evenodd" d="M320.03 327.017C320.03 326.427 320.509 325.948 321.099 325.948H338.198C338.788 325.948 339.267 326.427 339.267 327.017V348.391C339.267 348.981 338.788 349.459 338.198 349.459H321.099C320.509 349.459 320.03 348.981 320.03 348.391V327.017ZM322.168 347.322V328.086H337.129V347.322H322.168Z" fill="#415268"/>
<path d="M665.644 108.835L662.05 105.229L660.649 110.467L665.644 108.835Z" fill="#415268"/>
<rect x="672.447" y="96.3473" width="2.95512" height="12.5749" transform="rotate(45 672.447 96.3473)" stroke="#415268" stroke-width="2.13736"/>
<line x1="673.822" y1="93.4621" x2="677.423" y2="97.063" stroke="#415268" stroke-width="2.13736"/>
<path d="M655.596 112.746H667.351" stroke="#415268" stroke-width="2.13736"/>
</g>
<defs>
<clipPath id="clip0">
<rect x="-563" y="-14939" width="1920" height="20379" fill="white"/>
</clipPath>
</defs>
</svg>
