<svg width="371" height="173" viewBox="0 0 371 173" fill="none" xmlns="http://www.w3.org/2000/svg">
<path d="M90.145 33.448C91.635 34.342 92.38 35.5837 92.38 37.173C92.38 38.067 92.0323 39.0603 91.337 40.153C90.443 41.2457 89.3007 41.792 87.91 41.792C87.1153 41.792 86.3207 41.5437 85.526 41.047C77.5793 35.7823 68.8877 33.15 59.451 33.15C51.405 33.15 44.104 35.0373 37.548 38.812C31.0913 42.5867 25.9757 47.901 22.201 54.755C18.5257 61.5097 16.688 69.208 16.688 77.85C16.688 86.6907 18.5753 94.538 22.35 101.392C26.1247 108.147 31.2403 113.411 37.697 117.186C44.253 120.861 51.5043 122.699 59.451 122.699C68.8877 122.699 77.5297 120.116 85.377 114.951C86.1717 114.454 87.016 114.206 87.91 114.206C89.3007 114.206 90.443 114.802 91.337 115.994C92.0323 116.789 92.38 117.732 92.38 118.825C92.38 120.414 91.6847 121.606 90.294 122.401C86.42 124.984 81.652 127.169 75.99 128.957C70.328 130.646 64.815 131.49 59.451 131.49C50.0143 131.49 41.273 129.255 33.227 124.785C25.2803 120.216 18.923 113.858 14.155 105.713C9.48633 97.5677 7.152 88.28 7.152 77.85C7.152 67.8173 9.48633 58.7283 14.155 50.583C18.8237 42.3383 25.1313 35.9313 33.078 31.362C41.0247 26.6933 49.8157 24.359 59.451 24.359C65.0137 24.359 70.4273 25.1537 75.692 26.743C81.056 28.3323 85.8737 30.5673 90.145 33.448ZM115.758 125.53C115.758 126.821 115.311 127.914 114.417 128.808C113.622 129.603 112.579 130 111.288 130C109.996 130 108.904 129.603 108.01 128.808C107.215 127.914 106.818 126.821 106.818 125.53V56.99C106.818 55.6987 107.215 54.6557 108.01 53.861C108.904 52.967 109.996 52.52 111.288 52.52C112.579 52.52 113.622 52.967 114.417 53.861C115.311 54.6557 115.758 55.6987 115.758 56.99V125.53ZM111.288 42.537C109.301 42.537 107.761 42.09 106.669 41.196C105.576 40.2027 105.03 38.812 105.03 37.024V35.534C105.03 33.746 105.576 32.405 106.669 31.511C107.861 30.5177 109.45 30.021 111.437 30.021C115.41 30.021 117.397 31.8587 117.397 35.534V37.024C117.397 38.812 116.85 40.2027 115.758 41.196C114.764 42.09 113.274 42.537 111.288 42.537ZM172.593 52.073C174.58 52.073 176.368 52.4703 177.957 53.265C179.546 54.0597 180.341 55.2517 180.341 56.841C180.341 58.2317 179.944 59.374 179.149 60.268C178.354 61.0627 177.411 61.46 176.318 61.46C175.821 61.46 174.828 61.2117 173.338 60.715C171.947 60.2183 170.606 59.97 169.315 59.97C165.64 59.97 161.964 61.4103 158.289 64.291C154.713 67.0723 151.733 70.698 149.349 75.168C147.064 79.638 145.922 84.1577 145.922 88.727V125.53C145.922 126.821 145.475 127.914 144.581 128.808C143.786 129.603 142.743 130 141.452 130C140.161 130 139.068 129.603 138.174 128.808C137.379 127.914 136.982 126.821 136.982 125.53V58.778C136.982 57.4867 137.379 56.4437 138.174 55.649C139.068 54.755 140.161 54.308 141.452 54.308C142.743 54.308 143.786 54.755 144.581 55.649C145.475 56.4437 145.922 57.4867 145.922 58.778V71.89C148.207 66.228 151.634 61.5593 156.203 57.884C160.872 54.1093 166.335 52.1723 172.593 52.073ZM252.401 53.861C253.692 53.861 254.735 54.308 255.53 55.202C256.424 56.096 256.871 57.1887 256.871 58.48V125.53C256.871 126.821 256.424 127.914 255.53 128.808C254.735 129.603 253.692 130 252.401 130C251.11 130 250.017 129.603 249.123 128.808C248.328 127.914 247.931 126.821 247.931 125.53V115.547C245.448 120.017 241.723 123.792 236.756 126.871C231.789 129.95 226.376 131.49 220.515 131.49C213.86 131.49 207.85 129.752 202.486 126.275C197.221 122.798 193.049 118.03 189.97 111.971C186.99 105.912 185.5 99.1073 185.5 91.558C185.5 84.0087 187.04 77.254 190.119 71.294C193.198 65.2347 197.37 60.5163 202.635 57.139C207.999 53.7617 213.909 52.073 220.366 52.073C226.326 52.073 231.789 53.5133 236.756 56.394C241.723 59.2747 245.448 63.0493 247.931 67.718V58.48C247.931 57.1887 248.328 56.096 249.123 55.202C250.017 54.308 251.11 53.861 252.401 53.861ZM221.409 123.146C226.574 123.146 231.193 121.805 235.266 119.123C239.438 116.342 242.666 112.567 244.951 107.799C247.335 102.932 248.527 97.518 248.527 91.558C248.527 85.7967 247.335 80.532 244.951 75.764C242.666 70.996 239.438 67.271 235.266 64.589C231.193 61.8077 226.574 60.417 221.409 60.417C216.244 60.417 211.575 61.758 207.403 64.44C203.33 67.122 200.102 70.847 197.718 75.615C195.433 80.2837 194.291 85.598 194.291 91.558C194.291 97.518 195.433 102.932 197.718 107.799C200.003 112.567 203.181 116.342 207.254 119.123C211.426 121.805 216.144 123.146 221.409 123.146Z" fill="#171717"/>
<path d="M18.255 149.018C18.813 149.306 19.092 149.765 19.092 150.395C19.092 150.773 18.957 151.142 18.687 151.502C18.399 151.88 18.03 152.069 17.58 152.069C17.274 152.069 16.968 151.988 16.662 151.826C15.78 151.412 14.826 151.205 13.8 151.205C12.54 151.205 11.442 151.475 10.506 152.015C9.57 152.537 8.85 153.284 8.346 154.256C7.842 155.21 7.59 156.308 7.59 157.55C7.59 159.674 8.157 161.285 9.291 162.383C10.443 163.481 11.946 164.03 13.8 164.03C14.898 164.03 15.852 163.823 16.662 163.409C16.986 163.265 17.274 163.193 17.526 163.193C17.994 163.193 18.39 163.391 18.714 163.787C18.984 164.129 19.119 164.498 19.119 164.894C19.119 165.182 19.047 165.443 18.903 165.677C18.759 165.911 18.552 166.091 18.282 166.217C16.878 166.919 15.384 167.27 13.8 167.27C12.036 167.27 10.416 166.901 8.94 166.163C7.464 165.407 6.285 164.3 5.403 162.842C4.521 161.384 4.08 159.62 4.08 157.55C4.08 155.714 4.494 154.067 5.322 152.609C6.168 151.151 7.329 150.017 8.805 149.207C10.281 148.379 11.946 147.965 13.8 147.965C15.402 147.965 16.887 148.316 18.255 149.018ZM25.1927 165.353C25.1927 165.821 25.0307 166.217 24.7067 166.541C24.4007 166.847 24.0137 167 23.5457 167C23.0957 167 22.7177 166.847 22.4117 166.541C22.1057 166.217 21.9527 165.821 21.9527 165.353V148.667C21.9527 148.199 22.1057 147.812 22.4117 147.506C22.7357 147.182 23.1317 147.02 23.5997 147.02C24.0497 147.02 24.4277 147.182 24.7337 147.506C25.0397 147.812 25.1927 148.199 25.1927 148.667V165.353ZM42.5744 159.791C42.5744 161.231 42.2504 162.527 41.6024 163.679C40.9544 164.813 40.0634 165.695 38.9294 166.325C37.8134 166.955 36.5804 167.27 35.2304 167.27C33.8624 167.27 32.6204 166.955 31.5044 166.325C30.3884 165.695 29.5064 164.813 28.8584 163.679C28.2104 162.527 27.8864 161.231 27.8864 159.791C27.8864 158.351 28.2104 157.064 28.8584 155.93C29.5064 154.778 30.3884 153.887 31.5044 153.257C32.6204 152.609 33.8624 152.285 35.2304 152.285C36.5804 152.285 37.8134 152.609 38.9294 153.257C40.0634 153.887 40.9544 154.778 41.6024 155.93C42.2504 157.064 42.5744 158.351 42.5744 159.791ZM39.3344 159.791C39.3344 158.909 39.1454 158.126 38.7674 157.442C38.4074 156.74 37.9124 156.2 37.2824 155.822C36.6704 155.444 35.9864 155.255 35.2304 155.255C34.4744 155.255 33.7814 155.444 33.1514 155.822C32.5394 156.2 32.0444 156.74 31.6664 157.442C31.3064 158.126 31.1264 158.909 31.1264 159.791C31.1264 160.673 31.3064 161.456 31.6664 162.14C32.0444 162.824 32.5394 163.355 33.1514 163.733C33.7814 164.111 34.4744 164.3 35.2304 164.3C35.9864 164.3 36.6704 164.111 37.2824 163.733C37.9124 163.355 38.4074 162.824 38.7674 162.14C39.1454 161.456 39.3344 160.673 39.3344 159.791ZM56.0004 152.555C56.4684 152.555 56.8554 152.717 57.1614 153.041C57.4674 153.347 57.6204 153.734 57.6204 154.202V161.06C57.6204 163.004 57.0804 164.525 56.0004 165.623C54.9384 166.721 53.4174 167.27 51.4374 167.27C49.4574 167.27 47.9364 166.721 46.8744 165.623C45.8124 164.525 45.2814 163.004 45.2814 161.06V154.202C45.2814 153.734 45.4344 153.347 45.7404 153.041C46.0464 152.717 46.4334 152.555 46.9014 152.555C47.3694 152.555 47.7564 152.717 48.0624 153.041C48.3684 153.347 48.5214 153.734 48.5214 154.202V161.06C48.5214 162.158 48.7644 162.977 49.2504 163.517C49.7364 164.039 50.4654 164.3 51.4374 164.3C52.4274 164.3 53.1654 164.039 53.6514 163.517C54.1374 162.977 54.3804 162.158 54.3804 161.06V154.202C54.3804 153.734 54.5334 153.347 54.8394 153.041C55.1454 152.717 55.5324 152.555 56.0004 152.555ZM72.819 147.02C73.287 147.02 73.674 147.173 73.98 147.479C74.286 147.785 74.439 148.181 74.439 148.667V165.353C74.439 165.821 74.286 166.217 73.98 166.541C73.674 166.847 73.287 167 72.819 167C72.351 167 71.964 166.847 71.658 166.541C71.37 166.235 71.217 165.848 71.199 165.38C70.749 165.902 70.137 166.352 69.363 166.73C68.607 167.09 67.806 167.27 66.96 167.27C65.718 167.27 64.593 166.955 63.585 166.325C62.577 165.677 61.776 164.786 61.182 163.652C60.606 162.518 60.318 161.231 60.318 159.791C60.318 158.351 60.606 157.064 61.182 155.93C61.758 154.778 62.541 153.887 63.531 153.257C64.539 152.609 65.646 152.285 66.852 152.285C67.716 152.285 68.526 152.447 69.282 152.771C70.038 153.077 70.677 153.473 71.199 153.959V148.667C71.199 148.199 71.352 147.812 71.658 147.506C71.964 147.182 72.351 147.02 72.819 147.02ZM67.365 164.3C68.535 164.3 69.489 163.877 70.227 163.031C70.965 162.167 71.334 161.087 71.334 159.791C71.334 158.495 70.965 157.415 70.227 156.551C69.489 155.687 68.535 155.255 67.365 155.255C66.213 155.255 65.268 155.687 64.53 156.551C63.792 157.415 63.423 158.495 63.423 159.791C63.423 161.087 63.783 162.167 64.503 163.031C65.241 163.877 66.195 164.3 67.365 164.3ZM91.8627 167.27C90.5667 167.27 89.4147 167.108 88.4067 166.784C87.3987 166.46 86.4537 165.911 85.5717 165.137C85.0857 164.705 84.8427 164.228 84.8427 163.706C84.8427 163.292 84.9957 162.932 85.3017 162.626C85.6077 162.302 85.9767 162.14 86.4087 162.14C86.7507 162.14 87.0567 162.248 87.3267 162.464C88.0467 163.058 88.7487 163.49 89.4327 163.76C90.1167 164.03 90.9267 164.165 91.8627 164.165C92.8707 164.165 93.7347 163.94 94.4547 163.49C95.1927 163.04 95.5617 162.482 95.5617 161.816C95.5617 161.006 95.2017 160.376 94.4817 159.926C93.7617 159.458 92.6187 159.107 91.0527 158.873C87.1107 158.297 85.1397 156.461 85.1397 153.365C85.1397 152.231 85.4367 151.25 86.0307 150.422C86.6247 149.576 87.4347 148.937 88.4607 148.505C89.4867 148.055 90.6297 147.83 91.8897 147.83C93.0237 147.83 94.0857 148.001 95.0757 148.343C96.0837 148.685 96.9207 149.135 97.5867 149.693C98.1087 150.107 98.3697 150.584 98.3697 151.124C98.3697 151.538 98.2167 151.907 97.9107 152.231C97.6047 152.537 97.2447 152.69 96.8307 152.69C96.5607 152.69 96.3177 152.609 96.1017 152.447C95.6337 152.069 94.9767 151.727 94.1307 151.421C93.3027 151.097 92.5557 150.935 91.8897 150.935C90.7557 150.935 89.8737 151.151 89.2437 151.583C88.6317 151.997 88.3257 152.546 88.3257 153.23C88.3257 154.004 88.6407 154.589 89.2707 154.985C89.9187 155.381 90.9267 155.705 92.2947 155.957C93.8427 156.227 95.0757 156.578 95.9937 157.01C96.9297 157.424 97.6317 158 98.0997 158.738C98.5677 159.458 98.8017 160.421 98.8017 161.627C98.8017 162.761 98.4777 163.76 97.8297 164.624C97.1997 165.47 96.3537 166.127 95.2917 166.595C94.2297 167.045 93.0867 167.27 91.8627 167.27ZM108.594 163.949C108.846 163.949 109.071 164.075 109.269 164.327C109.485 164.561 109.593 164.876 109.593 165.272C109.593 165.758 109.323 166.172 108.783 166.514C108.261 166.838 107.667 167 107.001 167C105.885 167 104.94 166.766 104.166 166.298C103.41 165.812 103.032 164.795 103.032 163.247V155.795H101.79C101.358 155.795 100.998 155.651 100.71 155.363C100.422 155.075 100.278 154.715 100.278 154.283C100.278 153.869 100.422 153.527 100.71 153.257C100.998 152.969 101.358 152.825 101.79 152.825H103.032V151.097C103.032 150.629 103.185 150.242 103.491 149.936C103.815 149.612 104.211 149.45 104.679 149.45C105.129 149.45 105.507 149.612 105.813 149.936C106.119 150.242 106.272 150.629 106.272 151.097V152.825H108.189C108.621 152.825 108.981 152.969 109.269 153.257C109.557 153.545 109.701 153.905 109.701 154.337C109.701 154.751 109.557 155.102 109.269 155.39C108.981 155.66 108.621 155.795 108.189 155.795H106.272V163.112C106.272 163.49 106.371 163.769 106.569 163.949C106.767 164.111 107.037 164.192 107.379 164.192C107.523 164.192 107.721 164.156 107.973 164.084C108.189 163.994 108.396 163.949 108.594 163.949ZM126.422 159.791C126.422 161.231 126.098 162.527 125.45 163.679C124.802 164.813 123.911 165.695 122.777 166.325C121.661 166.955 120.428 167.27 119.078 167.27C117.71 167.27 116.468 166.955 115.352 166.325C114.236 165.695 113.354 164.813 112.706 163.679C112.058 162.527 111.734 161.231 111.734 159.791C111.734 158.351 112.058 157.064 112.706 155.93C113.354 154.778 114.236 153.887 115.352 153.257C116.468 152.609 117.71 152.285 119.078 152.285C120.428 152.285 121.661 152.609 122.777 153.257C123.911 153.887 124.802 154.778 125.45 155.93C126.098 157.064 126.422 158.351 126.422 159.791ZM123.182 159.791C123.182 158.909 122.993 158.126 122.615 157.442C122.255 156.74 121.76 156.2 121.13 155.822C120.518 155.444 119.834 155.255 119.078 155.255C118.322 155.255 117.629 155.444 116.999 155.822C116.387 156.2 115.892 156.74 115.514 157.442C115.154 158.126 114.974 158.909 114.974 159.791C114.974 160.673 115.154 161.456 115.514 162.14C115.892 162.824 116.387 163.355 116.999 163.733C117.629 164.111 118.322 164.3 119.078 164.3C119.834 164.3 120.518 164.111 121.13 163.733C121.76 163.355 122.255 162.824 122.615 162.14C122.993 161.456 123.182 160.673 123.182 159.791ZM136.635 152.285C137.175 152.285 137.625 152.438 137.985 152.744C138.363 153.05 138.552 153.41 138.552 153.824C138.552 154.382 138.408 154.805 138.12 155.093C137.832 155.363 137.49 155.498 137.094 155.498C136.824 155.498 136.518 155.435 136.176 155.309C136.122 155.291 135.996 155.255 135.798 155.201C135.618 155.147 135.42 155.12 135.204 155.12C134.736 155.12 134.286 155.264 133.854 155.552C133.422 155.84 133.062 156.281 132.774 156.875C132.504 157.451 132.369 158.144 132.369 158.954V165.353C132.369 165.821 132.216 166.217 131.91 166.541C131.604 166.847 131.217 167 130.749 167C130.281 167 129.894 166.847 129.588 166.541C129.282 166.217 129.129 165.821 129.129 165.353V154.202C129.129 153.734 129.282 153.347 129.588 153.041C129.894 152.717 130.281 152.555 130.749 152.555C131.217 152.555 131.604 152.717 131.91 153.041C132.216 153.347 132.369 153.734 132.369 154.202V154.553C132.783 153.815 133.377 153.257 134.151 152.879C134.925 152.483 135.753 152.285 136.635 152.285ZM152.211 152.285C152.679 152.285 153.066 152.438 153.372 152.744C153.678 153.05 153.831 153.446 153.831 153.932V165.353C153.831 165.821 153.678 166.217 153.372 166.541C153.066 166.847 152.679 167 152.211 167C151.743 167 151.356 166.847 151.05 166.541C150.762 166.235 150.609 165.848 150.591 165.38C150.141 165.902 149.529 166.352 148.755 166.73C147.999 167.09 147.198 167.27 146.352 167.27C145.11 167.27 143.985 166.955 142.977 166.325C141.969 165.677 141.168 164.786 140.574 163.652C139.998 162.518 139.71 161.231 139.71 159.791C139.71 158.351 139.998 157.064 140.574 155.93C141.15 154.778 141.933 153.887 142.923 153.257C143.931 152.609 145.038 152.285 146.244 152.285C147.108 152.285 147.918 152.447 148.674 152.771C149.43 153.077 150.069 153.473 150.591 153.959V153.932C150.591 153.464 150.744 153.077 151.05 152.771C151.356 152.447 151.743 152.285 152.211 152.285ZM146.757 164.3C147.927 164.3 148.881 163.877 149.619 163.031C150.357 162.167 150.726 161.087 150.726 159.791C150.726 158.495 150.357 157.415 149.619 156.551C148.881 155.687 147.927 155.255 146.757 155.255C145.605 155.255 144.66 155.687 143.922 156.551C143.184 157.415 142.815 158.495 142.815 159.791C142.815 161.087 143.175 162.167 143.895 163.031C144.633 163.877 145.587 164.3 146.757 164.3ZM169.303 152.285C169.771 152.285 170.158 152.438 170.464 152.744C170.77 153.05 170.923 153.446 170.923 153.932V165.947C170.923 168.143 170.239 169.763 168.871 170.807C167.521 171.869 165.802 172.4 163.714 172.4C163.174 172.4 162.427 172.31 161.473 172.13C160.537 171.95 159.871 171.77 159.475 171.59C158.593 171.212 158.152 170.69 158.152 170.024C158.152 169.898 158.179 169.754 158.233 169.592C158.341 169.196 158.521 168.89 158.773 168.674C159.043 168.476 159.331 168.377 159.637 168.377C159.817 168.377 159.988 168.404 160.15 168.458C160.222 168.476 160.663 168.638 161.473 168.944C162.301 169.268 163.048 169.43 163.714 169.43C165.046 169.43 166.036 169.16 166.684 168.62C167.35 168.098 167.683 167.351 167.683 166.379V165.083C167.287 165.641 166.684 166.145 165.874 166.595C165.082 167.045 164.227 167.27 163.309 167.27C162.049 167.27 160.897 166.955 159.853 166.325C158.827 165.677 158.017 164.786 157.423 163.652C156.829 162.518 156.532 161.231 156.532 159.791C156.532 158.351 156.82 157.064 157.396 155.93C157.99 154.778 158.791 153.887 159.799 153.257C160.825 152.609 161.959 152.285 163.201 152.285C164.119 152.285 164.974 152.474 165.766 152.852C166.558 153.23 167.197 153.689 167.683 154.229V153.932C167.683 153.464 167.836 153.077 168.142 152.771C168.448 152.447 168.835 152.285 169.303 152.285ZM163.714 164.3C164.92 164.3 165.901 163.877 166.657 163.031C167.431 162.167 167.818 161.087 167.818 159.791C167.818 158.495 167.431 157.415 166.657 156.551C165.901 155.687 164.92 155.255 163.714 155.255C162.508 155.255 161.527 155.687 160.771 156.551C160.015 157.415 159.637 158.495 159.637 159.791C159.637 161.087 160.015 162.167 160.771 163.031C161.527 163.877 162.508 164.3 163.714 164.3ZM186.861 159.44C186.843 159.872 186.672 160.223 186.348 160.493C186.024 160.763 185.646 160.898 185.214 160.898H176.304C176.52 161.96 177.015 162.797 177.789 163.409C178.563 164.003 179.436 164.3 180.408 164.3C181.146 164.3 181.722 164.237 182.136 164.111C182.55 163.967 182.874 163.823 183.108 163.679C183.36 163.517 183.531 163.409 183.621 163.355C183.945 163.193 184.251 163.112 184.539 163.112C184.917 163.112 185.241 163.247 185.511 163.517C185.781 163.787 185.916 164.102 185.916 164.462C185.916 164.948 185.664 165.389 185.16 165.785C184.656 166.199 183.981 166.55 183.135 166.838C182.289 167.126 181.434 167.27 180.57 167.27C179.058 167.27 177.735 166.955 176.601 166.325C175.485 165.695 174.621 164.831 174.009 163.733C173.397 162.617 173.091 161.366 173.091 159.98C173.091 158.432 173.415 157.073 174.063 155.903C174.711 154.733 175.566 153.842 176.628 153.23C177.69 152.6 178.824 152.285 180.03 152.285C181.218 152.285 182.334 152.609 183.378 153.257C184.44 153.905 185.286 154.778 185.916 155.876C186.546 156.974 186.861 158.162 186.861 159.44ZM180.03 155.255C177.942 155.255 176.709 156.236 176.331 158.198H183.405V158.009C183.333 157.253 182.964 156.605 182.298 156.065C181.632 155.525 180.876 155.255 180.03 155.255ZM204.069 149.882C203.457 149.882 203.025 150.062 202.773 150.422C202.521 150.764 202.395 151.142 202.395 151.556V152.825H204.852C205.284 152.825 205.644 152.969 205.932 153.257C206.22 153.527 206.364 153.878 206.364 154.31C206.364 154.742 206.22 155.102 205.932 155.39C205.644 155.66 205.284 155.795 204.852 155.795H202.395V165.353C202.395 165.821 202.242 166.217 201.936 166.541C201.63 166.847 201.243 167 200.775 167C200.307 167 199.92 166.847 199.614 166.541C199.308 166.217 199.155 165.821 199.155 165.353V155.795H197.697C197.265 155.795 196.905 155.66 196.617 155.39C196.329 155.102 196.185 154.742 196.185 154.31C196.185 153.878 196.329 153.527 196.617 153.257C196.905 152.969 197.265 152.825 197.697 152.825H199.155V151.583C199.155 150.233 199.614 149.135 200.532 148.289C201.468 147.443 202.809 147.02 204.555 147.02C205.221 147.02 205.797 147.155 206.283 147.425C206.787 147.695 207.039 148.109 207.039 148.667C207.039 149.099 206.913 149.45 206.661 149.72C206.409 149.99 206.103 150.125 205.743 150.125C205.653 150.125 205.554 150.116 205.446 150.098C205.356 150.08 205.257 150.062 205.149 150.044C204.717 149.936 204.357 149.882 204.069 149.882ZM222.267 159.791C222.267 161.231 221.943 162.527 221.295 163.679C220.647 164.813 219.756 165.695 218.622 166.325C217.506 166.955 216.273 167.27 214.923 167.27C213.555 167.27 212.313 166.955 211.197 166.325C210.081 165.695 209.199 164.813 208.551 163.679C207.903 162.527 207.579 161.231 207.579 159.791C207.579 158.351 207.903 157.064 208.551 155.93C209.199 154.778 210.081 153.887 211.197 153.257C212.313 152.609 213.555 152.285 214.923 152.285C216.273 152.285 217.506 152.609 218.622 153.257C219.756 153.887 220.647 154.778 221.295 155.93C221.943 157.064 222.267 158.351 222.267 159.791ZM219.027 159.791C219.027 158.909 218.838 158.126 218.46 157.442C218.1 156.74 217.605 156.2 216.975 155.822C216.363 155.444 215.679 155.255 214.923 155.255C214.167 155.255 213.474 155.444 212.844 155.822C212.232 156.2 211.737 156.74 211.359 157.442C210.999 158.126 210.819 158.909 210.819 159.791C210.819 160.673 210.999 161.456 211.359 162.14C211.737 162.824 212.232 163.355 212.844 163.733C213.474 164.111 214.167 164.3 214.923 164.3C215.679 164.3 216.363 164.111 216.975 163.733C217.605 163.355 218.1 162.824 218.46 162.14C218.838 161.456 219.027 160.673 219.027 159.791ZM232.48 152.285C233.02 152.285 233.47 152.438 233.83 152.744C234.208 153.05 234.397 153.41 234.397 153.824C234.397 154.382 234.253 154.805 233.965 155.093C233.677 155.363 233.335 155.498 232.939 155.498C232.669 155.498 232.363 155.435 232.021 155.309C231.967 155.291 231.841 155.255 231.643 155.201C231.463 155.147 231.265 155.12 231.049 155.12C230.581 155.12 230.131 155.264 229.699 155.552C229.267 155.84 228.907 156.281 228.619 156.875C228.349 157.451 228.214 158.144 228.214 158.954V165.353C228.214 165.821 228.061 166.217 227.755 166.541C227.449 166.847 227.062 167 226.594 167C226.126 167 225.739 166.847 225.433 166.541C225.127 166.217 224.974 165.821 224.974 165.353V154.202C224.974 153.734 225.127 153.347 225.433 153.041C225.739 152.717 226.126 152.555 226.594 152.555C227.062 152.555 227.449 152.717 227.755 153.041C228.061 153.347 228.214 153.734 228.214 154.202V154.553C228.628 153.815 229.222 153.257 229.996 152.879C230.77 152.483 231.598 152.285 232.48 152.285ZM252.618 148.1C254.31 148.1 255.759 148.523 256.965 149.369C258.189 150.197 259.116 151.331 259.746 152.771C260.394 154.193 260.718 155.786 260.718 157.55C260.718 159.314 260.394 160.916 259.746 162.356C259.116 163.778 258.189 164.912 256.965 165.758C255.759 166.586 254.31 167 252.618 167H246.165C245.697 167 245.301 166.847 244.977 166.541C244.671 166.217 244.518 165.821 244.518 165.353V149.747C244.518 149.279 244.671 148.892 244.977 148.586C245.301 148.262 245.697 148.1 246.165 148.1H252.618ZM252.348 163.895C253.968 163.895 255.183 163.301 255.993 162.113C256.803 160.907 257.208 159.386 257.208 157.55C257.208 155.714 256.794 154.202 255.966 153.014C255.156 151.808 253.95 151.205 252.348 151.205H247.893V163.895H252.348ZM276.72 159.44C276.702 159.872 276.531 160.223 276.207 160.493C275.883 160.763 275.505 160.898 275.073 160.898H266.163C266.379 161.96 266.874 162.797 267.648 163.409C268.422 164.003 269.295 164.3 270.267 164.3C271.005 164.3 271.581 164.237 271.995 164.111C272.409 163.967 272.733 163.823 272.967 163.679C273.219 163.517 273.39 163.409 273.48 163.355C273.804 163.193 274.11 163.112 274.398 163.112C274.776 163.112 275.1 163.247 275.37 163.517C275.64 163.787 275.775 164.102 275.775 164.462C275.775 164.948 275.523 165.389 275.019 165.785C274.515 166.199 273.84 166.55 272.994 166.838C272.148 167.126 271.293 167.27 270.429 167.27C268.917 167.27 267.594 166.955 266.46 166.325C265.344 165.695 264.48 164.831 263.868 163.733C263.256 162.617 262.95 161.366 262.95 159.98C262.95 158.432 263.274 157.073 263.922 155.903C264.57 154.733 265.425 153.842 266.487 153.23C267.549 152.6 268.683 152.285 269.889 152.285C271.077 152.285 272.193 152.609 273.237 153.257C274.299 153.905 275.145 154.778 275.775 155.876C276.405 156.974 276.72 158.162 276.72 159.44ZM269.889 155.255C267.801 155.255 266.568 156.236 266.19 158.198H273.264V158.009C273.192 157.253 272.823 156.605 272.157 156.065C271.491 155.525 270.735 155.255 269.889 155.255ZM278.585 164.759C278.423 164.543 278.342 164.273 278.342 163.949C278.342 163.481 278.576 163.085 279.044 162.761C279.296 162.599 279.557 162.518 279.827 162.518C280.205 162.518 280.565 162.689 280.907 163.031C281.447 163.589 282.005 164.003 282.581 164.273C283.175 164.543 283.886 164.678 284.714 164.678C286.118 164.624 286.82 164.093 286.82 163.085C286.82 162.563 286.577 162.167 286.091 161.897C285.623 161.627 284.885 161.357 283.877 161.087C282.833 160.799 281.978 160.511 281.312 160.223C280.664 159.935 280.097 159.503 279.611 158.927C279.143 158.333 278.909 157.541 278.909 156.551C278.909 155.687 279.152 154.94 279.638 154.31C280.142 153.662 280.79 153.167 281.582 152.825C282.392 152.465 283.247 152.285 284.147 152.285C285.065 152.285 285.983 152.456 286.901 152.798C287.819 153.14 288.539 153.644 289.061 154.31C289.295 154.598 289.412 154.922 289.412 155.282C289.412 155.696 289.241 156.038 288.899 156.308C288.647 156.506 288.359 156.605 288.035 156.605C287.639 156.605 287.315 156.479 287.063 156.227C286.739 155.831 286.316 155.516 285.794 155.282C285.29 155.048 284.714 154.931 284.066 154.931C282.698 154.931 282.014 155.426 282.014 156.416C282.014 156.812 282.14 157.136 282.392 157.388C282.644 157.622 282.959 157.811 283.337 157.955C283.733 158.081 284.282 158.243 284.984 158.441C285.956 158.711 286.766 158.99 287.414 159.278C288.062 159.566 288.611 160.007 289.061 160.601C289.511 161.195 289.736 161.978 289.736 162.95C289.736 163.832 289.475 164.606 288.953 165.272C288.431 165.92 287.756 166.415 286.928 166.757C286.118 167.099 285.281 167.27 284.417 167.27C283.229 167.27 282.122 167.072 281.096 166.676C280.07 166.28 279.233 165.641 278.585 164.759ZM295.498 165.353C295.498 165.821 295.345 166.217 295.039 166.541C294.733 166.847 294.346 167 293.878 167C293.41 167 293.023 166.847 292.717 166.541C292.411 166.217 292.258 165.821 292.258 165.353V154.202C292.258 153.734 292.411 153.347 292.717 153.041C293.023 152.717 293.41 152.555 293.878 152.555C294.346 152.555 294.733 152.717 295.039 153.041C295.345 153.347 295.498 153.734 295.498 154.202V165.353ZM293.851 150.8C293.239 150.8 292.807 150.701 292.555 150.503C292.303 150.305 292.177 149.954 292.177 149.45V148.937C292.177 148.433 292.312 148.082 292.582 147.884C292.852 147.686 293.284 147.587 293.878 147.587C294.508 147.587 294.949 147.686 295.201 147.884C295.453 148.082 295.579 148.433 295.579 148.937V149.45C295.579 149.972 295.444 150.332 295.174 150.53C294.922 150.71 294.481 150.8 293.851 150.8ZM310.789 152.285C311.257 152.285 311.644 152.438 311.95 152.744C312.256 153.05 312.409 153.446 312.409 153.932V165.947C312.409 168.143 311.725 169.763 310.357 170.807C309.007 171.869 307.288 172.4 305.2 172.4C304.66 172.4 303.913 172.31 302.959 172.13C302.023 171.95 301.357 171.77 300.961 171.59C300.079 171.212 299.638 170.69 299.638 170.024C299.638 169.898 299.665 169.754 299.719 169.592C299.827 169.196 300.007 168.89 300.259 168.674C300.529 168.476 300.817 168.377 301.123 168.377C301.303 168.377 301.474 168.404 301.636 168.458C301.708 168.476 302.149 168.638 302.959 168.944C303.787 169.268 304.534 169.43 305.2 169.43C306.532 169.43 307.522 169.16 308.17 168.62C308.836 168.098 309.169 167.351 309.169 166.379V165.083C308.773 165.641 308.17 166.145 307.36 166.595C306.568 167.045 305.713 167.27 304.795 167.27C303.535 167.27 302.383 166.955 301.339 166.325C300.313 165.677 299.503 164.786 298.909 163.652C298.315 162.518 298.018 161.231 298.018 159.791C298.018 158.351 298.306 157.064 298.882 155.93C299.476 154.778 300.277 153.887 301.285 153.257C302.311 152.609 303.445 152.285 304.687 152.285C305.605 152.285 306.46 152.474 307.252 152.852C308.044 153.23 308.683 153.689 309.169 154.229V153.932C309.169 153.464 309.322 153.077 309.628 152.771C309.934 152.447 310.321 152.285 310.789 152.285ZM305.2 164.3C306.406 164.3 307.387 163.877 308.143 163.031C308.917 162.167 309.304 161.087 309.304 159.791C309.304 158.495 308.917 157.415 308.143 156.551C307.387 155.687 306.406 155.255 305.2 155.255C303.994 155.255 303.013 155.687 302.257 156.551C301.501 157.415 301.123 158.495 301.123 159.791C301.123 161.087 301.501 162.167 302.257 163.031C303.013 163.877 303.994 164.3 305.2 164.3ZM323.636 152.285C325.472 152.285 326.741 152.834 327.443 153.932C328.145 155.012 328.496 156.515 328.496 158.441V165.353C328.496 165.821 328.343 166.217 328.037 166.541C327.731 166.847 327.344 167 326.876 167C326.408 167 326.021 166.847 325.715 166.541C325.409 166.217 325.256 165.821 325.256 165.353V158.441C325.256 157.451 325.049 156.677 324.635 156.119C324.221 155.543 323.51 155.255 322.502 155.255C321.458 155.255 320.639 155.561 320.045 156.173C319.451 156.767 319.154 157.523 319.154 158.441V165.353C319.154 165.821 319.001 166.217 318.695 166.541C318.389 166.847 318.002 167 317.534 167C317.066 167 316.679 166.847 316.373 166.541C316.067 166.217 315.914 165.821 315.914 165.353V154.202C315.914 153.734 316.067 153.347 316.373 153.041C316.679 152.717 317.066 152.555 317.534 152.555C318.002 152.555 318.389 152.717 318.695 153.041C319.001 153.347 319.154 153.734 319.154 154.202V154.661C319.64 154.013 320.27 153.455 321.044 152.987C321.836 152.519 322.7 152.285 323.636 152.285ZM344.958 159.44C344.94 159.872 344.769 160.223 344.445 160.493C344.121 160.763 343.743 160.898 343.311 160.898H334.401C334.617 161.96 335.112 162.797 335.886 163.409C336.66 164.003 337.533 164.3 338.505 164.3C339.243 164.3 339.819 164.237 340.233 164.111C340.647 163.967 340.971 163.823 341.205 163.679C341.457 163.517 341.628 163.409 341.718 163.355C342.042 163.193 342.348 163.112 342.636 163.112C343.014 163.112 343.338 163.247 343.608 163.517C343.878 163.787 344.013 164.102 344.013 164.462C344.013 164.948 343.761 165.389 343.257 165.785C342.753 166.199 342.078 166.55 341.232 166.838C340.386 167.126 339.531 167.27 338.667 167.27C337.155 167.27 335.832 166.955 334.698 166.325C333.582 165.695 332.718 164.831 332.106 163.733C331.494 162.617 331.188 161.366 331.188 159.98C331.188 158.432 331.512 157.073 332.16 155.903C332.808 154.733 333.663 153.842 334.725 153.23C335.787 152.6 336.921 152.285 338.127 152.285C339.315 152.285 340.431 152.609 341.475 153.257C342.537 153.905 343.383 154.778 344.013 155.876C344.643 156.974 344.958 158.162 344.958 159.44ZM338.127 155.255C336.039 155.255 334.806 156.236 334.428 158.198H341.502V158.009C341.43 157.253 341.061 156.605 340.395 156.065C339.729 155.525 338.973 155.255 338.127 155.255ZM355.166 152.285C355.706 152.285 356.156 152.438 356.516 152.744C356.894 153.05 357.083 153.41 357.083 153.824C357.083 154.382 356.939 154.805 356.651 155.093C356.363 155.363 356.021 155.498 355.625 155.498C355.355 155.498 355.049 155.435 354.707 155.309C354.653 155.291 354.527 155.255 354.329 155.201C354.149 155.147 353.951 155.12 353.735 155.12C353.267 155.12 352.817 155.264 352.385 155.552C351.953 155.84 351.593 156.281 351.305 156.875C351.035 157.451 350.9 158.144 350.9 158.954V165.353C350.9 165.821 350.747 166.217 350.441 166.541C350.135 166.847 349.748 167 349.28 167C348.812 167 348.425 166.847 348.119 166.541C347.813 166.217 347.66 165.821 347.66 165.353V154.202C347.66 153.734 347.813 153.347 348.119 153.041C348.425 152.717 348.812 152.555 349.28 152.555C349.748 152.555 350.135 152.717 350.441 153.041C350.747 153.347 350.9 153.734 350.9 154.202V154.553C351.314 153.815 351.908 153.257 352.682 152.879C353.456 152.483 354.284 152.285 355.166 152.285ZM358.53 164.759C358.368 164.543 358.287 164.273 358.287 163.949C358.287 163.481 358.521 163.085 358.989 162.761C359.241 162.599 359.502 162.518 359.772 162.518C360.15 162.518 360.51 162.689 360.852 163.031C361.392 163.589 361.95 164.003 362.526 164.273C363.12 164.543 363.831 164.678 364.659 164.678C366.063 164.624 366.765 164.093 366.765 163.085C366.765 162.563 366.522 162.167 366.036 161.897C365.568 161.627 364.83 161.357 363.822 161.087C362.778 160.799 361.923 160.511 361.257 160.223C360.609 159.935 360.042 159.503 359.556 158.927C359.088 158.333 358.854 157.541 358.854 156.551C358.854 155.687 359.097 154.94 359.583 154.31C360.087 153.662 360.735 153.167 361.527 152.825C362.337 152.465 363.192 152.285 364.092 152.285C365.01 152.285 365.928 152.456 366.846 152.798C367.764 153.14 368.484 153.644 369.006 154.31C369.24 154.598 369.357 154.922 369.357 155.282C369.357 155.696 369.186 156.038 368.844 156.308C368.592 156.506 368.304 156.605 367.98 156.605C367.584 156.605 367.26 156.479 367.008 156.227C366.684 155.831 366.261 155.516 365.739 155.282C365.235 155.048 364.659 154.931 364.011 154.931C362.643 154.931 361.959 155.426 361.959 156.416C361.959 156.812 362.085 157.136 362.337 157.388C362.589 157.622 362.904 157.811 363.282 157.955C363.678 158.081 364.227 158.243 364.929 158.441C365.901 158.711 366.711 158.99 367.359 159.278C368.007 159.566 368.556 160.007 369.006 160.601C369.456 161.195 369.681 161.978 369.681 162.95C369.681 163.832 369.42 164.606 368.898 165.272C368.376 165.92 367.701 166.415 366.873 166.757C366.063 167.099 365.226 167.27 364.362 167.27C363.174 167.27 362.067 167.072 361.041 166.676C360.015 166.28 359.178 165.641 358.53 164.759Z" fill="#505050"/>
</svg>
