<svg width="694" height="368" viewBox="0 0 694 368" fill="none" xmlns="http://www.w3.org/2000/svg">
<line x1="62.2548" y1="90.5" x2="62.2548" y2="277.988" stroke="#8F95AB" stroke-width="0.779167"/>
<line x1="124.893" y1="90.5" x2="124.893" y2="277.988" stroke="#8F95AB" stroke-width="0.779167"/>
<path d="M93.7031 90.5L93.7031 277.988" stroke="#8F95AB" stroke-width="0.779167"/>
<line x1="-1.69849e-08" y1="214.615" x2="187" y2="214.615" stroke="#8F95AB" stroke-width="0.779167"/>
<line x1="-1.69849e-08" y1="153.095" x2="187" y2="153.095" stroke="#8F95AB" stroke-width="0.779167"/>
<line x1="-1.69849e-08" y1="183.856" x2="187" y2="183.856" stroke="#8F95AB" stroke-width="0.779167"/>
<path d="M0.623697 91.1246L186.501 276.936" stroke="#8F95AB" stroke-width="0.779167"/>
<path d="M0.730667 277.379L186.336 91.1651" stroke="#8F95AB" stroke-width="0.779167"/>
<path d="M108.693 184.001C108.693 192.393 101.891 199.195 93.4993 199.195C85.1081 199.195 78.3056 192.393 78.3056 184.001C78.3056 175.61 85.1081 168.808 93.4993 168.808C101.891 168.808 108.693 175.61 108.693 184.001Z" stroke="#8F95AB" stroke-width="0.779167"/>
<path d="M132.211 184.143C132.211 205.444 114.943 222.712 93.6419 222.712C72.341 222.712 55.0732 205.444 55.0732 184.143C55.0732 162.842 72.341 145.574 93.6419 145.574C114.943 145.574 132.211 162.842 132.211 184.143Z" stroke="#8F95AB" stroke-width="0.779167"/>
<path d="M170.985 184.488C170.985 227.283 136.294 261.975 93.499 261.975C50.7045 261.975 16.0126 227.283 16.0126 184.488C16.0126 141.694 50.7045 107.002 93.499 107.002C136.294 107.002 170.985 141.694 170.985 184.488Z" stroke="#8F95AB" stroke-width="0.779167"/>
<path d="M31.6376 120.772C31.6376 112.897 38.0211 106.514 45.8956 106.514H141.267C149.142 106.514 155.525 112.897 155.525 120.772V247.31C155.525 255.184 149.142 261.568 141.267 261.568H45.8955C38.0211 261.568 31.6376 255.184 31.6376 247.31V120.772Z" stroke="#8F95AB" stroke-width="0.779167"/>
<path d="M16.0126 136.397C16.0126 128.522 22.3961 122.139 30.2706 122.139H156.809C164.683 122.139 171.067 128.522 171.067 136.397V231.768C171.067 239.643 164.683 246.026 156.809 246.026H30.2705C22.3961 246.026 16.0126 239.643 16.0126 231.768V136.397Z" stroke="#8F95AB" stroke-width="0.779167"/>
<path d="M23.7636 128.584C23.7636 120.71 30.1471 114.326 38.0215 114.326H148.976C156.851 114.326 163.234 120.71 163.234 128.584V239.539C163.234 247.413 156.851 253.797 148.977 253.797H38.0215C30.1471 253.797 23.7636 247.413 23.7636 239.539V128.584Z" stroke="#8F95AB" stroke-width="0.779167"/>
<rect x="0.389583" y="90.8896" width="186.221" height="186.709" stroke="#8F95AB" stroke-width="0.779167"/>
<circle cx="93.4997" cy="184.001" r="70.125" fill="white" fill-opacity="0.15" stroke="#415268" stroke-width="15.5833"/>
<rect width="15.5833" height="62.3333" transform="matrix(-0.707107 -0.707107 -0.707107 0.707107 134.275 164.479)" fill="#415268"/>
<rect width="15.5833" height="46.75" transform="matrix(0.707107 -0.707107 -0.707107 -0.707107 79.8057 218.948)" fill="#415268"/>
<path d="M673.495 268.458L680.022 274.98" stroke="#415268" stroke-width="2"/>
<path d="M666.929 253.42L667.636 252.713L666.929 253.42ZM665.514 253.42L666.222 254.127L665.514 253.42ZM667.939 254.428L667.231 255.135L667.939 254.428ZM667.939 255.842L667.231 255.135L667.939 255.842ZM666.828 256.952L666.12 256.245L665.413 256.952L666.12 257.659L666.828 256.952ZM672.889 263.008L672.181 263.715L672.889 264.421L673.596 263.715L672.889 263.008ZM675.414 261.898L674.707 262.605L675.414 261.898ZM676.424 262.907L675.717 263.613L676.424 262.907ZM676.424 264.32L675.717 263.613L675.717 263.613L676.424 264.32ZM669.353 271.385L670.061 272.091L669.353 271.385ZM667.939 271.385L667.231 272.091L667.939 271.385ZM666.929 270.376L667.636 269.669L666.929 270.376ZM666.929 268.962L667.636 269.669L666.929 268.962ZM668.04 267.852L668.747 268.559L669.455 267.852L668.747 267.146L668.04 267.852ZM661.979 261.797L662.686 261.09L661.979 260.383L661.272 261.09L661.979 261.797ZM658.444 260.484L657.736 259.777L658.444 260.484ZM667.636 252.713C666.855 251.932 665.588 251.932 664.807 252.713L666.222 254.127L666.222 254.127L667.636 252.713ZM668.646 253.722L667.636 252.713L666.222 254.127L667.231 255.135L668.646 253.722ZM668.646 256.549C669.427 255.768 669.427 254.502 668.646 253.722L667.231 255.135L667.231 255.135L668.646 256.549ZM667.535 257.659L668.646 256.549L667.231 255.135L666.12 256.245L667.535 257.659ZM666.12 257.659L672.181 263.715L673.596 262.301L667.535 256.245L666.12 257.659ZM673.292 261.191L672.181 262.301L673.596 263.715L674.707 262.605L673.292 261.191ZM676.122 261.191C675.34 260.41 674.074 260.41 673.292 261.191L674.707 262.605L674.707 262.605L676.122 261.191ZM677.131 262.2L676.122 261.191L674.707 262.605L675.717 263.613L677.131 262.2ZM677.131 265.027C677.913 264.246 677.913 262.98 677.131 262.2L675.717 263.613L675.717 263.613L677.131 265.027ZM670.061 272.091L677.131 265.027L675.717 263.613L668.646 270.678L670.061 272.091ZM667.231 272.091C668.013 272.872 669.279 272.872 670.061 272.091L668.646 270.678L667.231 272.091ZM666.222 271.083L667.231 272.091L668.646 270.678L667.636 269.669L666.222 271.083ZM666.222 268.256C665.44 269.036 665.44 270.302 666.222 271.083L667.636 269.669L666.222 268.256ZM667.333 267.146L666.222 268.256L667.636 269.669L668.747 268.559L667.333 267.146ZM668.747 267.146L662.686 261.09L661.272 262.503L667.333 268.559L668.747 267.146ZM661.576 263.613L662.686 262.503L661.272 261.09L660.161 262.2L661.576 263.613ZM658.746 263.613C659.527 264.394 660.794 264.394 661.576 263.613L660.161 262.2L658.746 263.613ZM657.736 262.605L658.746 263.613L660.161 262.2L659.151 261.191L657.736 262.605ZM657.736 259.777C656.955 260.558 656.955 261.824 657.736 262.605L659.151 261.191L659.151 261.191L657.736 259.777ZM664.807 252.713L657.736 259.777L659.151 261.191L666.222 254.127L664.807 252.713Z" fill="#415268"/>
<line x1="460.308" y1="338" x2="463.308" y2="338" stroke="#415268" stroke-width="2"/>
<line x1="460.308" y1="342" x2="463.308" y2="342" stroke="#415268" stroke-width="2"/>
<line x1="460.308" y1="346" x2="463.308" y2="346" stroke="#415268" stroke-width="2"/>
<mask id="path-29-inside-1" fill="white">
<rect x="462.308" y="338" width="18" height="20" rx="1"/>
</mask>
<rect x="462.308" y="338" width="18" height="20" rx="1" stroke="#415268" stroke-width="4" mask="url(#path-29-inside-1)"/>
<line x1="466.308" y1="341.546" x2="474.308" y2="341.546" stroke="#415268" stroke-width="2"/>
<line x1="466.308" y1="345.182" x2="474.308" y2="345.182" stroke="#415268" stroke-width="2"/>
<line x1="466.308" y1="348.818" x2="472.308" y2="348.818" stroke="#415268" stroke-width="2"/>
<path d="M479.086 332.621L476.551 336.463L474.015 332.621L479.086 332.621Z" fill="#415268" stroke="#415268"/>
<mask id="path-34-inside-2" fill="white">
<path fill-rule="evenodd" clip-rule="evenodd" d="M475.308 333L477.308 333C477.308 330.239 475.069 328 472.308 328C469.546 328 467.308 330.239 467.308 333L469.308 333C469.308 331.343 470.651 330 472.308 330C473.964 330 475.308 331.343 475.308 333Z"/>
</mask>
<path fill-rule="evenodd" clip-rule="evenodd" d="M475.308 333L477.308 333C477.308 330.239 475.069 328 472.308 328C469.546 328 467.308 330.239 467.308 333L469.308 333C469.308 331.343 470.651 330 472.308 330C473.964 330 475.308 331.343 475.308 333Z" fill="#5A5A5A"/>
<path d="M475.308 333L473.308 333L473.308 335L475.308 335L475.308 333ZM477.308 333L477.308 335L479.308 335L479.308 333L477.308 333ZM467.308 333L465.308 333L465.308 335L467.308 335L467.308 333ZM469.308 333L469.308 335L471.308 335L471.308 333L469.308 333ZM475.308 335L477.308 335L477.308 331L475.308 331L475.308 335ZM479.308 333C479.308 329.134 476.174 326 472.308 326L472.308 330C473.964 330 475.308 331.343 475.308 333L479.308 333ZM472.308 326C468.442 326 465.308 329.134 465.308 333L469.308 333C469.308 331.343 470.651 330 472.308 330L472.308 326ZM467.308 335L469.308 335L469.308 331L467.308 331L467.308 335ZM472.308 328C469.546 328 467.308 330.239 467.308 333L471.308 333C471.308 332.448 471.755 332 472.308 332L472.308 328ZM477.308 333C477.308 330.239 475.069 328 472.308 328L472.308 332C472.86 332 473.308 332.448 473.308 333L477.308 333Z" fill="#415268" mask="url(#path-34-inside-2)"/>
<path fill-rule="evenodd" clip-rule="evenodd" d="M458.308 352V336H470.308V338H472.308V335C472.308 334.448 471.86 334 471.308 334H457.308C456.755 334 456.308 334.448 456.308 335V353C456.308 353.552 456.755 354 457.308 354H462.308V352H458.308Z" fill="#415268"/>
<path d="M265.793 19.2667L266.093 19.6667H266.593H278.593V31.0001H256.593V18C256.593 17.4477 257.04 17 257.593 17H264.093L265.793 19.2667Z" stroke="#415268" stroke-width="2"/>
<circle cx="671.022" cy="21" r="7" stroke="#415268" stroke-width="2"/>
<line x1="658.339" y1="33.2696" x2="665.825" y2="26.2696" stroke="#415268" stroke-width="2"/>
<path d="M267.593 259V269M272.593 264H262.593M277.593 264C277.593 269.523 273.116 274 267.593 274C262.07 274 257.593 269.523 257.593 264C257.593 258.477 262.07 254 267.593 254C273.116 254 277.593 258.477 277.593 264Z" stroke="#415268" stroke-width="2"/>
<mask id="path-45-inside-3" fill="white">
<rect x="556.665" y="256" width="24" height="16" rx="1"/>
</mask>
<rect x="556.665" y="256" width="24" height="16" rx="1" stroke="#415268" stroke-width="4" mask="url(#path-45-inside-3)"/>
<rect x="562.165" y="260.5" width="1" height="1" stroke="#415268"/>
<rect x="562.165" y="263.5" width="1" height="1" stroke="#415268"/>
<rect x="562.165" y="266.5" width="1" height="1" stroke="#415268"/>
<path d="M565.665 261H576.665" stroke="#415268" stroke-width="2"/>
<path d="M565.665 264H576.665" stroke="#415268" stroke-width="2"/>
<path d="M565.665 267H576.665" stroke="#415268" stroke-width="2"/>
<rect x="559.665" y="178.5" width="18" height="10" rx="1" stroke="#415268" stroke-width="2"/>
<line x1="572.665" y1="192.499" x2="572.68" y2="174.499" stroke="#415268" stroke-width="2"/>
<mask id="path-55-inside-4" fill="white">
<path fill-rule="evenodd" clip-rule="evenodd" d="M570.665 172.05V174.5C570.665 174.224 570.889 174 571.165 174C571.441 174 571.665 174.224 571.665 174.5H573.665C573.665 174.224 573.889 174 574.165 174C574.441 174 574.665 174.224 574.665 174.5V172.05C574.503 172.017 574.336 172 574.165 172C573.602 172 573.083 172.186 572.665 172.5C572.247 172.186 571.728 172 571.165 172C570.994 172 570.827 172.017 570.665 172.05Z"/>
</mask>
<path d="M570.665 172.05L570.466 171.07L569.665 171.233V172.05H570.665ZM571.665 174.5H570.665V175.5H571.665V174.5ZM573.665 174.5V175.5H574.665V174.5H573.665ZM574.665 172.05H575.665V171.233L574.864 171.07L574.665 172.05ZM572.665 172.5L572.064 173.299L572.665 173.75L573.266 173.299L572.665 172.5ZM569.665 172.05V174.5H571.665V172.05H569.665ZM571.665 174.5C571.665 174.776 571.441 175 571.165 175V173C570.337 173 569.665 173.672 569.665 174.5H571.665ZM571.165 175C570.889 175 570.665 174.776 570.665 174.5H572.665C572.665 173.672 571.993 173 571.165 173V175ZM571.665 175.5H573.665V173.5H571.665V175.5ZM574.165 173C573.337 173 572.665 173.672 572.665 174.5H574.665C574.665 174.776 574.441 175 574.165 175V173ZM575.665 174.5C575.665 173.672 574.993 173 574.165 173V175C573.889 175 573.665 174.776 573.665 174.5H575.665ZM575.665 174.5V172.05H573.665V174.5H575.665ZM574.864 171.07C574.637 171.024 574.403 171 574.165 171V173C574.269 173 574.37 173.01 574.466 173.03L574.864 171.07ZM574.165 171C573.378 171 572.65 171.261 572.064 171.7L573.266 173.299C573.516 173.111 573.826 173 574.165 173V171ZM573.266 171.7C572.681 171.261 571.952 171 571.165 171V173C571.504 173 571.814 173.111 572.064 173.299L573.266 171.7ZM571.165 171C570.927 171 570.693 171.024 570.466 171.07L570.864 173.03C570.96 173.01 571.061 173 571.165 173V171Z" fill="#415268" mask="url(#path-55-inside-4)"/>
<mask id="path-57-inside-5" fill="white">
<path fill-rule="evenodd" clip-rule="evenodd" d="M570.665 194.95V192.5C570.665 192.776 570.889 193 571.165 193C571.441 193 571.665 192.776 571.665 192.5H573.665C573.665 192.776 573.889 193 574.165 193C574.441 193 574.665 192.776 574.665 192.5V194.95C574.503 194.983 574.336 195 574.165 195C573.602 195 573.083 194.814 572.665 194.5C572.247 194.814 571.728 195 571.165 195C570.994 195 570.827 194.983 570.665 194.95Z"/>
</mask>
<path d="M570.665 194.95L570.466 195.93L569.665 195.767V194.95H570.665ZM571.665 192.5H570.665V191.5H571.665V192.5ZM573.665 192.5V191.5H574.665V192.5H573.665ZM574.665 194.95H575.665V195.767L574.864 195.93L574.665 194.95ZM572.665 194.5L572.064 193.701L572.665 193.25L573.266 193.701L572.665 194.5ZM569.665 194.95V192.5H571.665V194.95H569.665ZM571.665 192.5C571.665 192.224 571.441 192 571.165 192V194C570.337 194 569.665 193.328 569.665 192.5H571.665ZM571.165 192C570.889 192 570.665 192.224 570.665 192.5H572.665C572.665 193.328 571.993 194 571.165 194V192ZM571.665 191.5H573.665V193.5H571.665V191.5ZM574.165 194C573.337 194 572.665 193.328 572.665 192.5H574.665C574.665 192.224 574.441 192 574.165 192V194ZM575.665 192.5C575.665 193.328 574.993 194 574.165 194V192C573.889 192 573.665 192.224 573.665 192.5H575.665ZM575.665 192.5V194.95H573.665V192.5H575.665ZM574.864 195.93C574.637 195.976 574.403 196 574.165 196V194C574.269 194 574.37 193.99 574.466 193.97L574.864 195.93ZM574.165 196C573.378 196 572.65 195.739 572.064 195.3L573.266 193.701C573.516 193.889 573.826 194 574.165 194V196ZM573.266 195.3C572.681 195.739 571.952 196 571.165 196V194C571.504 194 571.814 193.889 572.064 193.701L573.266 195.3ZM571.165 196C570.927 196 570.693 195.976 570.466 195.93L570.864 193.97C570.96 193.99 571.061 194 571.165 194V196Z" fill="#415268" mask="url(#path-57-inside-5)"/>
<path d="M559.665 95C559.665 94.4477 560.113 94 560.665 94H576.665C577.217 94 577.665 94.4477 577.665 95V98H559.665V95Z" stroke="#415268" stroke-width="2"/>
<rect x="561.665" y="98" width="14" height="17" rx="1" fill="white" fill-opacity="0.15" stroke="#415268" stroke-width="2"/>
<line x1="564.665" y1="102" x2="564.665" y2="111" stroke="#415268" stroke-width="2"/>
<line x1="568.665" y1="102" x2="568.665" y2="111" stroke="#415268" stroke-width="2"/>
<line x1="572.665" y1="102" x2="572.665" y2="111" stroke="#415268" stroke-width="2"/>
<line x1="564.665" y1="92.5" x2="572.665" y2="92.5" stroke="#415268"/>
<circle cx="468.308" cy="104" r="9" stroke="#415268" stroke-width="2"/>
<rect width="2" height="8" transform="matrix(-0.707107 -0.707107 -0.707107 0.707107 473.621 101.414)" fill="#415268"/>
<rect width="2" height="6" transform="matrix(0.707107 -0.707107 -0.707107 -0.707107 466.55 108.485)" fill="#415268"/>
<rect x="364.95" y="97" width="6" height="14" rx="1" stroke="#415268" stroke-width="2"/>
<path d="M359.45 104L355.95 104" stroke="#415268" stroke-width="2"/>
<path d="M375.95 105.732L372.95 104L375.95 102.268L375.95 105.732Z" fill="#415268" stroke="#415268"/>
<path d="M359.95 102.268L362.95 104L359.95 105.732L359.95 102.268Z" fill="#415268" stroke="#415268"/>
<path d="M379.95 104H375.95" stroke="#415268" stroke-width="2"/>
<path fill-rule="evenodd" clip-rule="evenodd" d="M361.2 185.096L361.2 174H363.45L363.45 184.96C364.687 185.289 365.662 186.263 365.99 187.5L376.95 187.5V189.75L365.854 189.75C365.326 191.069 364.037 192 362.53 192C360.553 192 358.95 190.397 358.95 188.42C358.95 186.913 359.882 185.624 361.2 185.096ZM363.859 188.42C363.859 189.155 363.264 189.75 362.53 189.75C361.795 189.75 361.2 189.155 361.2 188.42C361.2 187.686 361.795 187.091 362.53 187.091C363.264 187.091 363.859 187.686 363.859 188.42Z" fill="#415268"/>
<mask id="path-79-inside-6" fill="white">
<path fill-rule="evenodd" clip-rule="evenodd" d="M468.308 184L468.308 189H466.308L466.308 184L468.308 184Z"/>
</mask>
<path fill-rule="evenodd" clip-rule="evenodd" d="M468.308 184L468.308 189H466.308L466.308 184L468.308 184Z" fill="#5A5A5A"/>
<path d="M468.308 189L468.308 191H470.308V189H468.308ZM468.308 184L470.308 184L470.308 182H468.308L468.308 184ZM466.308 189H464.308L464.308 191H466.308L466.308 189ZM466.308 184L466.308 182H464.308L464.308 184L466.308 184ZM470.308 189L470.308 184L466.308 184L466.308 189H470.308ZM466.308 191H468.308L468.308 187H466.308L466.308 191ZM464.308 184L464.308 189H468.308L468.308 184L464.308 184ZM468.308 182L466.308 182L466.308 186H468.308L468.308 182Z" fill="#415268" mask="url(#path-79-inside-6)"/>
<rect x="460.308" y="175" width="14" height="18" rx="1" stroke="#415268" stroke-width="2"/>
<path d="M464.71 183.5L467.308 179L469.906 183.5H464.71Z" fill="#415268" stroke="#415268"/>
<mask id="path-84-inside-7" fill="white">
<path fill-rule="evenodd" clip-rule="evenodd" d="M274.282 178.029C274.713 178.029 275.117 177.916 275.466 177.719C276.256 178.686 276.869 179.801 277.252 181.016C276.353 181.355 275.715 182.215 275.715 183.223C275.715 184.354 276.519 185.299 277.593 185.53C277.343 187.139 276.705 188.621 275.777 189.881C275.367 189.556 274.847 189.362 274.282 189.362C272.962 189.362 271.893 190.419 271.893 191.723C271.893 192.152 272.008 192.554 272.21 192.9C270.826 193.603 269.256 194 267.593 194C265.929 194 264.36 193.603 262.975 192.9C263.177 192.554 263.293 192.152 263.293 191.723C263.293 190.419 262.223 189.362 260.904 189.362C260.338 189.362 259.818 189.556 259.409 189.881C258.481 188.621 257.843 187.139 257.593 185.53C258.666 185.299 259.47 184.354 259.47 183.223C259.47 182.216 258.832 181.355 257.933 181.016C258.317 179.801 258.929 178.686 259.72 177.719C260.069 177.916 260.473 178.029 260.904 178.029C262.223 178.029 263.293 176.971 263.293 175.667C263.293 175.433 263.258 175.206 263.194 174.992C264.524 174.356 266.016 174 267.593 174C269.169 174 270.662 174.356 271.992 174.992C271.927 175.206 271.893 175.433 271.893 175.667C271.893 176.971 272.962 178.029 274.282 178.029ZM267.593 186C268.697 186 269.593 185.105 269.593 184C269.593 182.895 268.697 182 267.593 182C266.488 182 265.593 182.895 265.593 184C265.593 185.105 266.488 186 267.593 186Z"/>
</mask>
<path d="M275.466 177.719L277.014 176.452L275.948 175.149L274.482 175.977L275.466 177.719ZM277.252 181.016L277.958 182.888L279.73 182.219L279.16 180.414L277.252 181.016ZM277.593 185.53L279.569 185.837L279.859 183.972L278.014 183.575L277.593 185.53ZM275.777 189.881L274.533 191.448L276.157 192.737L277.387 191.068L275.777 189.881ZM272.21 192.9L273.116 194.683L275.006 193.724L273.938 191.893L272.21 192.9ZM262.975 192.9L261.247 191.893L260.18 193.724L262.07 194.683L262.975 192.9ZM259.409 189.881L257.799 191.068L259.029 192.737L260.652 191.448L259.409 189.881ZM257.593 185.53L257.171 183.575L255.327 183.972L255.616 185.837L257.593 185.53ZM257.933 181.016L256.026 180.414L255.456 182.219L257.227 182.888L257.933 181.016ZM259.72 177.719L260.704 175.977L259.238 175.149L258.172 176.453L259.72 177.719ZM263.194 174.992L262.331 173.188L260.784 173.927L261.279 175.569L263.194 174.992ZM271.992 174.992L273.907 175.569L274.402 173.927L272.854 173.188L271.992 174.992ZM274.482 175.977C274.426 176.009 274.36 176.029 274.282 176.029V180.029C275.065 180.029 275.808 179.823 276.45 179.46L274.482 175.977ZM279.16 180.414C278.698 178.951 277.962 177.611 277.014 176.452L273.918 178.985C274.551 179.76 275.04 180.651 275.345 181.619L279.16 180.414ZM277.715 183.223C277.715 183.086 277.801 182.947 277.958 182.888L276.547 179.145C274.906 179.764 273.715 181.345 273.715 183.223H277.715ZM278.014 183.575C277.827 183.534 277.715 183.376 277.715 183.223H273.715C273.715 185.331 275.211 187.063 277.172 187.485L278.014 183.575ZM277.387 191.068C278.5 189.556 279.268 187.774 279.569 185.837L275.616 185.223C275.418 186.504 274.91 187.686 274.166 188.695L277.387 191.068ZM274.282 191.362C274.382 191.362 274.466 191.395 274.533 191.448L277.02 188.315C276.268 187.718 275.313 187.362 274.282 187.362V191.362ZM273.893 191.723C273.893 191.546 274.045 191.362 274.282 191.362V187.362C271.88 187.362 269.893 189.292 269.893 191.723H273.893ZM273.938 191.893C273.909 191.843 273.893 191.787 273.893 191.723H269.893C269.893 192.516 270.108 193.264 270.483 193.908L273.938 191.893ZM267.593 196C269.577 196 271.457 195.526 273.116 194.683L271.305 191.117C270.195 191.68 268.935 192 267.593 192V196ZM262.07 194.683C263.729 195.526 265.608 196 267.593 196V192C266.25 192 264.99 191.68 263.881 191.117L262.07 194.683ZM261.293 191.723C261.293 191.787 261.276 191.843 261.247 191.893L264.703 193.907C265.078 193.264 265.293 192.516 265.293 191.723H261.293ZM260.904 191.362C261.141 191.362 261.293 191.546 261.293 191.723H265.293C265.293 189.292 263.306 187.362 260.904 187.362V191.362ZM260.652 191.448C260.719 191.395 260.803 191.362 260.904 191.362V187.362C259.873 187.362 258.917 187.718 258.166 188.315L260.652 191.448ZM255.616 185.837C255.917 187.774 256.685 189.556 257.799 191.068L261.019 188.695C260.276 187.686 259.768 186.504 259.569 185.223L255.616 185.837ZM257.47 183.223C257.47 183.376 257.359 183.534 257.171 183.575L258.014 187.485C259.974 187.063 261.47 185.331 261.47 183.223H257.47ZM257.227 182.888C257.384 182.947 257.47 183.086 257.47 183.223H261.47C261.47 181.345 260.28 179.764 258.639 179.145L257.227 182.888ZM258.172 176.453C257.224 177.611 256.488 178.951 256.026 180.414L259.84 181.619C260.146 180.651 260.634 179.76 261.268 178.985L258.172 176.453ZM260.904 176.029C260.826 176.029 260.76 176.009 260.704 175.977L258.736 179.46C259.378 179.823 260.12 180.029 260.904 180.029V176.029ZM261.293 175.667C261.293 175.845 261.141 176.029 260.904 176.029V180.029C263.306 180.029 265.293 178.098 265.293 175.667H261.293ZM261.279 175.569C261.287 175.598 261.293 175.631 261.293 175.667H265.293C265.293 175.235 265.229 174.814 265.108 174.415L261.279 175.569ZM267.593 172C265.712 172 263.925 172.426 262.331 173.188L264.056 176.797C265.122 176.287 266.32 176 267.593 176V172ZM272.854 173.188C271.26 172.426 269.474 172 267.593 172V176C268.865 176 270.063 176.287 271.129 176.797L272.854 173.188ZM273.893 175.667C273.893 175.631 273.898 175.598 273.907 175.569L270.077 174.415C269.957 174.814 269.893 175.235 269.893 175.667H273.893ZM274.282 176.029C274.045 176.029 273.893 175.845 273.893 175.667H269.893C269.893 178.098 271.88 180.029 274.282 180.029V176.029ZM267.593 184V188C269.802 188 271.593 186.209 271.593 184H267.593ZM267.593 184H271.593C271.593 181.791 269.802 180 267.593 180V184ZM267.593 184V180C265.384 180 263.593 181.791 263.593 184H267.593ZM267.593 184H263.593C263.593 186.209 265.384 188 267.593 188V184Z" fill="#415268" mask="url(#path-84-inside-7)"/>
<path fill-rule="evenodd" clip-rule="evenodd" d="M371.385 335.949C370.994 336.34 370.361 336.34 369.97 335.949C369.58 335.559 369.58 334.926 369.97 334.535C370.361 334.145 370.994 334.145 371.385 334.535C371.775 334.926 371.775 335.559 371.385 335.949ZM369.384 337.95C370.499 338.483 371.875 338.287 372.799 337.364C373.97 336.192 373.97 334.292 372.799 333.121C371.627 331.949 369.728 331.949 368.556 333.121C367.633 334.044 367.437 335.421 367.97 336.536L363.118 341.388C362.08 341.052 360.895 341.297 360.071 342.121C358.899 343.292 358.899 345.192 360.071 346.364C361.088 347.381 362.654 347.515 363.816 346.766L367.97 350.919C367.437 352.034 367.633 353.41 368.556 354.334C369.728 355.506 371.627 355.506 372.799 354.334C373.97 353.162 373.97 351.263 372.799 350.091C371.875 349.168 370.499 348.972 369.384 349.505L365.047 345.168C365.32 344.324 365.209 343.384 364.716 342.618L369.384 337.95ZM362.899 344.949C362.509 345.34 361.876 345.34 361.485 344.949C361.095 344.559 361.095 343.926 361.485 343.535C361.876 343.145 362.509 343.145 362.899 343.535C363.29 343.926 363.29 344.559 362.899 344.949ZM371.385 352.92C371.775 352.529 371.775 351.896 371.385 351.506C370.994 351.115 370.361 351.115 369.97 351.506C369.58 351.896 369.58 352.529 369.97 352.92C370.361 353.31 370.994 353.31 371.385 352.92Z" fill="#415268"/>
<mask id="path-89-inside-8" fill="white">
<path fill-rule="evenodd" clip-rule="evenodd" d="M661.022 338C659.918 338 659.022 338.895 659.022 340V347.891C659.022 348.996 659.918 349.891 661.022 349.891H670.074L671.143 352.831C671.781 354.586 674.264 354.586 674.902 352.831L675.971 349.891H677.022C678.127 349.891 679.022 348.996 679.022 347.891V340C679.022 338.895 678.127 338 677.022 338H661.022Z"/>
</mask>
<path d="M670.074 349.891L671.953 349.208L671.475 347.891H670.074V349.891ZM671.143 352.831L673.022 352.148L671.143 352.831ZM674.902 352.831L676.782 353.515L674.902 352.831ZM675.971 349.891V347.891H674.57L674.092 349.208L675.971 349.891ZM661.022 340V340V336C658.813 336 657.022 337.791 657.022 340H661.022ZM661.022 347.891V340H657.022V347.891H661.022ZM661.022 347.891H661.022H657.022C657.022 350.1 658.813 351.891 661.022 351.891V347.891ZM670.074 347.891H661.022V351.891H670.074V347.891ZM673.022 352.148L671.953 349.208L668.194 350.575L669.263 353.515L673.022 352.148ZM673.022 352.148C673.018 352.159 673.015 352.165 673.014 352.167C673.013 352.169 673.013 352.169 673.015 352.166C673.017 352.164 673.02 352.16 673.023 352.157C673.027 352.154 673.03 352.151 673.033 352.149C673.04 352.145 673.042 352.145 673.04 352.146C673.037 352.146 673.031 352.148 673.022 352.148C673.014 352.148 673.008 352.146 673.005 352.146C673.002 352.145 673.005 352.145 673.011 352.149C673.014 352.151 673.018 352.154 673.021 352.157C673.025 352.16 673.028 352.164 673.03 352.166C673.032 352.169 673.032 352.169 673.031 352.167C673.03 352.165 673.027 352.159 673.022 352.148L669.263 353.515C670.54 357.025 675.505 357.025 676.782 353.515L673.022 352.148ZM674.092 349.208L673.022 352.148L676.782 353.515L677.851 350.575L674.092 349.208ZM677.022 347.891H675.971V351.891H677.022V347.891ZM677.022 347.891V347.891V351.891C679.232 351.891 681.022 350.1 681.022 347.891H677.022ZM677.022 340V347.891H681.022V340H677.022ZM677.022 340V340H681.022C681.022 337.791 679.232 336 677.022 336V340ZM661.022 340H677.022V336H661.022V340Z" fill="#415268" mask="url(#path-89-inside-8)"/>
<path fill-rule="evenodd" clip-rule="evenodd" d="M267.679 112.068C272.097 112.068 275.679 108.487 275.679 104.068H277.679C277.679 109.591 273.202 114.068 267.679 114.068C266.391 114.068 265.161 113.825 264.031 113.382L265.614 111.799C266.272 111.975 266.965 112.068 267.679 112.068ZM257.679 104.068H259.679C259.679 99.6501 263.26 96.0684 267.679 96.0684C268.364 96.0684 269.03 96.1546 269.665 96.317L271.255 94.727C270.145 94.3015 268.939 94.0684 267.679 94.0684C262.156 94.0684 257.679 98.5455 257.679 104.068Z" fill="#415268"/>
<path d="M258.679 108.068L256.081 103.568L261.277 103.568L258.679 108.068Z" fill="#415268"/>
<path d="M276.679 100.068L279.277 104.568H274.081L276.679 100.068Z" fill="#415268"/>
<mask id="path-96-inside-9" fill="white">
<rect x="657.022" y="176" width="24" height="16" rx="1"/>
</mask>
<rect x="657.022" y="176" width="24" height="16" rx="1" stroke="#415268" stroke-width="4" mask="url(#path-96-inside-9)"/>
<rect x="660.522" y="180.5" width="1" height="1" stroke="#415268"/>
<rect x="664.522" y="180.5" width="1" height="1" stroke="#415268"/>
<rect x="668.522" y="180.5" width="1" height="1" stroke="#415268"/>
<rect x="672.522" y="180.5" width="1" height="1" stroke="#415268"/>
<rect x="676.522" y="180.5" width="1" height="1" stroke="#415268"/>
<rect x="660.522" y="183.5" width="1" height="1" stroke="#415268"/>
<rect x="664.522" y="183.5" width="1" height="1" stroke="#415268"/>
<rect x="668.522" y="183.5" width="1" height="1" stroke="#415268"/>
<rect x="672.522" y="183.5" width="1" height="1" stroke="#415268"/>
<rect x="676.522" y="183.5" width="1" height="1" stroke="#415268"/>
<rect x="660.522" y="186.5" width="1" height="1" stroke="#415268"/>
<rect x="664.522" y="186.5" width="1" height="1" stroke="#415268"/>
<rect x="668.522" y="186.5" width="1" height="1" stroke="#415268"/>
<rect x="672.522" y="186.5" width="1" height="1" stroke="#415268"/>
<rect x="676.522" y="186.5" width="1" height="1" stroke="#415268"/>
<path fill-rule="evenodd" clip-rule="evenodd" d="M576.665 344C576.665 348.418 573.083 352 568.665 352V354C574.188 354 578.665 349.523 578.665 344C578.665 338.477 574.188 334 568.665 334C563.142 334 558.665 338.477 558.665 344H560.665C560.665 339.582 564.247 336 568.665 336C573.083 336 576.665 339.582 576.665 344Z" fill="#415268"/>
<path d="M561.397 344L559.665 347L557.933 344L561.397 344Z" fill="#415268" stroke="#415268"/>
<line x1="568.665" y1="344" x2="568.665" y2="338" stroke="#415268" stroke-width="2"/>
<line x1="568.665" y1="344" x2="574.665" y2="344" stroke="#415268" stroke-width="2"/>
<rect x="567.915" y="344.25" width="0.5" height="0.5" fill="#21262F" stroke="#415268" stroke-width="0.5"/>
<mask id="path-120-inside-10" fill="white">
<path fill-rule="evenodd" clip-rule="evenodd" d="M367.95 264L367.95 259L369.95 259L369.95 264L367.95 264Z"/>
</mask>
<path fill-rule="evenodd" clip-rule="evenodd" d="M367.95 264L367.95 259L369.95 259L369.95 264L367.95 264Z" fill="#5A5A5A"/>
<path d="M367.95 259L367.95 257L365.95 257L365.95 259L367.95 259ZM367.95 264L365.95 264L365.95 266L367.95 266L367.95 264ZM369.95 259L371.95 259L371.95 257L369.95 257L369.95 259ZM369.95 264L369.95 266L371.95 266L371.95 264L369.95 264ZM365.95 259L365.95 264L369.95 264L369.95 259L365.95 259ZM369.95 257L367.95 257L367.95 261L369.95 261L369.95 257ZM371.95 264L371.95 259L367.95 259L367.95 264L371.95 264ZM367.95 266L369.95 266L369.95 262L367.95 262L367.95 266Z" fill="#415268" mask="url(#path-120-inside-10)"/>
<rect x="375.95" y="273" width="14" height="18" rx="1" transform="rotate(180 375.95 273)" stroke="#415268" stroke-width="2"/>
<path d="M371.548 264.5L368.95 269L366.352 264.5L371.548 264.5Z" fill="#415268" stroke="#415268"/>
<line x1="363.95" y1="30" x2="363.95" y2="36" stroke="#415268" stroke-width="2"/>
<circle cx="363.95" cy="28" r="2" stroke="#415268" stroke-width="2"/>
<circle cx="363.95" cy="15" r="2" stroke="#415268" stroke-width="2"/>
<line x1="363.95" y1="16" x2="363.95" y2="27" stroke="#415268" stroke-width="2"/>
<circle cx="371.95" cy="19" r="2" stroke="#415268" stroke-width="2"/>
<path fill-rule="evenodd" clip-rule="evenodd" d="M372.581 18C372.581 18 372.581 18 372.582 17.9999C373.58 17.9405 373.58 17.941 373.58 17.9415L373.58 17.9427L373.58 17.9453L373.581 17.9519L373.581 17.9705C373.582 17.9789 373.582 17.9887 373.583 18H372.581ZM370.49 21C370.403 21.0789 370.309 21.1533 370.208 21.2225C369.741 21.5422 369.052 21.797 368.009 21.797C366.495 21.797 365.362 22.4015 364.574 23.3259C363.906 24.1086 363.519 25.0787 363.291 26H365.37C365.547 25.4597 365.786 24.987 366.096 24.6238C366.513 24.1348 367.094 23.797 368.009 23.797C369.395 23.797 370.492 23.4521 371.339 22.8724C372.105 22.3471 372.61 21.6676 372.939 21H370.49ZM362.95 29H364.95C364.95 29.0514 364.95 29.1017 364.95 29.151C364.953 29.4809 364.966 29.7547 364.979 29.9437C364.985 30.0381 364.991 30.111 364.996 30.1587L364.998 30.1843L365.001 30.2108L365.002 30.2217L365.002 30.2227C365.002 30.2225 365.002 30.2222 364.009 30.3352C363.015 30.4482 363.015 30.4478 363.015 30.4475L363.015 30.4466L363.015 30.4443L363.014 30.4377L363.012 30.4163C363.01 30.3986 363.007 30.3738 363.004 30.3424C362.999 30.2797 362.991 30.1906 362.983 30.0788C362.968 29.8556 362.953 29.5405 362.951 29.1637C362.95 29.1104 362.95 29.0559 362.95 29Z" fill="#415268"/>
<path d="M568.665 14L571.264 18.5H566.067L568.665 14Z" fill="#415268"/>
<path d="M568.665 34L566.067 29.5L571.263 29.5L568.665 34Z" fill="#415268"/>
<line x1="568.665" y1="18" x2="568.665" y2="30" stroke="#415268" stroke-width="2"/>
<path d="M558.665 24L563.165 21.4019L563.165 26.5981L558.665 24Z" fill="#415268"/>
<path d="M578.665 24L574.165 26.5981L574.165 21.4019L578.665 24Z" fill="#415268"/>
<line x1="562.665" y1="24" x2="574.665" y2="24" stroke="#415268" stroke-width="2"/>
<line x1="462.601" y1="30.2929" x2="474.601" y2="18.2929" stroke="#415268" stroke-width="2"/>
<line x1="462.015" y1="17.2929" x2="475.015" y2="30.2929" stroke="#415268" stroke-width="2"/>
<circle cx="468.308" cy="24" r="9" stroke="#415268" stroke-width="2"/>
<mask id="path-143-inside-11" fill="white">
<path fill-rule="evenodd" clip-rule="evenodd" d="M458.308 256C457.203 256 456.308 256.895 456.308 258V259.667V260V271C456.308 271.552 456.755 272 457.308 272H479.308C479.86 272 480.308 271.552 480.308 271V259.667C480.308 259.114 479.86 258.667 479.308 258.667H467.308L465.308 256H458.308Z"/>
</mask>
<path d="M467.308 258.667L465.708 259.867L466.308 260.667H467.308V258.667ZM465.308 256L466.908 254.8L466.308 254H465.308V256ZM458.308 258V254C456.098 254 454.308 255.791 454.308 258H458.308ZM458.308 259.667V258H454.308V259.667H458.308ZM458.308 260V259.667H454.308V260H458.308ZM458.308 271V260H454.308V271H458.308ZM457.308 270C457.86 270 458.308 270.448 458.308 271H454.308C454.308 272.657 455.651 274 457.308 274V270ZM479.308 270H457.308V274H479.308V270ZM478.308 271C478.308 270.448 478.755 270 479.308 270V274C480.964 274 482.308 272.657 482.308 271H478.308ZM478.308 259.667V271H482.308V259.667H478.308ZM479.308 260.667C478.755 260.667 478.308 260.219 478.308 259.667H482.308C482.308 258.01 480.964 256.667 479.308 256.667V260.667ZM467.308 260.667H479.308V256.667H467.308V260.667ZM463.708 257.2L465.708 259.867L468.908 257.467L466.908 254.8L463.708 257.2ZM458.308 258H465.308V254H458.308V258Z" fill="#415268" mask="url(#path-143-inside-11)"/>
<line x1="474.308" y1="269" x2="474.308" y2="266" stroke="#415268" stroke-width="2"/>
<path d="M472.576 266L474.308 263L476.04 266H472.576Z" fill="#415268" stroke="#415268"/>
<path d="M262.593 338H270.593V336H262.593V338Z" fill="#415268"/>
<path d="M270.593 342H262.593V340H270.593V342Z" fill="#415268"/>
<path d="M262.593 346H268.593V344H262.593V346Z" fill="#415268"/>
<path d="M272.593 349.5V352H270.593V349.5H268.995L271.593 345L274.191 349.5H272.593Z" fill="#415268"/>
<path fill-rule="evenodd" clip-rule="evenodd" d="M258.593 334C258.593 333.448 259.04 333 259.593 333H275.593C276.145 333 276.593 333.448 276.593 334V354C276.593 354.552 276.145 355 275.593 355H259.593C259.04 355 258.593 354.552 258.593 354V334ZM260.593 353V335H274.593V353H260.593Z" fill="#415268"/>
<path d="M667.424 108.84L664.061 105.465L662.75 110.366L667.424 108.84Z" fill="#415268"/>
<rect x="673.79" y="97.1544" width="2.7652" height="11.7667" transform="rotate(45 673.79 97.1544)" stroke="#415268" stroke-width="2"/>
<line x1="675.076" y1="94.455" x2="678.446" y2="97.8245" stroke="#415268" stroke-width="2"/>
<path d="M658.022 112.5H669.022" stroke="#415268" stroke-width="2"/>
</svg>
