<svg width="247" height="49" viewBox="0 0 247 49" fill="none" xmlns="http://www.w3.org/2000/svg">
<g clip-path="url(#clip0)">
<path d="M28.652 9.476L14.326 18.4139L28.652 27.3518L14.326 36.2897L0 27.3035L14.326 18.3656L0 9.476L14.326 0.538086L28.652 9.476ZM14.2519 39.1644L28.5779 30.2265L42.9039 39.1644L28.5779 48.1023L14.2519 39.1644ZM28.652 27.3035L42.978 18.3656L28.652 9.476L42.9039 0.538086L57.2299 9.476L42.9039 18.4139L57.2299 27.3518L42.9039 36.2897L28.652 27.3035Z" fill="#0061FF"/>
<path d="M68.4688 9.47623H80.053C87.4383 9.47623 93.5392 13.6553 93.5392 23.1971V25.2021C93.5392 34.8164 87.8335 39.1404 80.2753 39.1404H68.4688V9.47623ZM74.9401 14.8631V33.7294H79.9048C84.1038 33.7294 86.9196 31.048 86.9196 25.0813V23.5112C86.9196 17.5445 83.9556 14.8631 79.6825 14.8631H74.9401ZM96.9725 15.153H102.16L102.999 20.7332C103.987 16.9406 106.507 14.9114 111.076 14.9114H112.682V21.3129H110.014C104.753 21.3129 103.469 23.1005 103.469 28.1734V39.2129H97.0713V15.153H96.9725ZM113.966 27.6661V26.9897C113.966 18.9456 119.227 14.5491 126.39 14.5491C133.701 14.5491 138.814 18.9456 138.814 26.9897V27.6661C138.814 35.5653 133.85 39.8168 126.39 39.8168C118.462 39.7444 113.966 35.5894 113.966 27.6661ZM132.269 27.5936V26.9897C132.269 22.5208 129.972 19.8394 126.316 19.8394C122.735 19.8394 120.363 22.3033 120.363 26.9897V27.5936C120.363 31.9176 122.661 34.3816 126.316 34.3816C129.972 34.3091 132.269 31.9176 132.269 27.5936ZM142.174 15.153H147.509L148.126 19.6944C149.411 16.6507 152.152 14.5491 156.203 14.5491C162.452 14.5491 166.577 18.9456 166.577 27.0863V27.7627C166.577 35.6619 162.008 39.841 156.203 39.841C152.325 39.841 149.658 38.1259 148.349 35.372V47.5228H142.099L142.174 15.153ZM160.081 27.5936V27.0622C160.081 22.2792 157.562 19.9118 154.202 19.9118C150.621 19.9118 148.25 22.5932 148.25 27.0622V27.5212C148.25 31.7727 150.547 34.4541 154.128 34.4541C157.809 34.3816 160.081 32.0867 160.081 27.5936ZM176.037 34.7681L175.494 39.1646H170.01V7.10889H176.26V19.4046C177.643 16.2642 180.384 14.5491 184.262 14.5491C190.141 14.6216 194.488 18.5832 194.488 26.5549V27.3037C194.488 35.2754 190.363 39.841 184.114 39.841C179.989 39.7444 177.322 37.8843 176.037 34.7681ZM187.918 27.3037V26.6998C187.918 22.3033 185.473 19.8394 182.039 19.8394C178.532 19.8394 176.087 22.5932 176.087 26.7723V27.3037C176.087 31.7727 178.458 34.3816 181.965 34.3816C185.72 34.3816 187.918 32.0867 187.918 27.3037ZM197.23 27.6661V26.9897C197.23 18.9456 202.491 14.5491 209.654 14.5491C216.965 14.5491 222.078 18.9456 222.078 26.9897V27.6661C222.078 35.5653 217.039 39.8168 209.654 39.8168C201.725 39.7444 197.23 35.5894 197.23 27.6661ZM215.582 27.5936V26.9897C215.582 22.5208 213.285 19.8394 209.629 19.8394C206.048 19.8394 203.677 22.3033 203.677 26.9897V27.5936C203.677 31.9176 205.974 34.3816 209.629 34.3816C213.31 34.3091 215.582 31.9176 215.582 27.5936ZM230.451 26.6998L221.831 15.153H229.216L234.181 22.3758L239.22 15.153H246.531L237.787 26.6274L247 39.1646H239.763L234.132 31.1929L228.648 39.1646H221.09L230.451 26.6998Z" fill="black"/>
</g>
<defs>
<clipPath id="clip0">
<rect y="0.538086" width="247" height="47.5642" fill="white"/>
</clipPath>
</defs>
</svg>
