<svg width="391" height="116" viewBox="0 0 391 116" fill="none" xmlns="http://www.w3.org/2000/svg">
<path d="M165.069 37.8427C165.817 38.2911 166.19 38.914 166.19 39.7113C166.19 40.1598 166.016 40.6581 165.667 41.2063C165.219 41.7544 164.646 42.0285 163.948 42.0285C163.549 42.0285 163.151 41.9039 162.752 41.6547C158.766 39.0137 154.405 37.6932 149.671 37.6932C145.635 37.6932 141.973 38.64 138.684 40.5335C135.445 42.4271 132.878 45.0931 130.985 48.5314C129.141 51.9199 128.219 55.7818 128.219 60.1171C128.219 64.552 129.166 68.4887 131.06 71.927C132.953 75.3155 135.519 77.9566 138.758 79.8501C142.047 81.6939 145.685 82.6157 149.671 82.6157C154.405 82.6157 158.741 81.3201 162.677 78.7289C163.076 78.4798 163.5 78.3552 163.948 78.3552C164.646 78.3552 165.219 78.6542 165.667 79.2522C166.016 79.6508 166.19 80.1242 166.19 80.6723C166.19 81.4696 165.842 82.0676 165.144 82.4663C163.201 83.7619 160.809 84.8581 157.968 85.7551C155.128 86.6022 152.362 87.0258 149.671 87.0258C144.938 87.0258 140.552 85.9046 136.516 83.6622C132.53 81.37 129.34 78.1808 126.949 74.0947C124.607 70.0085 123.435 65.3493 123.435 60.1171C123.435 55.0842 124.607 50.5246 126.949 46.4385C129.291 42.3025 132.455 39.0884 136.441 36.7962C140.428 34.4542 144.838 33.2831 149.671 33.2831C152.462 33.2831 155.178 33.6818 157.819 34.4791C160.51 35.2764 162.926 36.3976 165.069 37.8427ZM175.931 84.0359C175.931 84.6837 175.707 85.2319 175.259 85.6803C174.86 86.079 174.337 86.2783 173.689 86.2783C173.041 86.2783 172.493 86.079 172.045 85.6803C171.646 85.2319 171.447 84.6837 171.447 84.0359V49.6526C171.447 49.0048 171.646 48.4816 172.045 48.0829C172.493 47.6344 173.041 47.4102 173.689 47.4102C174.337 47.4102 174.86 47.6344 175.259 48.0829C175.707 48.4816 175.931 49.0048 175.931 49.6526V84.0359ZM173.689 42.4022C172.692 42.4022 171.92 42.178 171.372 41.7295C170.824 41.2312 170.55 40.5335 170.55 39.6366V38.8891C170.55 37.9922 170.824 37.3194 171.372 36.871C171.97 36.3727 172.767 36.1235 173.764 36.1235C175.757 36.1235 176.754 37.0454 176.754 38.8891V39.6366C176.754 40.5335 176.48 41.2312 175.931 41.7295C175.433 42.178 174.686 42.4022 173.689 42.4022ZM202.456 47.186C203.453 47.186 204.35 47.3853 205.147 47.7839C205.945 48.1826 206.343 48.7806 206.343 49.5778C206.343 50.2755 206.144 50.8485 205.745 51.297C205.347 51.6957 204.873 51.895 204.325 51.895C204.076 51.895 203.578 51.7704 202.83 51.5213C202.133 51.2721 201.46 51.1475 200.812 51.1475C198.968 51.1475 197.125 51.8701 195.281 53.3152C193.487 54.7104 191.992 56.5293 190.796 58.7717C189.65 61.014 189.077 63.2814 189.077 65.5736V84.0359C189.077 84.6837 188.853 85.2319 188.404 85.6803C188.005 86.079 187.482 86.2783 186.834 86.2783C186.187 86.2783 185.638 86.079 185.19 85.6803C184.791 85.2319 184.592 84.6837 184.592 84.0359V50.5496C184.592 49.9017 184.791 49.3785 185.19 48.9799C185.638 48.5314 186.187 48.3072 186.834 48.3072C187.482 48.3072 188.005 48.5314 188.404 48.9799C188.853 49.3785 189.077 49.9017 189.077 50.5496V57.1272C190.223 54.2869 191.942 51.9448 194.234 50.1011C196.576 48.2075 199.317 47.2358 202.456 47.186ZM240.506 48.0829C241.154 48.0829 241.677 48.3072 242.076 48.7556C242.524 49.2041 242.748 49.7523 242.748 50.4001V84.0359C242.748 84.6837 242.524 85.2319 242.076 85.6803C241.677 86.079 241.154 86.2783 240.506 86.2783C239.858 86.2783 239.31 86.079 238.861 85.6803C238.463 85.2319 238.263 84.6837 238.263 84.0359V79.0279C237.018 81.2703 235.149 83.1639 232.657 84.7086C230.166 86.2534 227.45 87.0258 224.51 87.0258C221.171 87.0258 218.157 86.1537 215.466 84.4097C212.825 82.6656 210.732 80.2737 209.187 77.234C207.692 74.1943 206.945 70.7809 206.945 66.9938C206.945 63.2066 207.717 59.8181 209.262 56.8282C210.807 53.7886 212.899 51.4216 215.541 49.7273C218.231 48.0331 221.196 47.186 224.435 47.186C227.425 47.186 230.166 47.9085 232.657 49.3536C235.149 50.7987 237.018 52.6923 238.263 55.0343V50.4001C238.263 49.7523 238.463 49.2041 238.861 48.7556C239.31 48.3072 239.858 48.0829 240.506 48.0829ZM224.959 82.84C227.55 82.84 229.867 82.1673 231.91 80.8218C234.003 79.4266 235.622 77.533 236.769 75.1411C237.964 72.6994 238.562 69.9836 238.562 66.9938C238.562 64.1036 237.964 61.4625 236.769 59.0706C235.622 56.6788 234.003 54.8101 231.91 53.4647C229.867 52.0694 227.55 51.3718 224.959 51.3718C222.367 51.3718 220.025 52.0445 217.932 53.3899C215.889 54.7353 214.27 56.604 213.074 58.9959C211.928 61.3379 211.355 64.0039 211.355 66.9938C211.355 69.9836 211.928 72.6994 213.074 75.1411C214.22 77.533 215.815 79.4266 217.858 80.8218C219.951 82.1673 222.318 82.84 224.959 82.84Z" fill="white"/>
<path d="M49.1964 54.807C45.1778 54.569 41.2395 52.8542 38.269 49.6914C32.1102 43.1338 32.4436 32.8346 39.0136 26.6875C45.5836 20.5404 55.9024 20.8731 62.0611 27.4307C64.846 30.3959 66.3035 34.1261 66.4571 37.8916L69.426 38.7891C69.4835 33.9999 67.7592 29.1827 64.2183 25.4124C56.9427 17.6657 44.7529 17.2727 36.9915 24.5344C29.2301 31.7962 28.8363 43.963 36.1118 51.7096C39.8358 55.6748 44.8473 57.7133 49.8934 57.7849L49.1964 54.807Z" fill="#1BBFFC"/>
<path d="M48.7009 59.7068C45.2821 60.867 38.4893 57.8564 34.3045 53.4007C26.0933 44.6577 26.5378 30.9263 35.2973 22.7306C44.0568 14.5349 57.8144 14.9786 66.0256 23.7215C70.1978 28.1639 72.1353 33.8942 71.8828 39.5318L77.6833 41.2853C78.4396 33.6435 76.0149 25.7276 70.3398 19.685C59.8951 8.56384 42.3953 7.99952 31.2531 18.4245C17.5634 31.233 19.5132 56.7009 38.269 62.9735C43.7955 64.8218 43.6499 64.446 46.8581 66.7102C50.0664 68.9745 51.1802 77.0993 49.3862 83.0112C45.9058 94.4803 33.7693 100.962 22.2784 97.4881C10.7875 94.0143 4.29364 81.9007 7.774 70.4316C9.54242 64.604 13.5457 60.0641 18.5636 57.4635L17.1848 51.5729C10.176 54.7401 4.51991 60.7939 2.11449 68.7207C-2.31258 83.3096 5.94765 98.7182 20.5642 103.137C39.4954 108.86 58.9806 93.1701 55.5694 73.7707C54.8715 69.8016 53.2629 68.1718 53.6603 65.0952C54.0576 62.0186 61.3682 56.6327 67.2807 55.254C78.9723 52.5278 90.6644 59.7777 93.3958 71.4472C96.1272 83.1166 88.8635 94.7866 77.1719 97.5128C71.2312 98.898 65.2905 97.7076 60.5251 94.6705L56.1034 98.8076C62.3558 103.282 70.4366 105.144 78.5172 103.26C93.389 99.7925 102.628 84.9481 99.1542 70.1045C95.0811 52.7028 74.7273 42.3273 59.2472 53.0181C56.0434 55.2307 52.3813 58.4579 48.7009 59.7068Z" fill="#1BBFFC"/>
<path d="M43.1606 69.4356C44.9634 73.0283 45.4447 77.2899 44.1856 81.439C41.5752 90.0413 32.4722 94.9028 23.8535 92.2973C15.2349 89.6918 10.3642 80.6061 12.9746 72.0037C14.155 68.1139 16.6629 64.989 19.8532 62.9735L19.1475 59.9584C14.9633 62.3033 11.6457 66.2024 10.1449 71.1483C7.0611 81.3105 12.8149 92.0437 22.9965 95.1217C33.178 98.1996 43.9316 92.4567 47.0154 82.2944C48.5938 77.0929 47.8568 71.7418 45.3959 67.3442L43.1606 69.4356Z" fill="#1BBFFC"/>
<path d="M68.5169 60.5354C64.2873 61.5216 60.4762 64.3342 58.2604 67.6889L55.328 66.8024C57.9132 62.4764 62.5419 58.898 67.8443 57.6616C78.2036 55.2461 88.5634 61.6699 90.9835 72.0096C93.4037 82.3493 86.9677 92.6895 76.6084 95.105C71.5666 96.2806 66.5246 95.3625 62.398 92.9182L64.6612 90.8006C68.0052 92.5506 71.9705 93.1559 75.9357 92.2313C84.7049 90.1865 90.153 81.4335 88.1044 72.6809C86.0557 63.9284 77.2861 58.4906 68.5169 60.5354Z" fill="#1BBFFC"/>
<path d="M339.931 95.939C340.23 96.1185 340.38 96.3677 340.38 96.6867C340.38 96.8662 340.31 97.0655 340.17 97.2849C339.991 97.5042 339.762 97.6139 339.483 97.6139C339.323 97.6139 339.164 97.564 339.004 97.4643C337.409 96.4076 335.664 95.8792 333.77 95.8792C332.155 95.8792 330.69 96.258 329.374 97.0157C328.078 97.7734 327.051 98.8401 326.293 100.216C325.555 101.572 325.187 103.117 325.187 104.852C325.187 106.626 325.565 108.201 326.323 109.577C327.081 110.933 328.108 111.99 329.404 112.747C330.72 113.485 332.175 113.854 333.77 113.854C335.664 113.854 337.399 113.335 338.974 112.299C339.134 112.199 339.303 112.149 339.483 112.149C339.762 112.149 339.991 112.269 340.17 112.508C340.31 112.668 340.38 112.857 340.38 113.076C340.38 113.395 340.24 113.635 339.961 113.794C339.183 114.312 338.226 114.751 337.09 115.11C335.953 115.449 334.847 115.618 333.77 115.618C331.876 115.618 330.121 115.17 328.506 114.273C326.911 113.355 325.635 112.079 324.678 110.444C323.741 108.809 323.272 106.945 323.272 104.852C323.272 102.838 323.741 101.013 324.678 99.3784C325.615 97.7235 326.881 96.4375 328.476 95.5203C330.072 94.5832 331.836 94.1146 333.77 94.1146C334.887 94.1146 335.973 94.2741 337.03 94.5932C338.107 94.9122 339.074 95.3608 339.931 95.939ZM344.277 114.422C344.277 114.681 344.188 114.901 344.008 115.08C343.849 115.24 343.639 115.319 343.38 115.319C343.121 115.319 342.902 115.24 342.722 115.08C342.563 114.901 342.483 114.681 342.483 114.422V100.664C342.483 100.405 342.563 100.196 342.722 100.036C342.902 99.8569 343.121 99.7672 343.38 99.7672C343.639 99.7672 343.849 99.8569 344.008 100.036C344.188 100.196 344.277 100.405 344.277 100.664V114.422ZM343.38 97.7634C342.981 97.7634 342.672 97.6737 342.453 97.4942C342.234 97.2948 342.124 97.0157 342.124 96.6568V96.3577C342.124 95.9988 342.234 95.7297 342.453 95.5502C342.692 95.3508 343.011 95.2511 343.41 95.2511C344.208 95.2511 344.606 95.62 344.606 96.3577V96.6568C344.606 97.0157 344.497 97.2948 344.277 97.4942C344.078 97.6737 343.779 97.7634 343.38 97.7634ZM354.891 99.6775C355.29 99.6775 355.648 99.7573 355.967 99.9168C356.286 100.076 356.446 100.316 356.446 100.635C356.446 100.914 356.366 101.143 356.207 101.322C356.047 101.482 355.858 101.562 355.638 101.562C355.539 101.562 355.339 101.512 355.04 101.412C354.761 101.312 354.492 101.263 354.233 101.263C353.495 101.263 352.757 101.552 352.02 102.13C351.302 102.688 350.704 103.416 350.225 104.313C349.767 105.21 349.537 106.118 349.537 107.035V114.422C349.537 114.681 349.448 114.901 349.268 115.08C349.109 115.24 348.899 115.319 348.64 115.319C348.381 115.319 348.161 115.24 347.982 115.08C347.823 114.901 347.743 114.681 347.743 114.422V101.023C347.743 100.764 347.823 100.555 347.982 100.395C348.161 100.216 348.381 100.126 348.64 100.126C348.899 100.126 349.109 100.216 349.268 100.395C349.448 100.555 349.537 100.764 349.537 101.023V103.655C349.996 102.519 350.684 101.582 351.601 100.844C352.538 100.086 353.635 99.6974 354.891 99.6775ZM370.115 100.036C370.374 100.036 370.584 100.126 370.743 100.306C370.923 100.485 371.013 100.704 371.013 100.964V114.422C371.013 114.681 370.923 114.901 370.743 115.08C370.584 115.24 370.374 115.319 370.115 115.319C369.856 115.319 369.637 115.24 369.457 115.08C369.298 114.901 369.218 114.681 369.218 114.422V112.418C368.72 113.316 367.972 114.073 366.975 114.691C365.978 115.309 364.891 115.618 363.715 115.618C362.379 115.618 361.173 115.269 360.096 114.572C359.039 113.874 358.202 112.917 357.584 111.7C356.986 110.484 356.687 109.118 356.687 107.603C356.687 106.088 356.996 104.732 357.614 103.536C358.232 102.319 359.069 101.372 360.126 100.694C361.203 100.016 362.389 99.6775 363.685 99.6775C364.881 99.6775 365.978 99.9666 366.975 100.545C367.972 101.123 368.72 101.881 369.218 102.818V100.964C369.218 100.704 369.298 100.485 369.457 100.306C369.637 100.126 369.856 100.036 370.115 100.036ZM363.894 113.944C364.931 113.944 365.858 113.674 366.676 113.136C367.513 112.578 368.161 111.82 368.62 110.863C369.098 109.886 369.338 108.799 369.338 107.603C369.338 106.447 369.098 105.39 368.62 104.433C368.161 103.476 367.513 102.728 366.676 102.19C365.858 101.631 364.931 101.352 363.894 101.352C362.858 101.352 361.921 101.622 361.083 102.16C360.266 102.698 359.618 103.446 359.139 104.403C358.68 105.34 358.451 106.407 358.451 107.603C358.451 108.799 358.68 109.886 359.139 110.863C359.598 111.82 360.236 112.578 361.053 113.136C361.891 113.674 362.838 113.944 363.894 113.944Z" fill="white"/>
<path d="M346.586 38.4968C343.075 38.2889 339.635 36.7911 337.04 34.0282C331.661 28.3001 331.952 19.3036 337.691 13.934C343.43 8.56445 352.443 8.85511 357.823 14.5833C360.256 17.1734 361.529 20.4318 361.663 23.721L364.256 24.505C364.307 20.3215 362.801 16.1136 359.707 12.8203C353.352 6.05343 342.704 5.71006 335.924 12.0533C329.145 18.3966 328.801 29.0244 335.156 35.7912C338.409 39.2548 342.787 41.0356 347.195 41.0981L346.586 38.4968Z" fill="#1BBFFC"/>
<path d="M346.153 42.7769C343.166 43.7904 337.233 41.1605 333.577 37.2684C326.405 29.6313 326.793 17.6367 334.445 10.4777C342.096 3.31863 354.114 3.70616 361.286 11.3432C364.931 15.2237 366.623 20.2292 366.403 25.1537L371.469 26.6854C372.13 20.0102 370.012 13.0955 365.055 7.81725C355.931 -1.8972 340.645 -2.39014 330.912 6.71623C318.954 17.9046 320.657 40.1512 337.04 45.6304C341.868 47.2448 341.741 46.9166 344.543 48.8945C347.346 50.8723 348.318 57.9695 346.751 63.1336C343.711 73.152 333.11 78.8137 323.072 75.7793C313.035 72.745 307.362 62.1636 310.403 52.1451C311.947 47.0546 315.444 43.0889 319.827 40.8173L318.623 35.6718C312.501 38.4384 307.56 43.7265 305.459 50.6506C301.592 63.3942 308.807 76.8539 321.575 80.7136C338.112 85.7128 355.132 72.0075 352.153 55.0619C351.543 51.5948 350.138 50.1711 350.485 47.4837C350.832 44.7962 357.218 40.0916 362.383 38.8873C372.595 36.5059 382.809 42.8388 385.194 53.0322C387.58 63.2257 381.235 73.4195 371.023 75.8009C365.833 77.0109 360.644 75.9711 356.481 73.3181L352.619 76.9319C358.081 80.8406 365.139 82.4672 372.198 80.8214C385.188 77.7922 393.259 64.8255 390.224 51.8594C386.667 36.6587 368.887 27.5957 355.365 36.9342C352.567 38.8669 349.368 41.6859 346.153 42.7769Z" fill="#1BBFFC"/>
<path d="M341.313 51.2751C342.888 54.4134 343.308 58.1359 342.209 61.7602C339.928 69.2745 331.977 73.521 324.448 71.2451C316.92 68.9692 312.665 61.0327 314.945 53.5184C315.976 50.1206 318.167 47.391 320.954 45.6304L320.338 42.9967C316.683 45.045 313.785 48.4509 312.474 52.7711C309.78 61.648 314.806 71.0236 323.7 73.7122C332.593 76.4009 341.987 71.3843 344.68 62.5075C346.059 57.9639 345.416 53.2896 343.266 49.4482L341.313 51.2751Z" fill="#1BBFFC"/>
<path d="M363.462 43.5006C359.768 44.3621 356.439 46.819 354.503 49.7493L351.942 48.975C354.2 45.1962 358.243 42.0704 362.875 40.9904C371.924 38.8804 380.973 44.4916 383.087 53.5235C385.201 62.5554 379.579 71.5877 370.53 73.6977C366.126 74.7246 361.722 73.9226 358.117 71.7874L360.094 69.9378C363.015 71.4663 366.479 71.9951 369.943 71.1874C377.603 69.4013 382.362 61.7555 380.572 54.11C378.783 46.4645 371.122 41.7145 363.462 43.5006Z" fill="#1BBFFC"/>
</svg>
