<svg width="391" height="116" viewBox="0 0 391 116" fill="none" xmlns="http://www.w3.org/2000/svg">
<path d="M164.62 38.3411C165.366 38.7889 165.739 39.4108 165.739 40.2068C165.739 40.6546 165.565 41.1521 165.217 41.6994C164.769 42.2467 164.197 42.5203 163.5 42.5203C163.102 42.5203 162.704 42.396 162.306 42.1472C158.326 39.5103 153.973 38.1918 149.246 38.1918C145.216 38.1918 141.559 39.1371 138.275 41.0278C135.041 42.9184 132.479 45.5802 130.589 49.0131C128.748 52.3964 127.827 56.2522 127.827 60.5808C127.827 65.0088 128.773 68.9393 130.663 72.3723C132.554 75.7555 135.116 78.3924 138.35 80.283C141.634 82.1239 145.266 83.0443 149.246 83.0443C153.973 83.0443 158.301 81.7507 162.232 79.1636C162.63 78.9148 163.053 78.7904 163.5 78.7904C164.197 78.7904 164.769 79.0889 165.217 79.686C165.565 80.084 165.739 80.5567 165.739 81.1039C165.739 81.9 165.391 82.497 164.694 82.8951C162.754 84.1886 160.366 85.2832 157.53 86.1788C154.694 87.0246 151.933 87.4475 149.246 87.4475C144.519 87.4475 140.141 86.328 136.111 84.0891C132.131 81.8005 128.947 78.6163 126.559 74.5365C124.22 70.4568 123.051 65.8048 123.051 60.5808C123.051 55.5557 124.22 51.0033 126.559 46.9235C128.897 42.794 132.056 39.5849 136.037 37.2963C140.017 34.9579 144.42 33.7887 149.246 33.7887C152.032 33.7887 154.744 34.1867 157.381 34.9827C160.067 35.7788 162.48 36.8982 164.62 38.3411ZM175.465 84.4623C175.465 85.1091 175.241 85.6564 174.793 86.1041C174.395 86.5022 173.873 86.7012 173.226 86.7012C172.579 86.7012 172.032 86.5022 171.584 86.1041C171.186 85.6564 170.987 85.1091 170.987 84.4623V50.1326C170.987 49.4858 171.186 48.9634 171.584 48.5654C172.032 48.1176 172.579 47.8937 173.226 47.8937C173.873 47.8937 174.395 48.1176 174.793 48.5654C175.241 48.9634 175.465 49.4858 175.465 50.1326V84.4623ZM173.226 42.8935C172.231 42.8935 171.46 42.6696 170.913 42.2218C170.365 41.7243 170.092 41.0278 170.092 40.1322V39.3859C170.092 38.4903 170.365 37.8187 170.913 37.3709C171.51 36.8734 172.306 36.6246 173.301 36.6246C175.291 36.6246 176.286 37.545 176.286 39.3859V40.1322C176.286 41.0278 176.012 41.7243 175.465 42.2218C174.967 42.6696 174.221 42.8935 173.226 42.8935ZM201.949 47.6698C202.944 47.6698 203.839 47.8688 204.635 48.2668C205.431 48.6649 205.829 49.2619 205.829 50.058C205.829 50.7545 205.63 51.3267 205.232 51.7744C204.834 52.1725 204.362 52.3715 203.814 52.3715C203.566 52.3715 203.068 52.2471 202.322 51.9983C201.625 51.7496 200.954 51.6252 200.307 51.6252C198.466 51.6252 196.625 52.3466 194.784 53.7894C192.993 55.1825 191.5 56.9985 190.306 59.2374C189.162 61.4763 188.59 63.7401 188.59 66.0287V84.4623C188.59 85.1091 188.366 85.6564 187.918 86.1041C187.52 86.5022 186.998 86.7012 186.351 86.7012C185.704 86.7012 185.157 86.5022 184.709 86.1041C184.311 85.6564 184.112 85.1091 184.112 84.4623V51.0281C184.112 50.3813 184.311 49.8589 184.709 49.4609C185.157 49.0131 185.704 48.7892 186.351 48.7892C186.998 48.7892 187.52 49.0131 187.918 49.4609C188.366 49.8589 188.59 50.3813 188.59 51.0281V57.5956C189.734 54.7596 191.451 52.4212 193.739 50.5804C196.078 48.6897 198.814 47.7196 201.949 47.6698ZM239.939 48.5654C240.585 48.5654 241.108 48.7892 241.506 49.237C241.954 49.6848 242.178 50.2321 242.178 50.8789V84.4623C242.178 85.1091 241.954 85.6564 241.506 86.1041C241.108 86.5022 240.585 86.7012 239.939 86.7012C239.292 86.7012 238.745 86.5022 238.297 86.1041C237.899 85.6564 237.7 85.1091 237.7 84.4623V79.4621C236.456 81.701 234.59 83.5916 232.103 85.1339C229.615 86.6763 226.903 87.4475 223.968 87.4475C220.634 87.4475 217.624 86.5768 214.938 84.8354C212.301 83.0941 210.211 80.7059 208.669 77.671C207.176 74.636 206.43 71.2279 206.43 67.4467C206.43 63.6654 207.201 60.2822 208.743 57.297C210.286 54.2621 212.375 51.8988 215.012 50.2072C217.699 48.5156 220.659 47.6698 223.893 47.6698C226.878 47.6698 229.615 48.3912 232.103 49.8341C234.59 51.2769 236.456 53.1675 237.7 55.5059V50.8789C237.7 50.2321 237.899 49.6848 238.297 49.237C238.745 48.7892 239.292 48.5654 239.939 48.5654ZM224.416 83.2682C227.003 83.2682 229.316 82.5965 231.356 81.2532C233.446 79.8601 235.063 77.9695 236.207 75.5813C237.401 73.1434 237.998 70.4319 237.998 67.4467C237.998 64.561 237.401 61.9241 236.207 59.5359C235.063 57.1478 233.446 55.282 231.356 53.9387C229.316 52.5456 227.003 51.8491 224.416 51.8491C221.829 51.8491 219.49 52.5207 217.401 53.8641C215.361 55.2074 213.744 57.0732 212.55 59.4613C211.405 61.7997 210.833 64.4615 210.833 67.4467C210.833 70.4319 211.405 73.1434 212.55 75.5813C213.694 77.9695 215.286 79.8601 217.326 81.2532C219.416 82.5965 221.779 83.2682 224.416 83.2682Z" fill="black"/>
<path d="M48.9274 55.1616C44.9151 54.9239 40.9829 53.2118 38.017 50.0539C31.8679 43.5066 32.2007 33.2234 38.7605 27.0859C45.3203 20.9484 55.6229 21.2806 61.7721 27.828C64.5526 30.7885 66.0078 34.5129 66.1612 38.2725L69.1255 39.1686C69.1829 34.3869 67.4613 29.5772 63.9258 25.8128C56.6616 18.0782 44.4908 17.6858 36.7415 24.9362C28.9923 32.1867 28.5991 44.3344 35.8633 52.069C39.5814 56.028 44.5851 58.0634 49.6234 58.1349L48.9274 55.1616Z" fill="#1BBFFC"/>
<path d="M48.4327 60.0537C45.0192 61.2122 38.237 58.2062 34.0588 53.7574C25.8604 45.0281 26.3042 31.3181 35.05 23.1352C43.7959 14.9523 57.5319 15.3953 65.7303 24.1246C69.896 28.56 71.8305 34.2814 71.5784 39.9102L77.3699 41.661C78.125 34.031 75.7041 26.1275 70.0379 20.0943C59.6094 8.99055 42.1369 8.42711 31.0121 18.8358C17.3438 31.6243 19.2905 57.0525 38.017 63.3153C43.5349 65.1607 43.3895 64.7855 46.5928 67.0462C49.796 69.3069 50.9081 77.4191 49.1169 83.3218C45.642 94.773 33.5243 101.244 22.0514 97.7761C10.5784 94.3077 4.0947 82.213 7.56963 70.7618C9.33529 64.9433 13.3323 60.4104 18.3423 57.8139L16.9657 51.9325C9.96788 55.0947 4.32061 61.1391 1.91894 69.0535C-2.50121 83.6196 5.74613 99.0043 20.3399 103.416C39.2416 109.13 58.6963 93.4648 55.2905 74.0957C54.5936 70.1328 52.9876 68.5055 53.3843 65.4337C53.7811 62.3619 61.0802 56.9844 66.9835 55.6079C78.6569 52.8859 90.3307 60.1246 93.0579 71.7758C95.785 83.427 88.5326 95.0788 76.8593 97.8007C70.9279 99.1838 64.9964 97.9952 60.2384 94.9628L55.8236 99.0935C62.0663 103.561 70.1345 105.42 78.2024 103.539C93.0511 100.077 102.276 85.2557 98.8072 70.4352C94.7405 53.0606 74.4185 42.7014 58.9626 53.3755C55.7638 55.5846 52.1073 58.8067 48.4327 60.0537Z" fill="#1BBFFC"/>
<path d="M42.901 69.7674C44.701 73.3544 45.1815 77.6094 43.9244 81.752C41.3181 90.3409 32.2293 95.1948 23.6241 92.5934C15.0188 89.992 10.1558 80.9204 12.7621 72.3315C13.9407 68.4477 16.4446 65.3277 19.63 63.3153L18.9254 60.305C14.7477 62.6462 11.4353 66.5392 9.9368 71.4773C6.85784 81.6237 12.6027 92.3402 22.7683 95.4133C32.934 98.4865 43.6708 92.7525 46.7498 82.6061C48.3257 77.4127 47.5899 72.0699 45.1328 67.6792L42.901 69.7674Z" fill="#1BBFFC"/>
<path d="M68.2178 60.881C63.9948 61.8657 60.1896 64.6739 57.9772 68.0233L55.0494 67.1382C57.6306 62.819 62.2521 59.2462 67.5462 58.0117C77.8894 55.6 88.233 62.0137 90.6494 72.3373C93.0657 82.6609 86.6398 92.9849 76.2966 95.3967C71.2627 96.5705 66.2286 95.6538 62.1084 93.2133L64.368 91.0991C67.7068 92.8462 71.666 93.4506 75.625 92.5275C84.3805 90.4859 89.8201 81.7466 87.7747 73.0076C85.7292 64.2687 76.9733 58.8394 68.2178 60.881Z" fill="#1BBFFC"/>
<path d="M339.209 96.2759C339.507 96.4551 339.657 96.7039 339.657 97.0224C339.657 97.2016 339.587 97.4007 339.448 97.6196C339.268 97.8386 339.039 97.9481 338.761 97.9481C338.601 97.9481 338.442 97.8983 338.283 97.7988C336.69 96.7437 334.948 96.2162 333.057 96.2162C331.445 96.2162 329.982 96.5944 328.668 97.3509C327.374 98.1074 326.348 99.1724 325.592 100.546C324.855 101.9 324.487 103.443 324.487 105.175C324.487 106.946 324.865 108.519 325.622 109.893C326.378 111.246 327.403 112.301 328.697 113.058C330.011 113.794 331.465 114.163 333.057 114.163C334.948 114.163 336.68 113.645 338.253 112.61C338.412 112.51 338.582 112.461 338.761 112.461C339.039 112.461 339.268 112.58 339.448 112.819C339.587 112.978 339.657 113.167 339.657 113.386C339.657 113.705 339.517 113.944 339.238 114.103C338.462 114.621 337.507 115.059 336.372 115.417C335.237 115.755 334.132 115.925 333.057 115.925C331.166 115.925 329.414 115.477 327.802 114.581C326.209 113.665 324.935 112.391 323.979 110.759C323.044 109.126 322.576 107.265 322.576 105.175C322.576 103.164 323.044 101.342 323.979 99.7099C324.915 98.0576 326.179 96.7736 327.772 95.8578C329.364 94.9222 331.126 94.4544 333.057 94.4544C334.172 94.4544 335.257 94.6136 336.312 94.9321C337.387 95.2507 338.353 95.6986 339.209 96.2759ZM343.548 114.73C343.548 114.989 343.458 115.208 343.279 115.387C343.12 115.546 342.911 115.626 342.652 115.626C342.393 115.626 342.174 115.546 341.995 115.387C341.836 115.208 341.756 114.989 341.756 114.73V100.994C341.756 100.735 341.836 100.526 341.995 100.367C342.174 100.188 342.393 100.098 342.652 100.098C342.911 100.098 343.12 100.188 343.279 100.367C343.458 100.526 343.548 100.735 343.548 100.994V114.73ZM342.652 98.0974C342.254 98.0974 341.946 98.0078 341.727 97.8287C341.508 97.6296 341.398 97.3509 341.398 96.9926V96.6939C341.398 96.3356 341.508 96.0669 341.727 95.8877C341.965 95.6886 342.284 95.5891 342.682 95.5891C343.478 95.5891 343.877 95.9574 343.877 96.6939V96.9926C343.877 97.3509 343.767 97.6296 343.548 97.8287C343.349 98.0078 343.05 98.0974 342.652 98.0974ZM354.145 100.009C354.543 100.009 354.901 100.088 355.22 100.247C355.538 100.407 355.698 100.646 355.698 100.964C355.698 101.243 355.618 101.472 355.459 101.651C355.299 101.81 355.11 101.89 354.891 101.89C354.792 101.89 354.593 101.84 354.294 101.74C354.015 101.641 353.747 101.591 353.488 101.591C352.751 101.591 352.015 101.88 351.278 102.457C350.562 103.015 349.964 103.741 349.487 104.637C349.029 105.533 348.8 106.439 348.8 107.354V114.73C348.8 114.989 348.71 115.208 348.531 115.387C348.372 115.546 348.163 115.626 347.904 115.626C347.645 115.626 347.426 115.546 347.247 115.387C347.088 115.208 347.008 114.989 347.008 114.73V101.352C347.008 101.094 347.088 100.884 347.247 100.725C347.426 100.546 347.645 100.456 347.904 100.456C348.163 100.456 348.372 100.546 348.531 100.725C348.71 100.884 348.8 101.094 348.8 101.352V103.98C349.258 102.845 349.944 101.91 350.86 101.173C351.796 100.417 352.891 100.028 354.145 100.009ZM369.346 100.367C369.604 100.367 369.813 100.456 369.973 100.636C370.152 100.815 370.241 101.034 370.241 101.293V114.73C370.241 114.989 370.152 115.208 369.973 115.387C369.813 115.546 369.604 115.626 369.346 115.626C369.087 115.626 368.868 115.546 368.689 115.387C368.529 115.208 368.45 114.989 368.45 114.73V112.729C367.952 113.625 367.206 114.382 366.21 114.999C365.215 115.616 364.13 115.925 362.955 115.925C361.622 115.925 360.417 115.576 359.342 114.879C358.287 114.183 357.451 113.227 356.834 112.013C356.237 110.798 355.938 109.435 355.938 107.922C355.938 106.409 356.246 105.055 356.864 103.861C357.481 102.646 358.317 101.701 359.372 101.024C360.447 100.347 361.631 100.009 362.925 100.009C364.12 100.009 365.215 100.297 366.21 100.875C367.206 101.452 367.952 102.208 368.45 103.144V101.293C368.45 101.034 368.529 100.815 368.689 100.636C368.868 100.456 369.087 100.367 369.346 100.367ZM363.134 114.252C364.17 114.252 365.095 113.984 365.912 113.446C366.748 112.889 367.395 112.132 367.853 111.177C368.33 110.201 368.569 109.116 368.569 107.922C368.569 106.767 368.33 105.712 367.853 104.756C367.395 103.801 366.748 103.054 365.912 102.517C365.095 101.959 364.17 101.681 363.134 101.681C362.099 101.681 361.164 101.95 360.328 102.487C359.511 103.025 358.864 103.771 358.387 104.727C357.929 105.662 357.7 106.727 357.7 107.922C357.7 109.116 357.929 110.201 358.387 111.177C358.844 112.132 359.481 112.889 360.298 113.446C361.134 113.984 362.079 114.252 363.134 114.252Z" fill="black"/>
<path d="M345.853 38.8768C342.348 38.6692 338.914 37.1737 336.323 34.4152C330.951 28.696 331.242 19.7135 336.972 14.3523C342.702 8.9911 351.702 9.28131 357.073 15.0005C359.502 17.5866 360.773 20.8399 360.907 24.124L363.496 24.9067C363.547 20.7298 362.043 16.5285 358.955 13.2403C352.609 6.484 341.978 6.14116 335.209 12.4745C328.44 18.8079 328.096 29.4191 334.441 36.1754C337.689 39.6336 342.06 41.4115 346.461 41.474L345.853 38.8768Z" fill="#1BBFFC"/>
<path d="M345.421 43.1502C342.439 44.162 336.515 41.5363 332.865 37.6502C325.704 30.0251 326.091 18.0492 333.731 10.9013C341.371 3.75346 353.369 4.14039 360.531 11.7655C364.17 15.64 365.859 20.6376 365.639 25.5545L370.698 27.0838C371.358 20.419 369.243 13.5151 364.293 8.24506C355.184 -1.45423 339.922 -1.94641 330.204 7.14577C318.264 18.3167 319.965 40.5285 336.323 45.9992C341.143 47.6112 341.016 47.2834 343.814 49.2582C346.612 51.233 347.583 58.3191 346.019 63.4751C342.983 73.4779 332.398 79.1308 322.377 76.1011C312.355 73.0715 306.691 62.5066 309.727 52.5038C311.269 47.4212 314.76 43.4617 319.137 41.1937L317.934 36.0561C311.822 38.8184 306.889 44.0982 304.791 51.0116C300.93 63.7353 308.134 77.174 320.882 81.0277C337.393 86.0191 354.386 72.3352 351.411 55.416C350.803 51.9543 349.4 50.5329 349.746 47.8496C350.093 45.1663 356.469 40.469 361.625 39.2666C371.822 36.889 382.02 43.212 384.402 53.3895C386.784 63.567 380.449 73.745 370.252 76.1227C365.071 77.3308 359.89 76.2925 355.734 73.6437L351.877 77.2519C357.33 81.1545 364.378 82.7786 371.425 81.1353C384.396 78.1109 392.454 65.1644 389.424 52.2185C385.872 37.0416 368.12 27.9926 354.619 37.3166C351.825 39.2463 348.631 42.0609 345.421 43.1502Z" fill="#1BBFFC"/>
<path d="M340.589 51.6352C342.161 54.7685 342.581 58.4852 341.483 62.1039C339.206 69.6064 331.267 73.8463 323.75 71.574C316.234 69.3016 311.986 61.3775 314.262 53.8749C315.292 50.4824 317.479 47.757 320.262 45.9992L319.646 43.3696C315.997 45.4147 313.103 48.8153 311.794 53.1288C309.105 61.9918 314.123 71.3528 323.003 74.0373C331.883 76.7217 341.261 71.713 343.951 62.85C345.328 58.3135 344.685 53.6465 342.539 49.8111L340.589 51.6352Z" fill="#1BBFFC"/>
<path d="M362.704 43.8728C359.015 44.7329 355.691 47.186 353.758 50.1117L351.201 49.3386C353.456 45.5657 357.492 42.4448 362.117 41.3664C371.152 39.2597 380.187 44.8622 382.298 53.88C384.409 62.8978 378.795 71.916 369.761 74.0227C365.363 75.048 360.966 74.2473 357.367 72.1155L359.341 70.2687C362.257 71.7949 365.716 72.3228 369.174 71.5164C376.822 69.733 381.574 62.0991 379.787 54.4656C378 46.832 370.352 42.0894 362.704 43.8728Z" fill="#1BBFFC"/>
</svg>
