<svg width="52" height="52" viewBox="0 0 52 52" fill="none" xmlns="http://www.w3.org/2000/svg">
<line x1="21.7991" y1="32.0605" x2="21.7992" y2="38.4726" stroke="#415268" stroke-width="2.13736"/>
<circle cx="21.7998" cy="29.9228" r="2.13736" stroke="#415268" stroke-width="2.13736"/>
<circle cx="21.7998" cy="16.0303" r="2.13736" stroke="#415268" stroke-width="2.13736"/>
<line x1="21.7991" y1="17.0986" x2="21.7991" y2="28.8541" stroke="#415268" stroke-width="2.13736"/>
<circle cx="30.3486" cy="20.3047" r="2.13736" stroke="#415268" stroke-width="2.13736"/>
<path fill-rule="evenodd" clip-rule="evenodd" d="M31.0245 19.2364H32.0941C32.0937 19.2243 32.0932 19.2138 32.0929 19.2049L32.0919 19.1851L32.0915 19.178L32.0914 19.1752L32.0913 19.1739C32.0913 19.1734 32.0912 19.1728 31.0245 19.2364ZM31.4067 22.4424H28.789C28.696 22.5267 28.5958 22.6063 28.4878 22.6803C27.9891 23.022 27.2526 23.2942 26.1381 23.2942C24.5202 23.2942 23.3093 23.9402 22.4666 24.9281C21.7532 25.7645 21.3394 26.8012 21.0953 27.7858H23.3171C23.5066 27.2084 23.7618 26.7033 24.0928 26.3152C24.5386 25.7925 25.16 25.4316 26.1381 25.4316C27.6194 25.4316 28.7917 25.063 29.6959 24.4435C30.5153 23.882 31.0544 23.1559 31.4067 22.4424ZM20.7316 30.9919H22.869C22.8687 31.0468 22.8688 31.1007 22.8691 31.1533C22.8713 31.5058 22.8858 31.7985 22.8995 32.0005C22.9063 32.1014 22.9129 32.1792 22.9176 32.2302C22.92 32.2557 22.9218 32.2744 22.923 32.2859L22.9243 32.2976L22.9244 32.2986C22.9243 32.2984 22.9243 32.2981 21.8625 32.4188C20.8006 32.5396 20.8006 32.5392 20.8006 32.5388L20.8004 32.5379L20.8002 32.5355L20.7994 32.5284L20.797 32.5056C20.795 32.4866 20.7924 32.46 20.7893 32.4265C20.7831 32.3595 20.7751 32.2643 20.767 32.1448C20.7509 31.9063 20.7343 31.5696 20.7318 31.1668C20.7314 31.1099 20.7313 31.0516 20.7316 30.9919Z" fill="#415268"/>
</svg>
