<svg width="52" height="52" viewBox="0 0 52 52" fill="none" xmlns="http://www.w3.org/2000/svg">
<path fill-rule="evenodd" clip-rule="evenodd" d="M34.29 25.7366C34.2895 30.4579 30.4619 34.2851 25.7405 34.2851C24.9775 34.2851 24.2379 34.1851 23.5339 33.9976L21.8423 35.6892C23.0501 36.1626 24.365 36.4225 25.7405 36.4225C31.6424 36.4225 36.4268 31.6383 36.4273 25.7366H34.29ZM15.0537 25.7366H17.1911C17.1911 25.7363 17.1911 25.736 17.1911 25.7356C17.1911 21.0139 21.0188 17.1862 25.7405 17.1862C26.4735 17.1862 27.1849 17.2784 27.8638 17.4519L29.563 15.7527C28.3761 15.298 27.0874 15.0488 25.7405 15.0488C19.8384 15.0488 15.0537 19.8335 15.0537 25.7356C15.0537 25.736 15.0537 25.7363 15.0537 25.7366Z" fill="#415268"/>
<path d="M16.1221 30.0107L13.3456 25.2017L18.8986 25.2017L16.1221 30.0107Z" fill="#415268"/>
<path d="M35.3584 21.4609L38.1349 26.27H32.5819L35.3584 21.4609Z" fill="#415268"/>
</svg>
