<svg width="52" height="52" viewBox="0 0 52 52" fill="none" xmlns="http://www.w3.org/2000/svg">
<mask id="path-2-inside-1" fill="white">
<path fill-rule="evenodd" clip-rule="evenodd" d="M17.8024 19.291C16.622 19.291 15.665 20.2479 15.665 21.4284V29.8614C15.665 31.0418 16.622 31.9988 17.8024 31.9988H27.4751L28.6177 35.141C29.2998 37.0169 31.9529 37.0169 32.6351 35.141L33.7777 31.9988H34.9013C36.0817 31.9988 37.0387 31.0418 37.0387 29.8614V21.4284C37.0387 20.2479 36.0817 19.291 34.9013 19.291H17.8024Z"/>
</mask>
<path d="M27.4751 31.9988L29.4838 31.2683L28.9721 29.8614H27.4751V31.9988ZM28.6177 35.141L26.609 35.8714L28.6177 35.141ZM32.6351 35.141L34.6437 35.8714L32.6351 35.141ZM33.7777 31.9988V29.8614H32.2806L31.769 31.2683L33.7777 31.9988ZM17.8024 21.4284V21.4284V17.1537C15.4415 17.1537 13.5277 19.0675 13.5277 21.4284H17.8024ZM17.8024 29.8614V21.4284H13.5277V29.8614H17.8024ZM17.8024 29.8614H17.8024H13.5277C13.5277 32.2223 15.4415 34.1361 17.8024 34.1361V29.8614ZM27.4751 29.8614H17.8024V34.1361H27.4751V29.8614ZM30.6264 34.4105L29.4838 31.2683L25.4664 32.7292L26.609 35.8714L30.6264 34.4105ZM30.6264 34.4105C30.6219 34.423 30.6184 34.4296 30.6172 34.4317C30.616 34.4338 30.6163 34.433 30.6185 34.4302C30.6206 34.4275 30.6236 34.4242 30.6274 34.4207C30.6312 34.4173 30.6349 34.4145 30.6382 34.4123C30.6448 34.4079 30.6477 34.4075 30.6449 34.4083C30.6417 34.4092 30.6352 34.4105 30.6264 34.4105C30.6176 34.4105 30.611 34.4092 30.6078 34.4083C30.6051 34.4075 30.6079 34.4079 30.6146 34.4123C30.6179 34.4144 30.6216 34.4173 30.6253 34.4207C30.6291 34.4242 30.6322 34.4275 30.6343 34.4302C30.6364 34.4329 30.6367 34.4338 30.6355 34.4317C30.6344 34.4296 30.6309 34.423 30.6264 34.4105L26.609 35.8714C27.9733 39.6232 33.2794 39.6232 34.6437 35.8714L30.6264 34.4105ZM31.769 31.2683L30.6264 34.4105L34.6437 35.8714L35.7863 32.7292L31.769 31.2683ZM34.9013 29.8614H33.7777V34.1361H34.9013V29.8614ZM34.9013 29.8614V29.8614V34.1361C37.2622 34.1361 39.176 32.2223 39.176 29.8614H34.9013ZM34.9013 21.4284V29.8614H39.176V21.4284H34.9013ZM34.9013 21.4284H34.9013H39.176C39.176 19.0675 37.2622 17.1537 34.9013 17.1537V21.4284ZM17.8024 21.4284H34.9013V17.1537H17.8024V21.4284Z" fill="#415268" mask="url(#path-2-inside-1)"/>
</svg>
