<svg width="53" height="52" viewBox="0 0 53 52" fill="none" xmlns="http://www.w3.org/2000/svg">
<line x1="17.9502" y1="19.2917" x2="21.1562" y2="19.2917" stroke="#415268" stroke-width="2.13736"/>
<line x1="17.9502" y1="23.5661" x2="21.1562" y2="23.5661" stroke="#415268" stroke-width="2.13736"/>
<line x1="17.9502" y1="27.8405" x2="21.1562" y2="27.8405" stroke="#415268" stroke-width="2.13736"/>
<mask id="path-5-inside-1" fill="white">
<rect x="20.0879" y="19.291" width="19.2363" height="21.3736" rx="1.06868"/>
</mask>
<rect x="20.0879" y="19.291" width="19.2363" height="21.3736" rx="1.06868" stroke="#415268" stroke-width="4.27472" mask="url(#path-5-inside-1)"/>
<line x1="24.3623" y1="23.0807" x2="32.9118" y2="23.0807" stroke="#415268" stroke-width="2.13736"/>
<line x1="24.3623" y1="26.9665" x2="32.9118" y2="26.9665" stroke="#415268" stroke-width="2.13736"/>
<line x1="24.3623" y1="30.8522" x2="30.7744" y2="30.8522" stroke="#415268" stroke-width="2.13736"/>
<path d="M38.018 13.5429L35.3087 17.6489L32.5994 13.5429L38.018 13.5429Z" fill="#415268" stroke="#415268" stroke-width="1.06868"/>
<mask id="path-10-inside-2" fill="white">
<path fill-rule="evenodd" clip-rule="evenodd" d="M33.9811 13.9478C33.981 12.1772 32.5457 10.7419 30.775 10.7419C29.0044 10.7419 27.5691 12.1772 27.569 13.9478L25.4316 13.9478C25.4317 10.9968 27.824 8.60449 30.775 8.60449C33.7261 8.60449 36.1184 10.9968 36.1185 13.9478L33.9811 13.9478Z"/>
</mask>
<path fill-rule="evenodd" clip-rule="evenodd" d="M33.9811 13.9478C33.981 12.1772 32.5457 10.7419 30.775 10.7419C29.0044 10.7419 27.5691 12.1772 27.569 13.9478L25.4316 13.9478C25.4317 10.9968 27.824 8.60449 30.775 8.60449C33.7261 8.60449 36.1184 10.9968 36.1185 13.9478L33.9811 13.9478Z" fill="#5A5A5A"/>
<path d="M33.9811 13.9478L31.8437 13.9479L31.8438 16.0852L33.9811 16.0852L33.9811 13.9478ZM27.569 13.9478L27.569 16.0852L29.7063 16.0852L29.7064 13.9479L27.569 13.9478ZM25.4316 13.9478L23.2943 13.9478L23.2942 16.0852L25.4316 16.0852L25.4316 13.9478ZM36.1185 13.9478L36.1185 16.0852L38.2559 16.0852L38.2558 13.9478L36.1185 13.9478ZM36.1185 13.9477C36.1184 10.9967 33.7261 8.60449 30.775 8.60449L30.775 12.8792C31.3653 12.8792 31.8437 13.3577 31.8437 13.9479L36.1185 13.9477ZM30.775 8.60449C27.824 8.60449 25.4317 10.9967 25.4316 13.9477L29.7064 13.9479C29.7064 13.3577 30.1848 12.8792 30.775 12.8792L30.775 8.60449ZM25.4316 16.0852L27.569 16.0852L27.569 11.8104L25.4316 11.8104L25.4316 16.0852ZM30.775 6.46713C26.6436 6.46713 23.2944 9.81631 23.2943 13.9478L27.569 13.9478C27.569 12.1772 29.0044 10.7419 30.775 10.7419L30.775 6.46713ZM38.2558 13.9478C38.2557 9.81631 34.9065 6.46713 30.775 6.46713L30.775 10.7419C32.5457 10.7419 33.9811 12.1772 33.9811 13.9478L38.2558 13.9478ZM33.9811 16.0852L36.1185 16.0852L36.1185 11.8104L33.9811 11.8104L33.9811 16.0852Z" fill="#415268" mask="url(#path-10-inside-2)"/>
<path fill-rule="evenodd" clip-rule="evenodd" d="M15.8131 34.2529V17.154H28.6373V19.2912H30.7747V16.0853C30.7747 15.4951 30.2962 15.0166 29.706 15.0166H14.7445C14.1542 15.0166 13.6758 15.4951 13.6758 16.0853V35.3215C13.6758 35.9118 14.1542 36.3902 14.7445 36.3902H29.706C29.7114 36.3902 29.7167 36.3902 29.7221 36.3901H20.0879V34.2529H15.8131Z" fill="#415268"/>
</svg>
