<svg width="55" height="55" viewBox="0 0 55 55" fill="none" xmlns="http://www.w3.org/2000/svg">
<rect x="37.3325" y="38.4741" width="15.9891" height="20.5574" rx="1.14208" transform="rotate(180 37.3325 38.4741)" stroke="#415268" stroke-width="2.28416"/>
<mask id="path-5-inside-1" fill="white">
<path d="M28.375 29L28.375 23L30.625 23L30.625 29L28.375 29Z"/>
</mask>
<path d="M28.375 29L28.375 23L30.625 23L30.625 29L28.375 29Z" fill="#5A5A5A"/>
<path d="M28.375 23L28.375 20.7158L26.0908 20.7158L26.0908 23L28.375 23ZM28.375 29L26.0908 29L26.0909 31.2842L28.375 31.2842L28.375 29ZM30.625 23L32.9092 23L32.9091 20.7158L30.625 20.7158L30.625 23ZM30.625 29L30.625 31.2842L32.9092 31.2842L32.9092 29L30.625 29ZM26.0908 23L26.0908 29L30.6592 29L30.6592 23L26.0908 23ZM30.625 20.7158L28.375 20.7158L28.375 25.2842L30.625 25.2842L30.625 20.7158ZM32.9092 29L32.9092 23L28.3408 23L28.3408 29L32.9092 29ZM28.375 31.2842L30.625 31.2842L30.625 26.7158L28.375 26.7158L28.375 31.2842Z" fill="#415268" mask="url(#path-5-inside-1)"/>
<path d="M32.3453 29.571L29.5 33.9517L26.6547 29.571L32.3453 29.571Z" fill="#415268" stroke="#415268" stroke-width="1.14208"/>
</svg>
