<svg width="52" height="52" viewBox="0 0 52 52" fill="none" xmlns="http://www.w3.org/2000/svg">
<path d="M20.305 19.2916H28.8544V17.1543H20.305V19.2916Z" fill="#415268"/>
<path d="M28.8544 23.5664H20.305V21.429H28.8544V23.5664Z" fill="#415268"/>
<path d="M20.305 27.8411H26.7171V25.7037H20.305V27.8411Z" fill="#415268"/>
<path d="M30.9918 31.5815V34.2532H28.8544V31.5815H27.1466L29.9231 26.7724L32.6996 31.5815H30.9918Z" fill="#415268"/>
<path fill-rule="evenodd" clip-rule="evenodd" d="M16.0303 15.0169C16.0303 14.4267 16.5087 13.9482 17.099 13.9482H34.1979C34.7881 13.9482 35.2665 14.4267 35.2665 15.0169V36.3905C35.2665 36.9808 34.7881 37.4592 34.1979 37.4592H17.099C16.5087 37.4592 16.0303 36.9808 16.0303 36.3905V15.0169ZM18.1676 35.3219V16.0856H33.1292V35.3219H18.1676Z" fill="#415268"/>
</svg>
