<svg width="52" height="52" viewBox="0 0 52 52" fill="none" xmlns="http://www.w3.org/2000/svg">
<mask id="path-2-inside-1" fill="white">
<rect x="13.5273" y="17.126" width="25.6484" height="17.0989" rx="1.06868"/>
</mask>
<rect x="13.5273" y="17.126" width="25.6484" height="17.0989" rx="1.06868" fill="white" stroke="#415268" stroke-width="4.27472" mask="url(#path-2-inside-1)"/>
<rect x="17.2677" y="21.9357" width="1.06868" height="1.06868" stroke="#415268" stroke-width="1.06868"/>
<rect x="21.5422" y="21.9357" width="1.06868" height="1.06868" stroke="#415268" stroke-width="1.06868"/>
<rect x="25.8175" y="21.9357" width="1.06868" height="1.06868" stroke="#415268" stroke-width="1.06868"/>
<rect x="30.092" y="21.9357" width="1.06868" height="1.06868" stroke="#415268" stroke-width="1.06868"/>
<rect x="34.3664" y="21.9357" width="1.06868" height="1.06868" stroke="#415268" stroke-width="1.06868"/>
<rect x="17.2677" y="25.1418" width="1.06868" height="1.06868" stroke="#415268" stroke-width="1.06868"/>
<rect x="21.5422" y="25.1418" width="1.06868" height="1.06868" stroke="#415268" stroke-width="1.06868"/>
<rect x="25.8175" y="25.1418" width="1.06868" height="1.06868" stroke="#415268" stroke-width="1.06868"/>
<rect x="30.092" y="25.1418" width="1.06868" height="1.06868" stroke="#415268" stroke-width="1.06868"/>
<rect x="34.3664" y="25.1418" width="1.06868" height="1.06868" stroke="#415268" stroke-width="1.06868"/>
<rect x="17.2677" y="28.3478" width="1.06868" height="1.06868" stroke="#415268" stroke-width="1.06868"/>
<rect x="21.5422" y="28.3478" width="1.06868" height="1.06868" stroke="#415268" stroke-width="1.06868"/>
<rect x="25.8175" y="28.3478" width="1.06868" height="1.06868" stroke="#415268" stroke-width="1.06868"/>
<rect x="30.092" y="28.3478" width="1.06868" height="1.06868" stroke="#415268" stroke-width="1.06868"/>
<rect x="34.3664" y="28.3478" width="1.06868" height="1.06868" stroke="#415268" stroke-width="1.06868"/>
</svg>
