<svg width="52" height="52" viewBox="0 0 52 52" fill="none" xmlns="http://www.w3.org/2000/svg">
<path fill-rule="evenodd" clip-rule="evenodd" d="M34.4755 25.7034C34.4755 30.4251 30.6478 34.2529 25.9261 34.2529C25.926 34.2529 25.9259 34.2529 25.9258 34.2529V36.3901H25.8753C25.8922 36.3902 25.9091 36.3902 25.9261 36.3902C31.8282 36.3902 36.6129 31.6056 36.6129 25.7034C36.6129 19.8013 31.8282 15.0166 25.9261 15.0166C20.0239 15.0166 15.2393 19.8012 15.2393 25.7033H17.3766C17.3767 20.9816 21.2044 17.154 25.9261 17.154C30.6478 17.154 34.4755 20.9817 34.4755 25.7034Z" fill="#415268"/>
<path d="M18.1586 25.7038L16.3076 28.9098L14.4566 25.7038L18.1586 25.7038Z" fill="#415268" stroke="#415268" stroke-width="1.06868"/>
<line x1="25.9255" y1="25.7031" x2="25.9255" y2="19.291" stroke="#415268" stroke-width="2.13736"/>
<line x1="25.9258" y1="25.7038" x2="32.3379" y2="25.7038" stroke="#415268" stroke-width="2.13736"/>
<rect x="25.1246" y="25.9703" width="0.534341" height="0.534341" fill="#21262F" stroke="#415268" stroke-width="0.534341"/>
</svg>
