<svg width="187" height="188" viewBox="0 0 187 188" fill="none" xmlns="http://www.w3.org/2000/svg">
<line x1="62.2548" x2="62.2548" y2="187.488" stroke="#8F95AB" stroke-width="0.779167"/>
<line x1="124.893" x2="124.893" y2="187.488" stroke="#8F95AB" stroke-width="0.779167"/>
<path d="M93.7031 0L93.7031 187.488" stroke="#8F95AB" stroke-width="0.779167"/>
<line x1="-1.69849e-08" y1="124.115" x2="187" y2="124.115" stroke="#8F95AB" stroke-width="0.779167"/>
<line x1="-1.69849e-08" y1="62.5948" x2="187" y2="62.5948" stroke="#8F95AB" stroke-width="0.779167"/>
<line x1="-1.69849e-08" y1="93.3555" x2="187" y2="93.3555" stroke="#8F95AB" stroke-width="0.779167"/>
<path d="M0.623697 0.624609L186.501 186.436" stroke="#8F95AB" stroke-width="0.779167"/>
<path d="M0.730667 186.879L186.336 0.665116" stroke="#8F95AB" stroke-width="0.779167"/>
<path d="M108.693 93.5013C108.693 101.893 101.891 108.695 93.4993 108.695C85.1081 108.695 78.3056 101.893 78.3056 93.5013C78.3056 85.11 85.1081 78.3076 93.4993 78.3076C101.891 78.3076 108.693 85.11 108.693 93.5013Z" stroke="#8F95AB" stroke-width="0.779167"/>
<path d="M132.211 93.6429C132.211 114.944 114.943 132.212 93.6419 132.212C72.341 132.212 55.0732 114.944 55.0732 93.6429C55.0732 72.342 72.341 55.0742 93.6419 55.0742C114.943 55.0742 132.211 72.342 132.211 93.6429Z" stroke="#8F95AB" stroke-width="0.779167"/>
<path d="M170.985 93.9883C170.985 136.783 136.294 171.475 93.499 171.475C50.7045 171.475 16.0126 136.783 16.0126 93.9883C16.0126 51.1937 50.7045 16.5019 93.499 16.5019C136.294 16.5019 170.985 51.1937 170.985 93.9883Z" stroke="#8F95AB" stroke-width="0.779167"/>
<path d="M31.6376 30.2715C31.6376 22.3971 38.0211 16.0136 45.8956 16.0136H141.267C149.142 16.0136 155.525 22.3971 155.525 30.2715V156.81C155.525 164.684 149.142 171.068 141.267 171.068H45.8955C38.0211 171.068 31.6376 164.684 31.6376 156.81V30.2715Z" stroke="#8F95AB" stroke-width="0.779167"/>
<path d="M16.0126 45.8965C16.0126 38.0221 22.3961 31.6386 30.2706 31.6386H156.809C164.683 31.6386 171.067 38.0221 171.067 45.8965V141.268C171.067 149.143 164.683 155.526 156.809 155.526H30.2705C22.3961 155.526 16.0126 149.143 16.0126 141.268V45.8965Z" stroke="#8F95AB" stroke-width="0.779167"/>
<path d="M23.7636 38.084C23.7636 30.2096 30.1471 23.8261 38.0215 23.8261H148.976C156.851 23.8261 163.234 30.2096 163.234 38.084V149.039C163.234 156.913 156.851 163.297 148.977 163.297H38.0215C30.1471 163.297 23.7636 156.913 23.7636 149.039V38.084Z" stroke="#8F95AB" stroke-width="0.779167"/>
<rect x="0.389583" y="0.389583" width="186.221" height="186.709" stroke="#8F95AB" stroke-width="0.779167"/>
<circle cx="93.4997" cy="93.5006" r="70.125" fill="white" fill-opacity="0.15" stroke="#415268" stroke-width="15.5833"/>
<rect width="15.5833" height="62.3333" transform="matrix(-0.707107 -0.707107 -0.707107 0.707107 134.275 73.9795)" fill="#415268"/>
<rect width="15.5833" height="46.75" transform="matrix(0.707107 -0.707107 -0.707107 -0.707107 79.8057 128.448)" fill="#415268"/>
</svg>
