<svg width="52" height="52" viewBox="0 0 52 52" fill="none" xmlns="http://www.w3.org/2000/svg">
<path d="M31.1318 30.4541L38.1075 37.4239" stroke="#415268" stroke-width="2.13736"/>
<path d="M24.0059 18.1574L23.2499 17.4021L22.4939 18.1574L23.2499 18.9128L24.0059 18.1574ZM30.4835 24.6296L29.7275 25.3849L30.4835 26.1403L31.2395 25.3849L30.4835 24.6296ZM31.6707 23.4434L32.4266 24.1988L31.6707 23.4434ZM33.1826 23.4434L33.9386 22.6881L33.1826 23.4434ZM34.2615 24.5214L33.5055 25.2768L34.2615 24.5214ZM34.2615 26.0321L33.5055 25.2768L34.2615 26.0321ZM26.7054 33.5818L27.4614 34.3372L26.7054 33.5818ZM24.1146 30.9931L23.3586 30.2378L24.1146 30.9931ZM25.3017 29.8069L26.0577 30.5623L26.8137 29.8069L26.0577 29.0516L25.3017 29.8069ZM18.8241 23.3348L19.5801 22.5794L18.8241 21.8241L18.0681 22.5794L18.8241 23.3348ZM17.6372 24.5207L18.3932 25.276L17.6372 24.5207ZM16.1252 24.5207L15.3692 25.276L16.1252 24.5207ZM15.0463 23.4427L15.8023 22.6874L15.0463 23.4427ZM24.8704 13.627C24.0353 12.7926 22.6815 12.7926 21.8464 13.627L23.3584 15.1377L24.8704 13.627ZM25.9493 14.7049L24.8704 13.627L23.3584 15.1377L24.4373 16.2156L25.9493 14.7049ZM25.9493 17.7263C26.7843 16.892 26.7843 15.5393 25.9493 14.7049L24.4373 16.2156L24.4373 16.2156L25.9493 17.7263ZM24.7619 18.9128L25.9493 17.7263L24.4373 16.2156L23.2499 17.4021L24.7619 18.9128ZM23.2499 18.9128L29.7275 25.3849L31.2395 23.8742L24.7619 17.4021L23.2499 18.9128ZM30.9147 22.6881L29.7275 23.8742L31.2395 25.3849L32.4266 24.1988L30.9147 22.6881ZM33.9386 22.6881C33.1036 21.8537 31.7497 21.8537 30.9147 22.6881L32.4266 24.1988L32.4266 24.1988L33.9386 22.6881ZM35.0175 23.766L33.9386 22.6881L32.4266 24.1988L33.5055 25.2768L35.0175 23.766ZM35.0175 26.7875C35.8526 25.9531 35.8526 24.6004 35.0175 23.766L33.5055 25.2768L33.5055 25.2768L35.0175 26.7875ZM27.4614 34.3372L35.0175 26.7875L33.5055 25.2768L25.9495 32.8265L27.4614 34.3372ZM24.4375 34.3372C25.2725 35.1715 26.6264 35.1715 27.4614 34.3372L25.9495 32.8265L24.4375 34.3372ZM23.3586 33.2592L24.4375 34.3372L25.9495 32.8265L24.8706 31.7485L23.3586 33.2592ZM23.3586 30.2378C22.5235 31.0721 22.5235 32.4248 23.3586 33.2592L24.8706 31.7485L24.8706 31.7485L23.3586 30.2378ZM24.5458 29.0516L23.3586 30.2378L24.8706 31.7485L26.0577 30.5623L24.5458 29.0516ZM26.0577 29.0516L19.5801 22.5794L18.0681 24.0901L24.5458 30.5623L26.0577 29.0516ZM18.3932 25.276L19.5801 24.0901L18.0681 22.5794L16.8812 23.7653L18.3932 25.276ZM15.3692 25.276C16.2043 26.1104 17.5582 26.1104 18.3932 25.276L16.8812 23.7653L15.3692 25.276ZM14.2903 24.1981L15.3692 25.276L16.8812 23.7653L15.8023 22.6874L14.2903 24.1981ZM14.2903 21.1766C13.4553 22.011 13.4553 23.3637 14.2903 24.1981L15.8023 22.6874L15.8023 22.6874L14.2903 21.1766ZM21.8464 13.627L14.2903 21.1766L15.8023 22.6874L23.3584 15.1377L21.8464 13.627Z" fill="#415268"/>
</svg>
