<svg width="52" height="52" viewBox="0 0 52 52" fill="none" xmlns="http://www.w3.org/2000/svg">
<rect x="16.307" y="19.7982" width="19.2363" height="10.6868" rx="1.06868" stroke="#415268" stroke-width="2.13736"/>
<line x1="30.1999" y1="34.7589" x2="30.2156" y2="15.5226" stroke="#415268" stroke-width="2.13736"/>
<mask id="path-4-inside-1" fill="white">
<path fill-rule="evenodd" clip-rule="evenodd" d="M32.337 12.905C32.1643 12.87 31.9856 12.8516 31.8026 12.8516C31.201 12.8516 30.6459 13.0504 30.1994 13.3859C29.7529 13.0505 29.1979 12.8519 28.5965 12.8519C28.4135 12.8519 28.2348 12.8703 28.0622 12.9053V15.5225C28.0627 15.2279 28.3017 14.9892 28.5965 14.9892C28.8915 14.9892 29.1307 15.2283 29.1308 15.5233H31.2683C31.2683 15.2282 31.5075 14.9889 31.8026 14.9889C32.0977 14.9889 32.3369 15.2282 32.3369 15.5233H32.337V12.905ZM25.9248 15.5233H25.9249V15.5424C25.9248 15.5361 25.9248 15.5298 25.9248 15.5236C25.9248 15.5235 25.9248 15.5234 25.9248 15.5233Z"/>
</mask>
<path d="M32.337 12.905H33.4056V12.0315L32.5496 11.8577L32.337 12.905ZM30.1994 13.3859L29.5576 14.2404L30.1995 14.7225L30.8413 14.2403L30.1994 13.3859ZM28.0622 12.9053L27.8496 11.858L26.9935 12.0318V12.9053H28.0622ZM28.0622 15.5225H26.9935L29.1308 15.5245L28.0622 15.5225ZM29.1308 15.5233L28.0622 15.5238L28.0627 16.5919H29.1308V15.5233ZM31.2683 15.5233V16.5919H32.3369V15.5233H31.2683ZM32.3369 15.5233H31.2683V16.5919H32.3369V15.5233ZM32.337 15.5233V16.5919H33.4056V15.5233H32.337ZM25.9248 15.5233V14.4547H24.8561V15.5233H25.9248ZM25.9249 15.5233H26.9936V14.4547H25.9249V15.5233ZM25.9249 15.5424L24.8562 15.5497L26.9936 15.5424H25.9249ZM31.8026 13.9202C31.9138 13.9202 32.0213 13.9314 32.1244 13.9523L32.5496 11.8577C32.3073 11.8085 32.0574 11.7829 31.8026 11.7829V13.9202ZM30.8413 14.2403C31.1091 14.0391 31.4404 13.9202 31.8026 13.9202V11.7829C30.9616 11.7829 30.1827 12.0617 29.5574 12.5315L30.8413 14.2403ZM28.5965 13.9205C28.9586 13.9205 29.2898 14.0393 29.5576 14.2404L30.8411 12.5313C30.2159 12.0618 29.4372 11.7832 28.5965 11.7832V13.9205ZM28.2748 13.9526C28.3778 13.9317 28.4853 13.9205 28.5965 13.9205V11.7832C28.3417 11.7832 28.0918 11.8088 27.8496 11.858L28.2748 13.9526ZM29.1308 15.5225V12.9053H26.9935V15.5225H29.1308ZM29.1308 15.5245C29.1303 15.8192 28.8913 16.0579 28.5965 16.0579V13.9205C27.7122 13.9205 26.9951 14.6366 26.9935 15.5205L29.1308 15.5245ZM28.5965 16.0579C28.3015 16.0579 28.0623 15.8188 28.0622 15.5238L30.1995 15.5227C30.1991 14.6378 29.4815 13.9205 28.5965 13.9205V16.0579ZM31.2683 14.4546H29.1308V16.5919H31.2683V14.4546ZM32.3369 15.5233C32.3369 15.8184 32.0977 16.0576 31.8026 16.0576V13.9202C30.9173 13.9202 30.1996 14.6379 30.1996 15.5233H32.3369ZM31.8026 16.0576C31.5075 16.0576 31.2683 15.8184 31.2683 15.5233H33.4056C33.4056 14.6379 32.6879 13.9202 31.8026 13.9202V16.0576ZM32.337 14.4546H32.3369V16.5919H32.337V14.4546ZM31.2683 12.905V15.5233H33.4056V12.905H31.2683ZM25.9248 16.592H25.9249V14.4547H25.9248V16.592ZM24.8562 15.5233V15.5424H26.9936V15.5233H24.8562ZM26.9935 15.535C26.9935 15.5312 26.9935 15.5274 26.9935 15.5236H24.8561C24.8561 15.5323 24.8562 15.541 24.8562 15.5497L26.9935 15.535ZM26.9935 15.5236V15.5233H24.8561V15.5236H26.9935Z" fill="#415268" mask="url(#path-4-inside-1)"/>
<mask id="path-6-inside-2" fill="white">
<path fill-rule="evenodd" clip-rule="evenodd" d="M32.337 37.3772C32.1643 37.4123 31.9856 37.4307 31.8026 37.4307C31.201 37.4307 30.6459 37.2318 30.1993 36.8963C29.7528 37.2316 29.1979 37.4303 28.5965 37.4303C28.4135 37.4303 28.2348 37.4119 28.0622 37.3769V34.7596C28.0627 35.0543 28.3017 35.2929 28.5965 35.2929C28.8914 35.2929 29.1306 35.054 29.1308 34.7591H31.2683C31.2683 35.0542 31.5075 35.2933 31.8026 35.2933C32.0976 35.2933 32.3368 35.0542 32.3369 34.7591H32.337V37.3772ZM25.9248 34.759H25.9249V34.7398C25.9248 34.746 25.9248 34.7523 25.9248 34.7586C25.9248 34.7587 25.9248 34.7589 25.9248 34.759Z"/>
</mask>
<path d="M32.337 37.3772H33.4056V38.2508L32.5496 38.4245L32.337 37.3772ZM30.1993 36.8963L29.5576 36.0418L30.1995 35.5597L30.8412 36.0419L30.1993 36.8963ZM28.0622 37.3769L27.8496 38.4242L26.9935 38.2504V37.3769H28.0622ZM28.0622 34.7596H26.9935L29.1308 34.7576L28.0622 34.7596ZM29.1308 34.7591L28.0622 34.7581L28.0632 33.6904H29.1308V34.7591ZM31.2683 34.7591V33.6904H32.3366L32.3369 34.7588L31.2683 34.7591ZM32.3369 34.7591L31.2683 34.7588L31.2686 33.6904H32.3369V34.7591ZM32.337 34.7591V33.6904H33.4056V34.7591H32.337ZM25.9248 34.759V35.8277H24.8561V34.759H25.9248ZM25.9249 34.759H26.9936V35.8277H25.9249V34.759ZM25.9249 34.7398L24.8562 34.7324L26.9936 34.7398H25.9249ZM31.8026 36.362C31.9138 36.362 32.0213 36.3508 32.1244 36.3299L32.5496 38.4245C32.3073 38.4737 32.0574 38.4993 31.8026 38.4993V36.362ZM30.8412 36.0419C31.1091 36.2432 31.4404 36.362 31.8026 36.362V38.4993C30.9616 38.4993 30.1827 38.2205 29.5574 37.7507L30.8412 36.0419ZM28.5965 36.3616C28.9586 36.3616 29.2898 36.2429 29.5576 36.0418L30.841 37.7509C30.2159 38.2204 29.4372 38.499 28.5965 38.499V36.3616ZM28.2748 36.3295C28.3778 36.3505 28.4853 36.3616 28.5965 36.3616V38.499C28.3417 38.499 28.0918 38.4733 27.8496 38.4242L28.2748 36.3295ZM29.1308 34.7596V37.3769H26.9935V34.7596H29.1308ZM29.1308 34.7576C29.1303 34.4629 28.8913 34.2243 28.5965 34.2243V36.3616C27.7122 36.3616 26.9951 35.6456 26.9935 34.7616L29.1308 34.7576ZM28.5965 34.2243C28.3016 34.2243 28.0625 34.4632 28.0622 34.7581L30.1995 34.7602C30.1987 35.6448 29.4813 36.3616 28.5965 36.3616V34.2243ZM31.2683 35.8278H29.1308V33.6904H31.2683V35.8278ZM32.3369 34.7588C32.3368 34.4638 32.0977 34.2246 31.8026 34.2246V36.362C30.9174 36.362 30.1998 35.6445 30.1996 34.7594L32.3369 34.7588ZM31.8026 34.2246C31.5075 34.2246 31.2683 34.4638 31.2683 34.7588L33.4056 34.7594C33.4054 35.6445 32.6878 36.362 31.8026 36.362V34.2246ZM32.337 35.8278H32.3369V33.6904H32.337V35.8278ZM31.2683 37.3772V34.7591H33.4056V37.3772H31.2683ZM25.9248 33.6904H25.9249V35.8277H25.9248V33.6904ZM24.8562 34.759V34.7398H26.9936V34.759H24.8562ZM26.9935 34.7471C26.9935 34.751 26.9935 34.7548 26.9935 34.7586H24.8561C24.8561 34.7499 24.8562 34.7411 24.8562 34.7324L26.9935 34.7471ZM26.9935 34.7586V34.759H24.8561V34.7586H26.9935Z" fill="#415268" mask="url(#path-6-inside-2)"/>
</svg>
