<svg width="52" height="52" viewBox="0 0 52 52" fill="none" xmlns="http://www.w3.org/2000/svg">
<mask id="path-2-inside-1" fill="white">
<path fill-rule="evenodd" clip-rule="evenodd" d="M32.7955 19.2946C33.2561 19.2946 33.6882 19.174 34.0613 18.9631C34.9064 19.9965 35.5606 21.1887 35.9708 22.4874C35.0099 22.8496 34.3273 23.7689 34.3273 24.8459C34.3273 26.0544 35.1868 27.0644 36.3345 27.3114C36.0674 29.0308 35.3856 30.6152 34.3933 31.9616C33.9559 31.6142 33.4002 31.4064 32.7955 31.4064C31.3855 31.4064 30.2425 32.5361 30.2425 33.9297C30.2425 34.3878 30.366 34.8175 30.5819 35.1878C29.1026 35.9389 27.4253 36.3629 25.6477 36.3629C23.8698 36.3629 22.1921 35.9388 20.7125 35.1873C20.9283 34.8171 21.0517 34.3876 21.0517 33.9297C21.0517 32.5361 19.9087 31.4064 18.4987 31.4064C17.8943 31.4064 17.339 31.614 16.9017 31.9609C15.9096 30.6146 15.228 29.0304 14.9609 27.3111C16.1081 27.0636 16.9669 26.0539 16.9669 24.8459C16.9669 23.7694 16.2848 22.8503 15.3245 22.4879C15.7347 21.1892 16.3887 19.997 17.2337 18.9636C17.6066 19.1742 18.0385 19.2946 18.4987 19.2946C19.9087 19.2946 21.0517 18.1649 21.0517 16.7713C21.0517 16.5206 21.0147 16.2785 20.9458 16.0499C22.3675 15.3703 23.9626 14.9893 25.6477 14.9893C27.3324 14.9893 28.9271 15.3701 30.3485 16.0493C30.2795 16.2781 30.2425 16.5204 30.2425 16.7713C30.2425 18.1649 31.3855 19.2946 32.7955 19.2946ZM25.6477 27.8132C26.8281 27.8132 27.7851 26.8563 27.7851 25.6758C27.7851 24.4954 26.8281 23.5385 25.6477 23.5385C24.4673 23.5385 23.5103 24.4954 23.5103 25.6758C23.5103 26.8563 24.4673 27.8132 25.6477 27.8132Z"/>
</mask>
<path d="M34.0613 18.9631L35.7159 17.61L34.5763 16.2165L33.0093 17.1025L34.0613 18.9631ZM35.9708 22.4874L36.7246 24.4874L38.6186 23.7736L38.0089 21.8436L35.9708 22.4874ZM36.3345 27.3114L38.4465 27.6396L38.7562 25.6463L36.7842 25.2219L36.3345 27.3114ZM34.3933 31.9616L33.0641 33.6354L34.7993 35.0134L36.1139 33.2297L34.3933 31.9616ZM30.5819 35.1878L31.5496 37.0935L33.5693 36.068L32.4284 34.1112L30.5819 35.1878ZM20.7125 35.1873L18.8659 34.1111L17.7257 36.0675L19.7446 37.0929L20.7125 35.1873ZM16.9017 31.9609L15.181 33.2289L16.495 35.0121L18.2302 33.6353L16.9017 31.9609ZM14.9609 27.3111L14.5102 25.2219L12.5394 25.6471L12.8489 27.6392L14.9609 27.3111ZM15.3245 22.4879L13.2864 21.8442L12.6772 23.7731L14.5697 24.4875L15.3245 22.4879ZM17.2337 18.9636L18.285 17.1026L16.7182 16.2176L15.5791 17.6106L17.2337 18.9636ZM20.9458 16.0499L20.024 14.1215L18.3706 14.9119L18.8994 16.6666L20.9458 16.0499ZM30.3485 16.0493L32.3948 16.6665L32.9242 14.9113L31.2701 14.1209L30.3485 16.0493ZM33.0093 17.1025C32.9496 17.1363 32.8789 17.1572 32.7955 17.1572V21.432C33.6333 21.432 34.4268 21.2118 35.1133 20.8236L33.0093 17.1025ZM38.0089 21.8436C37.5152 20.2804 36.7287 18.8485 35.7159 17.61L32.4068 20.3161C33.0842 21.1444 33.6061 22.097 33.9327 23.1312L38.0089 21.8436ZM36.4646 24.8459C36.4646 24.6998 36.5569 24.5506 36.7246 24.4874L35.217 20.4874C33.4629 21.1485 32.1899 22.8381 32.1899 24.8459H36.4646ZM36.7842 25.2219C36.5839 25.1788 36.4646 25.0097 36.4646 24.8459H32.1899C32.1899 27.099 33.7896 28.95 35.8848 29.4009L36.7842 25.2219ZM36.1139 33.2297C37.3042 31.6146 38.1249 29.7096 38.4465 27.6396L34.2225 26.9833C34.0098 28.352 33.4671 29.6157 32.6727 30.6936L36.1139 33.2297ZM32.7955 33.5438C32.9027 33.5438 32.9929 33.5789 33.0641 33.6354L35.7225 30.2878C34.9189 29.6496 33.8978 29.269 32.7955 29.269V33.5438ZM32.3798 33.9297C32.3798 33.7401 32.5423 33.5438 32.7955 33.5438V29.269C30.2287 29.269 28.1051 31.3322 28.1051 33.9297H32.3798ZM32.4284 34.1112C32.3973 34.0579 32.3798 33.9984 32.3798 33.9297H28.1051C28.1051 34.7773 28.3347 35.577 28.7355 36.2644L32.4284 34.1112ZM25.6477 38.5002C27.7685 38.5002 29.7767 37.9938 31.5496 37.0935L29.6143 33.282C28.4286 33.8841 27.0821 34.2255 25.6477 34.2255V38.5002ZM19.7446 37.0929C21.5179 37.9936 23.5265 38.5002 25.6477 38.5002V34.2255C24.2131 34.2255 22.8663 33.8839 21.6804 33.2816L19.7446 37.0929ZM18.9143 33.9297C18.9143 33.9983 18.8969 34.0578 18.8659 34.1111L22.5592 36.2634C22.9596 35.5763 23.1891 34.7769 23.1891 33.9297H18.9143ZM18.4987 33.5438C18.7519 33.5438 18.9143 33.7401 18.9143 33.9297H23.1891C23.1891 31.3322 21.0655 29.269 18.4987 29.269V33.5438ZM18.2302 33.6353C18.3014 33.5788 18.3915 33.5438 18.4987 33.5438V29.269C17.3971 29.269 16.3766 29.6492 15.5732 30.2866L18.2302 33.6353ZM12.8489 27.6392C13.1704 29.7091 13.991 31.6139 15.181 33.2289L18.6224 30.693C17.8282 29.6153 17.2856 28.3517 17.073 26.9831L12.8489 27.6392ZM14.8296 24.8459C14.8296 25.0097 14.7103 25.1787 14.5102 25.2219L15.4117 29.4004C17.5058 28.9486 19.1043 27.0981 19.1043 24.8459H14.8296ZM14.5697 24.4875C14.7373 24.5508 14.8296 24.6999 14.8296 24.8459H19.1043C19.1043 22.8389 17.8324 21.1499 16.0793 20.4882L14.5697 24.4875ZM15.5791 17.6106C14.5664 18.8491 13.7801 20.281 13.2864 21.8442L17.3627 23.1315C17.6893 22.0974 18.2111 21.1449 18.8884 20.3166L15.5791 17.6106ZM18.4987 17.1572C18.4154 17.1572 18.3446 17.1363 18.285 17.1026L16.1825 20.8246C16.8686 21.2121 17.6615 21.432 18.4987 21.432V17.1572ZM18.9143 16.7713C18.9143 16.9609 18.7519 17.1572 18.4987 17.1572V21.432C21.0655 21.432 23.1891 19.3688 23.1891 16.7713H18.9143ZM18.8994 16.6666C18.9087 16.6975 18.9143 16.7319 18.9143 16.7713H23.1891C23.1891 16.3093 23.1207 15.8595 22.9923 15.4332L18.8994 16.6666ZM25.6477 12.8519C23.6375 12.8519 21.728 13.307 20.024 14.1215L21.8676 17.9782C23.0071 17.4336 24.2877 17.1266 25.6477 17.1266V12.8519ZM31.2701 14.1209C29.5665 13.3067 27.6575 12.8519 25.6477 12.8519V17.1266C27.0074 17.1266 28.2877 17.4334 29.4269 17.9778L31.2701 14.1209ZM32.3798 16.7713C32.3798 16.7319 32.3855 16.6974 32.3948 16.6665L28.3022 15.4322C28.1735 15.8587 28.1051 16.3089 28.1051 16.7713H32.3798ZM32.7955 17.1572C32.5423 17.1572 32.3798 16.9609 32.3798 16.7713H28.1051C28.1051 19.3688 30.2287 21.432 32.7955 21.432V17.1572ZM25.6477 25.6758V29.9505C28.0086 29.9505 29.9224 28.0367 29.9224 25.6758H25.6477ZM25.6477 25.6758H29.9224C29.9224 23.315 28.0086 21.4011 25.6477 21.4011V25.6758ZM25.6477 25.6758V21.4011C23.2868 21.4011 21.373 23.315 21.373 25.6758H25.6477ZM25.6477 25.6758H21.373C21.373 28.0367 23.2868 29.9505 25.6477 29.9505V25.6758Z" fill="#415268" mask="url(#path-2-inside-1)"/>
</svg>
