<svg width="52" height="52" viewBox="0 0 52 52" fill="none" xmlns="http://www.w3.org/2000/svg">
<path fill-rule="evenodd" clip-rule="evenodd" d="M29.7447 17.1004C29.3273 17.5177 28.6507 17.5177 28.2333 17.1004C27.816 16.683 27.816 16.0064 28.2333 15.589C28.6507 15.1717 29.3273 15.1717 29.7447 15.589C30.162 16.0064 30.162 16.683 29.7447 17.1004ZM27.6063 19.2382C28.7981 19.8077 30.2688 19.5989 31.256 18.6117C32.5081 17.3597 32.5081 15.3297 31.256 14.0777C30.004 12.8257 27.974 12.8257 26.722 14.0777C25.735 15.0647 25.5261 16.535 26.0951 17.7267L20.9094 22.9124C19.8004 22.5539 18.5346 22.8151 17.6539 23.6959C16.4018 24.9479 16.4018 26.9779 17.6539 28.2299C18.7411 29.3171 20.4149 29.4603 21.6566 28.6593L26.095 33.0977C25.5254 34.2895 25.7342 35.7604 26.7214 36.7476C27.9735 37.9996 30.0034 37.9996 31.2555 36.7476C32.5075 35.4955 32.5075 33.4656 31.2555 32.2135C30.2685 31.2266 28.7982 31.0176 27.6066 31.5866L22.9714 26.9515C23.2628 26.0499 23.1447 25.0449 22.6173 24.2272L27.6063 19.2382ZM20.6766 26.7186C20.2592 27.1359 19.5826 27.1359 19.1652 26.7186C18.7479 26.3012 18.7479 25.6246 19.1652 25.2072C19.5826 24.7899 20.2592 24.7899 20.6766 25.2072C21.0939 25.6246 21.0939 26.3012 20.6766 26.7186ZM29.7441 35.2362C30.1615 34.8189 30.1615 34.1422 29.7441 33.7249C29.3268 33.3075 28.6501 33.3075 28.2328 33.7249C27.8154 34.1422 27.8154 34.8189 28.2328 35.2362C28.6501 35.6536 29.3268 35.6536 29.7441 35.2362Z" fill="#415268"/>
</svg>
