<svg width="53" height="52" viewBox="0 0 53 52" fill="none" xmlns="http://www.w3.org/2000/svg">
<mask id="path-2-inside-1" fill="white">
<path fill-rule="evenodd" clip-rule="evenodd" d="M26.5006 25.6758L26.5006 31.0192H24.3633L24.3633 25.6758L26.5006 25.6758Z"/>
</mask>
<path fill-rule="evenodd" clip-rule="evenodd" d="M26.5006 25.6758L26.5006 31.0192H24.3633L24.3633 25.6758L26.5006 25.6758Z" fill="#5A5A5A"/>
<path d="M26.5006 31.0192L26.5006 33.1566H28.638V31.0192H26.5006ZM26.5006 25.6758L28.638 25.6758V23.5384H26.5006V25.6758ZM24.3633 31.0192H22.2259L22.2259 33.1566H24.3633L24.3633 31.0192ZM24.3633 25.6758L24.3633 23.5384L22.2259 23.5384L22.2259 25.6758L24.3633 25.6758ZM28.638 31.0192L28.638 25.6758L24.3633 25.6758L24.3633 31.0192H28.638ZM24.3633 33.1566H26.5006L26.5006 28.8818H24.3633L24.3633 33.1566ZM22.2259 25.6758L22.2259 31.0192H26.5006L26.5006 25.6758L22.2259 25.6758ZM26.5006 23.5384H24.3633L24.3633 27.8131H26.5006V23.5384Z" fill="#415268" mask="url(#path-2-inside-1)"/>
<rect x="17.9505" y="16.0579" width="14.9615" height="19.2363" rx="1.06868" stroke="#415268" stroke-width="2.13736"/>
<path d="M22.6545 25.1414L25.431 20.3324L28.2075 25.1414H22.6545Z" fill="#415268" stroke="#415268" stroke-width="1.06868"/>
</svg>
