<svg width="53" height="52" viewBox="0 0 53 52" fill="none" xmlns="http://www.w3.org/2000/svg">
<mask id="path-2-inside-1" fill="white">
<path fill-rule="evenodd" clip-rule="evenodd" d="M15.8131 17.1396C14.6327 17.1396 13.6758 18.0966 13.6758 19.277V21.4144H13.6758V33.1707C13.6758 33.7609 14.1543 34.2394 14.7445 34.2394H38.2555C38.8457 34.2394 39.3242 33.7609 39.3242 33.1707V21.059C39.3242 20.4687 38.8457 19.9903 38.2555 19.9903H25.4319L23.2939 17.1396H15.8131Z"/>
</mask>
<path d="M13.6758 21.4144H11.5384V23.5517H13.6758V21.4144ZM13.6758 21.4144H15.8132V19.277H13.6758V21.4144ZM25.4319 19.9903L23.722 21.2727L24.3632 22.1276H25.4319V19.9903ZM23.2939 17.1396L25.0038 15.8572L24.3626 15.0023H23.2939V17.1396ZM15.8131 19.277V19.277V15.0023C13.4523 15.0023 11.5384 16.9161 11.5384 19.277H15.8131ZM15.8131 21.4144V19.277H11.5384V21.4144H15.8131ZM13.6758 19.277H13.6758V23.5517H13.6758V19.277ZM15.8132 33.1707V21.4144H11.5385V33.1707H15.8132ZM14.7445 32.102C15.3347 32.102 15.8132 32.5805 15.8132 33.1707H11.5385C11.5385 34.9413 12.9739 36.3767 14.7445 36.3767V32.102ZM38.2555 32.102H14.7445V36.3767H38.2555V32.102ZM37.1868 33.1707C37.1868 32.5805 37.6653 32.102 38.2555 32.102V36.3767C40.0261 36.3767 41.4615 34.9413 41.4615 33.1707H37.1868ZM37.1868 21.059V33.1707H41.4615V21.059H37.1868ZM38.2555 22.1276C37.6653 22.1276 37.1868 21.6492 37.1868 21.059H41.4615C41.4615 19.2883 40.0261 17.8529 38.2555 17.8529V22.1276ZM25.4319 22.1276H38.2555V17.8529H25.4319V22.1276ZM21.584 18.4221L23.722 21.2727L27.1418 18.7079L25.0038 15.8572L21.584 18.4221ZM15.8131 19.277H23.2939V15.0023H15.8131V19.277Z" fill="#415268" mask="url(#path-2-inside-1)"/>
<line x1="32.9118" y1="31.0332" x2="32.9118" y2="27.8272" stroke="#415268" stroke-width="2.13736"/>
<path d="M31.0611 27.8265L32.9121 24.6204L34.7631 27.8265H31.0611Z" fill="#415268" stroke="#415268" stroke-width="1.06868"/>
</svg>
