<svg width="48" height="48" viewBox="0 0 48 48" fill="none" xmlns="http://www.w3.org/2000/svg">
<path fill-rule="evenodd" clip-rule="evenodd" d="M24.0859 32.0684C28.5042 32.0684 32.0859 28.4866 32.0859 24.0684H34.0859C34.0859 29.5912 29.6088 34.0684 24.0859 34.0684C22.7987 34.0684 21.5683 33.8251 20.4381 33.3822L22.021 31.7993C22.6797 31.9748 23.3719 32.0684 24.0859 32.0684ZM14.0859 24.0684H16.0859C16.0859 19.6501 19.6677 16.0684 24.0859 16.0684C24.7717 16.0684 25.4374 16.1546 26.0726 16.317L27.6626 14.727C26.552 14.3015 25.3462 14.0684 24.0859 14.0684C18.5631 14.0684 14.0859 18.5455 14.0859 24.0684Z" fill="#415268"/>
<path d="M15.0859 28.0684L12.4879 23.5684L17.684 23.5684L15.0859 28.0684Z" fill="#415268"/>
<path d="M33.0859 20.0684L35.684 24.5684H30.4879L33.0859 20.0684Z" fill="#415268"/>
</svg>
