<svg width="48" height="48" viewBox="0 0 48 48" fill="none" xmlns="http://www.w3.org/2000/svg">
<line x1="20" y1="30" x2="20" y2="36" stroke="#415268" stroke-width="2"/>
<circle cx="20" cy="28" r="2" stroke="#415268" stroke-width="2"/>
<circle cx="20" cy="15" r="2" stroke="#415268" stroke-width="2"/>
<line x1="20" y1="16" x2="20" y2="27" stroke="#415268" stroke-width="2"/>
<circle cx="28" cy="19" r="2" stroke="#415268" stroke-width="2"/>
<path fill-rule="evenodd" clip-rule="evenodd" d="M28.6303 18C28.6307 18 28.6311 18 28.6315 17.9999C29.6297 17.9405 29.6298 17.941 29.6298 17.9415L29.6299 17.9427L29.63 17.9453L29.6304 17.9519L29.6312 17.9705C29.6316 17.9789 29.632 17.9887 29.6324 18H28.6303ZM26.5397 21C26.4526 21.0789 26.3589 21.1533 26.2579 21.2225C25.7912 21.5422 25.1021 21.797 24.0592 21.797C22.5453 21.797 21.4122 22.4015 20.6237 23.3259C19.9561 24.1086 19.5689 25.0787 19.3405 26H21.4195C21.5967 25.4597 21.8355 24.987 22.1453 24.6238C22.5625 24.1348 23.144 23.797 24.0592 23.797C25.4453 23.797 26.5422 23.4521 27.3883 22.8724C28.155 22.3471 28.6595 21.6676 28.9891 21H26.5397ZM19.0001 29H21.0001C20.9999 29.0514 21 29.1017 21.0003 29.151C21.0024 29.4809 21.0159 29.7547 21.0287 29.9437C21.0351 30.0381 21.0413 30.111 21.0457 30.1587L21.0481 30.1843L21.0507 30.2108L21.0519 30.2217L21.052 30.2227C21.052 30.2225 21.0519 30.2222 20.0583 30.3352C19.0647 30.4482 19.0647 30.4478 19.0647 30.4475L19.0646 30.4466L19.0643 30.4443L19.0636 30.4377L19.0613 30.4163C19.0595 30.3986 19.057 30.3738 19.0541 30.3424C19.0483 30.2797 19.0408 30.1906 19.0333 30.0788C19.0182 29.8556 19.0027 29.5405 19.0003 29.1637C19 29.1104 18.9999 29.0559 19.0001 29Z" fill="#415268"/>
</svg>
