<svg width="48" height="48" viewBox="0 0 48 48" fill="none" xmlns="http://www.w3.org/2000/svg">
<mask id="path-2-inside-1" fill="white">
<path fill-rule="evenodd" clip-rule="evenodd" d="M16 18C14.8954 18 14 18.8954 14 20V27.8911C14 28.9956 14.8954 29.8911 16 29.8911H25.0513L26.1204 32.8311C26.7587 34.5865 29.2413 34.5865 29.8796 32.8311L30.9487 29.8911H32C33.1046 29.8911 34 28.9956 34 27.8911V20C34 18.8954 33.1046 18 32 18H16Z"/>
</mask>
<path d="M25.0513 29.8911L26.9309 29.2076L26.4521 27.8911H25.0513V29.8911ZM26.1204 32.8311L28 32.1476L28 32.1476L26.1204 32.8311ZM29.8796 32.8311L31.7592 33.5146L31.7592 33.5146L29.8796 32.8311ZM30.9487 29.8911V27.8911H29.5478L29.0691 29.2076L30.9487 29.8911ZM16 20V20V16C13.7909 16 12 17.7909 12 20H16ZM16 27.8911V20H12V27.8911H16ZM16 27.8911H16H12C12 30.1002 13.7909 31.8911 16 31.8911V27.8911ZM25.0513 27.8911H16V31.8911H25.0513V27.8911ZM28 32.1476L26.9309 29.2076L23.1717 30.5745L24.2408 33.5146L28 32.1476ZM28 32.1477C27.9957 32.1593 27.9925 32.1655 27.9914 32.1674C27.9903 32.1694 27.9906 32.1686 27.9926 32.1661C27.9946 32.1636 27.9974 32.1604 28.001 32.1572C28.0045 32.154 28.0079 32.1513 28.011 32.1493C28.0172 32.1452 28.0199 32.1448 28.0173 32.1455C28.0144 32.1464 28.0082 32.1476 28 32.1476C27.9917 32.1476 27.9856 32.1464 27.9826 32.1455C27.98 32.1448 27.9827 32.1452 27.9889 32.1493C27.992 32.1513 27.9955 32.154 27.999 32.1572C28.0026 32.1604 28.0054 32.1636 28.0074 32.1661C28.0094 32.1686 28.0096 32.1694 28.0086 32.1674C28.0075 32.1655 28.0042 32.1593 28 32.1476L24.2408 33.5146C25.5174 37.0253 30.4825 37.0253 31.7592 33.5146L28 32.1477ZM29.0691 29.2076L28 32.1477L31.7592 33.5146L32.8283 30.5745L29.0691 29.2076ZM32 27.8911H30.9487V31.8911H32V27.8911ZM32 27.8911V27.8911V31.8911C34.2091 31.8911 36 30.1002 36 27.8911H32ZM32 20V27.8911H36V20H32ZM32 20V20H36C36 17.7909 34.2091 16 32 16V20ZM16 20H32V16H16V20Z" fill="#415268" mask="url(#path-2-inside-1)"/>
</svg>
