<svg width="48" height="48" viewBox="0 0 48 48" fill="none" xmlns="http://www.w3.org/2000/svg">
<path d="M19 18H27V16H19V18Z" fill="#415268"/>
<path d="M27 22H19V20H27V22Z" fill="#415268"/>
<path d="M19 26H25V24H19V26Z" fill="#415268"/>
<path d="M29 29.5V32H27V29.5H25.4019L28 25L30.5981 29.5H29Z" fill="#415268"/>
<path fill-rule="evenodd" clip-rule="evenodd" d="M15 14C15 13.4477 15.4477 13 16 13H32C32.5523 13 33 13.4477 33 14V34C33 34.5523 32.5523 35 32 35H16C15.4477 35 15 34.5523 15 34V14ZM17 33V15H31V33H17Z" fill="#415268"/>
</svg>
