<svg width="48" height="48" viewBox="0 0 48 48" fill="none" xmlns="http://www.w3.org/2000/svg">
<mask id="path-2-inside-1" fill="white">
<path fill-rule="evenodd" clip-rule="evenodd" d="M14 16C12.8954 16 12 16.8954 12 18V19.6667V20V31.0001C12 31.5524 12.4477 32.0001 13 32.0001H35C35.5523 32.0001 36 31.5524 36 31.0001V19.6667C36 19.1145 35.5523 18.6667 35 18.6667H23.0001L21 16H14Z"/>
</mask>
<path d="M23.0001 18.6667L21.4001 19.8667L22.0001 20.6667H23.0001V18.6667ZM21 16L22.6 14.8L22 14H21V16ZM14 18V14C11.7909 14 10 15.7909 10 18H14ZM14 19.6667V18H10V19.6667H14ZM14 20V19.6667H10V20H14ZM14 31.0001V20H10V31.0001H14ZM13 30.0001C13.5523 30.0001 14 30.4478 14 31.0001H10C10 32.6569 11.3431 34.0001 13 34.0001V30.0001ZM35 30.0001H13V34.0001H35V30.0001ZM34 31.0001C34 30.4478 34.4477 30.0001 35 30.0001V34.0001C36.6569 34.0001 38 32.6569 38 31.0001H34ZM34 19.6667V31.0001H38V19.6667H34ZM35 20.6667C34.4477 20.6667 34 20.219 34 19.6667H38C38 18.0099 36.6569 16.6667 35 16.6667V20.6667ZM23.0001 20.6667H35V16.6667H23.0001V20.6667ZM19.4 17.2L21.4001 19.8667L24.6001 17.4667L22.6 14.8L19.4 17.2ZM14 18H21V14H14V18Z" fill="#415268" mask="url(#path-2-inside-1)"/>
<line x1="30" y1="29" x2="30" y2="26" stroke="#415268" stroke-width="2"/>
<path d="M28.2679 26L30 23L31.7321 26H28.2679Z" fill="#415268" stroke="#415268"/>
</svg>
