<svg width="48" height="48" viewBox="0 0 48 48" fill="none" xmlns="http://www.w3.org/2000/svg">
<mask id="path-2-inside-1" fill="white">
<path d="M14 16C12.8954 16 12 16.8954 12 18V31.0001C12 31.5524 12.4477 32.0001 13 32.0001H35C35.5523 32.0001 36 31.5524 36 31.0001V19.6667C36 19.1145 35.5523 18.6667 35 18.6667H23.0001L21 16H14Z"/>
</mask>
<path d="M14 16C12.8954 16 12 16.8954 12 18V31.0001C12 31.5524 12.4477 32.0001 13 32.0001H35C35.5523 32.0001 36 31.5524 36 31.0001V19.6667C36 19.1145 35.5523 18.6667 35 18.6667H23.0001L21 16H14Z" stroke="#415268" stroke-width="4" mask="url(#path-2-inside-1)"/>
</svg>
