<svg width="48" height="48" viewBox="0 0 48 48" fill="none" xmlns="http://www.w3.org/2000/svg">
<mask id="path-2-inside-1" fill="white">
<rect x="12" y="16" width="24" height="16" rx="1"/>
</mask>
<rect x="12" y="16" width="24" height="16" rx="1" stroke="#415268" stroke-width="4" mask="url(#path-2-inside-1)"/>
<rect x="15.5" y="20.5" width="1" height="1" stroke="#415268"/>
<rect x="19.5" y="20.5" width="1" height="1" stroke="#415268"/>
<rect x="23.5" y="20.5" width="1" height="1" stroke="#415268"/>
<rect x="27.5" y="20.5" width="1" height="1" stroke="#415268"/>
<rect x="31.5" y="20.5" width="1" height="1" stroke="#415268"/>
<rect x="15.5" y="23.5" width="1" height="1" stroke="#415268"/>
<rect x="19.5" y="23.5" width="1" height="1" stroke="#415268"/>
<rect x="23.5" y="23.5" width="1" height="1" stroke="#415268"/>
<rect x="27.5" y="23.5" width="1" height="1" stroke="#415268"/>
<rect x="31.5" y="23.5" width="1" height="1" stroke="#415268"/>
<rect x="15.5" y="26.5" width="1" height="1" stroke="#415268"/>
<rect x="19.5" y="26.5" width="1" height="1" stroke="#415268"/>
<rect x="23.5" y="26.5" width="1" height="1" stroke="#415268"/>
<rect x="27.5" y="26.5" width="1" height="1" stroke="#415268"/>
<rect x="31.5" y="26.5" width="1" height="1" stroke="#415268"/>
</svg>
