<svg width="128" height="129" viewBox="0 0 128 129" fill="none" xmlns="http://www.w3.org/2000/svg">
<line x1="42.6133" x2="42.6133" y2="128.334" stroke="#8F95AB" stroke-width="0.533333"/>
<line x1="85.4883" x2="85.4883" y2="128.334" stroke="#8F95AB" stroke-width="0.533333"/>
<path d="M64.1387 0L64.1387 128.334" stroke="#8F95AB" stroke-width="0.533333"/>
<line x1="-1.1626e-08" y1="84.956" x2="128" y2="84.956" stroke="#8F95AB" stroke-width="0.533333"/>
<line x1="-1.1626e-08" y1="42.8456" x2="128" y2="42.8456" stroke="#8F95AB" stroke-width="0.533333"/>
<line x1="-1.1626e-08" y1="63.9013" x2="128" y2="63.9013" stroke="#8F95AB" stroke-width="0.533333"/>
<path d="M0.427485 0.427493L127.659 127.614" stroke="#8F95AB" stroke-width="0.533333"/>
<path d="M0.501232 127.917L127.547 0.455272" stroke="#8F95AB" stroke-width="0.533333"/>
<path d="M74.3997 64.0007C74.3997 69.7444 69.7434 74.4007 63.9997 74.4007C58.2559 74.4007 53.5997 69.7444 53.5997 64.0007C53.5997 58.2569 58.2559 53.6007 63.9997 53.6007C69.7434 53.6007 74.3997 58.2569 74.3997 64.0007Z" stroke="#8F95AB" stroke-width="0.533333"/>
<path d="M90.4973 64.0973C90.4973 78.6776 78.6776 90.4973 64.0973 90.4973C49.517 90.4973 37.6973 78.6776 37.6973 64.0973C37.6973 49.517 49.517 37.6973 64.0973 37.6973C78.6776 37.6973 90.4973 49.517 90.4973 64.0973Z" stroke="#8F95AB" stroke-width="0.533333"/>
<path d="M117.039 64.3338C117.039 93.6263 93.2924 117.373 63.9998 117.373C34.7073 117.373 10.961 93.6263 10.961 64.3338C10.961 35.0413 34.7073 11.295 63.9998 11.295C93.2924 11.295 117.039 35.0413 117.039 64.3338Z" stroke="#8F95AB" stroke-width="0.533333"/>
<path d="M21.6553 20.7204C21.6553 15.3304 26.0248 10.961 31.4148 10.961H96.6959C102.086 10.961 106.455 15.3305 106.455 20.7204V107.335C106.455 112.725 102.086 117.094 96.6959 117.094H31.4148C26.0248 117.094 21.6553 112.725 21.6553 107.335V20.7204Z" stroke="#8F95AB" stroke-width="0.533333"/>
<path d="M10.961 31.4158C10.961 26.0258 15.3305 21.6563 20.7204 21.6563H107.335C112.725 21.6563 117.094 26.0258 117.094 31.4158V96.6969C117.094 102.087 112.725 106.456 107.335 106.456H20.7204C15.3304 106.456 10.961 102.087 10.961 96.6969V31.4158Z" stroke="#8F95AB" stroke-width="0.533333"/>
<path d="M16.2657 26.0681C16.2657 20.6781 20.6351 16.3087 26.0251 16.3087H101.973C107.363 16.3087 111.732 20.6781 111.732 26.0681V102.016C111.732 107.406 107.363 111.775 101.973 111.775H26.0251C20.6351 111.775 16.2657 107.406 16.2657 102.016V26.0681Z" stroke="#8F95AB" stroke-width="0.533333"/>
<rect x="0.266667" y="0.266667" width="127.467" height="127.801" stroke="#8F95AB" stroke-width="0.533333"/>
<circle cx="63.9993" cy="64.0003" r="48" fill="white" fill-opacity="0.15" stroke="#415268" stroke-width="10.6667"/>
<rect width="10.6667" height="42.6667" transform="matrix(-0.707107 -0.707107 -0.707107 0.707107 91.9102 50.6377)" fill="#415268"/>
<rect width="10.6667" height="32" transform="matrix(0.707107 -0.707107 -0.707107 -0.707107 54.626 87.9219)" fill="#415268"/>
</svg>
