<svg width="48" height="48" viewBox="0 0 48 48" fill="none" xmlns="http://www.w3.org/2000/svg">
<path d="M28.4727 28.458L35 34.9798" stroke="#415268" stroke-width="2"/>
<path d="M21.9066 13.4197L22.614 12.7129L21.9066 13.4197ZM20.4918 13.4197L21.1992 14.1265L20.4918 13.4197ZM22.9162 14.4284L22.2088 15.1352L22.9162 14.4284ZM21.8053 16.9519L21.0979 16.2451L20.3905 16.9519L21.0979 17.6588L21.8053 16.9519ZM27.8662 23.0077L27.1588 23.7146L27.8662 24.4214L28.5736 23.7146L27.8662 23.0077ZM28.9771 21.8978L28.2697 21.191L28.9771 21.8978ZM30.3919 21.8978L29.6845 22.6046L30.3919 21.8978ZM31.4015 22.9065L30.6941 23.6133L31.4015 22.9065ZM31.4015 24.3201L30.6941 23.6133L30.6941 23.6133L31.4015 24.3201ZM24.331 31.3846L25.0384 32.0914L25.0384 32.0914L24.331 31.3846ZM22.9162 31.3846L22.2088 32.0914L22.9162 31.3846ZM21.9066 30.3759L22.614 29.6691L21.9066 30.3759ZM23.0175 27.8524L23.7249 28.5592L24.4323 27.8524L23.7249 27.1456L23.0175 27.8524ZM16.9566 21.7966L17.664 21.0898L16.9566 20.383L16.2492 21.0898L16.9566 21.7966ZM14.4309 22.9065L15.1383 22.1997L14.4309 22.9065ZM13.4213 21.8978L12.7139 22.6046L13.4213 21.8978ZM13.4213 20.4842L12.7139 19.7774L13.4213 20.4842ZM22.614 12.7129C21.8327 11.9322 20.5658 11.9322 19.7844 12.7129L21.1992 14.1265L21.1992 14.1265L22.614 12.7129ZM23.6236 13.7216L22.614 12.7129L21.1992 14.1265L22.2088 15.1352L23.6236 13.7216ZM23.6236 16.5488C24.405 15.7681 24.405 14.5023 23.6236 13.7216L22.2088 15.1352L22.2088 15.1352L23.6236 16.5488ZM22.5127 17.6588L23.6236 16.5488L22.2088 15.1352L21.0979 16.2451L22.5127 17.6588ZM21.0979 17.6588L27.1588 23.7146L28.5736 22.3009L22.5127 16.2451L21.0979 17.6588ZM28.2697 21.191L27.1588 22.3009L28.5736 23.7146L29.6845 22.6046L28.2697 21.191ZM31.0993 21.191C30.3179 20.4103 29.0511 20.4103 28.2697 21.191L29.6845 22.6046L29.6845 22.6046L31.0993 21.191ZM32.1089 22.1997L31.0993 21.191L29.6845 22.6046L30.6941 23.6133L32.1089 22.1997ZM32.1089 25.027C32.8902 24.2462 32.8902 22.9804 32.1089 22.1997L30.6941 23.6133L30.6941 23.6133L32.1089 25.027ZM25.0384 32.0914L32.1089 25.027L30.6941 23.6133L23.6236 30.6778L25.0384 32.0914ZM22.2088 32.0914C22.9902 32.8722 24.257 32.8722 25.0384 32.0914L23.6236 30.6778L22.2088 32.0914ZM21.1992 31.0827L22.2088 32.0914L23.6236 30.6778L22.614 29.6691L21.1992 31.0827ZM21.1992 28.2555C20.4178 29.0362 20.4178 30.302 21.1992 31.0827L22.614 29.6691L21.1992 28.2555ZM22.3101 27.1456L21.1992 28.2555L22.614 29.6691L23.7249 28.5592L22.3101 27.1456ZM23.7249 27.1456L17.664 21.0898L16.2492 22.5034L22.3101 28.5592L23.7249 27.1456ZM16.5531 23.6133L17.664 22.5034L16.2492 21.0898L15.1383 22.1997L16.5531 23.6133ZM13.7235 23.6133C14.5049 24.394 15.7717 24.394 16.5531 23.6133L15.1383 22.1997L13.7235 23.6133ZM12.7139 22.6046L13.7235 23.6133L15.1383 22.1997L14.1288 21.191L12.7139 22.6046ZM12.7139 19.7774C11.9326 20.5581 11.9326 21.8239 12.7139 22.6046L14.1288 21.191L14.1288 21.191L12.7139 19.7774ZM19.7844 12.7129L12.7139 19.7774L14.1288 21.191L21.1992 14.1265L19.7844 12.7129Z" fill="#415268"/>
</svg>
