<svg width="48" height="48" viewBox="0 0 48 48" fill="none" xmlns="http://www.w3.org/2000/svg">
<rect x="15" y="18.5" width="18" height="10" rx="1" stroke="#415268" stroke-width="2"/>
<line x1="28" y1="32.4992" x2="28.0147" y2="14.4992" stroke="#415268" stroke-width="2"/>
<mask id="path-4-inside-1" fill="white">
<path fill-rule="evenodd" clip-rule="evenodd" d="M26 12.05V14.5C26 14.2239 26.2239 14 26.5 14C26.7761 14 27 14.2239 27 14.5H29C29 14.2239 29.2239 14 29.5 14C29.7761 14 30 14.2239 30 14.5V12.05C29.8384 12.0172 29.6712 12 29.5 12C28.9372 12 28.4178 12.186 28 12.4998C27.5822 12.186 27.0628 12 26.5 12C26.3288 12 26.1616 12.0172 26 12.05Z"/>
</mask>
<path d="M26 12.05L25.8011 11.07L25 11.2326V12.05H26ZM27 14.5H26V15.5H27V14.5ZM29 14.5V15.5H30V14.5H29ZM30 12.05H31V11.2326L30.1989 11.07L30 12.05ZM28 12.4998L27.3994 13.2994L28 13.7505L28.6006 13.2994L28 12.4998ZM25 12.05V14.5H27V12.05H25ZM27 14.5C27 14.7761 26.7761 15 26.5 15V13C25.6716 13 25 13.6716 25 14.5H27ZM26.5 15C26.2239 15 26 14.7761 26 14.5H28C28 13.6716 27.3284 13 26.5 13V15ZM27 15.5H29V13.5H27V15.5ZM29.5 13C28.6716 13 28 13.6716 28 14.5H30C30 14.7761 29.7761 15 29.5 15V13ZM31 14.5C31 13.6716 30.3284 13 29.5 13V15C29.2239 15 29 14.7761 29 14.5H31ZM31 14.5V12.05H29V14.5H31ZM30.1989 11.07C29.9723 11.024 29.7384 11 29.5 11V13C29.604 13 29.7046 13.0104 29.8011 13.03L30.1989 11.07ZM29.5 11C28.7132 11 27.9845 11.2608 27.3994 11.7003L28.6006 13.2994C28.8512 13.1111 29.1612 13 29.5 13V11ZM28.6006 11.7003C28.0155 11.2608 27.2868 11 26.5 11V13C26.8388 13 27.1488 13.1111 27.3994 13.2994L28.6006 11.7003ZM26.5 11C26.2616 11 26.0277 11.024 25.8011 11.07L26.1989 13.03C26.2954 13.0104 26.396 13 26.5 13V11Z" fill="#415268" mask="url(#path-4-inside-1)"/>
<mask id="path-6-inside-2" fill="white">
<path fill-rule="evenodd" clip-rule="evenodd" d="M26 34.95V32.5C26 32.7761 26.2239 33 26.5 33C26.7761 33 27 32.7761 27 32.5H29C29 32.7761 29.2239 33 29.5 33C29.7761 33 30 32.7761 30 32.5V34.95C29.8384 34.9828 29.6712 35 29.5 35C28.9372 35 28.4178 34.814 28 34.5002C27.5822 34.814 27.0628 35 26.5 35C26.3288 35 26.1616 34.9828 26 34.95Z"/>
</mask>
<path d="M26 34.95L25.8011 35.93L25 35.7674V34.95H26ZM27 32.5H26V31.5H27V32.5ZM29 32.5V31.5H30V32.5H29ZM30 34.95H31V35.7674L30.1989 35.93L30 34.95ZM28 34.5002L27.3994 33.7006L28 33.2495L28.6006 33.7006L28 34.5002ZM25 34.95V32.5H27V34.95H25ZM27 32.5C27 32.2239 26.7761 32 26.5 32V34C25.6716 34 25 33.3284 25 32.5H27ZM26.5 32C26.2239 32 26 32.2239 26 32.5H28C28 33.3284 27.3284 34 26.5 34V32ZM27 31.5H29V33.5H27V31.5ZM29.5 34C28.6716 34 28 33.3284 28 32.5H30C30 32.2239 29.7761 32 29.5 32V34ZM31 32.5C31 33.3284 30.3284 34 29.5 34V32C29.2239 32 29 32.2239 29 32.5H31ZM31 32.5V34.95H29V32.5H31ZM30.1989 35.93C29.9723 35.976 29.7384 36 29.5 36V34C29.604 34 29.7046 33.9896 29.8011 33.97L30.1989 35.93ZM29.5 36C28.7132 36 27.9845 35.7392 27.3994 35.2997L28.6006 33.7006C28.8512 33.8889 29.1612 34 29.5 34V36ZM28.6006 35.2997C28.0155 35.7392 27.2868 36 26.5 36V34C26.8388 34 27.1488 33.8889 27.3994 33.7006L28.6006 35.2997ZM26.5 36C26.2616 36 26.0277 35.976 25.8011 35.93L26.1989 33.97C26.2954 33.9896 26.396 34 26.5 34V36Z" fill="#415268" mask="url(#path-6-inside-2)"/>
</svg>
