<svg width="48" height="48" viewBox="0 0 48 48" fill="none" xmlns="http://www.w3.org/2000/svg">
<mask id="path-2-inside-1" fill="white">
<path fill-rule="evenodd" clip-rule="evenodd" d="M30.6889 18.0285C31.1197 18.0285 31.524 17.9158 31.873 17.7186C32.6637 18.6855 33.2758 19.8011 33.6596 21.0163C32.7607 21.3553 32.1221 22.2155 32.1221 23.223C32.1221 24.3537 32.9262 25.2987 34 25.53C33.7501 27.1389 33.1122 28.6213 32.1838 29.8812C31.7745 29.5563 31.2547 29.3619 30.6889 29.3619C29.3695 29.3619 28.3 30.4191 28.3 31.7231C28.3 32.1517 28.4155 32.5537 28.6176 32.9002C27.2332 33.6032 25.6635 34 24 34C22.3365 34 20.7667 33.6032 19.3824 32.9001C19.5844 32.5536 19.6999 32.1517 19.6999 31.7231C19.6999 30.4191 18.6304 29.3619 17.311 29.3619C16.7453 29.3619 16.2254 29.5563 15.8162 29.8812C14.8878 28.6213 14.2499 27.1388 14 25.5299C15.0737 25.2986 15.8776 24.3536 15.8776 23.223C15.8776 22.2155 15.2392 21.3554 14.3403 21.0163C14.7242 19.8012 15.3363 18.6856 16.127 17.7186C16.476 17.9158 16.8802 18.0285 17.311 18.0285C18.6304 18.0285 19.6999 16.9714 19.6999 15.6674C19.6999 15.4328 19.6653 15.2061 19.6008 14.9922C20.931 14.3564 22.4234 14 24 14C25.5766 14 27.0689 14.3564 28.3991 14.9922C28.3346 15.2061 28.3 15.4328 28.3 15.6674C28.3 16.9714 29.3695 18.0285 30.6889 18.0285ZM24 26C25.1046 26 26 25.1046 26 24C26 22.8954 25.1046 22 24 22C22.8955 22 22 22.8954 22 24C22 25.1046 22.8955 26 24 26Z"/>
</mask>
<path d="M31.873 17.7186L33.4212 16.4525L32.3551 15.1488L30.889 15.9774L31.873 17.7186ZM33.6596 21.0163L34.3654 22.8876L36.1371 22.2195L35.5668 20.4139L33.6596 21.0163ZM34 25.53L35.9763 25.837L36.266 23.9722L34.4211 23.5749L34 25.53ZM32.1838 29.8812L30.9402 31.4476L32.5639 32.7367L33.7938 31.0677L32.1838 29.8812ZM28.6176 32.9002L29.5232 34.6834L31.4128 33.7238L30.3454 31.8929L28.6176 32.9002ZM19.3824 32.9001L17.6545 31.8929L16.5872 33.7237L18.4768 34.6834L19.3824 32.9001ZM15.8162 29.8812L14.2061 31.0677L15.436 32.7365L17.0597 31.4476L15.8162 29.8812ZM14 25.5299L13.5786 23.5748L11.7341 23.9724L12.0237 25.8369L14 25.5299ZM14.3403 21.0163L12.4332 20.414L11.863 22.2194L13.6344 22.8876L14.3403 21.0163ZM16.127 17.7186L17.111 15.9774L15.6448 15.1489L14.5788 16.4525L16.127 17.7186ZM19.6008 14.9922L18.7383 13.1877L17.191 13.9273L17.6859 15.5694L19.6008 14.9922ZM28.3991 14.9922L30.314 15.5694L30.809 13.9273L29.2615 13.1877L28.3991 14.9922ZM30.889 15.9774C30.8331 16.0089 30.7669 16.0285 30.6889 16.0285V20.0285C31.4726 20.0285 32.2148 19.8227 32.857 19.4597L30.889 15.9774ZM35.5668 20.4139C35.1047 18.9512 34.3689 17.6113 33.4212 16.4525L30.3247 18.9846C30.9585 19.7597 31.4469 20.651 31.7525 21.6187L35.5668 20.4139ZM34.1221 23.223C34.1221 23.0864 34.2085 22.9468 34.3654 22.8876L32.9539 19.1449C31.3129 19.7638 30.1221 21.3445 30.1221 23.223H34.1221ZM34.4211 23.5749C34.2338 23.5345 34.1221 23.3763 34.1221 23.223H30.1221C30.1221 25.331 31.6187 27.0629 33.5789 27.4852L34.4211 23.5749ZM33.7938 31.0677C34.9075 29.5565 35.6754 27.774 35.9763 25.837L32.0237 25.223C31.8248 26.5038 31.3169 27.6862 30.5737 28.6948L33.7938 31.0677ZM30.6889 31.3619C30.7892 31.3619 30.8736 31.3948 30.9402 31.4476L33.4273 28.3148C32.6754 27.7179 31.7201 27.3619 30.6889 27.3619V31.3619ZM30.3 31.7231C30.3 31.5456 30.452 31.3619 30.6889 31.3619V27.3619C28.2871 27.3619 26.3 29.2925 26.3 31.7231H30.3ZM30.3454 31.8929C30.3163 31.843 30.3 31.7873 30.3 31.7231H26.3C26.3 32.5161 26.5148 33.2644 26.8898 33.9075L30.3454 31.8929ZM24 36C25.9847 36 27.864 35.526 29.5232 34.6834L27.712 31.117C26.6024 31.6805 25.3423 32 24 32V36ZM18.4768 34.6834C20.1359 35.526 22.0153 36 24 36V32C22.6577 32 21.3976 31.6804 20.288 31.1169L18.4768 34.6834ZM17.6999 31.7231C17.6999 31.7873 17.6836 31.843 17.6545 31.8929L21.1102 33.9074C21.4851 33.2643 21.6999 32.5161 21.6999 31.7231H17.6999ZM17.311 31.3619C17.5479 31.3619 17.6999 31.5456 17.6999 31.7231H21.6999C21.6999 29.2925 19.7128 27.3619 17.311 27.3619V31.3619ZM17.0597 31.4476C17.1263 31.3948 17.2107 31.3619 17.311 31.3619V27.3619C16.2798 27.3619 15.3246 27.7179 14.5727 28.3147L17.0597 31.4476ZM12.0237 25.8369C12.3246 27.7739 13.0925 29.5564 14.2061 31.0677L17.4263 28.6947C16.683 27.6862 16.1752 26.5037 15.9763 25.223L12.0237 25.8369ZM13.8776 23.223C13.8776 23.3763 13.766 23.5345 13.5786 23.5748L14.4214 27.4851C16.3813 27.0627 17.8776 25.3309 17.8776 23.223H13.8776ZM13.6344 22.8876C13.7913 22.9468 13.8776 23.0864 13.8776 23.223H17.8776C17.8776 21.3447 16.687 19.764 15.0463 19.1451L13.6344 22.8876ZM14.5788 16.4525C13.6311 17.6114 12.8952 18.9512 12.4332 20.414L16.2475 21.6187C16.5531 20.6511 17.0414 19.7597 17.6752 18.9847L14.5788 16.4525ZM17.311 16.0285C17.233 16.0285 17.1668 16.0089 17.111 15.9774L15.143 19.4598C15.7852 19.8227 16.5274 20.0285 17.311 20.0285V16.0285ZM17.6999 15.6674C17.6999 15.8449 17.5479 16.0285 17.311 16.0285V20.0285C19.7128 20.0285 21.6999 18.098 21.6999 15.6674H17.6999ZM17.6859 15.5694C17.6946 15.5983 17.6999 15.6306 17.6999 15.6674H21.6999C21.6999 15.235 21.636 14.814 21.5157 14.415L17.6859 15.5694ZM24 12C22.1192 12 20.3326 12.4257 18.7383 13.1877L20.4633 16.7967C21.5294 16.2871 22.7276 16 24 16V12ZM29.2615 13.1877C27.6673 12.4257 25.8808 12 24 12V16C25.2724 16 26.4706 16.2871 27.5367 16.7966L29.2615 13.1877ZM30.3 15.6674C30.3 15.6305 30.3053 15.5983 30.314 15.5694L26.4842 14.4149C26.3639 14.8139 26.3 15.235 26.3 15.6674H30.3ZM30.6889 16.0285C30.452 16.0285 30.3 15.8449 30.3 15.6674H26.3C26.3 18.098 28.2871 20.0285 30.6889 20.0285V16.0285ZM24 24V28C26.2092 28 28 26.2091 28 24H24ZM24 24H28C28 21.7909 26.2092 20 24 20V24ZM24 24V20C21.7909 20 20 21.7909 20 24H24ZM24 24H20C20 26.2091 21.7909 28 24 28V24Z" fill="#415268" mask="url(#path-2-inside-1)"/>
</svg>
