<svg width="48" height="48" viewBox="0 0 48 48" fill="none" xmlns="http://www.w3.org/2000/svg">
<path fill-rule="evenodd" clip-rule="evenodd" d="M27.4345 15.9493C27.044 16.3398 26.4108 16.3398 26.0203 15.9493C25.6298 15.5588 25.6298 14.9256 26.0203 14.5351C26.4108 14.1446 27.044 14.1446 27.4345 14.5351C27.825 14.9256 27.825 15.5588 27.4345 15.9493ZM25.4339 17.9499C26.549 18.4826 27.9251 18.2872 28.8487 17.3635C30.0203 16.1919 30.0203 14.2924 28.8487 13.1209C27.6772 11.9493 25.7777 11.9493 24.6061 13.1209C23.6825 14.0445 23.487 15.4205 24.0197 16.5357L19.1675 21.3878C18.1296 21.0523 16.9451 21.2967 16.1209 22.1209C14.9493 23.2925 14.9493 25.192 16.1209 26.3636C17.1381 27.3808 18.7042 27.5148 19.866 26.7655L24.0197 30.9192C23.487 32.0343 23.6824 33.4104 24.6061 34.3341C25.7776 35.5056 27.6771 35.5056 28.8487 34.3341C30.0203 33.1625 30.0203 31.263 28.8487 30.0914C27.9251 29.1678 26.549 28.9723 25.4339 29.505L21.0966 25.1676C21.3693 24.324 21.2589 23.3835 20.7654 22.6183L25.4339 17.9499ZM18.9493 24.9493C18.5588 25.3399 17.9256 25.3399 17.5351 24.9493C17.1446 24.5588 17.1446 23.9257 17.5351 23.5351C17.9256 23.1446 18.5588 23.1446 18.9493 23.5351C19.3398 23.9257 19.3398 24.5588 18.9493 24.9493ZM27.4345 32.9198C27.825 32.5293 27.825 31.8962 27.4345 31.5056C27.044 31.1151 26.4108 31.1151 26.0203 31.5056C25.6298 31.8962 25.6298 32.5293 26.0203 32.9198C26.4108 33.3104 27.044 33.3104 27.4345 32.9198Z" fill="#415268"/>
</svg>
