<svg width="48" height="48" viewBox="0 0 48 48" fill="none" xmlns="http://www.w3.org/2000/svg">
<path fill-rule="evenodd" clip-rule="evenodd" d="M17.2002 26.0959L17.2002 15H19.4502L19.4502 25.9603C20.6874 26.2886 21.6616 27.2628 21.9898 28.5L32.9502 28.5V30.75L21.8542 30.75C21.3264 32.0686 20.0368 33 18.5297 33C16.5528 33 14.9502 31.3974 14.9502 29.4204C14.9502 27.9133 15.8816 26.6238 17.2002 26.0959ZM19.8593 29.4204C19.8593 30.1547 19.264 30.75 18.5297 30.75C17.7955 30.75 17.2002 30.1547 17.2002 29.4204C17.2002 28.6861 17.7955 28.0909 18.5297 28.0909C19.264 28.0909 19.8593 28.6861 19.8593 29.4204Z" fill="#415268"/>
</svg>
