<svg width="400" height="138" viewBox="0 0 400 138" fill="none" xmlns="http://www.w3.org/2000/svg">
<path d="M8.79884 1.16331L0.335834 24H2.92175L5.30617 17.5184H14.9446L17.4969 24.2351L20.1164 23.7985L11.3512 1.16331H8.79884ZM14.1722 15.3691H6.04501L10.0414 4.65598L14.1722 15.3691ZM23.9575 10.701C24.7635 10.3428 25.5024 10.0741 26.174 9.89499C26.8681 9.69349 27.6965 9.59274 28.6592 9.59274C29.8906 9.59274 30.7861 9.93976 31.3459 10.6338C31.928 11.3279 32.219 12.2794 32.219 13.4884V14.3952H28.0211C26.2524 14.3952 24.8307 14.8317 23.756 15.7049C22.6814 16.5781 22.144 17.7983 22.144 19.3655C22.144 20.8656 22.6142 22.0857 23.5545 23.0261C24.5173 23.9664 25.9054 24.4366 27.7189 24.4366C28.5696 24.4366 29.4428 24.2351 30.3384 23.8321C31.2339 23.4067 31.984 22.9141 32.5885 22.3544L32.9243 24H34.9057V12.7496C34.9057 11.6973 34.637 10.757 34.0997 9.92857C33.5624 9.10018 32.8123 8.4509 31.8496 7.98074C30.8869 7.51057 29.7898 7.27548 28.5585 7.27548C27.8196 7.27548 26.8793 7.40982 25.7374 7.67848C24.618 7.94715 23.7672 8.28299 23.1851 8.68599L23.9575 10.701ZM24.5956 19.3655C24.5956 18.4699 24.8867 17.7199 25.4688 17.1154C26.0733 16.4885 26.9017 16.1751 27.954 16.1751H32.2526V19.8692C31.6481 20.5857 30.9429 21.1678 30.1369 21.6156C29.3533 22.0634 28.5249 22.2872 27.6517 22.2872C26.6442 22.2872 25.883 21.9962 25.368 21.4141C24.8531 20.832 24.5956 20.1491 24.5956 19.3655ZM54.9778 24C57.5301 24 59.5787 23.4851 61.1236 22.4552C62.6684 21.4253 63.4408 19.8021 63.4408 17.5856C63.4408 16.1079 63.049 14.8877 62.2654 13.925C61.5042 12.9623 60.4295 12.2458 59.0414 11.7757C59.9817 11.2383 60.7429 10.6002 61.3251 9.8614C61.9072 9.10018 62.1982 8.21582 62.1982 7.20832C62.1982 5.03659 61.493 3.49176 60.0825 2.57381C58.672 1.63348 56.7017 1.16331 54.1718 1.16331H47.8245V24H54.9778ZM54.0711 3.4134C55.8846 3.4134 57.2391 3.68206 58.1346 4.2194C59.0526 4.75673 59.5116 5.76423 59.5116 7.2419C59.5116 8.60762 58.963 9.59274 57.866 10.1972C56.7913 10.7793 55.3584 11.0816 53.5673 11.104H50.4776V3.4134H54.0711ZM55.2801 13.2533C57.004 13.2533 58.3473 13.6115 59.3101 14.328C60.2728 15.0444 60.7541 16.1527 60.7541 17.6527C60.7541 20.4066 58.8175 21.7835 54.9442 21.7835H50.4776V13.2533H55.2801ZM73.4098 7.27548C75.8278 7.27548 77.7197 8.07029 79.0854 9.6599C80.4735 11.2271 81.1676 13.3093 81.1676 15.9064C81.1676 17.5632 80.8429 19.0409 80.1937 20.3394C79.5668 21.6156 78.66 22.6231 77.4734 23.3619C76.3092 24.0784 74.9323 24.4366 73.3427 24.4366C72.671 24.4366 71.9545 24.2911 71.1933 24C70.4545 23.7313 69.7604 23.3395 69.1112 22.8246L68.5402 24H66.9618V0.625978L69.6149 0.290145V8.51807C70.2194 8.11507 70.8575 7.81282 71.5292 7.61132C72.2008 7.38743 72.8277 7.27548 73.4098 7.27548ZM73.4098 22.1865C75.0218 22.1865 76.2644 21.6044 77.1376 20.4402C78.0107 19.2759 78.4585 17.7759 78.4809 15.94C78.4809 14.0145 78.0443 12.4697 77.1712 11.3055C76.3204 10.1189 75.0778 9.52557 73.4434 9.52557C72.6374 9.52557 71.9322 9.64871 71.3277 9.89499C70.7232 10.1413 70.1522 10.5219 69.6149 11.0368V20.7424C70.1522 21.2126 70.7232 21.5708 71.3277 21.8171C71.9322 22.0634 72.6262 22.1865 73.4098 22.1865ZM108.024 2.0029C107.375 1.5999 106.468 1.28645 105.304 1.06256C104.14 0.816285 103.143 0.693146 102.315 0.693146C100.166 0.693146 98.2737 1.21929 96.6393 2.27156C95.0049 3.32384 93.7511 4.76793 92.8779 6.60382C92.0048 8.41732 91.5682 10.4547 91.5682 12.716C91.5682 14.8653 91.9712 16.8355 92.7772 18.6267C93.5832 20.4178 94.781 21.8395 96.3706 22.8917C97.9602 23.944 99.8745 24.4702 102.113 24.4702C103.076 24.4702 104.128 24.3358 105.27 24.0672C106.434 23.8209 107.364 23.5186 108.058 23.1604L107.05 21.1454C106.356 21.4589 105.606 21.7051 104.8 21.8842C104.016 22.0634 103.087 22.1529 102.013 22.1529C100.445 22.1529 99.0797 21.7387 97.9154 20.9103C96.7512 20.0596 95.8669 18.9177 95.2624 17.4848C94.6579 16.0295 94.3556 14.4287 94.3556 12.6824C94.3556 10.8241 94.7026 9.15615 95.3967 7.67848C96.0907 6.20082 97.0423 5.04779 98.2513 4.2194C99.4827 3.39101 100.837 2.97681 102.315 2.97681C103.367 2.97681 104.218 3.05517 104.867 3.2119C105.516 3.34623 106.289 3.58131 107.184 3.91715L108.024 2.0029ZM122.285 21.0447C121.501 21.4477 120.796 21.7387 120.169 21.9178C119.542 22.0969 118.736 22.1865 117.751 22.1865C116.117 22.1865 114.852 21.5932 113.956 20.4066C113.061 19.22 112.613 17.6751 112.613 15.7721C112.635 13.9586 113.117 12.4697 114.057 11.3055C114.997 10.1189 116.273 9.52557 117.885 9.52557C118.826 9.52557 119.587 9.61513 120.169 9.79424C120.774 9.97335 121.524 10.2532 122.419 10.6338L123.225 8.75315C122.576 8.32776 121.714 7.98074 120.639 7.71207C119.587 7.42101 118.691 7.27548 117.953 7.27548C116.341 7.27548 114.93 7.6449 113.721 8.38374C112.512 9.10018 111.572 10.1077 110.9 11.4062C110.251 12.6824 109.926 14.1489 109.926 15.8057C109.926 17.4848 110.24 18.9849 110.867 20.3058C111.493 21.6044 112.4 22.6231 113.587 23.3619C114.773 24.0784 116.173 24.4366 117.785 24.4366C118.524 24.4366 119.43 24.2911 120.505 24C121.58 23.7313 122.453 23.3843 123.124 22.9589L122.285 21.0447ZM142.952 24C145.124 24 146.971 23.4962 148.494 22.4887C150.038 21.4812 151.203 20.1155 151.986 18.3916C152.77 16.6452 153.162 14.6638 153.162 12.4473C153.162 9.08899 152.333 6.36873 150.676 4.28657C149.02 2.2044 146.512 1.16331 143.154 1.16331H135.161V24H142.952ZM143.288 3.4134C145.661 3.4134 147.452 4.24179 148.661 5.89857C149.893 7.55535 150.509 9.74946 150.509 12.4809C150.509 14.384 150.195 16.0407 149.568 17.4512C148.941 18.8394 148.057 19.914 146.915 20.6752C145.796 21.4141 144.486 21.7835 142.986 21.7835H137.814V3.4134H143.288ZM169.95 0.323728V24H168.338L167.834 22.7574C167.163 23.2947 166.435 23.7089 165.651 24C164.868 24.2911 164.129 24.4366 163.435 24.4366C161.017 24.4366 159.114 23.653 157.726 22.0857C156.36 20.4961 155.677 18.3916 155.677 15.7721C155.677 14.1153 155.99 12.6488 156.617 11.3727C157.267 10.0741 158.173 9.0666 159.338 8.35015C160.524 7.63371 161.912 7.27548 163.502 7.27548C164.084 7.27548 164.7 7.38743 165.349 7.61132C166.021 7.83521 166.659 8.13746 167.263 8.51807V0.625978L169.95 0.323728ZM163.401 22.1865C164.207 22.1865 164.912 22.0634 165.517 21.8171C166.144 21.5484 166.726 21.1454 167.263 20.6081V10.9697C166.189 10.0069 164.912 9.52557 163.435 9.52557C161.823 9.52557 160.58 10.1077 159.707 11.2719C158.834 12.4137 158.386 13.9026 158.364 15.7385C158.364 17.6863 158.789 19.2536 159.64 20.4402C160.513 21.6044 161.767 22.1865 163.401 22.1865ZM197.108 24L196.772 21.8842H185.992V13.3205H194.186L193.884 11.3391H185.992V3.14473H196.1L195.798 1.16331H183.339V24H197.108ZM213.444 16.2758C213.444 13.5892 212.873 11.4174 211.731 9.76065C210.612 8.10387 208.866 7.27548 206.492 7.27548C204.925 7.27548 203.559 7.6449 202.395 8.38374C201.253 9.10018 200.38 10.1077 199.776 11.4062C199.194 12.6824 198.902 14.1489 198.902 15.8057C198.902 18.4252 199.63 20.5185 201.085 22.0857C202.541 23.653 204.656 24.4366 207.433 24.4366C208.552 24.4366 209.571 24.2911 210.489 24C211.407 23.6866 212.325 23.2724 213.243 22.7574L212.403 20.8096C211.395 21.3021 210.522 21.6604 209.783 21.8842C209.067 22.1081 208.272 22.2201 207.399 22.2201C205.474 22.2201 204.041 21.6939 203.1 20.6417C202.182 19.567 201.69 18.1117 201.623 16.2758H213.444ZM201.69 14.4623C201.847 12.9399 202.317 11.7421 203.1 10.8689C203.906 9.97335 205.003 9.52557 206.392 9.52557C208.966 9.52557 210.444 11.1712 210.825 14.4623H201.69ZM235.724 11.4734H228.168V3.14473H237.873L237.537 1.16331H225.515V24H228.168V13.4548H236.026L235.724 11.4734ZM241.582 9.99574V24H244.236V9.99574H248.098L247.224 7.98074H244.236V5.59632C244.236 3.73804 244.997 2.8089 246.519 2.8089C246.743 2.8089 247.001 2.84248 247.292 2.90965C247.583 2.97681 247.818 3.05518 247.997 3.14473L248.601 0.995395C248.31 0.838673 247.941 0.70434 247.493 0.592395C247.045 0.480451 246.598 0.424479 246.15 0.424479C244.739 0.424479 243.62 0.883451 242.791 1.8014C241.985 2.69695 241.582 3.90595 241.582 5.4284V7.98074H239.097L239.131 9.99574H241.582ZM273.192 14.2272V21.4812C271.938 21.929 270.64 22.1529 269.296 22.1529C267.662 22.1529 266.184 21.7723 264.863 21.0111C263.565 20.2275 262.535 19.1192 261.774 17.6863C261.035 16.2534 260.665 14.5855 260.665 12.6824C260.665 10.6898 261.08 8.96585 261.908 7.51057C262.759 6.0329 263.867 4.91345 265.233 4.15223C266.621 3.36862 268.11 2.97681 269.699 2.97681C270.729 2.97681 271.569 3.05517 272.218 3.2119C272.867 3.34623 273.64 3.58131 274.535 3.91715L275.375 2.0029C274.726 1.5999 273.808 1.28645 272.621 1.06256C271.457 0.816285 270.461 0.693146 269.632 0.693146C267.438 0.693146 265.445 1.20809 263.654 2.23798C261.863 3.24548 260.453 4.66718 259.423 6.50307C258.393 8.31657 257.878 10.3875 257.878 12.716C257.878 14.9325 258.348 16.9363 259.288 18.7274C260.229 20.4961 261.561 21.8954 263.285 22.9253C265.031 23.9552 267.046 24.4702 269.33 24.4702C270.449 24.4702 271.614 24.3134 272.823 24C274.032 23.7089 274.994 23.3395 275.711 22.8917L275.744 12.2458H268.39L268.154 14.2272H273.192ZM292.87 7.71207V25.7799C292.87 26.9218 292.579 27.9404 291.997 28.836C291.415 29.7316 290.564 30.4368 289.445 30.9518C288.325 31.4667 287.016 31.7242 285.516 31.7242C284.754 31.7242 283.78 31.5786 282.594 31.2876C281.43 31.0189 280.512 30.6719 279.84 30.2465L280.646 28.2987C281.519 28.7241 282.292 29.0375 282.963 29.239C283.657 29.4405 284.474 29.5413 285.415 29.5413C286.825 29.5413 287.967 29.2166 288.84 28.5673C289.736 27.9181 290.184 26.9777 290.184 25.7463V23.1604C289.579 23.5634 288.93 23.8769 288.236 24.1008C287.564 24.3246 286.937 24.4366 286.355 24.4366C283.937 24.4366 282.034 23.653 280.646 22.0857C279.28 20.4961 278.597 18.3916 278.597 15.7721C278.597 14.1153 278.911 12.6488 279.538 11.3727C280.187 10.0741 281.094 9.0666 282.258 8.35015C283.445 7.63371 284.833 7.27548 286.422 7.27548C287.094 7.27548 287.81 7.42101 288.572 7.71207C289.333 8.00312 290.038 8.39493 290.687 8.88749L291.258 7.71207H292.87ZM286.322 22.1865C287.128 22.1865 287.833 22.0634 288.437 21.8171C289.064 21.5484 289.646 21.1454 290.184 20.6081V10.9697C289.109 10.0069 287.833 9.52557 286.355 9.52557C284.743 9.52557 283.501 10.1077 282.627 11.2719C281.754 12.4137 281.306 13.9026 281.284 15.7385C281.284 17.6863 281.709 19.2536 282.56 20.4402C283.433 21.6044 284.687 22.1865 286.322 22.1865ZM322.147 24V1.16331H319.494V11.4062H308.781V0.995395L306.128 1.16331V24H308.781V13.5556H319.494V24H322.147ZM336.289 7.20832C338.013 7.20832 339.289 7.73446 340.117 8.78674C340.968 9.81663 341.393 11.2047 341.393 12.9511V23.9664H338.74V13.3205C338.74 12.1115 338.516 11.1712 338.068 10.4995C337.621 9.82782 336.871 9.49199 335.818 9.49199C335.012 9.49199 334.094 9.77185 333.065 10.3316C332.057 10.8913 331.162 11.5965 330.378 12.4473V24H327.725V0.625978L330.378 0.290145V9.79424C331.162 9.03301 332.091 8.41732 333.165 7.94715C334.262 7.4546 335.303 7.20832 336.289 7.20832ZM356.991 24V1.16331H354.338V24H356.991ZM363.496 4.45448C363.988 4.45448 364.414 4.28657 364.772 3.95073C365.13 3.59251 365.309 3.16712 365.309 2.67456C365.309 2.18201 365.13 1.75662 364.772 1.3984C364.414 1.04017 363.988 0.861063 363.496 0.861063C362.981 0.861063 362.555 1.04017 362.219 1.3984C361.884 1.73423 361.716 2.15962 361.716 2.67456C361.716 3.18951 361.884 3.6149 362.219 3.95073C362.555 4.28657 362.981 4.45448 363.496 4.45448ZM364.872 24V7.71207H362.186V24H364.872ZM377.952 21.7835C377.952 22.6343 377.874 23.2724 377.717 23.6977C377.561 24.1231 377.292 24.4702 376.911 24.7388C376.553 25.0075 375.96 25.2874 375.131 25.5784L376.172 27.4255C377.337 27.0673 378.232 26.6755 378.859 26.2501C379.486 25.8471 379.934 25.3321 380.202 24.7053C380.471 24.1008 380.605 23.3171 380.605 22.3544V1.16331H377.952V21.7835ZM387.217 4.45448C386.703 4.45448 386.266 4.28657 385.908 3.95073C385.572 3.6149 385.404 3.18951 385.404 2.67456C385.404 2.15962 385.572 1.73423 385.908 1.3984C386.266 1.04017 386.703 0.861063 387.217 0.861063C387.71 0.861063 388.135 1.04017 388.494 1.3984C388.852 1.75662 389.031 2.18201 389.031 2.67456C389.031 3.16712 388.852 3.59251 388.494 3.95073C388.135 4.28657 387.71 4.45448 387.217 4.45448ZM388.561 25.0075C388.561 26.2389 388.46 27.2128 388.259 27.9293C388.079 28.6457 387.688 29.2614 387.083 29.7763C386.501 30.2913 385.605 30.7503 384.396 31.1533L383.355 29.239C384.117 28.9703 384.676 28.6681 385.035 28.3323C385.393 27.9964 385.628 27.5822 385.74 27.0897C385.852 26.5971 385.897 25.9031 385.874 25.0075V7.71207H388.561V25.0075ZM16.926 61L8.36226 50.0182L5.77634 52.7385V61H3.12325V38.1633H5.77634V49.2458L16.7917 37.6596L18.6052 39.238L10.1086 48.1376L20.1164 61H16.926ZM25.5695 61V54.8878L27.8196 52.6377L33.193 61H36.3162L29.5995 50.8914L34.5699 45.9547L32.9579 44.2755L25.5695 51.6974V37.2901L22.9164 37.626V61H25.5695ZM60.5324 58.8842H49.9201V38.1633H47.267V61H60.8011L60.5324 58.8842ZM66.2369 61V37.2901L63.5838 37.626V61H66.2369ZM89.9142 53.3094L96.295 43.8053V61H98.9817V38.1633H97.3025L89.3769 49.8167L81.1825 38.1633H79.6041V61H82.2572V43.7382L89.0075 53.4773L89.9142 53.3094ZM122.715 44.2083C124.372 44.2083 125.603 44.7345 126.409 45.7867C127.215 46.8166 127.618 48.2047 127.618 49.9511V60.9664H124.965V50.3205C124.965 49.1115 124.764 48.1712 124.361 47.4995C123.958 46.8278 123.263 46.492 122.278 46.492C121.584 46.492 120.778 46.7495 119.86 47.2644C118.965 47.757 118.125 48.395 117.342 49.1787C117.364 49.3354 117.375 49.5929 117.375 49.9511V60.9664H114.722V50.3205C114.722 49.1115 114.521 48.1712 114.118 47.4995C113.715 46.8278 113.021 46.492 112.035 46.492C111.319 46.492 110.468 46.7718 109.483 47.3316C108.52 47.8913 107.647 48.5965 106.864 49.4473V61H104.21V44.7121H106.192L106.628 47.0293C107.412 46.2233 108.341 45.5517 109.416 45.0143C110.513 44.477 111.543 44.2083 112.506 44.2083C113.603 44.2083 114.509 44.4546 115.226 44.9472C115.965 45.4397 116.513 46.1338 116.871 47.0293C117.655 46.2233 118.584 45.5517 119.659 45.0143C120.734 44.477 121.752 44.2083 122.715 44.2083ZM143.193 61V43.0665L144.066 44.5777L155.686 61H157.835V38.1633H155.148V55.8617L153.771 53.6117L142.655 38.1633H140.54V61H143.193ZM165.7 49.4473C166.484 48.5965 167.379 47.8913 168.387 47.3316C169.417 46.7718 170.335 46.492 171.141 46.492C172.193 46.492 172.943 46.8278 173.391 47.4995C173.838 48.1712 174.062 49.1115 174.062 50.3205V60.9664H176.715V49.9511C176.715 48.2047 176.29 46.8166 175.439 45.7867C174.611 44.7345 173.335 44.2083 171.611 44.2083C170.581 44.2083 169.495 44.477 168.353 45.0143C167.211 45.5517 166.249 46.2233 165.465 47.0293L165.028 44.7121H163.047V61H165.7V49.4473ZM198.769 37.626C196.71 37.6708 194.863 38.2193 193.228 39.2716C191.594 40.3238 190.306 41.7567 189.366 43.5702C188.448 45.3837 187.989 47.4211 187.989 49.6824C187.989 51.9437 188.448 53.9699 189.366 55.761C190.284 57.5521 191.549 58.9514 193.161 59.9589C194.773 60.9664 196.598 61.4702 198.635 61.4702C200.695 61.4478 202.553 60.9104 204.21 59.8582C205.867 58.8059 207.154 57.373 208.072 55.5595C209.012 53.7236 209.483 51.675 209.483 49.4137C209.483 47.1525 209.024 45.1263 208.106 43.3352C207.188 41.544 205.911 40.1447 204.277 39.1372C202.643 38.1297 200.807 37.626 198.769 37.626ZM190.777 49.6488C190.777 47.7905 191.124 46.1338 191.818 44.6785C192.512 43.2008 193.463 42.0478 194.672 41.2194C195.904 40.3686 197.292 39.9432 198.837 39.9432C200.337 39.9432 201.669 40.3574 202.833 41.1858C204.02 41.9918 204.949 43.1225 205.62 44.5777C206.292 46.0106 206.628 47.6338 206.628 49.4473C206.628 51.3056 206.281 52.9736 205.587 54.4512C204.893 55.9289 203.93 57.0819 202.699 57.9103C201.49 58.7387 200.113 59.1529 198.568 59.1529C197.068 59.1529 195.725 58.7499 194.538 57.9439C193.374 57.1155 192.456 55.9849 191.784 54.552C191.112 53.0967 190.777 51.4623 190.777 49.6488ZM227.806 52.9064C227.806 54.5632 227.47 56.0409 226.798 57.3394C226.149 58.6156 225.209 59.6231 223.977 60.3619C222.746 61.0784 221.313 61.4366 219.679 61.4366C218.112 61.4366 216.746 61.0784 215.582 60.3619C214.417 59.6231 213.522 58.6044 212.895 57.3058C212.29 55.9849 211.988 54.4848 211.988 52.8057C212.011 51.1489 212.335 49.6824 212.962 48.4062C213.611 47.1077 214.54 46.1002 215.749 45.3837C216.958 44.6449 218.369 44.2755 219.981 44.2755C222.421 44.2755 224.336 45.0591 225.724 46.6263C227.112 48.1712 227.806 50.2645 227.806 52.9064ZM219.813 59.1865C221.425 59.1865 222.701 58.6044 223.642 57.4402C224.582 56.2536 225.063 54.7535 225.086 52.94C225.086 51.0145 224.638 49.4697 223.742 48.3055C222.847 47.1189 221.582 46.5256 219.947 46.5256C218.335 46.5256 217.059 47.1189 216.119 48.3055C215.179 49.4697 214.697 50.9586 214.675 52.7721C214.675 54.6751 215.123 56.22 216.018 57.4066C216.914 58.5932 218.179 59.1865 219.813 59.1865ZM242.5 52.3691H245.724C248.276 52.3691 250.369 51.7646 252.004 50.5556C253.638 49.3242 254.467 47.5219 254.489 45.1487C254.489 42.753 253.728 40.9955 252.205 39.8761C250.683 38.7342 248.634 38.1633 246.06 38.1633H239.847V61H242.5V52.3691ZM246.093 40.4134C247.951 40.4134 249.362 40.7828 250.325 41.5216C251.287 42.2381 251.769 43.4807 251.769 45.2494C251.724 46.9062 251.164 48.1376 250.09 48.9436C249.015 49.7272 247.593 50.119 245.824 50.119H242.5V40.4134H246.093ZM264.346 44.2755C266.764 44.2755 268.656 45.0703 270.022 46.6599C271.41 48.2271 272.104 50.3093 272.104 52.9064C272.104 54.5632 271.78 56.0409 271.13 57.3394C270.503 58.6156 269.597 59.6231 268.41 60.3619C267.246 61.0784 265.869 61.4366 264.279 61.4366C263.093 61.4366 261.85 61.0224 260.552 60.194V67.9853L257.898 68.3548V44.7121H259.477L260.048 45.8539C260.719 45.3613 261.436 44.9807 262.197 44.7121C262.958 44.421 263.675 44.2755 264.346 44.2755ZM264.346 59.1865C265.958 59.1865 267.201 58.6044 268.074 57.4402C268.947 56.2759 269.395 54.7759 269.418 52.94C269.418 51.0145 268.981 49.4697 268.108 48.3055C267.257 47.1189 266.014 46.5256 264.38 46.5256C263.574 46.5256 262.869 46.6487 262.264 46.895C261.66 47.1413 261.089 47.5219 260.552 48.0368V57.7424C261.089 58.2126 261.66 58.5708 262.264 58.8171C262.869 59.0634 263.563 59.1865 264.346 59.1865ZM304.001 49.4137C304.001 51.1825 303.71 52.828 303.128 54.3505C302.546 55.8506 301.729 57.1491 300.677 58.2462L302.792 60.2947L301.214 61.6717L299.065 59.6231C297.296 60.8321 295.326 61.4478 293.154 61.4702C291.116 61.4702 289.292 60.9664 287.68 59.9589C286.068 58.9514 284.803 57.5521 283.885 55.761C282.967 53.9699 282.508 51.9437 282.508 49.6824C282.508 47.4211 282.967 45.3837 283.885 43.5702C284.825 41.7567 286.113 40.3238 287.747 39.2716C289.381 38.2193 291.228 37.6708 293.288 37.626C295.326 37.626 297.161 38.1297 298.796 39.1372C300.43 40.1447 301.706 41.544 302.624 43.3352C303.542 45.1263 304.001 47.1525 304.001 49.4137ZM293.087 59.1529C294.632 59.1529 296.008 58.7387 297.217 57.9103L293.826 54.7199L295.673 53.343L298.829 56.4327C299.568 55.5595 300.139 54.5296 300.542 53.343C300.945 52.134 301.147 50.8354 301.147 49.4473C301.147 47.6338 300.811 46.0106 300.139 44.5777C299.468 43.1225 298.538 41.9918 297.352 41.1858C296.188 40.3574 294.855 39.9432 293.355 39.9432C291.811 39.9432 290.422 40.3686 289.191 41.2194C287.982 42.0478 287.031 43.2008 286.336 44.6785C285.642 46.1338 285.295 47.7905 285.295 49.6488C285.295 51.4623 285.631 53.0967 286.303 54.552C286.975 55.9849 287.892 57.1155 289.057 57.9439C290.243 58.7499 291.587 59.1529 293.087 59.1529ZM320.78 44.7121V68.0189L318.093 68.3548V60.1604C317.489 60.5634 316.839 60.8769 316.145 61.1008C315.474 61.3246 314.847 61.4366 314.265 61.4366C311.847 61.4366 309.944 60.653 308.556 59.0857C307.19 57.4961 306.507 55.3916 306.507 52.7721C306.507 51.1153 306.82 49.6488 307.447 48.3727C308.097 47.0741 309.003 46.0666 310.168 45.3502C311.354 44.6337 312.742 44.2755 314.332 44.2755C315.004 44.2755 315.709 44.421 316.448 44.7121C317.209 44.9807 317.914 45.3613 318.563 45.8539L319.168 44.7121H320.78ZM314.231 59.1865C315.037 59.1865 315.742 59.0634 316.347 58.8171C316.974 58.5484 317.556 58.1454 318.093 57.6081V47.9697C317.019 47.0069 315.742 46.5256 314.265 46.5256C312.653 46.5256 311.41 47.1077 310.537 48.2719C309.664 49.4137 309.216 50.9026 309.194 52.7385C309.194 54.6863 309.619 56.2536 310.47 57.4402C311.343 58.6044 312.597 59.1865 314.231 59.1865ZM334.037 61H336.691V51.6302H339.915C340.698 51.6302 341.493 51.5855 342.299 51.4959L347.538 61H350.46L344.65 50.7907C345.881 50.2757 346.855 49.5257 347.572 48.5406C348.288 47.5331 348.657 46.2905 348.68 44.8128C348.68 42.5291 347.919 40.85 346.396 39.7753C344.874 38.7006 342.825 38.1633 340.25 38.1633H334.037V61ZM340.284 40.4134C342.097 40.4134 343.497 40.7492 344.482 41.4209C345.467 42.0702 345.96 43.2344 345.96 44.9136C345.937 46.5256 345.377 47.6898 344.28 48.4062C343.206 49.1003 341.784 49.4473 340.015 49.4473H336.691V40.4134H340.284ZM355.558 49.7832C356.319 48.9995 357.248 48.3167 358.345 47.7346C359.442 47.1301 360.438 46.8278 361.334 46.8278L360.696 44.7121C359.912 44.7121 359.005 44.9919 357.976 45.5517C356.946 46.1114 356.061 46.7047 355.322 47.3316L354.483 44.7121H352.904V61H355.558V49.7832ZM371.329 59.8917C371.933 60.2947 372.885 60.653 374.183 60.9664C375.482 61.2799 376.624 61.4366 377.609 61.4366C379.266 61.4366 380.699 61.1791 381.908 60.6642C383.139 60.1492 384.068 59.444 384.695 58.5484C385.344 57.6529 385.669 56.623 385.669 55.4587C385.669 54.3841 385.445 53.4661 384.997 52.7049C384.55 51.9213 383.889 51.2272 383.016 50.6227C382.165 50.0182 381.034 49.3914 379.624 48.7421C378.057 48.0256 376.87 47.4323 376.064 46.9622C375.258 46.492 374.631 45.977 374.183 45.4173C373.758 44.8352 373.545 44.1412 373.545 43.3352C373.545 42.2605 373.982 41.4209 374.855 40.8164C375.751 40.2119 376.937 39.9096 378.415 39.9096C379.4 39.9096 380.228 40.0104 380.9 40.2119C381.594 40.4134 382.355 40.7045 383.184 41.0851L384.091 39.0365C383.307 38.6335 382.4 38.2976 381.37 38.029C380.363 37.7603 379.322 37.626 378.247 37.626C376.792 37.626 375.504 37.8835 374.385 38.3984C373.288 38.891 372.437 39.5738 371.833 40.447C371.251 41.3201 370.959 42.2941 370.959 43.3687C370.959 44.8912 371.441 46.1785 372.404 47.2308C373.389 48.2831 374.922 49.257 377.004 50.1526C378.46 50.7795 379.602 51.3392 380.43 51.8317C381.281 52.3019 381.93 52.8392 382.378 53.4437C382.826 54.0259 383.049 54.7087 383.049 55.4923C383.049 56.5894 382.568 57.4849 381.605 58.179C380.665 58.8507 379.322 59.1865 377.575 59.1865C376.59 59.1865 375.583 59.0522 374.553 58.7835C373.545 58.4924 372.683 58.1678 371.967 57.8096L371.329 59.8917ZM388.01 60.0597C388.614 60.4851 389.442 60.8209 390.495 61.0672C391.547 61.3134 392.454 61.4366 393.215 61.4366C395.32 61.4366 396.932 61.0224 398.051 60.194C399.193 59.3656 399.764 58.2014 399.764 56.7013C399.764 54.5968 397.939 52.8728 394.29 51.5295C393.081 51.1265 392.152 50.7123 391.502 50.2869C390.853 49.8615 390.517 49.3578 390.495 48.7757C390.495 48.0816 390.808 47.5219 391.435 47.0965C392.084 46.6487 392.913 46.4248 393.92 46.4248C394.749 46.4248 395.487 46.5256 396.137 46.7271C396.786 46.9286 397.48 47.1972 398.219 47.5331L399.058 45.7196C398.476 45.2942 397.67 44.9472 396.64 44.6785C395.633 44.4098 394.749 44.2755 393.987 44.2755C392.107 44.2755 390.618 44.6897 389.521 45.5181C388.446 46.3241 387.909 47.4435 387.909 48.8764C387.909 50.063 388.401 51.0369 389.386 51.7982C390.372 52.5594 391.648 53.1975 393.215 53.7124C395.902 54.608 397.245 55.6602 397.245 56.8692C397.245 57.6305 396.887 58.2238 396.17 58.6492C395.454 59.0746 394.48 59.2872 393.249 59.2872C391.838 59.2872 390.372 58.9066 388.849 58.1454L388.01 60.0597ZM18.2694 75.1633H0.335834V77.2455H7.99284V98H10.6795V77.2455H18.5716L18.2694 75.1633ZM24.4983 81.9807V77.0776L21.8452 77.8164V81.9807H19.4608L19.4944 83.9957H21.8452V93.7685C21.8452 95.2909 22.2482 96.4664 23.0542 97.2947C23.8826 98.1008 25.002 98.5038 26.4125 98.5038C27.2633 98.5038 28.0917 98.3134 28.8977 97.9328L28.2932 95.8507C27.7335 96.0746 27.2409 96.1865 26.8155 96.1865C26.0319 96.1865 25.4498 95.9402 25.0692 95.4477C24.6886 94.9551 24.4983 94.2722 24.4983 93.3991V83.9957H28.3268L27.4536 81.9807H24.4983ZM40.3063 75.1633V89.9064C40.3063 91.5408 40.6534 92.9961 41.3474 94.2722C42.0639 95.5484 43.0714 96.5559 44.3699 97.2947C45.6909 98.0336 47.2245 98.403 48.9708 98.403C50.7172 98.403 52.2396 98.0448 53.5382 97.3283C54.8591 96.5895 55.8666 95.5708 56.5607 94.2722C57.2771 92.9737 57.6353 91.5184 57.6353 89.9064V75.1633H54.9487V89.6042C54.9487 91.552 54.4113 93.1304 53.3367 94.3394C52.262 95.5484 50.8067 96.1529 48.9708 96.1529C47.1573 96.1529 45.7021 95.5484 44.605 94.3394C43.5079 93.1304 42.9594 91.552 42.9594 89.6042V75.1633H40.3063ZM73.4075 93.2312C72.6238 94.0819 71.7171 94.7872 70.6872 95.3469C69.6797 95.9066 68.773 96.1865 67.967 96.1865C66.9147 96.1865 66.1646 95.8507 65.7169 95.179C65.2691 94.5073 65.0452 93.567 65.0452 92.358V81.7121H62.3921V92.7274C62.3921 94.4737 62.8063 95.8731 63.6347 96.9253C64.4855 97.9552 65.7728 98.4702 67.4968 98.4702C68.5267 98.4702 69.6125 98.2015 70.7544 97.6642C71.8962 97.1268 72.8589 96.4552 73.6425 95.6492L74.0791 98H76.0605V81.6785H73.4075V93.2312ZM88.9799 74.9282L86.3604 75.3312L95.1257 98H97.678L106.141 75.1633H103.555L96.4354 94.4737L88.9799 74.9282ZM115.389 98L121.468 81.7121H118.781L114.113 94.4066L109.243 81.1747L106.825 82.1822L112.803 98H115.389ZM158.089 75.1633L151.842 98H149.29L144.051 79.1261L139.114 98H136.562L129.979 75.3312L132.599 74.9282L137.872 94.373L142.808 75.1633H145.394L150.566 94.373L155.536 75.1633H158.089ZM175.868 98L180.671 81.7121H177.984L174.559 94.2051L170.932 81.7121H168.245L164.82 94.2051L161.193 81.2083L158.775 82.2158L163.51 98H166.096L169.555 85.6077L173.249 98H175.868ZM192.031 98L198.781 88.3616L204.927 98H207.815L200.595 86.8167L208.286 75.1633H205.431L199.218 84.9025L192.266 74.5924L190.05 75.7006L197.371 86.4473L189.177 98H192.031ZM211.942 98L215.938 91.7199L219.968 98H222.89L217.785 90.1751L223.394 81.7121H220.472L216.308 88.1601L211.908 81.2419L209.524 82.2494L214.427 89.7385L208.953 98H211.942ZM242.12 98L242.153 88.6974L250.146 75.1633H247.291L240.81 86.2122L234.395 74.626L231.91 75.7006L239.466 88.8317V98H242.12ZM255.871 100.687C255.625 101.358 255.244 101.862 254.729 102.198C254.237 102.556 253.464 102.982 252.412 103.474L253.218 105.388C254.405 105.142 255.446 104.661 256.341 103.944C257.259 103.228 257.909 102.366 258.289 101.358L265.476 81.7121H262.789L258.121 94.3058L253.184 81.2083L250.834 82.2158L256.879 97.8992L255.871 100.687ZM291.216 95.8842H277.346L291.753 77.2455L291.518 75.1633H275.331L275.734 77.2455H288.798L274.424 95.8842L274.693 98H291.451L291.216 95.8842ZM306.212 81.7121H294.021L294.659 83.8278H302.921L293.215 96.6231L293.551 98H306.279L305.943 95.9178H296.473L306.346 83.1226L306.212 81.7121ZM8.06001 135V115.992H6.28009L0.335834 118.746L1.51125 120.895L5.37334 119.081V135H8.06001ZM17.8168 115.555C16.5182 115.555 15.3876 115.723 14.4248 116.059C13.4845 116.372 12.589 116.787 11.7382 117.302L12.5106 119.451C13.4733 118.914 14.3241 118.499 15.0629 118.208C15.8018 117.895 16.7085 117.738 17.7832 117.738C19.1713 117.738 20.2572 118.04 21.0408 118.645C21.8468 119.227 22.2498 120.089 22.2498 121.231C22.2498 122.171 21.9587 123.056 21.3766 123.884C20.7945 124.712 19.8094 125.72 18.4213 126.906L11.3016 133.086V135H25.8768L25.4402 132.918H14.8278L19.8318 128.72C21.6453 127.197 22.9326 125.843 23.6939 124.656C24.4551 123.47 24.8357 122.238 24.8357 120.962C24.8357 119.305 24.1976 117.996 22.9214 117.033C21.6677 116.048 19.9661 115.555 17.8168 115.555ZM33.6518 115.555C31.3682 115.555 29.1405 116.249 26.9688 117.637L28.2785 119.384C28.9502 118.914 29.7338 118.522 30.6293 118.208C31.5249 117.872 32.4988 117.705 33.5511 117.705C34.8273 117.705 35.846 118.04 36.6072 118.712C37.3908 119.384 37.7826 120.19 37.7826 121.13C37.7826 122.317 37.2788 123.268 36.2713 123.985C35.2638 124.679 33.8981 125.026 32.1742 125.026H30.7637L31.1667 127.007H31.9727C34.0996 127.007 35.6668 127.388 36.6743 128.149C37.6818 128.91 38.1856 129.985 38.1856 131.373C38.1856 132.179 37.9505 132.895 37.4803 133.522C37.0102 134.127 36.3945 134.597 35.6333 134.933C34.8944 135.246 34.0996 135.403 33.2488 135.403C32.1518 135.403 31.2003 135.28 30.3943 135.034C29.6106 134.787 28.7823 134.395 27.9091 133.858L26.5322 135.739C27.4949 136.254 28.5472 136.679 29.689 137.015C30.8532 137.373 32.0063 137.552 33.1481 137.552C34.6705 137.552 36.0139 137.272 37.1781 136.713C38.3423 136.175 39.2379 135.437 39.8648 134.496C40.514 133.534 40.8387 132.47 40.8387 131.306C40.8387 129.962 40.4581 128.809 39.6968 127.847C38.958 126.862 38.0177 126.235 36.8758 125.966C37.8833 125.608 38.7229 124.992 39.3946 124.119C40.0887 123.223 40.4357 122.216 40.4357 121.096C40.4357 120.111 40.1782 119.193 39.6633 118.343C39.1483 117.492 38.3759 116.82 37.346 116.328C36.3385 115.813 35.1071 115.555 33.6518 115.555ZM59.0036 130.466H55.5109V115.824H53.6639L42.4134 130.466L42.7828 132.649H52.8579V137.317H55.5109V132.649H58.7014L59.0036 130.466ZM52.8579 120.458V130.466H45.268L52.8579 120.458ZM64.5252 127.477C64.9282 127.074 65.4543 126.705 66.1036 126.369C66.7753 126.011 67.5029 125.832 68.2865 125.832C69.5851 125.832 70.6262 126.246 71.4098 127.074C72.1934 127.903 72.5852 129.045 72.5852 130.5C72.5852 131.977 72.115 133.164 71.1747 134.06C70.2567 134.933 69.0254 135.369 67.4805 135.369C66.4059 135.369 65.4655 135.246 64.6595 135C63.8759 134.754 63.0363 134.373 62.1408 133.858L60.7974 135.739C61.7602 136.254 62.8124 136.679 63.9543 137.015C65.0961 137.373 66.2267 137.552 67.3462 137.552C69.003 137.552 70.4247 137.239 71.6113 136.612C72.7979 135.985 73.6934 135.134 74.2979 134.06C74.9248 132.985 75.2383 131.798 75.2383 130.5C75.2159 128.507 74.6114 126.873 73.4248 125.597C72.2382 124.32 70.4694 123.682 68.1186 123.682C67.5589 123.682 66.9656 123.783 66.3387 123.985C65.7342 124.164 65.1633 124.421 64.6259 124.757L64.9282 118.175H73.6599L73.9621 115.992H62.5102L61.9728 127.477H64.5252ZM85.2493 122.003C86.7045 122.003 87.9695 122.294 89.0442 122.876C90.1412 123.459 90.9808 124.253 91.5629 125.261C92.1451 126.268 92.4361 127.388 92.4361 128.619C92.4361 129.895 92.1227 131.06 91.4958 132.112C90.8913 133.142 90.0405 133.959 88.9434 134.563C87.8688 135.146 86.6598 135.437 85.3164 135.437C83.8164 135.437 82.473 135.09 81.2864 134.395C80.0998 133.701 79.1595 132.672 78.4654 131.306C77.7938 129.94 77.4579 128.306 77.4579 126.403C77.4579 123.985 78.0624 121.858 79.2714 120.022C80.4804 118.186 82.0141 116.742 83.8724 115.69C85.7306 114.615 87.6225 113.954 89.5479 113.708L90.1524 115.79C88.7867 115.947 87.4098 116.361 86.0217 117.033C84.656 117.682 83.447 118.6 82.3947 119.787C81.3424 120.951 80.6372 122.317 80.2789 123.884C81.779 122.63 83.4358 122.003 85.2493 122.003ZM85.2157 133.186C86.6262 133.186 87.7568 132.772 88.6076 131.944C89.4808 131.093 89.9174 130.041 89.9174 128.787C89.9174 127.377 89.492 126.246 88.6412 125.395C87.7904 124.544 86.6374 124.119 85.1821 124.119C84.2642 124.119 83.3574 124.354 82.4619 124.824C81.5663 125.272 80.7603 125.854 80.0438 126.571C80.1334 128.72 80.626 130.365 81.5215 131.507C82.4395 132.627 83.6709 133.186 85.2157 133.186ZM100.185 137.317L107.607 117.167L106.734 115.992H93.8379L94.1738 118.175H104.652L97.6665 136.545L100.185 137.317ZM116.991 113.406C115.603 113.406 114.405 113.663 113.398 114.178C112.39 114.693 111.618 115.376 111.081 116.227C110.566 117.055 110.308 117.962 110.308 118.947C110.308 119.977 110.633 120.906 111.282 121.735C111.931 122.563 112.76 123.19 113.767 123.615C113.006 123.794 112.29 124.175 111.618 124.757C110.946 125.339 110.409 126.033 110.006 126.839C109.603 127.623 109.401 128.406 109.401 129.19C109.401 130.354 109.693 131.407 110.275 132.347C110.879 133.287 111.752 134.037 112.894 134.597C114.036 135.157 115.402 135.437 116.991 135.437C118.559 135.437 119.913 135.157 121.055 134.597C122.197 134.015 123.059 133.254 123.641 132.313C124.245 131.351 124.548 130.31 124.548 129.19C124.548 128.317 124.346 127.489 123.943 126.705C123.54 125.921 123.003 125.261 122.331 124.723C121.659 124.186 120.943 123.817 120.182 123.615C121.144 123.167 121.962 122.541 122.633 121.735C123.305 120.906 123.641 119.977 123.641 118.947C123.641 117.962 123.372 117.055 122.835 116.227C122.32 115.376 121.559 114.693 120.551 114.178C119.566 113.663 118.379 113.406 116.991 113.406ZM116.891 115.555C118.212 115.555 119.241 115.891 119.98 116.563C120.719 117.212 121.088 118.029 121.088 119.014C121.088 119.91 120.719 120.705 119.98 121.399C119.264 122.07 118.267 122.507 116.991 122.708C115.693 122.507 114.674 122.07 113.935 121.399C113.219 120.705 112.861 119.91 112.861 119.014C112.861 118.052 113.208 117.234 113.902 116.563C114.618 115.891 115.614 115.555 116.891 115.555ZM116.991 124.623C118.581 124.824 119.801 125.35 120.652 126.201C121.525 127.03 121.962 128.048 121.962 129.257C121.962 130.444 121.469 131.407 120.484 132.145C119.521 132.884 118.357 133.254 116.991 133.254C115.558 133.254 114.361 132.884 113.398 132.145C112.458 131.407 111.987 130.444 111.987 129.257C111.987 128.048 112.413 127.03 113.264 126.201C114.114 125.35 115.357 124.824 116.991 124.623ZM133.838 115.555C135.338 115.555 136.681 115.902 137.868 116.596C139.054 117.29 139.983 118.32 140.655 119.686C141.349 121.052 141.696 122.686 141.696 124.589C141.696 127.007 141.092 129.134 139.883 130.97C138.674 132.806 137.14 134.25 135.282 135.302C133.423 136.377 131.532 137.037 129.606 137.284L129.002 135.202C130.367 135.045 131.733 134.631 133.099 133.959C134.487 133.287 135.707 132.369 136.759 131.205C137.812 130.018 138.517 128.642 138.875 127.074C137.308 128.35 135.651 128.989 133.905 128.989C132.427 128.989 131.14 128.698 130.043 128.115C128.968 127.533 128.14 126.738 127.557 125.731C126.998 124.723 126.718 123.604 126.718 122.373C126.718 121.074 127.02 119.91 127.625 118.88C128.252 117.85 129.102 117.044 130.177 116.462C131.274 115.857 132.494 115.555 133.838 115.555ZM129.237 122.205C129.237 123.593 129.651 124.712 130.479 125.563C131.33 126.414 132.483 126.839 133.938 126.839C134.879 126.839 135.797 126.615 136.692 126.168C137.588 125.697 138.394 125.104 139.11 124.388C139.021 122.238 138.517 120.604 137.599 119.484C136.703 118.343 135.483 117.772 133.938 117.772C132.528 117.772 131.386 118.197 130.513 119.048C129.662 119.899 129.237 120.951 129.237 122.205ZM143.87 125.362C143.87 127.287 144.251 129.022 145.012 130.567C145.773 132.089 146.826 133.287 148.169 134.16C149.512 135.011 151.035 135.437 152.736 135.437C154.416 135.437 155.927 135 157.27 134.127C158.613 133.254 159.666 132.045 160.427 130.5C161.188 128.955 161.569 127.22 161.569 125.294C161.569 123.436 161.188 121.768 160.427 120.29C159.666 118.813 158.613 117.66 157.27 116.831C155.927 115.981 154.416 115.555 152.736 115.555C151.035 115.555 149.512 115.981 148.169 116.831C146.826 117.66 145.773 118.824 145.012 120.324C144.251 121.802 143.87 123.481 143.87 125.362ZM146.49 125.261C146.49 123.828 146.759 122.552 147.296 121.432C147.833 120.29 148.572 119.406 149.512 118.779C150.475 118.13 151.55 117.805 152.736 117.805C153.923 117.805 154.986 118.13 155.927 118.779C156.889 119.429 157.628 120.335 158.143 121.499C158.681 122.664 158.949 123.973 158.949 125.429C158.949 126.906 158.681 128.239 158.143 129.425C157.628 130.589 156.889 131.507 155.927 132.179C154.986 132.828 153.923 133.153 152.736 133.153C151.55 133.153 150.475 132.817 149.512 132.145C148.572 131.451 147.833 130.511 147.296 129.324C146.759 128.115 146.49 126.761 146.49 125.261ZM173.362 135C173.855 135 174.269 134.821 174.605 134.463C174.963 134.104 175.142 133.679 175.142 133.186C175.142 132.694 174.963 132.28 174.605 131.944C174.269 131.586 173.855 131.407 173.362 131.407C172.847 131.407 172.411 131.586 172.053 131.944C171.694 132.28 171.515 132.694 171.515 133.186C171.515 133.701 171.694 134.138 172.053 134.496C172.411 134.832 172.847 135 173.362 135ZM182.563 111.424C181.354 111.424 180.302 111.592 179.406 111.928C178.533 112.242 177.559 112.745 176.485 113.439L176.82 115.757C177.828 115.063 178.757 114.548 179.608 114.212C180.481 113.876 181.432 113.708 182.462 113.708C183.739 113.708 184.701 113.988 185.351 114.548C186 115.085 186.324 115.936 186.324 117.1C186.324 118.264 185.787 119.339 184.712 120.324C183.66 121.309 182.25 122.082 180.481 122.641L180.75 129.224L182.697 129.996L183.033 123.985C184.824 123.156 186.257 122.115 187.332 120.861C188.429 119.585 188.978 118.32 188.978 117.066C188.978 115.343 188.44 113.977 187.366 112.969C186.291 111.939 184.69 111.424 182.563 111.424ZM181.623 131.407C181.13 131.407 180.705 131.586 180.347 131.944C180.011 132.28 179.843 132.694 179.843 133.186C179.843 133.701 180.011 134.138 180.347 134.496C180.705 134.832 181.13 135 181.623 135C182.138 135 182.574 134.821 182.933 134.463C183.291 134.104 183.47 133.679 183.47 133.186C183.47 132.694 183.291 132.28 182.933 131.944C182.574 131.586 182.138 131.407 181.623 131.407ZM191.903 127.477L193.817 128.418L194.355 111.424H191.332L191.903 127.477ZM192.843 131.407C192.351 131.407 191.914 131.586 191.534 131.944C191.175 132.28 190.996 132.694 190.996 133.186C190.996 133.679 191.175 134.104 191.534 134.463C191.914 134.821 192.351 135 192.843 135C193.358 135 193.784 134.821 194.119 134.463C194.478 134.104 194.657 133.679 194.657 133.186C194.657 132.694 194.478 132.28 194.119 131.944C193.761 131.586 193.336 131.407 192.843 131.407ZM217.021 133.287L214.268 130.768C215.23 128.955 215.779 126.716 215.913 124.052L213.764 123.212C213.585 125.563 213.103 127.511 212.32 129.056L205.704 122.843C204.428 121.656 203.543 120.716 203.051 120.022C202.558 119.305 202.312 118.455 202.312 117.469C202.312 116.507 202.648 115.667 203.319 114.951C204.014 114.234 204.92 113.876 206.04 113.876C206.89 113.876 207.585 113.966 208.122 114.145C208.682 114.301 209.174 114.481 209.6 114.682C210.025 114.884 210.316 115.018 210.473 115.085L211.413 113.036C210.517 112.589 209.656 112.242 208.827 111.995C207.999 111.749 207.07 111.626 206.04 111.626C204.741 111.626 203.611 111.906 202.648 112.466C201.685 113.003 200.946 113.731 200.431 114.648C199.939 115.566 199.692 116.574 199.692 117.671C199.692 118.947 200.039 120.089 200.734 121.096C199.659 121.813 198.786 122.787 198.114 124.018C197.465 125.227 197.129 126.537 197.107 127.947C197.107 129.537 197.476 130.892 198.215 132.011C198.976 133.131 200.006 133.981 201.304 134.563C202.625 135.123 204.103 135.414 205.737 135.437C208.782 135.437 211.167 134.507 212.891 132.649L215.611 135.134L217.021 133.287ZM211.044 130.936C209.767 132.392 207.999 133.119 205.737 133.119C204.103 133.119 202.704 132.672 201.54 131.776C200.375 130.88 199.793 129.582 199.793 127.88C199.816 126.761 200.039 125.765 200.465 124.891C200.913 123.996 201.517 123.302 202.278 122.809C202.502 123.078 202.916 123.492 203.521 124.052L211.044 130.936ZM225.987 135.504C225.36 134.81 224.767 133.791 224.207 132.448C223.648 131.082 223.2 129.649 222.864 128.149C222.528 126.627 222.36 125.317 222.36 124.22C222.36 123.145 222.528 121.869 222.864 120.391C223.2 118.914 223.648 117.503 224.207 116.16C224.767 114.794 225.36 113.753 225.987 113.036L223.838 112.264C222.494 114.01 221.476 115.958 220.782 118.108C220.11 120.235 219.774 122.283 219.774 124.253C219.774 126.246 220.121 128.317 220.815 130.466C221.509 132.616 222.517 134.552 223.838 136.276L225.987 135.504ZM227.99 113.036C228.595 113.731 229.177 114.76 229.737 116.126C230.296 117.469 230.744 118.891 231.08 120.391C231.438 121.891 231.617 123.179 231.617 124.253C231.617 125.328 231.438 126.615 231.08 128.115C230.744 129.615 230.296 131.048 229.737 132.414C229.177 133.757 228.595 134.787 227.99 135.504L230.14 136.276C231.461 134.463 232.468 132.492 233.162 130.365C233.856 128.239 234.203 126.201 234.203 124.253C234.203 122.261 233.856 120.201 233.162 118.074C232.468 115.925 231.461 113.988 230.14 112.264L227.99 113.036Z" fill="black"/>
</svg>
