<svg width="337" height="128" viewBox="0 0 337 128" fill="none" xmlns="http://www.w3.org/2000/svg">
<path d="M44.9595 30.7468V74.6587C44.9595 78.3835 43.9992 81.6427 42.0786 84.4363C40.2162 87.2299 37.539 89.3542 34.047 90.8092C30.6132 92.3224 26.6265 93.079 22.0869 93.079C19.7589 93.079 16.6743 92.6425 12.8331 91.7695C8.9919 90.8965 5.9364 89.7034 3.6666 88.1902L7.7697 78.5872C12.4839 80.9152 16.9944 82.0792 21.3012 82.0792C24.2694 82.0792 26.6556 81.3808 28.4598 79.984C30.3222 78.6454 31.2534 76.8412 31.2534 74.5714V72.2143C28.6344 73.3783 26.0445 73.9603 23.4837 73.9603C16.9071 73.9603 11.6691 72.0397 7.7697 68.1985C3.8703 64.3573 1.9206 58.9156 1.9206 51.8734C1.9206 44.8312 3.8994 39.3313 7.857 35.3737C11.8146 31.3579 17.1981 29.35 24.0075 29.35C25.9863 29.35 27.9942 29.7574 30.0312 30.5722C32.0682 31.3288 33.9597 32.4346 35.7057 33.8896L37.9755 30.7468H44.9595ZM24.9678 63.0478C26.8884 63.0478 28.9836 62.233 31.2534 60.6034V42.5323C29.1582 41.0773 26.9466 40.3498 24.6186 40.3498C22.0578 40.3498 19.9917 41.3974 18.4203 43.4926C16.8489 45.5878 16.0632 48.3523 16.0632 51.7861C16.0632 55.2781 16.8489 58.0426 18.4203 60.0796C19.9917 62.0584 22.1742 63.0478 24.9678 63.0478ZM68.375 47.683C70.4702 45.8788 72.8273 44.4238 75.4463 43.318C78.1235 42.154 80.4806 41.572 82.5176 41.572L79.8113 30.6595C77.6579 30.6595 75.2426 31.2997 72.5654 32.5801C69.8882 33.8023 67.5311 35.1991 65.4941 36.7705L61.6529 30.7468H54.6689V73H68.375V47.683ZM132.004 51.8734C132.004 56.413 130.986 60.3415 128.949 63.6589C126.97 66.9763 124.206 69.5371 120.655 71.3413C117.105 73.0873 113.06 73.9603 108.521 73.9603C103.923 73.9603 99.878 73.1164 96.386 71.4286C92.894 69.6826 90.1586 67.1509 88.1798 63.8335C86.2592 60.4579 85.2989 56.413 85.2989 51.6988C85.2989 47.1592 86.2883 43.2016 88.2671 39.826C90.3041 36.4504 93.0686 33.8605 96.5606 32.0563C100.111 30.2521 104.156 29.35 108.695 29.35C113.293 29.35 117.338 30.2521 120.83 32.0563C124.38 33.8023 127.116 36.3631 129.036 39.7387C131.015 43.1143 132.004 47.1592 132.004 51.8734ZM108.608 62.6986C111.402 62.6986 113.642 61.7092 115.33 59.7304C117.018 57.7516 117.862 55.1326 117.862 51.8734C117.862 48.6142 117.018 45.937 115.33 43.8418C113.701 41.7466 111.518 40.699 108.783 40.699C105.931 40.699 103.661 41.7175 101.973 43.7545C100.285 45.7333 99.4415 48.3814 99.4415 51.6988C99.4415 55.0162 100.256 57.6934 101.886 59.7304C103.574 61.7092 105.814 62.6986 108.608 62.6986ZM167.021 59.5558C163.063 62.0584 159.775 63.3097 157.156 63.3097C155.352 63.3097 154.013 62.7277 153.14 61.5637C152.267 60.3415 151.83 58.6828 151.83 56.5876V30.7468H138.124V57.6352C138.124 62.815 139.288 66.9181 141.616 69.9445C144.002 72.9709 147.844 74.4841 153.14 74.4841C155.817 74.4841 158.611 73.9312 161.521 72.8254C164.489 71.7196 167.283 70.3228 169.902 68.635L173.132 73.0873H180.727V30.7468H167.021V59.5558ZM211.098 29.35C217.674 29.35 222.883 31.2706 226.724 35.1118C230.624 38.953 232.573 44.3947 232.573 51.4369C232.573 58.4791 230.595 64.0081 226.637 68.0239C222.738 71.9815 217.383 73.9603 210.574 73.9603C208.479 73.9603 206.267 73.4947 203.939 72.5635V91.2457L190.32 92.1187V30.7468H197.217L199.574 33.3658C203.241 30.6886 207.082 29.35 211.098 29.35ZM209.963 63.0478C212.523 63.0478 214.59 62.0002 216.161 59.905C217.732 57.7516 218.518 54.958 218.518 51.5242C218.518 48.0322 217.732 45.2968 216.161 43.318C214.59 41.3392 212.407 40.3498 209.613 40.3498C207.809 40.3498 205.918 41.0191 203.939 42.3577V61.2145C205.918 62.4367 207.926 63.0478 209.963 63.0478ZM267.705 59.5558C263.748 62.0584 260.46 63.3097 257.841 63.3097C256.036 63.3097 254.698 62.7277 253.825 61.5637C252.952 60.3415 252.515 58.6828 252.515 56.5876V30.7468H238.809V57.6352C238.809 62.815 239.973 66.9181 242.301 69.9445C244.687 72.9709 248.529 74.4841 253.825 74.4841C256.502 74.4841 259.296 73.9312 262.206 72.8254C265.174 71.7196 267.967 70.3228 270.586 68.635L273.816 73.0873H281.412V30.7468H267.705V59.5558ZM311.782 29.35C318.359 29.35 323.568 31.2706 327.409 35.1118C331.309 38.953 333.258 44.3947 333.258 51.4369C333.258 58.4791 331.279 64.0081 327.322 68.0239C323.422 71.9815 318.068 73.9603 311.259 73.9603C309.163 73.9603 306.952 73.4947 304.624 72.5635V91.2457L291.005 92.1187V30.7468H297.902L300.259 33.3658C303.925 30.6886 307.767 29.35 311.782 29.35ZM310.648 63.0478C313.208 63.0478 315.274 62.0002 316.846 59.905C318.417 57.7516 319.203 54.958 319.203 51.5242C319.203 48.0322 318.417 45.2968 316.846 43.318C315.274 41.3392 313.092 40.3498 310.298 40.3498C308.494 40.3498 306.603 41.0191 304.624 42.3577V61.2145C306.603 62.4367 308.611 63.0478 310.648 63.0478Z" fill="#2C2F33"/>
<path d="M95.8121 122L95.4041 119.888H87.6281V114.776H93.4601L93.0521 112.664H87.6281V107.792H94.7801L94.3961 105.68H84.9401V122H95.8121ZM103.241 122L107.729 110.36H104.921L102.089 118.112L99.1373 109.928L96.5213 110.792L100.841 122H103.241ZM119.545 116.096C119.545 114.336 119.105 112.888 118.225 111.752C117.345 110.616 116.049 110.048 114.337 110.048C113.169 110.048 112.153 110.304 111.289 110.816C110.441 111.328 109.785 112.048 109.321 112.976C108.873 113.888 108.649 114.952 108.649 116.168C108.649 118.056 109.201 119.552 110.305 120.656C111.425 121.744 113.041 122.288 115.153 122.288C116.721 122.288 118.153 121.84 119.449 120.944L118.633 118.976C117.945 119.328 117.353 119.592 116.857 119.768C116.377 119.928 115.825 120.008 115.201 120.008C112.961 120.008 111.721 118.968 111.481 116.888H119.545V116.096ZM111.529 115.088C111.641 114.224 111.929 113.552 112.393 113.072C112.873 112.592 113.497 112.352 114.265 112.352C115.017 112.352 115.617 112.584 116.065 113.048C116.513 113.512 116.809 114.192 116.953 115.088H111.529ZM124.268 113.864C125.564 112.792 126.7 112.256 127.676 112.256C128.876 112.256 129.476 113.064 129.476 114.68V122H132.188V114.512C132.188 113.104 131.884 112 131.276 111.2C130.668 110.384 129.684 109.976 128.324 109.976C127.62 109.976 126.868 110.136 126.068 110.456C125.268 110.776 124.532 111.208 123.86 111.752L123.38 110.36H121.58V122H124.268V113.864ZM138.061 110.456V107.072L135.373 107.6V110.456H133.765V112.52H135.373V118.52C135.373 119.784 135.741 120.752 136.477 121.424C137.213 122.096 138.229 122.432 139.525 122.432C139.877 122.432 140.261 122.368 140.677 122.24C141.109 122.128 141.445 121.992 141.685 121.832L140.941 119.84C140.509 120.032 140.109 120.128 139.741 120.128C139.181 120.128 138.757 119.944 138.469 119.576C138.197 119.192 138.061 118.688 138.061 118.064V112.52H140.989L140.173 110.456H138.061ZM157.571 112.808H152.363V107.792H159.083L158.675 105.68H149.675V122H152.363V114.872H157.931L157.571 112.808ZM162.275 108.488C162.723 108.488 163.099 108.336 163.403 108.032C163.723 107.712 163.883 107.328 163.883 106.88C163.883 106.448 163.723 106.08 163.403 105.776C163.099 105.456 162.723 105.296 162.275 105.296C161.843 105.296 161.475 105.456 161.171 105.776C160.867 106.08 160.715 106.448 160.715 106.88C160.715 107.328 160.859 107.712 161.146 108.032C161.451 108.336 161.827 108.488 162.275 108.488ZM163.667 122V110.36H160.955V122H163.667ZM169.103 113.864C170.399 112.792 171.535 112.256 172.511 112.256C173.711 112.256 174.311 113.064 174.311 114.68V122H177.023V114.512C177.023 113.104 176.719 112 176.111 111.2C175.503 110.384 174.519 109.976 173.159 109.976C172.455 109.976 171.703 110.136 170.903 110.456C170.103 110.776 169.367 111.208 168.695 111.752L168.215 110.36H166.415V122H169.103V113.864ZM190.049 105.08V122H188.585L188.009 121.04C187.513 121.44 186.977 121.752 186.401 121.976C185.841 122.2 185.297 122.312 184.769 122.312C183.585 122.312 182.553 122.056 181.673 121.544C180.809 121.032 180.137 120.312 179.657 119.384C179.193 118.456 178.961 117.376 178.961 116.144C178.961 114.928 179.193 113.864 179.657 112.952C180.137 112.024 180.817 111.312 181.697 110.816C182.593 110.304 183.633 110.048 184.817 110.048C185.185 110.048 185.593 110.12 186.041 110.264C186.489 110.392 186.921 110.584 187.337 110.84V105.32L190.049 105.08ZM181.721 116.12C181.721 117.288 181.993 118.224 182.537 118.928C183.097 119.632 183.857 119.984 184.817 119.984C185.297 119.984 185.737 119.912 186.137 119.768C186.537 119.608 186.937 119.36 187.337 119.024V113.312C186.953 112.976 186.561 112.736 186.161 112.592C185.761 112.432 185.313 112.352 184.817 112.352C183.857 112.352 183.097 112.704 182.537 113.408C181.993 114.112 181.721 115.016 181.721 116.12ZM203.24 116.096C203.24 114.336 202.8 112.888 201.92 111.752C201.04 110.616 199.744 110.048 198.032 110.048C196.864 110.048 195.848 110.304 194.984 110.816C194.136 111.328 193.48 112.048 193.016 112.976C192.568 113.888 192.344 114.952 192.344 116.168C192.344 118.056 192.896 119.552 194 120.656C195.12 121.744 196.736 122.288 198.848 122.288C200.416 122.288 201.848 121.84 203.144 120.944L202.328 118.976C201.64 119.328 201.048 119.592 200.552 119.768C200.072 119.928 199.52 120.008 198.896 120.008C196.656 120.008 195.416 118.968 195.176 116.888H203.24V116.096ZM195.224 115.088C195.336 114.224 195.624 113.552 196.088 113.072C196.568 112.592 197.192 112.352 197.96 112.352C198.712 112.352 199.312 112.584 199.76 113.048C200.208 113.512 200.504 114.192 200.648 115.088H195.224ZM207.963 114.584C208.603 114.008 209.307 113.52 210.075 113.12C210.843 112.72 211.515 112.52 212.091 112.52L211.539 110.36C210.979 110.36 210.323 110.56 209.571 110.96C208.835 111.36 208.179 111.8 207.603 112.28L206.715 110.36H205.275V122H207.963V114.584ZM219.893 112.52V122H222.605V112.52H225.629L224.765 110.456H222.605V109.568C222.605 108.928 222.733 108.424 222.989 108.056C223.245 107.688 223.645 107.504 224.189 107.504C224.477 107.504 224.877 107.6 225.389 107.792L226.133 105.776C225.909 105.6 225.581 105.456 225.149 105.344C224.733 105.216 224.349 105.152 223.997 105.152C222.717 105.152 221.709 105.52 220.973 106.256C220.253 106.976 219.893 107.968 219.893 109.232V110.456H218.117V112.52H219.893ZM238.821 116.168C238.821 117.384 238.573 118.456 238.077 119.384C237.581 120.312 236.877 121.032 235.965 121.544C235.053 122.056 233.989 122.312 232.773 122.312C231.557 122.312 230.501 122.056 229.605 121.544C228.709 121.032 228.013 120.32 227.517 119.408C227.037 118.48 226.797 117.4 226.797 116.168C226.797 114.952 227.037 113.888 227.517 112.976C228.013 112.048 228.717 111.328 229.629 110.816C230.541 110.304 231.605 110.048 232.821 110.048C234.037 110.048 235.093 110.304 235.989 110.816C236.901 111.312 237.597 112.024 238.077 112.952C238.573 113.88 238.821 114.952 238.821 116.168ZM232.773 119.984C233.749 119.984 234.533 119.624 235.125 118.904C235.733 118.184 236.037 117.28 236.037 116.192C236.037 115.056 235.741 114.136 235.149 113.432C234.573 112.712 233.797 112.352 232.821 112.352C231.861 112.352 231.077 112.712 230.469 113.432C229.877 114.152 229.573 115.064 229.557 116.168C229.557 117.304 229.845 118.224 230.421 118.928C231.013 119.632 231.797 119.984 232.773 119.984ZM243.541 114.584C244.181 114.008 244.885 113.52 245.653 113.12C246.421 112.72 247.093 112.52 247.669 112.52L247.117 110.36C246.557 110.36 245.901 110.56 245.149 110.96C244.413 111.36 243.757 111.8 243.181 112.28L242.293 110.36H240.853V122H243.541V114.584ZM259.839 105.68L253.599 122H256.263L257.823 117.896H264.231L265.839 122.216L268.503 121.832L262.215 105.68H259.839ZM263.415 115.712H258.591L260.967 109.352L263.415 115.712ZM272.814 113.864C274.11 112.792 275.246 112.256 276.222 112.256C277.422 112.256 278.022 113.064 278.022 114.68V122H280.734V114.512C280.734 113.104 280.43 112 279.822 111.2C279.214 110.384 278.23 109.976 276.87 109.976C276.166 109.976 275.414 110.136 274.614 110.456C273.814 110.776 273.078 111.208 272.406 111.752L271.926 110.36H270.126V122H272.814V113.864ZM293.76 105.08V122H292.296L291.72 121.04C291.224 121.44 290.688 121.752 290.112 121.976C289.552 122.2 289.008 122.312 288.48 122.312C287.296 122.312 286.264 122.056 285.384 121.544C284.52 121.032 283.848 120.312 283.368 119.384C282.904 118.456 282.672 117.376 282.672 116.144C282.672 114.928 282.904 113.864 283.368 112.952C283.848 112.024 284.528 111.312 285.408 110.816C286.304 110.304 287.344 110.048 288.528 110.048C288.896 110.048 289.304 110.12 289.752 110.264C290.2 110.392 290.632 110.584 291.048 110.84V105.32L293.76 105.08ZM285.432 116.12C285.432 117.288 285.704 118.224 286.248 118.928C286.808 119.632 287.568 119.984 288.528 119.984C289.008 119.984 289.448 119.912 289.848 119.768C290.248 119.608 290.648 119.36 291.048 119.024V113.312C290.664 112.976 290.272 112.736 289.872 112.592C289.472 112.432 289.024 112.352 288.528 112.352C287.568 112.352 286.808 112.704 286.248 113.408C285.704 114.112 285.432 115.016 285.432 116.12ZM299.463 114.584C300.103 114.008 300.807 113.52 301.575 113.12C302.343 112.72 303.015 112.52 303.591 112.52L303.039 110.36C302.479 110.36 301.823 110.56 301.071 110.96C300.335 111.36 299.679 111.8 299.103 112.28L298.215 110.36H296.775V122H299.463V114.584ZM316.516 116.168C316.516 117.384 316.268 118.456 315.772 119.384C315.276 120.312 314.572 121.032 313.66 121.544C312.748 122.056 311.684 122.312 310.468 122.312C309.252 122.312 308.196 122.056 307.3 121.544C306.404 121.032 305.708 120.32 305.212 119.408C304.732 118.48 304.492 117.4 304.492 116.168C304.492 114.952 304.732 113.888 305.212 112.976C305.708 112.048 306.412 111.328 307.324 110.816C308.236 110.304 309.3 110.048 310.516 110.048C311.732 110.048 312.788 110.304 313.684 110.816C314.596 111.312 315.292 112.024 315.772 112.952C316.268 113.88 316.516 114.952 316.516 116.168ZM310.468 119.984C311.444 119.984 312.228 119.624 312.82 118.904C313.428 118.184 313.732 117.28 313.732 116.192C313.732 115.056 313.436 114.136 312.844 113.432C312.268 112.712 311.492 112.352 310.516 112.352C309.556 112.352 308.772 112.712 308.164 113.432C307.572 114.152 307.268 115.064 307.252 116.168C307.252 117.304 307.54 118.224 308.116 118.928C308.708 119.632 309.492 119.984 310.468 119.984ZM319.868 108.488C320.316 108.488 320.692 108.336 320.996 108.032C321.316 107.712 321.476 107.328 321.476 106.88C321.476 106.448 321.316 106.08 320.996 105.776C320.692 105.456 320.316 105.296 319.868 105.296C319.436 105.296 319.068 105.456 318.764 105.776C318.46 106.08 318.308 106.448 318.308 106.88C318.308 107.328 318.452 107.712 318.74 108.032C319.044 108.336 319.42 108.488 319.868 108.488ZM321.26 122V110.36H318.548V122H321.26ZM334.377 105.08V122H332.913L332.337 121.04C331.841 121.44 331.305 121.752 330.729 121.976C330.169 122.2 329.625 122.312 329.097 122.312C327.913 122.312 326.881 122.056 326.001 121.544C325.137 121.032 324.465 120.312 323.985 119.384C323.521 118.456 323.289 117.376 323.289 116.144C323.289 114.928 323.521 113.864 323.985 112.952C324.465 112.024 325.145 111.312 326.025 110.816C326.921 110.304 327.961 110.048 329.145 110.048C329.513 110.048 329.921 110.12 330.369 110.264C330.817 110.392 331.249 110.584 331.665 110.84V105.32L334.377 105.08ZM326.049 116.12C326.049 117.288 326.321 118.224 326.865 118.928C327.425 119.632 328.185 119.984 329.145 119.984C329.625 119.984 330.065 119.912 330.465 119.768C330.865 119.608 331.265 119.36 331.665 119.024V113.312C331.281 112.976 330.889 112.736 330.489 112.592C330.089 112.432 329.641 112.352 329.145 112.352C328.185 112.352 327.425 112.704 326.865 113.408C326.321 114.112 326.049 115.016 326.049 116.12Z" fill="#5A5F66"/>
</svg>
