<svg width="292" height="156" viewBox="0 0 292 156" fill="none" xmlns="http://www.w3.org/2000/svg">
<path d="M115.314 29.5148C119.006 -1.00659 153.114 -2.80663 165.452 2.05232C177.791 6.91127 180.604 11.4112 166.695 12.85C148.15 14.7684 137.633 21.7783 136.035 26.6372C134.437 31.4962 135.428 37.8571 140.577 42.1761C145.725 46.4952 153.922 40.1618 149.096 36.421C146.506 34.413 145.402 32.5997 144.267 30.6658C143.822 29.4828 143.785 28.6499 144.267 26.6372C145.078 23.2431 150.55 21.8861 155.632 21.8092C159.144 21.756 163.243 23.1272 164.715 24.0474C168.315 26.2988 170.684 28.3347 172.936 31.8168C176.562 37.4259 176.746 44.8327 173.798 50.8088C164.656 69.3449 110.698 67.6665 115.314 29.5148Z" fill="#FF4135"/>
<path d="M41.9112 82.8596V120.08C41.9112 123.237 41.0972 125.999 39.4693 128.367C37.8907 130.735 35.6215 132.536 32.6617 133.769C29.7512 135.052 26.372 135.693 22.5242 135.693C20.551 135.693 17.9364 135.323 14.6806 134.583C11.4248 133.843 8.83493 132.832 6.91103 131.549L10.3888 123.409C14.3846 125.383 18.2078 126.369 21.8582 126.369C24.3741 126.369 26.3967 125.777 27.9259 124.593C29.5045 123.459 30.2938 121.93 30.2938 120.006V118.008C28.0739 118.994 25.8787 119.488 23.7081 119.488C18.1338 119.488 13.694 117.86 10.3888 114.604C7.08369 111.348 5.43111 106.736 5.43111 100.767C5.43111 94.7976 7.10835 90.1359 10.4628 86.7814C13.8173 83.3776 18.3804 81.6757 24.1521 81.6757C25.8294 81.6757 27.5313 82.021 29.2578 82.7116C30.9844 83.3529 32.5877 84.2902 34.0676 85.5235L35.9915 82.8596H41.9112ZM24.9661 110.238C26.594 110.238 28.3699 109.548 30.2938 108.166V92.8491C28.5179 91.6158 26.6433 90.9992 24.6701 90.9992C22.4995 90.9992 20.7483 91.8871 19.4164 93.663C18.0844 95.4389 17.4185 97.7821 17.4185 100.693C17.4185 103.652 18.0844 105.996 19.4164 107.722C20.7483 109.4 22.5982 110.238 24.9661 110.238ZM61.7583 97.2148C63.5342 95.6856 65.5321 94.4523 67.752 93.515C70.0212 92.5284 72.0191 92.0351 73.7457 92.0351L71.4518 82.7856C69.6266 82.7856 67.5793 83.3282 65.3101 84.4135C63.0409 85.4495 61.043 86.6334 59.3164 87.9653L56.0606 82.8596H50.1409V118.674H61.7583V97.2148ZM115.691 100.767C115.691 104.614 114.828 107.944 113.101 110.756C111.424 113.568 109.081 115.739 106.072 117.268C103.062 118.748 99.6339 119.488 95.7861 119.488C91.889 119.488 88.4605 118.772 85.5007 117.342C82.5408 115.862 80.2223 113.716 78.545 110.904C76.9171 108.043 76.1031 104.614 76.1031 100.619C76.1031 96.7709 76.9418 93.4164 78.619 90.5552C80.3456 87.694 82.6888 85.4988 85.6486 83.9695C88.6578 82.4403 92.0863 81.6757 95.9341 81.6757C99.8312 81.6757 103.26 82.4403 106.22 83.9695C109.229 85.4495 111.547 87.62 113.175 90.4812C114.852 93.3424 115.691 96.7709 115.691 100.767ZM95.8601 109.942C98.228 109.942 100.127 109.104 101.558 107.426C102.988 105.749 103.704 103.529 103.704 100.767C103.704 98.0041 102.988 95.7349 101.558 93.959C100.177 92.1831 98.3266 91.2952 96.0081 91.2952C93.5909 91.2952 91.667 92.1584 90.2364 93.885C88.8058 95.5623 88.0905 97.8068 88.0905 100.619C88.0905 103.431 88.7811 105.7 90.1624 107.426C91.593 109.104 93.4922 109.942 95.8601 109.942ZM145.371 107.278C142.017 109.4 139.229 110.46 137.009 110.46C135.48 110.46 134.346 109.967 133.606 108.98C132.866 107.944 132.496 106.538 132.496 104.762V82.8596H120.878V105.65C120.878 110.041 121.865 113.519 123.838 116.084C125.861 118.649 129.117 119.932 133.606 119.932C135.875 119.932 138.243 119.463 140.709 118.526C143.225 117.588 145.593 116.404 147.813 114.974L150.551 118.748H156.988V82.8596H145.371V107.278ZM182.731 81.6757C188.305 81.6757 192.72 83.3036 195.976 86.5594C199.281 89.8152 200.934 94.4277 200.934 100.397C200.934 106.366 199.257 111.052 195.902 114.456C192.597 117.81 188.059 119.488 182.287 119.488C180.511 119.488 178.636 119.093 176.663 118.304V134.139L165.12 134.879V82.8596H170.966L172.963 85.0795C176.071 82.8103 179.327 81.6757 182.731 81.6757ZM181.769 110.238C183.94 110.238 185.691 109.35 187.023 107.574C188.355 105.749 189.021 103.381 189.021 100.471C189.021 97.5108 188.355 95.1923 187.023 93.515C185.691 91.8378 183.841 90.9992 181.473 90.9992C179.944 90.9992 178.341 91.5665 176.663 92.7011V108.684C178.341 109.72 180.042 110.238 181.769 110.238ZM230.712 107.278C227.358 109.4 224.571 110.46 222.351 110.46C220.821 110.46 219.687 109.967 218.947 108.98C218.207 107.944 217.837 106.538 217.837 104.762V82.8596H206.219V105.65C206.219 110.041 207.206 113.519 209.179 116.084C211.202 118.649 214.458 119.932 218.947 119.932C221.216 119.932 223.584 119.463 226.05 118.526C228.566 117.588 230.934 116.404 233.154 114.974L235.892 118.748H242.33V82.8596H230.712V107.278ZM268.072 81.6757C273.646 81.6757 278.062 83.3036 281.317 86.5594C284.623 89.8152 286.275 94.4277 286.275 100.397C286.275 106.366 284.598 111.052 281.243 114.456C277.938 117.81 273.4 119.488 267.628 119.488C265.852 119.488 263.978 119.093 262.004 118.304V134.139L250.461 134.879V82.8596H256.307L258.305 85.0795C261.412 82.8103 264.668 81.6757 268.072 81.6757ZM267.11 110.238C269.281 110.238 271.032 109.35 272.364 107.574C273.696 105.749 274.362 103.381 274.362 100.471C274.362 97.5108 273.696 95.1923 272.364 93.515C271.032 91.8378 269.182 90.9992 266.814 90.9992C265.285 90.9992 263.682 91.5665 262.004 92.7011V108.684C263.682 109.72 265.384 110.238 267.11 110.238Z" fill="#2C2F33"/>
</svg>
