<svg width="371" height="186" viewBox="0 0 371 186" fill="none" xmlns="http://www.w3.org/2000/svg">
<path d="M19.2271 20.2168H5.66729L2.74672 26.7185H0.0695373L11.1955 2.38044H13.7336L24.8596 26.7185H22.1476L19.2271 20.2168ZM18.2883 18.1306L12.4472 5.05763L6.60605 18.1306H18.2883ZM34.7616 8.29111C37.149 8.29111 38.9802 8.89377 40.255 10.0991C41.5299 11.2812 42.1673 13.0428 42.1673 15.3839V26.7185H39.8031V23.8675C39.2468 24.8178 38.4239 25.5596 37.3345 26.0927C36.2682 26.6258 34.9934 26.8923 33.5099 26.8923C31.4702 26.8923 29.8476 26.4056 28.6423 25.4321C27.437 24.4585 26.8343 23.1721 26.8343 21.5727C26.8343 20.0197 27.3906 18.7681 28.5032 17.8177C29.639 16.8674 31.4354 16.3922 33.8924 16.3922H39.6987V15.2796C39.6987 13.7034 39.2583 12.5097 38.3775 11.6984C37.4967 10.864 36.2103 10.4468 34.5182 10.4468C33.3593 10.4468 32.2467 10.6438 31.1804 11.0378C30.1142 11.4087 29.1986 11.9302 28.4337 12.6024L27.3211 10.7597C28.2483 9.9716 29.3609 9.36894 30.6589 8.95172C31.9569 8.51132 33.3245 8.29111 34.7616 8.29111ZM33.8924 24.9453C35.2831 24.9453 36.4769 24.6324 37.4736 24.0066C38.4703 23.3575 39.212 22.4304 39.6987 21.2251V18.235H33.9619C30.8327 18.235 29.2682 19.3244 29.2682 21.5032C29.2682 22.5694 29.6738 23.4155 30.4851 24.0413C31.2963 24.644 32.4321 24.9453 33.8924 24.9453ZM73.8264 14.167C75.4257 14.5147 76.6542 15.2101 77.5118 16.2531C78.3926 17.273 78.8331 18.5942 78.8331 20.2168C78.8331 22.3029 78.0566 23.9138 76.5035 25.0496C74.9737 26.1622 72.7022 26.7185 69.6889 26.7185H58.4934V2.38044H68.9935C71.7055 2.38044 73.8032 2.92515 75.2866 4.01457C76.7933 5.10399 77.5466 6.6454 77.5466 8.6388C77.5466 9.98319 77.2105 11.1306 76.5383 12.0809C75.8893 13.0081 74.9853 13.7034 73.8264 14.167ZM61.0663 4.50133V13.3326H68.8197C70.7899 13.3326 72.3081 12.9617 73.3744 12.22C74.4406 11.4551 74.9737 10.3541 74.9737 8.91695C74.9737 7.47985 74.4406 6.39043 73.3744 5.6487C72.3081 4.88379 70.7899 4.50133 68.8197 4.50133H61.0663ZM69.6541 24.5976C71.833 24.5976 73.4787 24.2268 74.5913 23.485C75.7039 22.7433 76.2602 21.5843 76.2602 20.0082C76.2602 16.9717 74.0582 15.4535 69.6541 15.4535H61.0663V24.5976H69.6541ZM93.6065 8.29111C95.3217 8.29111 96.8747 8.68516 98.2655 9.47325C99.6562 10.2382 100.746 11.3276 101.534 12.7415C102.322 14.1554 102.716 15.7664 102.716 17.5743C102.716 19.3823 102.322 20.9933 101.534 22.4072C100.746 23.8211 99.6562 24.9221 98.2655 25.7102C96.8747 26.4983 95.3217 26.8923 93.6065 26.8923C92.0766 26.8923 90.6975 26.5678 89.469 25.9188C88.2637 25.2698 87.2902 24.3311 86.5484 23.1026V26.7185H84.1842V0.920158H86.6527V11.9071C87.4176 10.7249 88.3912 9.83253 89.5733 9.22987C90.7786 8.60403 92.123 8.29111 93.6065 8.29111ZM93.4326 24.7019C94.7075 24.7019 95.8664 24.4122 96.9095 23.8327C97.9526 23.23 98.7638 22.384 99.3433 21.2946C99.946 20.2052 100.247 18.9651 100.247 17.5743C100.247 16.1836 99.946 14.9435 99.3433 13.8541C98.7638 12.7647 97.9526 11.9302 96.9095 11.3508C95.8664 10.7481 94.7075 10.4468 93.4326 10.4468C92.1346 10.4468 90.9641 10.7481 89.921 11.3508C88.9011 11.9302 88.0898 12.7647 87.4872 13.8541C86.9077 14.9435 86.618 16.1836 86.618 17.5743C86.618 18.9651 86.9077 20.2052 87.4872 21.2946C88.0898 22.384 88.9011 23.23 89.921 23.8327C90.9641 24.4122 92.1346 24.7019 93.4326 24.7019ZM127.939 26.9271C125.528 26.9271 123.349 26.394 121.402 25.3278C119.479 24.2615 117.96 22.7896 116.848 20.9121C115.758 19.0115 115.214 16.8906 115.214 14.5495C115.214 12.2084 115.758 10.0991 116.848 8.22158C117.96 6.32089 119.49 4.83743 121.437 3.77119C123.384 2.70495 125.563 2.17183 127.974 2.17183C129.782 2.17183 131.451 2.47316 132.98 3.07582C134.51 3.67847 135.808 4.55928 136.874 5.71823L135.24 7.35236C133.34 5.42849 130.941 4.46656 128.043 4.46656C126.119 4.46656 124.369 4.90696 122.793 5.78777C121.217 6.66858 119.977 7.87389 119.073 9.40371C118.192 10.9335 117.752 12.6488 117.752 14.5495C117.752 16.4502 118.192 18.1654 119.073 19.6952C119.977 21.2251 121.217 22.4304 122.793 23.3112C124.369 24.192 126.119 24.6324 128.043 24.6324C130.964 24.6324 133.363 23.6589 135.24 21.7118L136.874 23.3459C135.808 24.5049 134.499 25.3973 132.946 26.0231C131.416 26.6258 129.747 26.9271 127.939 26.9271ZM148.602 26.8923C146.794 26.8923 145.172 26.4983 143.735 25.7102C142.321 24.9221 141.208 23.8211 140.397 22.4072C139.586 20.9701 139.18 19.3591 139.18 17.5743C139.18 15.7896 139.586 14.1902 140.397 12.7763C141.208 11.3623 142.321 10.2613 143.735 9.47325C145.172 8.68516 146.794 8.29111 148.602 8.29111C150.179 8.29111 151.581 8.60403 152.809 9.22987C154.061 9.83253 155.046 10.7249 155.765 11.9071L153.922 13.1587C153.319 12.2547 152.554 11.5825 151.627 11.1421C150.7 10.6786 149.692 10.4468 148.602 10.4468C147.281 10.4468 146.087 10.7481 145.021 11.3508C143.978 11.9302 143.155 12.7647 142.553 13.8541C141.973 14.9435 141.683 16.1836 141.683 17.5743C141.683 18.9883 141.973 20.2399 142.553 21.3294C143.155 22.3956 143.978 23.23 145.021 23.8327C146.087 24.4122 147.281 24.7019 148.602 24.7019C149.692 24.7019 150.7 24.4817 151.627 24.0413C152.554 23.6009 153.319 22.9287 153.922 22.0247L155.765 23.2764C155.046 24.4585 154.061 25.3625 152.809 25.9884C151.558 26.591 150.155 26.8923 148.602 26.8923ZM170.235 2.38044H180.144C182.717 2.38044 184.989 2.90197 186.959 3.94503C188.929 4.96491 190.459 6.40202 191.548 8.25635C192.638 10.0875 193.183 12.1852 193.183 14.5495C193.183 16.9137 192.638 19.023 191.548 20.8774C190.459 22.7085 188.929 24.1456 186.959 25.1887C184.989 26.2086 182.717 26.7185 180.144 26.7185H170.235V2.38044ZM180.005 24.4933C182.138 24.4933 184.004 24.0761 185.603 23.2416C187.202 22.384 188.442 21.2135 189.323 19.73C190.204 18.2234 190.644 16.4965 190.644 14.5495C190.644 12.6024 190.204 10.8872 189.323 9.40371C188.442 7.89707 187.202 6.72652 185.603 5.89208C184.004 5.03445 182.138 4.60564 180.005 4.60564H172.808V24.4933H180.005ZM215.128 0.920158V26.7185H212.763V23.1026C212.022 24.3311 211.036 25.2698 209.808 25.9188C208.603 26.5678 207.235 26.8923 205.705 26.8923C203.99 26.8923 202.437 26.4983 201.046 25.7102C199.656 24.9221 198.566 23.8211 197.778 22.4072C196.99 20.9933 196.596 19.3823 196.596 17.5743C196.596 15.7664 196.99 14.1554 197.778 12.7415C198.566 11.3276 199.656 10.2382 201.046 9.47325C202.437 8.68516 203.99 8.29111 205.705 8.29111C207.189 8.29111 208.522 8.60403 209.704 9.22987C210.909 9.83253 211.894 10.7249 212.659 11.9071V0.920158H215.128ZM205.914 24.7019C207.189 24.7019 208.336 24.4122 209.356 23.8327C210.399 23.23 211.21 22.384 211.79 21.2946C212.392 20.2052 212.694 18.9651 212.694 17.5743C212.694 16.1836 212.392 14.9435 211.79 13.8541C211.21 12.7647 210.399 11.9302 209.356 11.3508C208.336 10.7481 207.189 10.4468 205.914 10.4468C204.616 10.4468 203.445 10.7481 202.402 11.3508C201.382 11.9302 200.571 12.7647 199.968 13.8541C199.389 14.9435 199.099 16.1836 199.099 17.5743C199.099 18.9651 199.389 20.2052 199.968 21.2946C200.571 22.384 201.382 23.23 202.402 23.8327C203.445 24.4122 204.616 24.7019 205.914 24.7019ZM248.834 24.4933V26.7185H231.624V2.38044H248.313V4.60564H234.197V13.263H246.783V15.4535H234.197V24.4933H248.834ZM270.013 18.3393H254.715C254.854 20.2399 255.584 21.7814 256.905 22.9635C258.226 24.1224 259.895 24.7019 261.912 24.7019C263.048 24.7019 264.091 24.5049 265.041 24.1109C265.991 23.6936 266.814 23.091 267.51 22.3029L268.9 23.9022C268.089 24.8758 267.069 25.6175 265.841 26.1274C264.635 26.6374 263.303 26.8923 261.842 26.8923C259.965 26.8923 258.296 26.4983 256.836 25.7102C255.398 24.8989 254.274 23.7863 253.463 22.3724C252.652 20.9585 252.246 19.3591 252.246 17.5743C252.246 15.7896 252.629 14.1902 253.393 12.7763C254.182 11.3623 255.248 10.2613 256.592 9.47325C257.96 8.68516 259.49 8.29111 261.182 8.29111C262.874 8.29111 264.392 8.68516 265.736 9.47325C267.081 10.2613 268.135 11.3623 268.9 12.7763C269.665 14.167 270.048 15.7664 270.048 17.5743L270.013 18.3393ZM261.182 10.412C259.42 10.412 257.937 10.9799 256.731 12.1157C255.549 13.2283 254.877 14.6885 254.715 16.4965H267.683C267.521 14.6885 266.837 13.2283 265.632 12.1157C264.45 10.9799 262.966 10.412 261.182 10.412ZM287.266 4.60564V14.167H299.853V16.3922H287.266V26.7185H284.693V2.38044H301.382V4.60564H287.266ZM312.224 2.83243C311.157 2.83243 310.346 3.12217 309.79 3.70165C309.257 4.28113 308.99 5.13876 308.99 6.27453V8.43019H314.623V10.5163H309.06V26.7185H306.591V10.5163H303.323V8.43019H306.591V6.17023C306.591 4.50133 307.066 3.18012 308.017 2.2066C308.99 1.23308 310.358 0.746314 312.119 0.746314C312.815 0.746314 313.487 0.85062 314.136 1.05923C314.785 1.24467 315.33 1.52281 315.77 1.89368L314.936 3.73642C314.217 3.13376 313.313 2.83243 312.224 2.83243ZM344.718 14.5495H347.187V23.8327C346.051 24.8294 344.706 25.5943 343.153 26.1274C341.6 26.6606 339.966 26.9271 338.251 26.9271C335.817 26.9271 333.627 26.394 331.68 25.3278C329.733 24.2615 328.203 22.7896 327.09 20.9121C325.978 19.0115 325.421 16.8906 325.421 14.5495C325.421 12.2084 325.978 10.0991 327.09 8.22158C328.203 6.32089 329.733 4.83743 331.68 3.77119C333.627 2.70495 335.829 2.17183 338.286 2.17183C340.14 2.17183 341.844 2.47316 343.397 3.07582C344.95 3.65529 346.259 4.52451 347.326 5.68346L345.726 7.31759C343.802 5.4169 341.357 4.46656 338.39 4.46656C336.42 4.46656 334.635 4.90696 333.036 5.78777C331.46 6.6454 330.219 7.85071 329.315 9.40371C328.411 10.9335 327.959 12.6488 327.959 14.5495C327.959 16.4502 328.411 18.1654 329.315 19.6952C330.219 21.2251 331.46 22.4304 333.036 23.3112C334.612 24.192 336.385 24.6324 338.355 24.6324C340.859 24.6324 342.98 24.0066 344.718 22.7549V14.5495ZM370.879 8.43019V24.4933C370.879 27.5993 370.114 29.894 368.584 31.3775C367.078 32.8841 364.795 33.6375 361.735 33.6375C360.043 33.6375 358.432 33.3825 356.902 32.8726C355.396 32.3858 354.167 31.702 353.217 30.8212L354.468 28.9437C355.349 29.7318 356.415 30.346 357.667 30.7864C358.942 31.2268 360.275 31.447 361.666 31.447C363.983 31.447 365.687 30.9023 366.776 29.8129C367.866 28.7467 368.411 27.0778 368.411 24.8062V22.4767C367.646 23.6357 366.637 24.5165 365.386 25.1191C364.157 25.7218 362.79 26.0231 361.283 26.0231C359.568 26.0231 358.003 25.6523 356.589 24.9105C355.199 24.1456 354.098 23.091 353.286 21.7466C352.498 20.379 352.104 18.8376 352.104 17.1224C352.104 15.4071 352.498 13.8773 353.286 12.5329C354.098 11.1885 355.199 10.1454 356.589 9.40371C357.98 8.66198 359.545 8.29111 361.283 8.29111C362.836 8.29111 364.238 8.60403 365.49 9.22987C366.742 9.8557 367.75 10.7597 368.515 11.9418V8.43019H370.879ZM361.526 23.8327C362.848 23.8327 364.041 23.5546 365.108 22.9983C366.174 22.4188 366.997 21.6191 367.576 20.5992C368.179 19.5793 368.48 18.4204 368.48 17.1224C368.48 15.8243 368.179 14.677 367.576 13.6803C366.997 12.6604 366.174 11.8723 365.108 11.316C364.065 10.7365 362.871 10.4468 361.526 10.4468C360.205 10.4468 359.011 10.7249 357.945 11.2812C356.902 11.8375 356.079 12.6256 355.477 13.6455C354.897 14.6654 354.607 15.8243 354.607 17.1224C354.607 18.4204 354.897 19.5793 355.477 20.5992C356.079 21.6191 356.902 22.4188 357.945 22.9983C359.011 23.5546 360.205 23.8327 361.526 23.8327ZM24.3033 40.3804V64.7185H21.7652V53.4882H6.53651V64.7185H3.96363V40.3804H6.53651V51.2283H21.7652V40.3804H24.3033ZM41.0436 46.2911C43.3383 46.2911 45.1579 46.9633 46.5023 48.3077C47.8698 49.6289 48.5536 51.5644 48.5536 54.1141V64.7185H46.085V54.3574C46.085 52.4568 45.6099 51.0081 44.6595 50.0114C43.7092 49.0147 42.3532 48.5163 40.5916 48.5163C38.6214 48.5163 37.0568 49.1074 35.8978 50.2895C34.7621 51.4485 34.1942 53.0594 34.1942 55.1224V64.7185H31.7256V38.9202H34.1942V49.6289C34.8664 48.5627 35.7935 47.7398 36.9757 47.1603C38.1578 46.5809 39.5138 46.2911 41.0436 46.2911ZM64.8767 40.3804H67.4496V64.7185H64.8767V40.3804ZM74.8469 46.4302H77.3155V64.7185H74.8469V46.4302ZM76.0985 42.4318C75.5886 42.4318 75.1598 42.2579 74.8121 41.9103C74.4644 41.5626 74.2906 41.1454 74.2906 40.6586C74.2906 40.195 74.4644 39.7894 74.8121 39.4417C75.1598 39.094 75.5886 38.9202 76.0985 38.9202C76.6085 38.9202 77.0373 39.094 77.385 39.4417C77.7327 39.7662 77.9065 40.1602 77.9065 40.6238C77.9065 41.1338 77.7327 41.5626 77.385 41.9103C77.0373 42.2579 76.6085 42.4318 76.0985 42.4318ZM96.413 64.9271C95.0222 64.9271 93.7358 64.6258 92.5536 64.0231C91.3715 63.4205 90.4096 62.5628 89.6678 61.4503L91.1977 59.7118C92.542 61.7052 94.2921 62.7019 96.4477 62.7019C99.461 62.7019 100.968 60.9171 100.968 57.3475V42.6056H92.0669V40.3804H103.506V57.2432C103.506 59.7929 102.903 61.7168 101.698 63.0148C100.516 64.2897 98.754 64.9271 96.413 64.9271ZM107.82 71.6375C107.055 71.6375 106.337 71.5332 105.665 71.3246C104.969 71.1391 104.401 70.8494 103.961 70.4553L104.83 68.5778C105.549 69.2037 106.499 69.5166 107.681 69.5166C108.655 69.5166 109.397 69.2268 109.906 68.6474C110.44 68.0679 110.706 67.2103 110.706 66.0745V46.4302H113.175V66.0745C113.175 67.7897 112.711 69.1457 111.784 70.1424C110.857 71.1391 109.536 71.6375 107.82 71.6375ZM111.958 42.397C111.448 42.397 111.019 42.2232 110.671 41.8755C110.324 41.5278 110.15 41.1106 110.15 40.6238C110.15 40.1602 110.324 39.7546 110.671 39.4069C111.019 39.0592 111.448 38.8854 111.958 38.8854C112.468 38.8854 112.897 39.0592 113.244 39.4069C113.592 39.7314 113.766 40.1255 113.766 40.5891C113.766 41.099 113.592 41.5278 113.244 41.8755C112.897 42.2232 112.468 42.397 111.958 42.397ZM137.239 53.2796L132.267 58.3211V64.7185H129.694V40.3804H132.267V55.0876L146.557 40.3804H149.513L138.978 51.4021L150.243 64.7185H147.183L137.239 53.2796ZM160.671 55.5396L156.36 59.5032V64.7185H153.891V38.9202H156.36V56.4088L167.277 46.4302H170.337L162.514 53.9055L171.067 64.7185H168.042L160.671 55.5396ZM184.394 40.3804H186.967V62.4933H200.596V64.7185H184.394V40.3804ZM204.347 38.9202H206.815V64.7185H204.347V38.9202ZM248.582 40.3804V64.7185H246.113V45.2481L236.552 61.6241H235.335L225.774 45.3524V64.7185H223.305V40.3804H225.426L235.996 58.4254L246.461 40.3804H248.582ZM278.798 46.2911C281.093 46.2911 282.89 46.9517 284.188 48.2729C285.509 49.5941 286.169 51.5412 286.169 54.1141V64.7185H283.701V54.3574C283.701 52.4568 283.237 51.0081 282.31 50.0114C281.406 49.0147 280.12 48.5163 278.451 48.5163C276.55 48.5163 275.055 49.1074 273.966 50.2895C272.876 51.4485 272.332 53.0594 272.332 55.1224V64.7185H269.863V54.3574C269.863 52.4568 269.399 51.0081 268.472 50.0114C267.568 49.0147 266.27 48.5163 264.578 48.5163C262.701 48.5163 261.206 49.1074 260.093 50.2895C259.004 51.4485 258.459 53.0594 258.459 55.1224V64.7185H255.99V46.4302H258.355V49.768C259.004 48.6554 259.908 47.7978 261.066 47.1951C262.225 46.5924 263.558 46.2911 265.065 46.2911C266.595 46.2911 267.916 46.6156 269.028 47.2646C270.164 47.9137 271.01 48.8756 271.567 50.1504C272.239 48.9451 273.201 48.0064 274.452 47.3342C275.727 46.6388 277.176 46.2911 278.798 46.2911ZM322.825 40.3804V64.7185H320.704L305.058 44.9699V64.7185H302.485V40.3804H304.606L320.287 60.129V40.3804H322.825ZM339.565 46.2911C341.86 46.2911 343.679 46.9633 345.024 48.3077C346.391 49.6289 347.075 51.5644 347.075 54.1141V64.7185H344.607V54.3574C344.607 52.4568 344.131 51.0081 343.181 50.0114C342.231 49.0147 340.875 48.5163 339.113 48.5163C337.143 48.5163 335.578 49.1074 334.419 50.2895C333.284 51.4485 332.716 53.0594 332.716 55.1224V64.7185H330.247V46.4302H332.611V49.8027C333.284 48.6902 334.211 47.8325 335.393 47.2299C336.598 46.604 337.989 46.2911 339.565 46.2911ZM14.6028 102.927C12.1922 102.927 10.0018 102.394 8.03156 101.328C6.08452 100.238 4.55469 98.7549 3.4421 96.8774C2.35268 94.9999 1.80797 92.8906 1.80797 90.5495C1.80797 88.2084 2.35268 86.0991 3.4421 84.2216C4.55469 82.3441 6.08452 80.8722 8.03156 79.806C10.0018 78.7165 12.1922 78.1718 14.6028 78.1718C17.0135 78.1718 19.1807 78.7049 21.1046 79.7712C23.0516 80.8374 24.5814 82.3209 25.694 84.2216C26.8066 86.0991 27.3629 88.2084 27.3629 90.5495C27.3629 92.8906 26.8066 95.0115 25.694 96.9121C24.5814 98.7896 23.0516 100.262 21.1046 101.328C19.1807 102.394 17.0135 102.927 14.6028 102.927ZM14.6028 100.632C16.5267 100.632 18.2651 100.204 19.8181 99.3459C21.3711 98.4651 22.588 97.2598 23.4688 95.73C24.3497 94.177 24.7901 92.4502 24.7901 90.5495C24.7901 88.6488 24.3497 86.9335 23.4688 85.4037C22.588 83.8507 21.3711 82.6454 19.8181 81.7878C18.2651 80.907 16.5267 80.4666 14.6028 80.4666C12.679 80.4666 10.9289 80.907 9.35277 81.7878C7.79977 82.6454 6.57128 83.8507 5.66729 85.4037C4.78649 86.9335 4.34608 88.6488 4.34608 90.5495C4.34608 92.4502 4.78649 94.177 5.66729 95.73C6.57128 97.2598 7.79977 98.4651 9.35277 99.3459C10.9289 100.204 12.679 100.632 14.6028 100.632ZM40.0836 102.892C38.322 102.892 36.7343 102.498 35.3203 101.71C33.9064 100.899 32.7938 99.7863 31.9825 98.3724C31.1713 96.9585 30.7656 95.3591 30.7656 93.5743C30.7656 91.7896 31.1713 90.1902 31.9825 88.7763C32.7938 87.3623 33.9064 86.2613 35.3203 85.4732C36.7343 84.6852 38.322 84.2911 40.0836 84.2911C41.8453 84.2911 43.433 84.6852 44.847 85.4732C46.2609 86.2613 47.3619 87.3623 48.15 88.7763C48.9612 90.1902 49.3669 91.7896 49.3669 93.5743C49.3669 95.3591 48.9612 96.9585 48.15 98.3724C47.3619 99.7863 46.2609 100.899 44.847 101.71C43.433 102.498 41.8453 102.892 40.0836 102.892ZM40.0836 100.702C41.3817 100.702 42.5406 100.412 43.5605 99.8327C44.6036 99.23 45.4148 98.384 45.9943 97.2946C46.5738 96.2052 46.8635 94.9651 46.8635 93.5743C46.8635 92.1836 46.5738 90.9435 45.9943 89.8541C45.4148 88.7647 44.6036 87.9302 43.5605 87.3508C42.5406 86.7481 41.3817 86.4468 40.0836 86.4468C38.7856 86.4468 37.6151 86.7481 36.572 87.3508C35.5521 87.9302 34.7409 88.7647 34.1382 89.8541C33.5587 90.9435 33.269 92.1836 33.269 93.5743C33.269 94.9651 33.5587 96.2052 34.1382 97.2946C34.7409 98.384 35.5521 99.23 36.572 99.8327C37.6151 100.412 38.7856 100.702 40.0836 100.702ZM73.1372 78.3804C76.2432 78.3804 78.677 79.1222 80.4387 80.6056C82.2003 82.0891 83.0811 84.1289 83.0811 86.7249C83.0811 89.321 82.2003 91.3607 80.4387 92.8442C78.677 94.3045 76.2432 95.0346 73.1372 95.0346H66.6007V102.719H64.0278V78.3804H73.1372ZM73.0677 92.7747C75.4783 92.7747 77.3211 92.2531 78.5959 91.2101C79.8708 90.1438 80.5082 88.6488 80.5082 86.7249C80.5082 84.7547 79.8708 83.2481 78.5959 82.205C77.3211 81.1388 75.4783 80.6056 73.0677 80.6056H66.6007V92.7747H73.0677ZM97.0698 84.2911C98.785 84.2911 100.338 84.6852 101.729 85.4732C103.12 86.2382 104.209 87.3276 104.997 88.7415C105.785 90.1554 106.179 91.7664 106.179 93.5743C106.179 95.4055 105.785 97.028 104.997 98.442C104.209 99.8559 103.12 100.957 101.729 101.745C100.361 102.51 98.8082 102.892 97.0698 102.892C95.5863 102.892 94.2419 102.591 93.0366 101.988C91.8545 101.363 90.8809 100.459 90.116 99.2764V109.464H87.6475V84.4302H90.0117V88.0461C90.7535 86.8408 91.727 85.9137 92.9323 85.2646C94.1608 84.6156 95.5399 84.2911 97.0698 84.2911ZM96.8959 100.702C98.1708 100.702 99.3297 100.412 100.373 99.8327C101.416 99.23 102.227 98.384 102.807 97.2946C103.409 96.2052 103.711 94.9651 103.711 93.5743C103.711 92.1836 103.409 90.9551 102.807 89.8889C102.227 88.7995 101.416 87.9534 100.373 87.3508C99.3297 86.7481 98.1708 86.4468 96.8959 86.4468C95.5979 86.4468 94.4273 86.7481 93.3843 87.3508C92.3644 87.9534 91.5531 88.7995 90.9505 89.8889C90.371 90.9551 90.0813 92.1836 90.0813 93.5743C90.0813 94.9651 90.371 96.2052 90.9505 97.2946C91.5531 98.384 92.3644 99.23 93.3843 99.8327C94.4273 100.412 95.5979 100.702 96.8959 100.702ZM145.344 104.77C144.603 105.674 143.722 106.358 142.702 106.821C141.705 107.308 140.616 107.551 139.434 107.551C137.997 107.551 136.629 107.192 135.331 106.474C134.056 105.778 132.619 104.596 131.02 102.927C128.679 102.858 126.569 102.278 124.692 101.189C122.814 100.099 121.342 98.6274 120.276 96.7731C119.21 94.9187 118.677 92.8442 118.677 90.5495C118.677 88.2084 119.222 86.0991 120.311 84.2216C121.424 82.3441 122.953 80.8722 124.9 79.806C126.871 78.7165 129.061 78.1718 131.472 78.1718C133.882 78.1718 136.05 78.7049 137.973 79.7712C139.921 80.8374 141.45 82.3209 142.563 84.2216C143.676 86.0991 144.232 88.2084 144.232 90.5495C144.232 92.5892 143.803 94.4667 142.945 96.182C142.111 97.8741 140.929 99.288 139.399 100.424C137.892 101.56 136.154 102.313 134.184 102.684C135.968 104.561 137.73 105.5 139.469 105.5C141.276 105.5 142.818 104.758 144.093 103.275L145.344 104.77ZM121.215 90.5495C121.215 92.4502 121.655 94.1654 122.536 95.6952C123.44 97.2251 124.669 98.4304 126.222 99.3112C127.798 100.192 129.548 100.632 131.472 100.632C133.396 100.632 135.134 100.192 136.687 99.3112C138.24 98.4304 139.457 97.2251 140.338 95.6952C141.219 94.1654 141.659 92.4502 141.659 90.5495C141.659 88.6488 141.219 86.9335 140.338 85.4037C139.457 83.8739 138.24 82.6686 136.687 81.7878C135.134 80.907 133.396 80.4666 131.472 80.4666C129.548 80.4666 127.798 80.907 126.222 81.7878C124.669 82.6686 123.44 83.8739 122.536 85.4037C121.655 86.9335 121.215 88.6488 121.215 90.5495ZM166.166 84.4302V109.464H163.698V99.2764C162.933 100.459 161.948 101.363 160.742 101.988C159.56 102.591 158.227 102.892 156.744 102.892C155.005 102.892 153.441 102.51 152.05 101.745C150.683 100.957 149.605 99.8559 148.817 98.442C148.029 97.028 147.635 95.4055 147.635 93.5743C147.635 91.7664 148.029 90.1554 148.817 88.7415C149.605 87.3276 150.694 86.2382 152.085 85.4732C153.476 84.6852 155.029 84.2911 156.744 84.2911C158.274 84.2911 159.641 84.6156 160.847 85.2646C162.075 85.9137 163.06 86.8408 163.802 88.0461V84.4302H166.166ZM156.953 100.702C158.227 100.702 159.375 100.412 160.395 99.8327C161.438 99.23 162.249 98.384 162.828 97.2946C163.431 96.2052 163.732 94.9651 163.732 93.5743C163.732 92.1836 163.431 90.9551 162.828 89.8889C162.249 88.7995 161.438 87.9534 160.395 87.3508C159.375 86.7481 158.227 86.4468 156.953 86.4468C155.655 86.4468 154.484 86.7481 153.441 87.3508C152.421 87.9534 151.61 88.7995 151.007 89.8889C150.428 90.9551 150.138 92.1836 150.138 93.5743C150.138 94.9651 150.428 96.2052 151.007 97.2946C151.61 98.384 152.421 99.23 153.441 99.8327C154.484 100.412 155.655 100.702 156.953 100.702ZM199.282 102.719L193.719 94.8956C193.093 94.9651 192.444 94.9999 191.772 94.9999H185.235V102.719H182.662V78.3804H191.772C194.878 78.3804 197.312 79.1222 199.073 80.6056C200.835 82.0891 201.716 84.1289 201.716 86.7249C201.716 88.6256 201.229 90.2366 200.255 91.5578C199.305 92.8558 197.937 93.7945 196.153 94.374L202.098 102.719H199.282ZM191.702 92.8094C194.113 92.8094 195.956 92.2763 197.23 91.2101C198.505 90.1438 199.143 88.6488 199.143 86.7249C199.143 84.7547 198.505 83.2481 197.23 82.205C195.956 81.1388 194.113 80.6056 191.702 80.6056H185.235V92.8094H191.702ZM209.631 88.0114C210.21 86.7829 211.068 85.8557 212.204 85.2299C213.363 84.604 214.788 84.2911 216.48 84.2911V86.6902L215.889 86.6554C213.965 86.6554 212.459 87.2465 211.369 88.4286C210.28 89.6107 209.735 91.268 209.735 93.4005V102.719H207.267V84.4302H209.631V88.0114ZM237.553 102.927C235.745 102.927 234.007 102.637 232.338 102.058C230.692 101.478 229.417 100.714 228.513 99.7632L229.522 97.7814C230.402 98.6622 231.573 99.3807 233.033 99.937C234.493 100.47 236 100.737 237.553 100.737C239.732 100.737 241.366 100.343 242.455 99.5546C243.545 98.7433 244.09 97.7002 244.09 96.4254C244.09 95.4519 243.788 94.6754 243.186 94.0959C242.606 93.5164 241.888 93.076 241.03 92.7747C240.172 92.4502 238.979 92.1025 237.449 91.7316C235.618 91.268 234.157 90.8276 233.068 90.4104C231.978 89.97 231.04 89.3094 230.252 88.4286C229.487 87.5478 229.104 86.3541 229.104 84.8474C229.104 83.6189 229.429 82.5063 230.078 81.5096C230.727 80.4897 231.724 79.6785 233.068 79.0758C234.412 78.4732 236.081 78.1718 238.075 78.1718C239.465 78.1718 240.821 78.3689 242.143 78.7629C243.487 79.1338 244.646 79.6553 245.619 80.3275L244.75 82.3788C243.73 81.7066 242.641 81.2083 241.482 80.8838C240.323 80.5361 239.187 80.3623 238.075 80.3623C235.942 80.3623 234.331 80.7795 233.242 81.6139C232.176 82.4252 231.642 83.4798 231.642 84.7779C231.642 85.7514 231.932 86.5395 232.512 87.1421C233.114 87.7216 233.856 88.1736 234.737 88.4981C235.641 88.7995 236.846 89.1355 238.353 89.5064C240.138 89.9468 241.575 90.3872 242.664 90.8276C243.777 91.2448 244.715 91.8939 245.48 92.7747C246.245 93.6323 246.628 94.8028 246.628 96.2863C246.628 97.5148 246.292 98.639 245.619 99.6589C244.97 100.656 243.962 101.455 242.595 102.058C241.227 102.637 239.546 102.927 237.553 102.927ZM256.614 102.892C255.131 102.892 253.705 102.684 252.338 102.267C250.994 101.826 249.939 101.281 249.174 100.632L250.287 98.6853C251.051 99.288 252.013 99.7863 253.172 100.18C254.331 100.551 255.537 100.737 256.788 100.737C258.457 100.737 259.686 100.482 260.474 99.9718C261.285 99.4387 261.691 98.6969 261.691 97.7466C261.691 97.0744 261.47 96.5529 261.03 96.182C260.59 95.788 260.033 95.4982 259.361 95.3128C258.689 95.1042 257.797 94.9071 256.684 94.7217C255.201 94.4436 254.007 94.1654 253.103 93.8873C252.199 93.5859 251.422 93.0876 250.773 92.3922C250.147 91.6968 249.835 90.7349 249.835 89.5064C249.835 87.9766 250.472 86.7249 251.747 85.7514C253.022 84.7779 254.795 84.2911 257.066 84.2911C258.249 84.2911 259.431 84.4534 260.613 84.7779C261.795 85.0792 262.769 85.4848 263.533 85.9948L262.456 87.9766C260.949 86.9335 259.153 86.412 257.066 86.412C255.49 86.412 254.297 86.6902 253.485 87.2465C252.697 87.8027 252.303 88.5329 252.303 89.4369C252.303 90.1322 252.523 90.6885 252.964 91.1058C253.427 91.523 253.995 91.8359 254.667 92.0445C255.34 92.23 256.267 92.427 257.449 92.6356C258.909 92.9137 260.08 93.1919 260.961 93.47C261.841 93.7482 262.595 94.2234 263.22 94.8956C263.846 95.5678 264.159 96.4949 264.159 97.677C264.159 99.2764 263.487 100.551 262.143 101.502C260.821 102.429 258.979 102.892 256.614 102.892ZM283.073 80.6056H274.52V78.3804H294.199V80.6056H285.645V102.719H283.073V80.6056ZM307.486 101.606C307.023 102.023 306.443 102.348 305.748 102.579C305.076 102.788 304.369 102.892 303.627 102.892C301.912 102.892 300.59 102.429 299.663 101.502C298.736 100.574 298.272 99.2648 298.272 97.5727V86.5163H295.004V84.4302H298.272V80.4318H300.741V84.4302H306.304V86.5163H300.741V97.4337C300.741 98.5231 301.008 99.3575 301.541 99.937C302.097 100.493 302.885 100.771 303.905 100.771C304.415 100.771 304.902 100.69 305.365 100.528C305.852 100.366 306.269 100.134 306.617 99.8327L307.486 101.606ZM331.406 102.927C328.254 102.927 325.797 102.023 324.035 100.215C322.273 98.4072 321.393 95.7764 321.393 92.3227V78.3804H323.965V92.2184C323.965 95.0462 324.603 97.1555 325.878 98.5463C327.153 99.937 328.995 100.632 331.406 100.632C333.84 100.632 335.694 99.937 336.969 98.5463C338.244 97.1555 338.881 95.0462 338.881 92.2184V78.3804H341.385V92.3227C341.385 95.7764 340.504 98.4072 338.742 100.215C337.004 102.023 334.558 102.927 331.406 102.927ZM365.096 84.4302V102.719H362.732V99.3807C362.083 100.493 361.191 101.363 360.055 101.988C358.919 102.591 357.621 102.892 356.161 102.892C353.773 102.892 351.884 102.232 350.494 100.911C349.126 99.5661 348.442 97.6075 348.442 95.0346V84.4302H350.911V94.7913C350.911 96.7151 351.386 98.1754 352.336 99.1721C353.287 100.169 354.643 100.667 356.404 100.667C358.328 100.667 359.846 100.088 360.959 98.9287C362.072 97.7466 362.628 96.1125 362.628 94.0263V84.4302H365.096ZM24.199 116.38L13.4207 140.719H10.8826L0.104306 116.38H2.8858L12.2038 137.52L21.5913 116.38H24.199ZM42.5435 122.43L34.4077 140.719H31.8696L23.7685 122.43H26.3413L33.1908 138.007L40.1097 122.43H42.5435ZM89.054 116.38L80.8485 140.719H78.1366L71.009 119.962L63.8467 140.719H61.1695L52.9641 116.38H55.6065L62.6298 137.311L69.8964 116.38H72.2955L79.4578 137.415L86.5854 116.38H89.054ZM120.057 122.43L113.138 140.719H110.809L105.037 125.733L99.2656 140.719H96.9361L90.0519 122.43H92.4162L98.153 137.972L104.029 122.43H106.15L111.991 137.972L117.797 122.43H120.057ZM148.659 140.719L140.801 130.01L132.978 140.719H130.023L139.271 128.202L130.614 116.38H133.569L140.905 126.324L148.207 116.38H150.988L142.366 128.132L151.649 140.719H148.659ZM166.116 140.719L160.31 133.069L154.468 140.719H151.687L158.919 131.331L152.035 122.43H154.816L160.31 129.593L165.803 122.43H168.515L161.631 131.331L168.932 140.719H166.116ZM191.007 132.304V140.719H188.469V132.304L178.733 116.38H181.48L189.825 130.045L198.169 116.38H200.742L191.007 132.304ZM218.152 122.43L209.008 142.909C208.267 144.624 207.409 145.841 206.435 146.56C205.462 147.278 204.291 147.637 202.924 147.637C202.043 147.637 201.22 147.498 200.455 147.22C199.69 146.942 199.03 146.525 198.473 145.969L199.621 144.126C200.548 145.053 201.661 145.517 202.959 145.517C203.793 145.517 204.5 145.285 205.079 144.821C205.682 144.358 206.238 143.57 206.748 142.457L207.548 140.684L199.377 122.43H201.95L208.834 137.972L215.719 122.43H218.152ZM248.808 138.493V140.719H228.851V138.945L244.984 118.606H229.095V116.38H248.391V118.154L232.293 138.493H248.808ZM266.275 138.667V140.719H251.394V139.084L262.902 124.516H251.603V122.43H266.066V124.064L254.558 138.667H266.275ZM8.55309 154.38V178.719H6.04975V156.606H0.312918V154.38H8.55309ZM30.9903 176.493V178.719H13.9189V176.945L24.0366 167.036C25.3114 165.785 26.169 164.707 26.6094 163.803C27.073 162.876 27.3048 161.948 27.3048 161.021C27.3048 159.584 26.8065 158.472 25.8098 157.683C24.8362 156.872 23.4339 156.467 21.6027 156.467C18.7517 156.467 16.5381 157.371 14.9619 159.179L13.1887 157.649C14.1391 156.536 15.3444 155.678 16.8047 155.076C18.2881 154.473 19.957 154.172 21.8114 154.172C24.2915 154.172 26.2502 154.763 27.6873 155.945C29.1475 157.104 29.8777 158.703 29.8777 160.743C29.8777 161.995 29.5995 163.2 29.0432 164.359C28.4869 165.518 27.4323 166.851 25.8793 168.357L17.6044 176.493H30.9903ZM42.4069 164.811C44.9566 164.95 46.8921 165.645 48.2133 166.897C49.5577 168.126 50.2299 169.737 50.2299 171.73C50.2299 173.121 49.8938 174.361 49.2216 175.45C48.5494 176.516 47.5527 177.363 46.2315 177.988C44.9102 178.614 43.2993 178.927 41.3986 178.927C39.637 178.927 37.9681 178.649 36.3919 178.093C34.8389 177.513 33.5873 176.748 32.6369 175.798L33.8538 173.816C34.6651 174.651 35.7429 175.334 37.0873 175.867C38.4317 176.377 39.8688 176.632 41.3986 176.632C43.392 176.632 44.9334 176.204 46.0228 175.346C47.1123 174.465 47.657 173.26 47.657 171.73C47.657 170.223 47.1123 169.041 46.0228 168.184C44.9334 167.326 43.2877 166.897 41.0857 166.897H39.3473V165.054L46.0924 156.606H33.6452V154.38H49.2911V156.154L42.4069 164.811ZM74.4446 172.321H69.577V178.719H67.0736V172.321H53.34V170.513L66.2392 154.38H69.0207L56.5735 170.096H67.1432V164.463H69.577V170.096H74.4446V172.321ZM83.0056 164.359C86.5288 164.359 89.0901 164.996 90.6894 166.271C92.312 167.523 93.1232 169.285 93.1232 171.556C93.1232 172.97 92.7871 174.233 92.1149 175.346C91.4659 176.459 90.4808 177.339 89.1596 177.988C87.8384 178.614 86.2159 178.927 84.292 178.927C82.5536 178.927 80.8963 178.649 79.3201 178.093C77.7671 177.513 76.5154 176.748 75.5651 175.798L76.782 173.816C77.5932 174.651 78.6595 175.334 79.9807 175.867C81.3019 176.377 82.7274 176.632 84.2572 176.632C86.2738 176.632 87.8268 176.18 88.9162 175.276C90.0288 174.372 90.5851 173.167 90.5851 171.66C90.5851 169.992 89.9593 168.728 88.7076 167.871C87.4791 167.013 85.393 166.584 82.4493 166.584H77.2687L78.5204 154.38H91.8368V156.606H80.7108L79.8764 164.359H83.0056ZM106.384 164.15C107.984 164.15 109.398 164.452 110.626 165.054C111.878 165.657 112.851 166.515 113.547 167.627C114.242 168.717 114.59 169.992 114.59 171.452C114.59 172.935 114.23 174.245 113.512 175.381C112.793 176.516 111.797 177.397 110.522 178.023C109.27 178.626 107.856 178.927 106.28 178.927C103.058 178.927 100.589 177.872 98.8742 175.763C97.1589 173.631 96.3013 170.629 96.3013 166.758C96.3013 164.046 96.7649 161.751 97.6921 159.874C98.6192 157.996 99.9173 156.582 101.586 155.632C103.255 154.659 105.202 154.172 107.427 154.172C109.838 154.172 111.762 154.612 113.199 155.493L112.191 157.51C111.032 156.745 109.455 156.362 107.462 156.362C104.773 156.362 102.664 157.22 101.134 158.935C99.6043 160.627 98.8394 163.096 98.8394 166.341C98.8394 166.92 98.8742 167.581 98.9437 168.323C99.5464 167.001 100.508 165.982 101.83 165.263C103.151 164.521 104.669 164.15 106.384 164.15ZM106.176 176.806C107.937 176.806 109.363 176.331 110.452 175.381C111.565 174.407 112.121 173.121 112.121 171.521C112.121 169.922 111.565 168.647 110.452 167.697C109.363 166.746 107.879 166.271 106.002 166.271C104.773 166.271 103.684 166.503 102.734 166.967C101.806 167.43 101.076 168.068 100.543 168.879C100.01 169.69 99.7434 170.594 99.7434 171.591C99.7434 172.518 99.9868 173.376 100.474 174.164C100.983 174.952 101.725 175.589 102.699 176.076C103.672 176.563 104.831 176.806 106.176 176.806ZM134.393 154.38V156.154L124.205 178.719H121.493L131.507 156.606H118.99V161.16H116.521V154.38H134.393ZM150.988 165.958C152.518 166.468 153.688 167.233 154.5 168.253C155.334 169.273 155.751 170.502 155.751 171.939C155.751 173.353 155.369 174.593 154.604 175.659C153.839 176.702 152.738 177.513 151.301 178.093C149.887 178.649 148.218 178.927 146.294 178.927C143.374 178.927 141.079 178.301 139.41 177.05C137.741 175.798 136.907 174.094 136.907 171.939C136.907 170.478 137.301 169.25 138.089 168.253C138.9 167.233 140.071 166.468 141.601 165.958C140.349 165.472 139.399 164.776 138.75 163.872C138.1 162.945 137.776 161.856 137.776 160.604C137.776 158.634 138.541 157.069 140.071 155.91C141.624 154.751 143.698 154.172 146.294 154.172C148.01 154.172 149.505 154.438 150.779 154.972C152.077 155.481 153.086 156.223 153.804 157.197C154.523 158.17 154.882 159.306 154.882 160.604C154.882 161.856 154.546 162.945 153.874 163.872C153.202 164.776 152.24 165.472 150.988 165.958ZM140.279 160.674C140.279 162.018 140.812 163.084 141.879 163.872C142.945 164.66 144.417 165.054 146.294 165.054C148.172 165.054 149.644 164.66 150.71 163.872C151.799 163.084 152.344 162.03 152.344 160.708C152.344 159.341 151.788 158.263 150.675 157.475C149.586 156.687 148.125 156.293 146.294 156.293C144.44 156.293 142.968 156.687 141.879 157.475C140.812 158.263 140.279 159.329 140.279 160.674ZM146.294 176.806C148.45 176.806 150.13 176.366 151.336 175.485C152.564 174.604 153.178 173.41 153.178 171.904C153.178 170.397 152.564 169.215 151.336 168.357C150.13 167.477 148.45 167.036 146.294 167.036C144.162 167.036 142.481 167.477 141.253 168.357C140.048 169.215 139.445 170.397 139.445 171.904C139.445 173.434 140.048 174.639 141.253 175.52C142.458 176.377 144.139 176.806 146.294 176.806ZM166.797 154.172C170.019 154.172 172.488 155.238 174.203 157.371C175.918 159.48 176.776 162.47 176.776 166.341C176.776 169.053 176.312 171.348 175.385 173.225C174.458 175.103 173.16 176.528 171.491 177.502C169.822 178.452 167.875 178.927 165.65 178.927C163.239 178.927 161.315 178.487 159.878 177.606L160.887 175.589C162.046 176.354 163.622 176.737 165.615 176.737C168.304 176.737 170.413 175.891 171.943 174.199C173.473 172.483 174.238 170.003 174.238 166.758C174.238 166.155 174.203 165.495 174.133 164.776C173.531 166.097 172.569 167.129 171.248 167.871C169.926 168.589 168.408 168.949 166.693 168.949C165.094 168.949 163.668 168.647 162.416 168.045C161.188 167.442 160.226 166.596 159.531 165.506C158.835 164.394 158.488 163.107 158.488 161.647C158.488 160.164 158.847 158.854 159.565 157.718C160.284 156.582 161.269 155.713 162.521 155.111C163.796 154.485 165.221 154.172 166.797 154.172ZM167.075 166.828C168.304 166.828 169.382 166.596 170.309 166.132C171.259 165.669 172.001 165.031 172.534 164.22C173.067 163.409 173.334 162.505 173.334 161.508C173.334 160.581 173.079 159.723 172.569 158.935C172.082 158.147 171.352 157.51 170.378 157.023C169.405 156.536 168.246 156.293 166.902 156.293C165.14 156.293 163.703 156.779 162.59 157.753C161.501 158.703 160.956 159.978 160.956 161.578C160.956 163.177 161.501 164.452 162.59 165.402C163.703 166.352 165.198 166.828 167.075 166.828ZM190.105 178.927C188.228 178.927 186.547 178.429 185.064 177.432C183.604 176.435 182.456 175.01 181.622 173.156C180.81 171.278 180.405 169.076 180.405 166.549C180.405 164.023 180.81 161.833 181.622 159.978C182.456 158.101 183.604 156.664 185.064 155.667C186.547 154.67 188.228 154.172 190.105 154.172C191.983 154.172 193.652 154.67 195.112 155.667C196.595 156.664 197.754 158.101 198.589 159.978C199.423 161.833 199.84 164.023 199.84 166.549C199.84 169.076 199.423 171.278 198.589 173.156C197.754 175.01 196.595 176.435 195.112 177.432C193.652 178.429 191.983 178.927 190.105 178.927ZM190.105 176.632C191.519 176.632 192.759 176.238 193.826 175.45C194.915 174.662 195.761 173.515 196.364 172.008C196.966 170.502 197.268 168.682 197.268 166.549C197.268 164.417 196.966 162.597 196.364 161.091C195.761 159.584 194.915 158.437 193.826 157.649C192.759 156.861 191.519 156.467 190.105 156.467C188.691 156.467 187.44 156.861 186.35 157.649C185.284 158.437 184.45 159.584 183.847 161.091C183.244 162.597 182.943 164.417 182.943 166.549C182.943 168.682 183.244 170.502 183.847 172.008C184.45 173.515 185.284 174.662 186.35 175.45C187.44 176.238 188.691 176.632 190.105 176.632ZM214.403 178.892C213.893 178.892 213.452 178.707 213.081 178.336C212.734 177.965 212.56 177.513 212.56 176.98C212.56 176.447 212.734 176.007 213.081 175.659C213.452 175.288 213.893 175.103 214.403 175.103C214.913 175.103 215.353 175.288 215.724 175.659C216.095 176.007 216.28 176.447 216.28 176.98C216.28 177.513 216.095 177.965 215.724 178.336C215.353 178.707 214.913 178.892 214.403 178.892ZM224.456 171.417C224.456 170.467 224.607 169.632 224.908 168.914C225.233 168.195 225.627 167.581 226.09 167.071C226.554 166.561 227.157 165.982 227.898 165.333C228.895 164.452 229.625 163.687 230.089 163.038C230.575 162.366 230.819 161.554 230.819 160.604C230.819 159.329 230.32 158.309 229.324 157.544C228.327 156.756 226.96 156.362 225.221 156.362C222.347 156.362 220.133 157.301 218.58 159.179L216.738 157.788C218.708 155.377 221.594 154.172 225.395 154.172C227.829 154.172 229.764 154.717 231.201 155.806C232.662 156.895 233.392 158.367 233.392 160.222C233.392 161.172 233.229 162.018 232.905 162.76C232.604 163.478 232.221 164.092 231.758 164.602C231.317 165.112 230.726 165.703 229.984 166.376C228.988 167.28 228.246 168.091 227.759 168.809C227.272 169.505 227.029 170.374 227.029 171.417H224.456ZM225.743 178.892C225.233 178.892 224.804 178.719 224.456 178.371C224.108 178 223.935 177.571 223.935 177.084C223.935 176.574 224.108 176.157 224.456 175.833C224.804 175.485 225.233 175.311 225.743 175.311C226.276 175.311 226.716 175.485 227.064 175.833C227.411 176.157 227.585 176.574 227.585 177.084C227.585 177.571 227.4 178 227.029 178.371C226.681 178.719 226.253 178.892 225.743 178.892ZM238.801 154.38H241.721L241.2 171.417H239.287L238.801 154.38ZM240.261 178.892C239.751 178.892 239.311 178.719 238.94 178.371C238.592 178 238.418 177.571 238.418 177.084C238.418 176.574 238.592 176.157 238.94 175.833C239.287 175.485 239.728 175.311 240.261 175.311C240.771 175.311 241.2 175.485 241.547 175.833C241.895 176.157 242.069 176.574 242.069 177.084C242.069 177.571 241.895 178 241.547 178.371C241.2 178.719 240.771 178.892 240.261 178.892ZM266.155 179.101L262.783 175.624C260.72 177.826 258.008 178.927 254.647 178.927C253.071 178.927 251.657 178.672 250.405 178.162C249.177 177.629 248.215 176.899 247.519 175.972C246.824 175.021 246.476 173.944 246.476 172.738C246.476 171.278 246.94 169.968 247.867 168.809C248.794 167.65 250.37 166.434 252.596 165.159C251.437 163.953 250.637 162.934 250.197 162.099C249.756 161.241 249.536 160.337 249.536 159.387C249.536 157.834 250.092 156.582 251.205 155.632C252.318 154.682 253.813 154.207 255.69 154.207C257.429 154.207 258.808 154.635 259.828 155.493C260.847 156.351 261.357 157.533 261.357 159.039C261.357 160.245 260.952 161.334 260.14 162.308C259.329 163.258 257.927 164.313 255.933 165.472L262.609 172.356C263.351 171.035 263.895 169.47 264.243 167.662L266.26 168.288C265.819 170.467 265.101 172.333 264.104 173.886L267.581 177.467L266.155 179.101ZM255.69 156.049C254.485 156.049 253.534 156.351 252.839 156.953C252.167 157.556 251.831 158.356 251.831 159.352C251.831 160.071 252.016 160.755 252.387 161.404C252.758 162.053 253.488 162.934 254.577 164.046C256.339 163.026 257.556 162.157 258.228 161.438C258.9 160.72 259.236 159.932 259.236 159.074C259.236 158.147 258.924 157.417 258.298 156.884C257.672 156.327 256.803 156.049 255.69 156.049ZM254.786 176.876C257.475 176.876 259.654 175.96 261.323 174.129L253.986 166.584C252.063 167.674 250.73 168.659 249.988 169.54C249.269 170.42 248.91 171.405 248.91 172.495C248.91 173.816 249.443 174.882 250.51 175.694C251.599 176.482 253.024 176.876 254.786 176.876ZM275.68 185.464C274.382 183.331 273.385 180.886 272.69 178.127C271.995 175.346 271.647 172.367 271.647 169.192C271.647 166.016 271.995 163.038 272.69 160.256C273.385 157.452 274.382 155.006 275.68 152.92H278.044C276.677 155.261 275.669 157.776 275.02 160.465C274.394 163.154 274.081 166.063 274.081 169.192C274.081 172.321 274.394 175.23 275.02 177.919C275.669 180.608 276.677 183.123 278.044 185.464H275.68ZM280.864 185.464C282.232 183.123 283.24 180.619 283.889 177.954C284.538 175.265 284.863 172.344 284.863 169.192C284.863 166.04 284.538 163.131 283.889 160.465C283.24 157.776 282.232 155.261 280.864 152.92H283.228C284.527 155.006 285.523 157.452 286.219 160.256C286.937 163.038 287.296 166.016 287.296 169.192C287.296 172.367 286.949 175.346 286.253 178.127C285.558 180.909 284.55 183.354 283.228 185.464H280.864Z" fill="black"/>
</svg>
