<svg width="130" height="106" viewBox="0 0 130 106" fill="none" xmlns="http://www.w3.org/2000/svg">
<path fill-rule="evenodd" clip-rule="evenodd" d="M53 76.9948V106C23.7289 106 0 82.2711 0 53C0 23.7289 23.7289 0 53 0H70V30H53V30.0052C52.8338 30.0017 52.6671 30 52.5 30C39.5213 30 29 40.5213 29 53.5C29 66.4787 39.5213 77 52.5 77C52.6671 77 52.8338 76.9983 53 76.9948Z" fill="#F92D26"/>
<path fill-rule="evenodd" clip-rule="evenodd" d="M107 0H77V53V55H77.037C78.0886 83.3444 101.399 106 130 106V76C117.297 76 107 65.7026 107 53V0Z" fill="#F92D26"/>
</svg>
