<svg width="48" height="48" viewBox="0 0 48 48" fill="none" xmlns="http://www.w3.org/2000/svg">
<circle cx="24" cy="24" r="22.1" fill="white" stroke="#171717" stroke-width="3.8"/>
<path d="M23.8869 19.4863H20.6088V14.3859L23.8869 14.3859V19.4863ZM19.9747 14.3909V19.4983C17.4315 19.6617 15.4193 21.7761 15.4193 24.3606C15.4193 26.945 17.4315 29.0595 19.9747 29.2229L19.9747 34.3303C14.6125 34.1628 10.3171 29.7633 10.3171 24.3606C10.3171 18.9578 14.6125 14.5583 19.9747 14.3909ZM27.3005 24.9631H32.4217C32.7058 27.2667 34.5977 29.0724 36.9402 29.2229L36.9401 34.3303C31.7788 34.1691 27.6058 30.0869 27.3005 24.9631ZM32.3613 24.0435L27.2826 24.0435V14.3859H32.3613V19.3575V24.0435Z" fill="#171717" stroke="#171717" stroke-width="0.634146"/>
</svg>
