<svg width="97" height="96" viewBox="0 0 97 96" fill="none" xmlns="http://www.w3.org/2000/svg">
<path fill-rule="evenodd" clip-rule="evenodd" d="M48.75 91.6987C72.8841 91.6987 92.4487 72.1341 92.4487 48C92.4487 23.8659 72.8841 4.30131 48.75 4.30131C24.6159 4.30131 5.05131 23.8659 5.05131 48C5.05131 72.1341 24.6159 91.6987 48.75 91.6987ZM48.75 96C75.2597 96 96.75 74.5097 96.75 48C96.75 21.4903 75.2597 0 48.75 0C22.2403 0 0.75 21.4903 0.75 48C0.75 74.5097 22.2403 96 48.75 96ZM41.1961 69.305L41.1961 57.8322C36.1644 57.8322 32.0854 53.7532 32.0854 48.7215C32.0854 43.6898 36.1644 39.6108 41.1961 39.6108V39.607H49.0205V28.1381H42.6968V28.1328H40.8545V28.1408C29.6441 28.3232 20.6126 37.4677 20.6126 48.7215C20.6126 60.0894 29.8282 69.305 41.1961 69.305ZM54.5514 49.2925C54.8539 60.3964 63.9501 69.3049 75.1271 69.305L75.1271 57.8322C70.0954 57.8322 66.0164 53.7532 66.0164 48.7215H65.9694V28.1381H54.5438V48.7215H54.5437L54.5438 48.7885V49.2925H54.5514Z" fill="#171717"/>
</svg>
